<!-- Generated by readme-aura https://github.com/collectioneur/readme-aura -->
<svg width="860" height="220" viewBox="0 0 860 220" xmlns="http://www.w3.org/2000/svg"><defs><clipPath id="satori_bc-id"><path x="0" y="0" width="860" height="220" d="M16,0 h828 a16,16 0 0 1 16,16 v188 a16,16 0 0 1 -16,16 h-828 a16,16 0 0 1 -16,-16 v-188 a16,16 0 0 1 16,-16"/></clipPath></defs><clipPath id="satori_cp-id"><path x="0" y="0" width="860" height="220" d="M16,0 h828 a16,16 0 0 1 16,16 v188 a16,16 0 0 1 -16,16 h-828 a16,16 0 0 1 -16,-16 v-188 a16,16 0 0 1 16,-16"/></clipPath><mask id="satori_om-id"><rect x="1" y="1" width="858" height="218" fill="#fff"/><path width="860" height="220" fill="none" stroke="#000" stroke-width="2" d="M4.686,4.686 A16,16 0 0 1 16,0 h828 a16,16 0 0 1 16,16 v188 a16,16 0 0 1 -16,16 h-828 a16,16 0 0 1 -16,-16 v-188 A16,16 0 0 1 4.686,4.686"/></mask><path x="0" y="0" width="860" height="220" fill="#0d0810" d="M16,0 h828 a16,16 0 0 1 16,16 v188 a16,16 0 0 1 -16,16 h-828 a16,16 0 0 1 -16,-16 v-188 a16,16 0 0 1 16,-16"/><path width="860" height="220" clip-path="url(#satori_bc-id)" fill="none" stroke="rgba(68,33,40,0.6)" stroke-width="2" d="M4.686,4.686 A16,16 0 0 1 16,0 h828 a16,16 0 0 1 16,16 v188 a16,16 0 0 1 -16,16 h-828 a16,16 0 0 1 -16,-16 v-188 A16,16 0 0 1 4.686,4.686"/><clipPath id="satori_cp-id-0" clip-path="url(#satori_cp-id)"><rect x="1" y="1" width="860" height="220"/></clipPath><mask id="satori_om-id-0"><rect x="1" y="1" width="860" height="220" fill="#fff" mask="url(#satori_om-id)"/></mask><svg x="1" y="1" width="860" height="220" preserveAspectRatio="none" clip-path="url(#satori_cp-id-0)" mask="url(#satori_om-id-0)"><defs><radialGradient id="hg1" cx="50%" cy="50%" r="50%"><stop offset="0%" stop-color="rgba(90,20,40,0.85)"></stop><stop offset="50%" stop-color="rgba(60,10,25,0.35)"></stop><stop offset="100%" stop-color="rgba(60,10,25,0)"></stop></radialGradient><radialGradient id="hg2" cx="50%" cy="50%" r="50%"><stop offset="0%" stop-color="rgba(140,60,80,0.7)"></stop><stop offset="50%" stop-color="rgba(100,30,55,0.28)"></stop><stop offset="100%" stop-color="rgba(100,30,55,0)"></stop></radialGradient><radialGradient id="hg3" cx="50%" cy="50%" r="50%"><stop offset="0%" stop-color="rgba(180,110,90,0.5)"></stop><stop offset="50%" stop-color="rgba(140,80,60,0.2)"></stop><stop offset="100%" stop-color="rgba(140,80,60,0)"></stop></radialGradient><radialGradient id="hg4" cx="50%" cy="50%" r="50%"><stop offset="0%" stop-color="rgba(60,10,50,0.65)"></stop><stop offset="60%" stop-color="rgba(40,5,35,0.2)"></stop><stop offset="100%" stop-color="rgba(40,5,35,0)"></stop></radialGradient><radialGradient id="hg5" cx="50%" cy="50%" r="50%"><stop offset="0%" stop-color="rgba(110,40,60,0.55)"></stop><stop offset="55%" stop-color="rgba(80,20,40,0.18)"></stop><stop offset="100%" stop-color="rgba(80,20,40,0)"></stop></radialGradient><radialGradient id="hg6" cx="50%" cy="50%" r="50%"><stop offset="0%" stop-color="rgba(217,157,135,0.3)"></stop><stop offset="60%" stop-color="rgba(217,157,135,0.08)"></stop><stop offset="100%" stop-color="rgba(217,157,135,0)"></stop></radialGradient></defs><ellipse id="h1" cx="150" cy="240" rx="280" ry="180" fill="url(#hg1)"></ellipse><ellipse id="h2" cx="350" cy="250" rx="240" ry="160" fill="url(#hg2)"></ellipse><ellipse id="h3" cx="500" cy="245" rx="200" ry="140" fill="url(#hg3)"></ellipse><ellipse id="h4" cx="680" cy="255" rx="170" ry="130" fill="url(#hg4)"></ellipse><ellipse id="h5" cx="420" cy="235" rx="230" ry="170" fill="url(#hg5)"></ellipse><ellipse id="h6" cx="760" cy="200" rx="120" ry="100" fill="url(#hg6)"></ellipse><style>

    @keyframes d1 { 0%,100%{transform:translateX(0);opacity:.85} 50%{transform:translateX(280px);opacity:1} }
    @keyframes d2 { 0%,100%{transform:translateX(0);opacity:.7} 50%{transform:translateX(-220px);opacity:.95} }
    @keyframes d3 { 0%,100%{transform:translateX(0);opacity:.75} 50%{transform:translateX(180px);opacity:.55} }
    @keyframes d4 { 0%,100%{transform:translateX(0);opacity:.8} 50%{transform:translateX(-300px);opacity:1} }
    @keyframes d5 { 0%,100%{transform:translateX(0);opacity:.6} 33%{transform:translateX(-140px);opacity:.9} 66%{transform:translateX(90px);opacity:1} }
    @keyframes pg { 0%,100%{transform:scale(1);opacity:.75} 50%{transform:scale(1.3);opacity:.4} }
    @keyframes tf { 0%,100%{opacity:.9} 50%{opacity:1} }
    #h1{animation:d1 10s ease-in-out infinite} #h2{animation:d2 13s ease-in-out infinite}
    #h3{animation:d3 8s ease-in-out infinite} #h4{animation:d4 15s ease-in-out infinite reverse}
    #h5{animation:d5 11s ease-in-out infinite} #h6{animation:pg 7s ease-in-out infinite}
    #ht{animation:tf 5s ease-in-out infinite}
  
</style>
</svg><mask id="satori_om-id-0-0"><rect x="1" y="1" width="0" height="220" fill="#fff" mask="url(#satori_om-id)"/></mask><mask id="satori_om-id-0-0-0"><rect x="1" y="1" width="0" height="220" fill="#fff" mask="url(#satori_om-id)"/></mask><mask id="satori_om-id-0-0-0-0"><rect x="1" y="1" width="0" height="220" fill="#fff" mask="url(#satori_om-id)"/></mask><mask id="satori_om-id-0-0-0-1"><rect x="1" y="1" width="0" height="220" fill="#fff" mask="url(#satori_om-id)"/></mask><mask id="satori_om-id-0-0-0-2"><rect x="1" y="1" width="0" height="220" fill="#fff" mask="url(#satori_om-id)"/></mask><mask id="satori_om-id-0-0-1"><rect x="1" y="1" width="0" height="220" fill="#fff" mask="url(#satori_om-id)"/></mask><mask id="satori_om-id-0-0-1-0"><rect x="1" y="1" width="0" height="220" fill="#fff" mask="url(#satori_om-id)"/></mask><mask id="satori_om-id-0-0-1-1"><rect x="1" y="1" width="0" height="220" fill="#fff" mask="url(#satori_om-id)"/></mask><mask id="satori_om-id-0-0-1-2"><rect x="1" y="1" width="0" height="220" fill="#fff" mask="url(#satori_om-id)"/></mask><mask id="satori_om-id-0-0-2"><rect x="1" y="1" width="0" height="220" fill="#fff" mask="url(#satori_om-id)"/></mask><mask id="satori_om-id-0-0-2-0"><rect x="1" y="1" width="0" height="220" fill="#fff" mask="url(#satori_om-id)"/></mask><mask id="satori_om-id-0-0-2-1"><rect x="1" y="1" width="0" height="220" fill="#fff" mask="url(#satori_om-id)"/></mask><mask id="satori_om-id-0-0-2-2"><rect x="1" y="1" width="0" height="220" fill="#fff" mask="url(#satori_om-id)"/></mask><mask id="satori_om-id-0-0-3"><rect x="1" y="1" width="0" height="220" fill="#fff" mask="url(#satori_om-id)"/></mask><mask id="satori_om-id-0-0-3-0"><rect x="1" y="1" width="0" height="220" fill="#fff" mask="url(#satori_om-id)"/></mask><mask id="satori_om-id-0-0-3-1"><rect x="1" y="1" width="0" height="220" fill="#fff" mask="url(#satori_om-id)"/></mask><mask id="satori_om-id-0-0-3-2"><rect x="1" y="1" width="0" height="220" fill="#fff" mask="url(#satori_om-id)"/></mask><mask id="satori_om-id-0-0-4"><rect x="1" y="1" width="0" height="220" fill="#fff" mask="url(#satori_om-id)"/></mask><mask id="satori_om-id-0-0-4-0"><rect x="1" y="1" width="0" height="220" fill="#fff" mask="url(#satori_om-id)"/></mask><mask id="satori_om-id-0-0-4-1"><rect x="1" y="1" width="0" height="220" fill="#fff" mask="url(#satori_om-id)"/></mask><mask id="satori_om-id-0-0-4-2"><rect x="1" y="1" width="0" height="220" fill="#fff" mask="url(#satori_om-id)"/></mask><mask id="satori_om-id-0-0-5"><rect x="1" y="1" width="0" height="220" fill="#fff" mask="url(#satori_om-id)"/></mask><mask id="satori_om-id-0-0-5-0"><rect x="1" y="1" width="0" height="220" fill="#fff" mask="url(#satori_om-id)"/></mask><mask id="satori_om-id-0-0-5-1"><rect x="1" y="1" width="0" height="220" fill="#fff" mask="url(#satori_om-id)"/></mask><mask id="satori_om-id-0-0-5-2"><rect x="1" y="1" width="0" height="220" fill="#fff" mask="url(#satori_om-id)"/></mask><mask id="satori_om-id-0-1"><rect x="1" y="1" width="0" height="220" fill="#fff" mask="url(#satori_om-id)"/></mask><mask id="satori_om-id-0-2"><rect x="1" y="1" width="0" height="220" fill="#fff" mask="url(#satori_om-id)"/></mask><mask id="satori_om-id-0-3"><rect x="1" y="1" width="0" height="220" fill="#fff" mask="url(#satori_om-id)"/></mask><mask id="satori_om-id-0-4"><rect x="1" y="1" width="0" height="220" fill="#fff" mask="url(#satori_om-id)"/></mask><mask id="satori_om-id-0-5"><rect x="1" y="1" width="0" height="220" fill="#fff" mask="url(#satori_om-id)"/></mask><mask id="satori_om-id-0-6"><rect x="1" y="1" width="0" height="220" fill="#fff" mask="url(#satori_om-id)"/></mask><mask id="satori_om-id-1"><rect x="196" y="64" width="468" height="92" fill="#fff" mask="url(#satori_om-id)"/></mask><mask id="satori_om-id-1-0"><rect x="281" y="64" width="299" height="38" fill="#fff" mask="url(#satori_om-id)"/></mask><g mask="url(#satori_om-id)" clip-path="url(#satori_cp-id)"><path fill="#d99d87" d="M301.1 97L283.5 97L283.5 69.4L289.2 69.4L289.2 92.3L301.1 92.3L301.1 97ZM314.0 97.3L314.0 97.3Q311.9 97.3 310.2 96.3Q308.6 95.4 307.7 93.6Q306.9 91.9 306.9 89.4L306.9 89.4L306.9 76.3L312.4 76.3L312.4 88.5Q312.4 90.4 313.4 91.5Q314.4 92.6 316.2 92.6L316.2 92.6Q317.4 92.6 318.3 92.1Q319.2 91.6 319.7 90.6Q320.2 89.6 320.2 88.3L320.2 88.3L320.2 76.3L325.8 76.3L325.8 97L320.5 97L320.5 92.7Q319.7 94.7 318.3 95.8L318.3 95.8Q316.6 97.3 314.0 97.3ZM338.1 85.0L338.1 85.0L338.1 97L332.5 97L332.5 76.3L337.8 76.3L337.8 80.5Q338.6 78.6 340.0 77.4L340.0 77.4Q341.7 76.0 344.3 76.0L344.3 76.0Q346.5 76.0 348.1 76.9Q349.7 77.9 350.5 79.6Q351.4 81.4 351.4 83.8L351.4 83.8L351.4 97L345.9 97L345.9 84.8Q345.9 82.8 344.9 81.7Q343.9 80.7 342.1 80.7L342.1 80.7Q340.9 80.7 340.0 81.2Q339.1 81.7 338.6 82.6Q338.1 83.6 338.1 85.0ZM364.0 97.4L364.0 97.4Q362.0 97.4 360.4 96.7Q358.9 96.0 358.0 94.6Q357.1 93.3 357.1 91.2L357.1 91.2Q357.1 89.5 357.7 88.3Q358.3 87.1 359.4 86.4Q360.6 85.7 362.0 85.3Q363.4 85.0 364.9 84.8L364.9 84.8Q366.7 84.6 367.8 84.5Q368.9 84.3 369.4 84.0Q369.9 83.6 369.9 83.0L369.9 83.0L369.9 82.9Q369.9 82.0 369.5 81.4Q369.2 80.8 368.4 80.4Q367.7 80.1 366.7 80.1L366.7 80.1Q365.6 80.1 364.8 80.4Q364.0 80.8 363.5 81.3Q363 81.8 362.8 82.5L362.8 82.5L357.7 81.7Q358.2 79.9 359.4 78.6Q360.7 77.3 362.5 76.7Q364.4 76.0 366.7 76.0L366.7 76.0Q368.4 76.0 369.9 76.4Q371.5 76.8 372.8 77.6Q374.0 78.5 374.8 79.8Q375.5 81.2 375.5 83.0L375.5 83.0L375.5 97L370.2 97L370.2 94.1L370.0 94.1Q369.5 95.1 368.7 95.8Q367.9 96.6 366.7 97.0Q365.5 97.4 364.0 97.4ZM365.5 93.5L365.5 93.5Q366.9 93.5 367.9 93.0Q368.8 92.5 369.4 91.6Q370.0 90.7 370.0 89.6L370.0 89.6L370.0 87.3Q369.7 87.5 369.2 87.7Q368.7 87.8 368.1 87.9Q367.5 88.0 366.9 88.1Q366.3 88.2 365.8 88.3L365.8 88.3Q364.8 88.4 364.0 88.8Q363.3 89.1 362.8 89.6Q362.4 90.2 362.4 91.0L362.4 91.0Q362.4 91.8 362.8 92.4Q363.2 92.9 363.9 93.2Q364.6 93.5 365.5 93.5Z M398.0 97L391.8 97L401.2 69.4L408.6 69.4L418.3 97L412.0 97L409.9 90.6L400.1 90.6L398.0 97ZM401.5 86.1L408.4 86.1L407.6 83.7Q406.8 81.1 406.0 78L406.0 78Q405.4 76.0 404.9 73.8L404.9 73.8Q404.3 76.1 403.8 78.0L403.8 78.0Q403.1 81.1 402.3 83.7L402.3 83.7L401.5 86.1ZM423.6 69.4L429.2 69.4L429.2 97L423.6 97L423.6 69.4ZM441.5 97L435.9 97L435.9 69.4L441.5 69.4L441.5 84.2L441.8 84.2L448.6 76.3L455.0 76.3L447.3 85.3L455.4 97L448.9 97L443.1 88.6L441.5 90.3L441.5 97ZM467.1 97.3L467.1 97.3Q464.9 97.3 463.3 96.3Q461.7 95.4 460.8 93.6Q459.9 91.9 459.9 89.4L459.9 89.4L459.9 76.3L465.5 76.3L465.5 88.5Q465.5 90.4 466.5 91.5Q467.5 92.6 469.3 92.6L469.3 92.6Q470.4 92.6 471.4 92.1Q472.3 91.6 472.8 90.6Q473.3 89.6 473.3 88.3L473.3 88.3L473.3 76.3L478.9 76.3L478.9 97L473.6 97L473.5 92.7Q472.8 94.7 471.4 95.8L471.4 95.8Q469.7 97.3 467.1 97.3ZM492.8 76.3L497.1 76.3L497.1 80.5L492.8 80.5L492.8 97L487.3 97L487.3 80.5L483.6 80.5L483.6 76.3L487.3 76.3L487.3 74.7Q487.3 72.5 488.1 71.0Q489.0 69.5 490.5 68.8Q492.1 68.1 494.0 68.1L494.0 68.1Q495.3 68.1 496.4 68.3Q497.5 68.5 498.0 68.6L498.0 68.6L497.0 72.8Q496.6 72.7 496.2 72.6Q495.7 72.5 495.1 72.5L495.1 72.5Q493.9 72.5 493.3 73.1Q492.8 73.8 492.8 74.8L492.8 74.8L492.8 76.3ZM508.5 97.4L508.5 97.4Q506.5 97.4 505.0 96.7Q503.4 96.0 502.5 94.6Q501.6 93.3 501.6 91.2L501.6 91.2Q501.6 89.5 502.3 88.3Q502.9 87.1 504.0 86.4Q505.1 85.7 506.5 85.3Q507.9 85.0 509.4 84.8L509.4 84.8Q511.2 84.6 512.3 84.5Q513.5 84.3 514.0 84.0Q514.5 83.6 514.5 83.0L514.5 83.0L514.5 82.9Q514.5 82.0 514.1 81.4Q513.7 80.8 513.0 80.4Q512.3 80.1 511.2 80.1L511.2 80.1Q510.1 80.1 509.4 80.4Q508.6 80.8 508.1 81.3Q507.6 81.8 507.3 82.5L507.3 82.5L502.2 81.7Q502.7 79.9 504.0 78.6Q505.2 77.3 507.1 76.7Q508.9 76.0 511.2 76.0L511.2 76.0Q512.9 76.0 514.5 76.4Q516.1 76.8 517.3 77.6Q518.6 78.5 519.3 79.8Q520.0 81.2 520.0 83.0L520.0 83.0L520.0 97L514.8 97L514.8 94.1L514.6 94.1Q514.1 95.1 513.2 95.8Q512.4 96.6 511.2 97.0Q510.1 97.4 508.5 97.4ZM510.1 93.5L510.1 93.5Q511.4 93.5 512.4 93.0Q513.4 92.5 514.0 91.6Q514.5 90.7 514.5 89.6L514.5 89.6L514.5 87.3Q514.3 87.5 513.8 87.7Q513.3 87.8 512.7 87.9Q512.0 88.0 511.4 88.1Q510.9 88.2 510.4 88.3L510.4 88.3Q509.4 88.4 508.6 88.8Q507.8 89.1 507.4 89.6Q507.0 90.2 507.0 91.0L507.0 91.0Q507.0 91.8 507.4 92.4Q507.8 92.9 508.5 93.2Q509.2 93.5 510.1 93.5ZM532.4 97L526.8 97L526.8 76.3L532.4 76.3L532.4 97ZM529.6 73.5L529.6 73.5Q528.3 73.5 527.4 72.7Q526.5 71.9 526.5 70.7L526.5 70.7Q526.5 69.5 527.4 68.7Q528.3 67.8 529.6 67.8L529.6 67.8Q530.8 67.8 531.7 68.7Q532.6 69.5 532.6 70.7L532.6 70.7Q532.6 71.9 531.7 72.7Q530.8 73.5 529.6 73.5ZM544.7 97L539.1 97L539.1 76.3L544.5 76.3L544.5 79.9L544.7 79.9Q545.3 77.9 546.6 77.0Q548.0 76.0 549.7 76.0L549.7 76.0Q550.1 76.0 550.6 76.0Q551.1 76.1 551.5 76.2L551.5 76.2L551.5 81.1Q551.1 81.0 550.4 80.9Q549.7 80.9 549.1 80.9L549.1 80.9Q547.8 80.9 546.8 81.4Q545.8 82.0 545.2 82.9Q544.7 83.9 544.7 85.2L544.7 85.2L544.7 97ZM556.4 104.3L556.4 104.3L557.7 100.2L558.4 100.3Q559.5 100.6 560.4 100.5Q561.2 100.4 561.8 99.8Q562.3 99.2 562.4 98.2L562.4 98.2L562.6 97.1L554.8 76.3L560.7 76.3L564.2 87.0Q564.8 89.1 565.2 91.1L565.2 91.1Q565.3 91.8 565.5 92.5L565.5 92.5Q565.7 91.8 565.8 91.1L565.8 91.1Q566.3 89.0 567.0 87.0L567.0 87.0L570.6 76.3L576.5 76.3L567.7 99.4Q567.0 101.1 566.0 102.3Q565.1 103.6 563.6 104.2Q562.1 104.9 560.0 104.9L560.0 104.9Q558.9 104.9 558.0 104.7Q557.0 104.6 556.4 104.3Z "/></g><mask id="satori_om-id-1-1"><rect x="262" y="112" width="336" height="17" fill="#fff" mask="url(#satori_om-id)"/></mask><g mask="url(#satori_om-id)" clip-path="url(#satori_cp-id)"><path fill="rgba(153,145,137,0.9)" d="M266.5 126.2L266.5 126.2Q265.4 126.2 264.6 125.8Q263.8 125.5 263.3 124.8Q262.9 124.2 262.8 123.3L262.8 123.3L264.1 123.3Q264.2 123.9 264.5 124.3Q264.9 124.7 265.4 124.8Q265.9 125.0 266.5 125.0L266.5 125.0Q267.2 125.0 267.7 124.8Q268.3 124.6 268.6 124.2Q268.9 123.7 268.9 123.2L268.9 123.2Q268.9 122.7 268.6 122.4Q268.4 122.1 267.9 121.9Q267.5 121.7 266.9 121.5L266.9 121.5L265.7 121.2Q264.4 120.9 263.8 120.2Q263.1 119.6 263.1 118.5L263.1 118.5Q263.1 117.7 263.5 117.0Q264.0 116.4 264.8 116.0Q265.6 115.7 266.6 115.7L266.6 115.7Q267.6 115.7 268.4 116.0Q269.1 116.4 269.6 117.0Q270.0 117.6 270.1 118.4L270.1 118.4L268.8 118.4Q268.7 117.6 268.1 117.2Q267.4 116.8 266.5 116.8L266.5 116.8Q265.9 116.8 265.4 117.0Q264.9 117.3 264.6 117.6Q264.3 118.0 264.3 118.5L264.3 118.5Q264.3 119.0 264.7 119.3Q265.0 119.7 265.5 119.8Q265.9 120.0 266.3 120.1L266.3 120.1L267.3 120.4Q267.7 120.5 268.2 120.7Q268.7 120.9 269.2 121.2Q269.6 121.5 269.9 122.0Q270.2 122.5 270.2 123.2L270.2 123.2Q270.2 124.1 269.8 124.7Q269.3 125.4 268.5 125.8Q267.7 126.2 266.5 126.2ZM277.2 126.2L277.2 126.2Q276.1 126.2 275.4 125.7Q274.6 125.2 274.1 124.3Q273.7 123.4 273.7 122.2L273.7 122.2Q273.7 121.0 274.1 120.1Q274.6 119.2 275.4 118.8Q276.1 118.3 277.2 118.3L277.2 118.3Q278.2 118.3 279.0 118.8Q279.8 119.2 280.2 120.1Q280.7 121.0 280.7 122.2L280.7 122.2Q280.7 123.4 280.2 124.3Q279.8 125.2 279.0 125.7Q278.2 126.2 277.2 126.2ZM277.2 125.1L277.2 125.1Q277.9 125.1 278.4 124.7Q278.9 124.3 279.2 123.6Q279.4 123.0 279.4 122.2L279.4 122.2Q279.4 121.5 279.2 120.8Q278.9 120.2 278.4 119.8Q277.9 119.4 277.2 119.4L277.2 119.4Q276.4 119.4 275.9 119.8Q275.4 120.2 275.2 120.8Q274.9 121.5 274.9 122.2L274.9 122.2Q274.9 123.0 275.2 123.6Q275.4 124.3 275.9 124.7Q276.4 125.1 277.2 125.1ZM286.2 118.4L288.0 118.4L288.0 119.4L286.2 119.4L286.2 126L285.0 126L285.0 119.4L283.5 119.4L283.5 118.4L285.0 118.4L285.0 117.3Q285.0 116.7 285.3 116.2Q285.6 115.8 286.1 115.6Q286.6 115.3 287.2 115.3L287.2 115.3Q287.6 115.3 287.9 115.4Q288.2 115.5 288.3 115.5L288.3 115.5L288.0 116.6Q287.9 116.6 287.7 116.5Q287.6 116.5 287.3 116.5L287.3 116.5Q286.8 116.5 286.5 116.8Q286.2 117.1 286.2 117.6L286.2 117.6L286.2 118.4ZM293.1 118.4L294.6 118.4L294.6 119.4L293.1 119.4L293.1 124.0Q293.1 124.5 293.3 124.8Q293.5 125.0 294.0 125.0L294.0 125.0Q294.1 125.0 294.3 125.0Q294.5 124.9 294.6 124.9L294.6 124.9L294.9 126.0Q294.7 126.0 294.4 126.1Q294.2 126.1 293.9 126.1L293.9 126.1Q293.0 126.1 292.4 125.6Q291.8 125.0 291.8 124.1L291.8 124.1L291.8 119.4L290.7 119.4L290.7 118.4L291.8 118.4L291.8 116.5L293.1 116.5L293.1 118.4ZM301.2 126L299.9 126L297.6 118.4L298.9 118.4L299.9 121.7Q300.0 122.4 300.3 123.2L300.3 123.2Q300.4 123.9 300.6 124.7L300.6 124.7Q300.7 123.9 300.9 123.3L300.9 123.3Q301.1 122.4 301.3 121.7L301.3 121.7L302.2 118.4L303.5 118.4L304.4 121.7Q304.6 122.4 304.8 123.3L304.8 123.3Q305.0 123.9 305.2 124.7L305.2 124.7Q305.3 123.9 305.5 123.3L305.5 123.3Q305.7 122.4 305.9 121.7L305.9 121.7L306.8 118.4L308.1 118.4L305.8 126L304.6 126L303.6 122.5Q303.4 122.0 303.3 121.5Q303.1 120.9 303.0 120.3L303.0 120.3Q302.9 120.1 302.9 119.8L302.9 119.8Q302.8 120.0 302.7 120.3L302.7 120.3Q302.6 120.9 302.4 121.5Q302.3 122.0 302.1 122.5L302.1 122.5L301.2 126ZM313.8 126.2L313.8 126.2Q313.1 126.2 312.5 125.9Q311.9 125.6 311.6 125.1Q311.2 124.6 311.2 123.8L311.2 123.8Q311.2 123.2 311.5 122.8Q311.7 122.3 312.2 122.1Q312.6 121.9 313.1 121.8Q313.7 121.6 314.2 121.6L314.2 121.6Q314.9 121.5 315.3 121.4Q315.7 121.4 315.9 121.3Q316.1 121.2 316.1 120.9L316.1 120.9L316.1 120.8Q316.1 120.4 316.0 120.0Q315.8 119.7 315.4 119.5Q315.1 119.3 314.5 119.3L314.5 119.3Q314 119.3 313.6 119.5Q313.2 119.7 313.0 119.9Q312.7 120.2 312.6 120.5L312.6 120.5L311.4 120.1Q311.7 119.4 312.2 119.0Q312.7 118.6 313.3 118.4Q313.9 118.3 314.5 118.3L314.5 118.3Q314.9 118.3 315.4 118.4Q315.9 118.4 316.3 118.7Q316.8 119.0 317.1 119.5Q317.4 120.1 317.4 121.0L317.4 121.0L317.4 126L316.2 126L316.2 125.0L316.1 125.0Q316.0 125.2 315.7 125.5Q315.4 125.8 314.9 126.0Q314.5 126.2 313.8 126.2ZM314.0 125.1L314.0 125.1Q314.7 125.1 315.2 124.8Q315.7 124.6 315.9 124.1Q316.1 123.7 316.1 123.2L316.1 123.2L316.1 122.2Q316.1 122.3 315.8 122.3Q315.6 122.4 315.2 122.5Q314.9 122.5 314.6 122.6Q314.3 122.6 314.1 122.6L314.1 122.6Q313.7 122.7 313.3 122.8Q312.9 122.9 312.7 123.2Q312.4 123.5 312.4 123.9L312.4 123.9Q312.4 124.3 312.7 124.6Q312.9 124.8 313.2 125.0Q313.6 125.1 314.0 125.1ZM322.8 126L321.5 126L321.5 118.4L322.7 118.4L322.7 119.5L322.8 119.5Q323.0 119.0 323.6 118.6Q324.1 118.2 324.8 118.2L324.8 118.2Q324.9 118.2 325.1 118.3Q325.3 118.3 325.4 118.3L325.4 118.3L325.4 119.5Q325.4 119.5 325.1 119.5Q324.9 119.4 324.7 119.4L324.7 119.4Q324.1 119.4 323.7 119.7Q323.3 119.9 323.0 120.3Q322.8 120.7 322.8 121.2L322.8 121.2L322.8 126ZM332.0 126.2L332.0 126.2Q330.9 126.2 330.1 125.7Q329.3 125.2 328.9 124.3Q328.4 123.4 328.4 122.2Q328.4 121.1 328.9 120.2Q329.3 119.3 330.1 118.8Q330.8 118.3 331.9 118.3L331.9 118.3Q332.5 118.3 333.1 118.5Q333.7 118.7 334.1 119.1Q334.6 119.6 334.9 120.3Q335.2 121.0 335.2 122.1L335.2 122.1L335.2 122.6L329.7 122.6Q329.7 123.3 330.0 123.9L330.0 123.9Q330.3 124.5 330.8 124.8Q331.3 125.1 332.0 125.1L332.0 125.1Q332.5 125.1 332.8 124.9Q333.2 124.8 333.5 124.5Q333.8 124.3 333.9 123.9L333.9 123.9L335.1 124.2Q334.9 124.8 334.5 125.2Q334.1 125.7 333.4 125.9Q332.8 126.2 332.0 126.2ZM329.7 121.6L329.7 121.6L334.0 121.6Q333.9 121.0 333.7 120.6L333.7 120.6Q333.5 120.0 333.0 119.7Q332.6 119.4 331.9 119.4Q331.2 119.4 330.7 119.7Q330.2 120.0 329.9 120.6L329.9 120.6Q329.7 121.0 329.7 121.6Z M351.3 126L345.1 126L345.1 115.8L351.3 115.8L351.3 117.0L346.4 117.0L346.4 120.3L350.9 120.3L350.9 121.4L346.4 121.4L346.4 124.9L351.3 124.9L351.3 126ZM356.6 121.4L356.6 121.4L356.6 126L355.3 126L355.3 118.4L356.5 118.4L356.5 119.8Q356.8 119.1 357.3 118.7L357.3 118.7Q358.0 118.3 358.8 118.3L358.8 118.3Q359.6 118.3 360.2 118.6Q360.8 118.9 361.1 119.5Q361.4 120.2 361.4 121.1L361.4 121.1L361.4 126L360.2 126L360.2 121.2Q360.2 120.4 359.7 119.9Q359.3 119.4 358.5 119.4L358.5 119.4Q357.9 119.4 357.5 119.6Q357.1 119.8 356.8 120.3Q356.6 120.8 356.6 121.4ZM368.7 129.0L368.7 129.0Q367.8 129.0 367.2 128.8Q366.6 128.6 366.2 128.2Q365.8 127.9 365.5 127.5L365.5 127.5L366.5 126.8Q366.7 127.0 367.0 127.3Q367.2 127.6 367.6 127.8Q368.0 127.9 368.7 127.9L368.7 127.9Q369.6 127.9 370.2 127.5Q370.8 127.1 370.8 126.1L370.8 126.1L370.8 124.6L370.7 124.6Q370.5 124.8 370.3 125.1Q370.1 125.4 369.6 125.6Q369.2 125.9 368.5 125.9L368.5 125.9Q367.5 125.9 366.8 125.4Q366.1 125.0 365.6 124.2Q365.2 123.3 365.2 122.1L365.2 122.1Q365.2 121.0 365.6 120.1Q366.1 119.2 366.8 118.7Q367.5 118.3 368.5 118.3L368.5 118.3Q369.2 118.3 369.7 118.5Q370.1 118.7 370.3 119.1Q370.6 119.4 370.7 119.6L370.7 119.6L370.8 119.6L370.8 118.4L372.0 118.4L372.0 126.2Q372.0 127.2 371.6 127.8Q371.1 128.4 370.4 128.7Q369.6 129.0 368.7 129.0ZM368.7 124.8L368.7 124.8Q369.4 124.8 369.8 124.5Q370.3 124.1 370.6 123.5Q370.8 123.0 370.8 122.1L370.8 122.1Q370.8 121.3 370.6 120.7Q370.3 120.1 369.8 119.7Q369.4 119.4 368.7 119.4L368.7 119.4Q367.9 119.4 367.4 119.7Q367.0 120.1 366.7 120.7Q366.5 121.4 366.5 122.1L366.5 122.1Q366.5 122.9 366.7 123.5Q367.0 124.1 367.5 124.4Q367.9 124.8 368.7 124.8ZM377.4 126L376.2 126L376.2 118.4L377.4 118.4L377.4 126ZM376.8 117.1L376.8 117.1Q376.5 117.1 376.2 116.9Q375.9 116.6 375.9 116.3L375.9 116.3Q375.9 116.0 376.2 115.7Q376.5 115.5 376.8 115.5L376.8 115.5Q377.2 115.5 377.4 115.7Q377.7 116.0 377.7 116.3L377.7 116.3Q377.7 116.6 377.4 116.9Q377.2 117.1 376.8 117.1ZM382.8 121.4L382.8 121.4L382.8 126L381.6 126L381.6 118.4L382.8 118.4L382.8 119.8Q383.1 119.1 383.6 118.7L383.6 118.7Q384.2 118.3 385.1 118.3L385.1 118.3Q385.9 118.3 386.5 118.6Q387.0 118.9 387.4 119.5Q387.7 120.2 387.7 121.1L387.7 121.1L387.7 126L386.5 126L386.5 121.2Q386.5 120.4 386.0 119.9Q385.5 119.4 384.7 119.4L384.7 119.4Q384.2 119.4 383.7 119.6Q383.3 119.8 383.1 120.3Q382.8 120.8 382.8 121.4ZM395.1 126.2L395.1 126.2Q393.9 126.2 393.1 125.7Q392.3 125.2 391.9 124.3Q391.5 123.4 391.5 122.2Q391.5 121.1 391.9 120.2Q392.3 119.3 393.1 118.8Q393.9 118.3 394.9 118.3L394.9 118.3Q395.5 118.3 396.1 118.5Q396.7 118.7 397.2 119.1Q397.7 119.6 398.0 120.3Q398.2 121.0 398.2 122.1L398.2 122.1L398.2 122.6L392.7 122.6Q392.7 123.3 393.0 123.9L393.0 123.9Q393.3 124.5 393.8 124.8Q394.4 125.1 395.1 125.1L395.1 125.1Q395.5 125.1 395.9 124.9Q396.3 124.8 396.5 124.5Q396.8 124.3 396.9 123.9L396.9 123.9L398.1 124.2Q397.9 124.8 397.5 125.2Q397.1 125.7 396.5 125.9Q395.8 126.2 395.1 126.2ZM392.7 121.6L392.7 121.6L397.0 121.6Q396.9 121.0 396.8 120.6L396.8 120.6Q396.5 120.0 396.1 119.7Q395.6 119.4 394.9 119.4Q394.2 119.4 393.7 119.7Q393.2 120.0 393.0 120.6L393.0 120.6Q392.8 121.0 392.7 121.6ZM405.2 126.2L405.2 126.2Q404.1 126.2 403.3 125.7Q402.5 125.2 402.1 124.3Q401.6 123.4 401.6 122.2Q401.6 121.1 402.1 120.2Q402.5 119.3 403.3 118.8Q404.0 118.3 405.1 118.3L405.1 118.3Q405.7 118.3 406.3 118.5Q406.9 118.7 407.3 119.1Q407.8 119.6 408.1 120.3Q408.4 121.0 408.4 122.1L408.4 122.1L408.4 122.6L402.9 122.6Q402.9 123.3 403.2 123.9L403.2 123.9Q403.5 124.5 404.0 124.8Q404.5 125.1 405.2 125.1L405.2 125.1Q405.7 125.1 406.0 124.9Q406.4 124.8 406.7 124.5Q406.9 124.3 407.1 123.9L407.1 123.9L408.3 124.2Q408.1 124.8 407.7 125.2Q407.3 125.7 406.6 125.9Q406.0 126.2 405.2 126.2ZM402.9 121.6L402.9 121.6L407.2 121.6Q407.1 121.0 406.9 120.6L406.9 120.6Q406.7 120.0 406.2 119.7Q405.8 119.4 405.1 119.4Q404.4 119.4 403.9 119.7Q403.4 120.0 403.1 120.6L403.1 120.6Q402.9 121.0 402.9 121.6ZM413.4 126L412.2 126L412.2 118.4L413.4 118.4L413.4 119.5L413.4 119.5Q413.6 119.0 414.2 118.6Q414.7 118.2 415.4 118.2L415.4 118.2Q415.6 118.2 415.7 118.3Q415.9 118.3 416.0 118.3L416.0 118.3L416.0 119.5Q416.0 119.5 415.8 119.5Q415.5 119.4 415.3 119.4L415.3 119.4Q414.8 119.4 414.3 119.7Q413.9 119.9 413.6 120.3Q413.4 120.7 413.4 121.2L413.4 121.2L413.4 126Z M432.0 112.5L433.1 112.5L433.1 129.3L432.0 129.3L432.0 112.5ZM451.3 126L450.0 126L450.0 115.8L456.2 115.8L456.2 117.0L451.3 117.0L451.3 120.4L455.7 120.4L455.7 121.6L451.3 121.6L451.3 126ZM460.1 115.8L461.3 115.8L461.3 126L460.1 126L460.1 115.8ZM468.1 126.1L468.1 126.1Q467.3 126.1 466.7 125.8Q466.1 125.5 465.8 124.8Q465.5 124.2 465.5 123.2L465.5 123.2L465.5 118.4L466.7 118.4L466.7 123.1Q466.7 124.0 467.2 124.5Q467.7 125.0 468.5 125.0L468.5 125.0Q469.0 125.0 469.4 124.7Q469.9 124.5 470.1 124.0Q470.4 123.6 470.4 122.9L470.4 122.9L470.4 118.4L471.6 118.4L471.6 126L470.4 126L470.4 124.6Q470.1 125.3 469.6 125.7L469.6 125.7Q468.9 126.1 468.1 126.1ZM477.2 118.4L478.8 118.4L478.8 119.4L477.2 119.4L477.2 124.0Q477.2 124.5 477.4 124.8Q477.6 125.0 478.1 125.0L478.1 125.0Q478.2 125.0 478.4 125.0Q478.6 124.9 478.7 124.9L478.7 124.9L479.0 126.0Q478.8 126.0 478.6 126.1Q478.3 126.1 478.1 126.1L478.1 126.1Q477.1 126.1 476.5 125.6Q476.0 125.0 476.0 124.1L476.0 124.1L476.0 119.4L474.8 119.4L474.8 118.4L476.0 118.4L476.0 116.5L477.2 116.5L477.2 118.4ZM483.8 118.4L485.4 118.4L485.4 119.4L483.8 119.4L483.8 124.0Q483.8 124.5 484.0 124.8Q484.2 125.0 484.7 125.0L484.7 125.0Q484.8 125.0 485.0 125.0Q485.2 124.9 485.3 124.9L485.3 124.9L485.6 126.0Q485.4 126.0 485.1 126.1Q484.9 126.1 484.7 126.1L484.7 126.1Q483.7 126.1 483.1 125.6Q482.6 125.0 482.6 124.1L482.6 124.1L482.6 119.4L481.4 119.4L481.4 118.4L482.6 118.4L482.6 116.5L483.8 116.5L483.8 118.4ZM492.1 126.2L492.1 126.2Q491.0 126.2 490.2 125.7Q489.4 125.2 489.0 124.3Q488.6 123.4 488.6 122.2Q488.6 121.1 489.0 120.2Q489.4 119.3 490.2 118.8Q491.0 118.3 492.0 118.3L492.0 118.3Q492.6 118.3 493.2 118.5Q493.8 118.7 494.3 119.1Q494.8 119.6 495.0 120.3Q495.3 121.0 495.3 122.1L495.3 122.1L495.3 122.6L489.8 122.6Q489.8 123.3 490.1 123.9L490.1 123.9Q490.4 124.5 490.9 124.8Q491.5 125.1 492.2 125.1L492.2 125.1Q492.6 125.1 493.0 124.9Q493.3 124.8 493.6 124.5Q493.9 124.3 494.0 123.9L494.0 123.9L495.2 124.2Q495.0 124.8 494.6 125.2Q494.2 125.7 493.6 125.9Q492.9 126.2 492.1 126.2ZM489.8 121.6L489.8 121.6L494.1 121.6Q494.0 121.0 493.9 120.6L493.9 120.6Q493.6 120.0 493.2 119.7Q492.7 119.4 492.0 119.4Q491.3 119.4 490.8 119.7Q490.3 120.0 490.1 120.6L490.1 120.6Q489.9 121.0 489.8 121.6ZM500.3 126L499.1 126L499.1 118.4L500.3 118.4L500.3 119.5L500.4 119.5Q500.6 119.0 501.1 118.6Q501.7 118.2 502.4 118.2L502.4 118.2Q502.5 118.2 502.7 118.3Q502.9 118.3 503.0 118.3L503.0 118.3L503.0 119.5Q502.9 119.5 502.7 119.5Q502.5 119.4 502.2 119.4L502.2 119.4Q501.7 119.4 501.3 119.7Q500.8 119.9 500.6 120.3Q500.3 120.7 500.3 121.2L500.3 121.2L500.3 126Z M515.6 126L515.6 126L512.5 126L512.5 115.8L515.8 115.8Q517.3 115.8 518.3 116.4Q519.4 117.0 519.9 118.2Q520.5 119.3 520.5 120.9L520.5 120.9Q520.5 122.5 519.9 123.6Q519.4 124.8 518.3 125.4Q517.2 126 515.6 126ZM513.8 117.0L513.8 124.9L515.6 124.9Q516.8 124.9 517.6 124.4Q518.4 123.9 518.8 123.0Q519.2 122.1 519.2 120.9L519.2 120.9Q519.2 119.7 518.8 118.8Q518.4 117.9 517.6 117.4Q516.9 117.0 515.7 117.0L515.7 117.0L513.8 117.0ZM527.6 126.2L527.6 126.2Q526.5 126.2 525.7 125.7Q524.9 125.2 524.5 124.3Q524.0 123.4 524.0 122.2Q524.0 121.1 524.5 120.2Q524.9 119.3 525.7 118.8Q526.4 118.3 527.5 118.3L527.5 118.3Q528.1 118.3 528.7 118.5Q529.3 118.7 529.8 119.1Q530.2 119.6 530.5 120.3Q530.8 121.0 530.8 122.1L530.8 122.1L530.8 122.6L525.3 122.6Q525.3 123.3 525.6 123.9L525.6 123.9Q525.9 124.5 526.4 124.8Q526.9 125.1 527.6 125.1L527.6 125.1Q528.1 125.1 528.4 124.9Q528.8 124.8 529.1 124.5Q529.4 124.3 529.5 123.9L529.5 123.9L530.7 124.2Q530.5 124.8 530.1 125.2Q529.7 125.7 529.0 125.9Q528.4 126.2 527.6 126.2ZM525.3 121.6L525.3 121.6L529.6 121.6Q529.5 121.0 529.3 120.6L529.3 120.6Q529.1 120.0 528.6 119.7Q528.2 119.4 527.5 119.4Q526.8 119.4 526.3 119.7Q525.8 120.0 525.5 120.6L525.5 120.6Q525.3 121.0 525.3 121.6ZM538.1 126L536.8 126L533.9 118.4L535.2 118.4L536.8 122.9Q537.1 123.6 537.3 124.3L537.3 124.3Q537.4 124.6 537.4 124.9L537.4 124.9Q537.5 124.6 537.6 124.3L537.6 124.3Q537.8 123.6 538.0 122.9L538.0 122.9L539.6 118.4L541.0 118.4L538.1 126ZM547.7 126.2L547.7 126.2Q546.5 126.2 545.7 125.7Q544.9 125.2 544.5 124.3Q544.1 123.4 544.1 122.2Q544.1 121.1 544.5 120.2Q544.9 119.3 545.7 118.8Q546.5 118.3 547.5 118.3L547.5 118.3Q548.1 118.3 548.7 118.5Q549.3 118.7 549.8 119.1Q550.3 119.6 550.6 120.3Q550.8 121.0 550.8 122.1L550.8 122.1L550.8 122.6L545.3 122.6Q545.3 123.3 545.6 123.9L545.6 123.9Q545.9 124.5 546.4 124.8Q547.0 125.1 547.7 125.1L547.7 125.1Q548.1 125.1 548.5 124.9Q548.8 124.8 549.1 124.5Q549.4 124.3 549.5 123.9L549.5 123.9L550.7 124.2Q550.5 124.8 550.1 125.2Q549.7 125.7 549.1 125.9Q548.4 126.2 547.7 126.2ZM545.3 121.6L545.3 121.6L549.6 121.6Q549.5 121.0 549.4 120.6L549.4 120.6Q549.1 120.0 548.7 119.7Q548.2 119.4 547.5 119.4Q546.8 119.4 546.3 119.7Q545.8 120.0 545.6 120.6L545.6 120.6Q545.4 121.0 545.3 121.6ZM554.6 115.8L555.8 115.8L555.8 126L554.6 126L554.6 115.8ZM563.1 126.2L563.1 126.2Q562.1 126.2 561.3 125.7Q560.5 125.2 560.1 124.3Q559.6 123.4 559.6 122.2L559.6 122.2Q559.6 121.0 560.1 120.1Q560.5 119.2 561.3 118.8Q562.1 118.3 563.1 118.3L563.1 118.3Q564.1 118.3 564.9 118.8Q565.7 119.2 566.2 120.1Q566.6 121.0 566.6 122.2L566.6 122.2Q566.6 123.4 566.2 124.3Q565.7 125.2 564.9 125.7Q564.1 126.2 563.1 126.2ZM563.1 125.1L563.1 125.1Q563.9 125.1 564.4 124.7Q564.9 124.3 565.1 123.6Q565.4 123.0 565.4 122.2L565.4 122.2Q565.4 121.5 565.1 120.8Q564.9 120.2 564.4 119.8Q563.9 119.4 563.1 119.4L563.1 119.4Q562.3 119.4 561.8 119.8Q561.4 120.2 561.1 120.8Q560.9 121.5 560.9 122.2L560.9 122.2Q560.9 123.0 561.1 123.6Q561.4 124.3 561.8 124.7Q562.3 125.1 563.1 125.1ZM571.6 128.9L570.4 128.9L570.4 118.4L571.6 118.4L571.6 119.6L571.7 119.6Q571.8 119.4 572.1 119.1Q572.3 118.8 572.7 118.5Q573.2 118.3 573.9 118.3L573.9 118.3Q574.9 118.3 575.6 118.7Q576.3 119.2 576.8 120.1Q577.2 121.0 577.2 122.2L577.2 122.2Q577.2 123.4 576.8 124.3Q576.3 125.2 575.6 125.7Q574.9 126.2 573.9 126.2L573.9 126.2Q573.2 126.2 572.8 125.9Q572.3 125.7 572.1 125.3Q571.8 125.0 571.7 124.8L571.7 124.8L571.6 124.8L571.6 128.9ZM573.8 125.1L573.8 125.1Q574.5 125.1 574.9 124.7Q575.4 124.3 575.7 123.6Q575.9 123.0 575.9 122.2L575.9 122.2Q575.9 121.4 575.7 120.8Q575.4 120.1 575.0 119.7Q574.5 119.4 573.8 119.4L573.8 119.4Q573.0 119.4 572.6 119.7Q572.1 120.1 571.8 120.7Q571.6 121.3 571.6 122.2L571.6 122.2Q571.6 123.0 571.8 123.7Q572.1 124.3 572.6 124.7Q573.1 125.1 573.8 125.1ZM584.2 126.2L584.2 126.2Q583.1 126.2 582.3 125.7Q581.5 125.2 581.0 124.3Q580.6 123.4 580.6 122.2Q580.6 121.1 581.0 120.2Q581.4 119.3 582.2 118.8Q583.0 118.3 584.0 118.3L584.0 118.3Q584.6 118.3 585.2 118.5Q585.8 118.7 586.3 119.1Q586.8 119.6 587.1 120.3Q587.4 121.0 587.4 122.1L587.4 122.1L587.4 122.6L581.8 122.6Q581.9 123.3 582.1 123.9L582.1 123.9Q582.4 124.5 583.0 124.8Q583.5 125.1 584.2 125.1L584.2 125.1Q584.6 125.1 585.0 124.9Q585.4 124.8 585.6 124.5Q585.9 124.3 586.0 123.9L586.0 123.9L587.2 124.2Q587.1 124.8 586.6 125.2Q586.2 125.7 585.6 125.9Q585.0 126.2 584.2 126.2ZM581.8 121.6L581.8 121.6L586.1 121.6Q586.1 121.0 585.9 120.6L585.9 120.6Q585.6 120.0 585.2 119.7Q584.7 119.4 584.0 119.4Q583.3 119.4 582.8 119.7Q582.4 120.0 582.1 120.6L582.1 120.6Q581.9 121.0 581.8 121.6ZM592.4 126L591.1 126L591.1 118.4L592.3 118.4L592.3 119.5L592.4 119.5Q592.6 119.0 593.1 118.6Q593.7 118.2 594.4 118.2L594.4 118.2Q594.5 118.2 594.7 118.3Q594.9 118.3 595.0 118.3L595.0 118.3L595.0 119.5Q594.9 119.5 594.7 119.5Q594.5 119.4 594.3 119.4L594.3 119.4Q593.7 119.4 593.3 119.7Q592.8 119.9 592.6 120.3Q592.4 120.7 592.4 121.2L592.4 121.2L592.4 126Z "/></g><mask id="satori_om-id-1-2"><rect x="196" y="141" width="468" height="15" fill="#fff" mask="url(#satori_om-id)"/></mask><g mask="url(#satori_om-id)" clip-path="url(#satori_cp-id)"><path fill="rgba(217,157,135,0.6)" d="M200.6 153.1L200.6 153.1Q199.5 153.1 198.6 152.6Q197.7 152.0 197.2 151.0Q196.7 150.0 196.7 148.6L196.7 148.6Q196.7 147.3 197.2 146.2Q197.7 145.2 198.6 144.7Q199.5 144.2 200.6 144.2L200.6 144.2Q201.3 144.2 201.8 144.3Q202.4 144.5 202.9 144.9Q203.4 145.3 203.7 145.8Q204.0 146.3 204.1 147.0L204.1 147.0L203.0 147.0Q202.9 146.6 202.7 146.2Q202.5 145.9 202.1 145.7Q201.8 145.4 201.4 145.3Q201.0 145.2 200.6 145.2L200.6 145.2Q199.8 145.2 199.2 145.6Q198.5 146.0 198.2 146.8Q197.8 147.5 197.8 148.6L197.8 148.6Q197.8 149.8 198.2 150.5Q198.5 151.3 199.2 151.7Q199.8 152.1 200.6 152.1L200.6 152.1Q201.0 152.1 201.4 152.0Q201.8 151.8 202.1 151.6Q202.5 151.4 202.7 151.0Q202.9 150.7 203.0 150.3L203.0 150.3L204.1 150.3Q204.0 150.9 203.7 151.4Q203.4 152.0 202.9 152.3Q202.4 152.7 201.8 152.9Q201.3 153.1 200.6 153.1ZM207.7 153L206.7 153L206.7 146.4L207.7 146.4L207.7 147.5L207.8 147.5Q208.0 147.0 208.4 146.7Q208.9 146.4 209.5 146.4L209.5 146.4Q209.6 146.4 209.8 146.4Q209.9 146.4 210.0 146.4L210.0 146.4L210.0 147.4Q210.0 147.4 209.8 147.4Q209.6 147.4 209.4 147.4L209.4 147.4Q208.9 147.4 208.5 147.6Q208.2 147.8 208.0 148.1Q207.7 148.5 207.7 148.9L207.7 148.9L207.7 153ZM214.0 153.2L214.0 153.2Q213.4 153.2 212.9 152.9Q212.4 152.7 212.1 152.2Q211.8 151.8 211.8 151.1L211.8 151.1Q211.8 150.6 212.0 150.2Q212.3 149.9 212.6 149.7Q213 149.5 213.5 149.4Q213.9 149.3 214.4 149.2L214.4 149.2Q214.9 149.1 215.3 149.1Q215.7 149.1 215.9 149.0Q216.0 148.9 216.0 148.6L216.0 148.6L216.0 148.6Q216.0 148.2 215.9 147.9Q215.7 147.6 215.4 147.4Q215.1 147.3 214.7 147.3L214.7 147.3Q214.2 147.3 213.9 147.4Q213.5 147.6 213.3 147.8Q213.1 148.0 213.0 148.3L213.0 148.3L212.0 147.9Q212.3 147.3 212.7 147.0Q213.1 146.6 213.6 146.5Q214.1 146.4 214.6 146.4L214.6 146.4Q215.0 146.4 215.4 146.4Q215.8 146.5 216.2 146.8Q216.6 147.0 216.8 147.5Q217.1 147.9 217.1 148.7L217.1 148.7L217.1 153L216.1 153L216.1 152.1L216.0 152.1Q215.9 152.3 215.6 152.6Q215.4 152.8 215.0 153.0Q214.6 153.2 214.0 153.2ZM214.2 152.2L214.2 152.2Q214.8 152.2 215.2 152.0Q215.6 151.8 215.8 151.4Q216.0 151.0 216.0 150.6L216.0 150.6L216.0 149.7Q216.0 149.8 215.8 149.9Q215.5 149.9 215.3 150.0Q215.0 150.0 214.7 150.0Q214.5 150.1 214.3 150.1L214.3 150.1Q213.9 150.1 213.6 150.3Q213.3 150.4 213.1 150.6Q212.9 150.8 212.9 151.2L212.9 151.2Q212.9 151.5 213.0 151.8Q213.2 152.0 213.5 152.1Q213.8 152.2 214.2 152.2ZM221.5 146.4L223.0 146.4L223.0 147.4L221.5 147.4L221.5 153L220.4 153L220.4 147.4L219.1 147.4L219.1 146.4L220.4 146.4L220.4 145.6Q220.4 145.0 220.7 144.6Q221.0 144.2 221.4 144.1Q221.8 143.9 222.3 143.9L222.3 143.9Q222.7 143.9 222.9 143.9Q223.2 144.0 223.3 144.0L223.3 144.0L223.0 144.9Q222.9 144.9 222.8 144.9Q222.6 144.8 222.4 144.8L222.4 144.8Q221.9 144.8 221.7 145.1Q221.5 145.3 221.5 145.8L221.5 145.8L221.5 146.4ZM226.6 146.4L228.0 146.4L228.0 147.4L226.6 147.4L226.6 151.3Q226.6 151.7 226.8 151.9Q227.0 152.1 227.4 152.1L227.4 152.1Q227.5 152.1 227.6 152.1Q227.8 152.1 227.9 152.1L227.9 152.1L228.1 153.0Q228.0 153.0 227.8 153.1Q227.6 153.1 227.4 153.1L227.4 153.1Q226.5 153.1 226.0 152.6Q225.6 152.2 225.6 151.4L225.6 151.4L225.6 147.4L224.6 147.4L224.6 146.4L225.6 146.4L225.6 144.9L226.6 144.9L226.6 146.4ZM231.4 153L230.3 153L230.3 146.4L231.4 146.4L231.4 153ZM230.8 145.4L230.8 145.4Q230.5 145.4 230.3 145.2Q230.1 145.0 230.1 144.7L230.1 144.7Q230.1 144.4 230.3 144.2Q230.5 144.0 230.8 144.0L230.8 144.0Q231.2 144.0 231.4 144.2Q231.6 144.4 231.6 144.7L231.6 144.7Q231.6 145.0 231.4 145.2Q231.2 145.4 230.8 145.4ZM235.3 149.1L235.3 149.1L235.3 153L234.2 153L234.2 146.4L235.2 146.4L235.2 147.7Q235.5 147.0 235.9 146.7L235.9 146.7Q236.5 146.4 237.2 146.4L237.2 146.4Q237.9 146.4 238.4 146.6Q238.9 146.9 239.2 147.5Q239.5 148.0 239.5 148.8L239.5 148.8L239.5 153L238.4 153L238.4 148.9Q238.4 148.2 238.0 147.7Q237.6 147.3 236.9 147.3L236.9 147.3Q236.5 147.3 236.1 147.5Q235.7 147.7 235.5 148.1Q235.3 148.5 235.3 149.1ZM245.0 155.6L245.0 155.6Q244.2 155.6 243.7 155.4Q243.2 155.2 242.8 154.9Q242.5 154.6 242.3 154.3L242.3 154.3L243.1 153.7Q243.3 153.9 243.5 154.1Q243.7 154.3 244.0 154.5Q244.4 154.7 245.0 154.7L245.0 154.7Q245.8 154.7 246.3 154.3Q246.8 153.9 246.8 153.1L246.8 153.1L246.8 151.8L246.7 151.8Q246.6 152.0 246.4 152.2Q246.1 152.5 245.8 152.7Q245.4 152.9 244.8 152.9L244.8 152.9Q244.0 152.9 243.3 152.5Q242.7 152.2 242.4 151.4Q242.0 150.7 242.0 149.7L242.0 149.7Q242.0 148.7 242.4 147.9Q242.7 147.2 243.3 146.8Q244.0 146.4 244.8 146.4L244.8 146.4Q245.4 146.4 245.8 146.6Q246.2 146.8 246.4 147.1Q246.6 147.3 246.7 147.5L246.7 147.5L246.8 147.5L246.8 146.4L247.8 146.4L247.8 153.2Q247.8 154.0 247.4 154.5Q247.1 155.1 246.4 155.3Q245.8 155.6 245.0 155.6ZM244.9 152.0L244.9 152.0Q245.5 152.0 245.9 151.7Q246.4 151.4 246.6 150.9Q246.8 150.4 246.8 149.7L246.8 149.7Q246.8 149.0 246.6 148.4Q246.4 147.9 245.9 147.6Q245.5 147.3 244.9 147.3L244.9 147.3Q244.3 147.3 243.9 147.6Q243.5 147.9 243.3 148.5Q243.1 149.0 243.1 149.7L243.1 149.7Q243.1 150.3 243.3 150.9Q243.5 151.4 243.9 151.7Q244.3 152.0 244.9 152.0Z M257.7 153.1L257.7 153.1Q256.8 153.1 256.1 152.7Q255.5 152.3 255.1 151.5Q254.7 150.8 254.7 149.8L254.7 149.8Q254.7 148.7 255.1 148.0Q255.5 147.2 256.1 146.8Q256.8 146.4 257.7 146.4L257.7 146.4Q258.2 146.4 258.6 146.5Q259.0 146.6 259.4 146.8Q259.7 147.1 260.0 147.4Q260.2 147.8 260.4 148.2L260.4 148.2L259.4 148.5Q259.3 148.2 259.1 148.0Q259.0 147.8 258.8 147.6Q258.6 147.5 258.3 147.4Q258.0 147.3 257.7 147.3L257.7 147.3Q257.1 147.3 256.6 147.7Q256.2 148.0 256.0 148.6Q255.8 149.1 255.8 149.8L255.8 149.8Q255.8 150.4 256.0 151.0Q256.2 151.5 256.6 151.9Q257.1 152.2 257.7 152.2L257.7 152.2Q258.0 152.2 258.3 152.1Q258.6 152.0 258.8 151.9Q259.0 151.7 259.2 151.5Q259.3 151.3 259.4 151.0L259.4 151.0L260.4 151.3Q260.3 151.7 260.0 152.1Q259.8 152.4 259.4 152.6Q259.0 152.9 258.6 153.0Q258.2 153.1 257.7 153.1ZM264.0 153L262.9 153L262.9 146.4L263.9 146.4L263.9 147.5L264.0 147.5Q264.2 147.0 264.6 146.7Q265.1 146.4 265.7 146.4L265.7 146.4Q265.8 146.4 266.0 146.4Q266.1 146.4 266.2 146.4L266.2 146.4L266.2 147.4Q266.2 147.4 266.0 147.4Q265.8 147.4 265.6 147.4L265.6 147.4Q265.1 147.4 264.7 147.6Q264.4 147.8 264.2 148.1Q264.0 148.5 264.0 148.9L264.0 148.9L264.0 153ZM271.1 153.1L271.1 153.1Q270.2 153.1 269.5 152.7Q268.9 152.3 268.5 151.5Q268.1 150.8 268.1 149.8L268.1 149.8Q268.1 148.7 268.5 148.0Q268.9 147.2 269.5 146.8Q270.2 146.4 271.1 146.4L271.1 146.4Q272.0 146.4 272.7 146.8Q273.3 147.2 273.7 148.0Q274.1 148.7 274.1 149.8L274.1 149.8Q274.1 150.8 273.7 151.5Q273.3 152.3 272.7 152.7Q272.0 153.1 271.1 153.1ZM271.1 152.2L271.1 152.2Q271.7 152.2 272.2 151.9Q272.6 151.5 272.8 151.0Q273.0 150.4 273.0 149.8L273.0 149.8Q273.0 149.1 272.8 148.6Q272.6 148.0 272.2 147.7Q271.7 147.3 271.1 147.3L271.1 147.3Q270.4 147.3 270.0 147.7Q269.6 148.0 269.4 148.6Q269.2 149.1 269.2 149.8L269.2 149.8Q269.2 150.4 269.4 151.0Q269.6 151.5 270.0 151.9Q270.4 152.2 271.1 152.2ZM278.8 153.1L278.8 153.1Q278.2 153.1 277.6 152.9Q277.1 152.7 276.8 152.4Q276.4 152.0 276.3 151.4L276.3 151.4L277.3 151.2Q277.5 151.7 277.9 152.0Q278.2 152.2 278.8 152.2L278.8 152.2Q279.5 152.2 279.9 151.9Q280.3 151.6 280.3 151.2L280.3 151.2Q280.3 150.9 280.1 150.7Q279.9 150.4 279.4 150.3L279.4 150.3L278.3 150.1Q277.4 149.9 277.0 149.4Q276.5 149.0 276.5 148.3L276.5 148.3Q276.5 147.7 276.8 147.3Q277.2 146.9 277.7 146.6Q278.2 146.4 278.9 146.4L278.9 146.4Q279.6 146.4 280.1 146.6Q280.6 146.8 280.9 147.1Q281.2 147.5 281.3 147.9L281.3 147.9L280.3 148.2Q280.2 147.8 279.9 147.6Q279.6 147.3 279.0 147.3L279.0 147.3Q278.4 147.3 278.0 147.5Q277.6 147.8 277.6 148.2L277.6 148.2Q277.6 148.6 277.8 148.8Q278.1 149.0 278.7 149.2L278.7 149.2L279.7 149.4Q280.6 149.6 281.0 150.0Q281.4 150.5 281.4 151.2L281.4 151.2Q281.4 151.7 281.1 152.2Q280.8 152.6 280.2 152.9Q279.6 153.1 278.8 153.1ZM286.2 153.1L286.2 153.1Q285.5 153.1 285.0 152.9Q284.5 152.7 284.1 152.4Q283.8 152.0 283.7 151.4L283.7 151.4L284.7 151.2Q284.8 151.7 285.2 152.0Q285.6 152.2 286.2 152.2L286.2 152.2Q286.8 152.2 287.3 151.9Q287.7 151.6 287.7 151.2L287.7 151.2Q287.7 150.9 287.4 150.7Q287.2 150.4 286.7 150.3L286.7 150.3L285.6 150.1Q284.7 149.9 284.3 149.4Q283.9 149.0 283.9 148.3L283.9 148.3Q283.9 147.7 284.2 147.3Q284.5 146.9 285.0 146.6Q285.6 146.4 286.3 146.4L286.3 146.4Q287.0 146.4 287.4 146.6Q287.9 146.8 288.2 147.1Q288.5 147.5 288.6 147.9L288.6 147.9L287.7 148.2Q287.5 147.8 287.2 147.6Q286.9 147.3 286.3 147.3L286.3 147.3Q285.7 147.3 285.3 147.5Q284.9 147.8 284.9 148.2L284.9 148.2Q284.9 148.6 285.2 148.8Q285.4 149.0 286.0 149.2L286.0 149.2L287.0 149.4Q287.9 149.6 288.3 150.0Q288.8 150.5 288.8 151.2L288.8 151.2Q288.8 151.7 288.4 152.2Q288.1 152.6 287.5 152.9Q286.9 153.1 286.2 153.1ZM291.2 148.8L295.0 148.8L295.0 149.8L291.2 149.8L291.2 148.8ZM298.9 155.4L297.8 155.4L297.8 146.4L298.8 146.4L298.8 147.5L298.9 147.5Q299.0 147.3 299.2 147.1Q299.4 146.8 299.8 146.6Q300.2 146.4 300.8 146.4L300.8 146.4Q301.7 146.4 302.3 146.8Q302.9 147.2 303.3 147.9Q303.6 148.7 303.6 149.7L303.6 149.7Q303.6 150.8 303.3 151.5Q302.9 152.3 302.3 152.7Q301.7 153.1 300.8 153.1L300.8 153.1Q300.2 153.1 299.8 152.9Q299.5 152.7 299.3 152.4Q299.0 152.2 298.9 152.0L298.9 152.0L298.9 152.0L298.9 155.4ZM300.7 152.2L300.7 152.2Q301.3 152.2 301.7 151.9Q302.1 151.5 302.3 151.0Q302.5 150.4 302.5 149.7L302.5 149.7Q302.5 149.1 302.3 148.5Q302.1 148.0 301.7 147.6Q301.3 147.3 300.7 147.3L300.7 147.3Q300.1 147.3 299.7 147.6Q299.3 147.9 299.1 148.5Q298.8 149.0 298.8 149.7L298.8 149.7Q298.8 150.5 299.1 151.0Q299.3 151.6 299.7 151.9Q300.1 152.2 300.7 152.2ZM306.1 144.3L307.2 144.3L307.2 153L306.1 153L306.1 144.3ZM311.9 153.2L311.9 153.2Q311.3 153.2 310.8 152.9Q310.3 152.7 310.0 152.2Q309.7 151.8 309.7 151.1L309.7 151.1Q309.7 150.6 309.9 150.2Q310.1 149.9 310.5 149.7Q310.8 149.5 311.3 149.4Q311.7 149.3 312.2 149.2L312.2 149.2Q312.8 149.1 313.2 149.1Q313.5 149.1 313.7 149.0Q313.9 148.9 313.9 148.6L313.9 148.6L313.9 148.6Q313.9 148.2 313.7 147.9Q313.6 147.6 313.3 147.4Q313.0 147.3 312.5 147.3L312.5 147.3Q312.0 147.3 311.7 147.4Q311.4 147.6 311.2 147.8Q311.0 148.0 310.9 148.3L310.9 148.3L309.8 147.9Q310.1 147.3 310.5 147.0Q311.0 146.6 311.5 146.5Q312.0 146.4 312.5 146.4L312.5 146.4Q312.8 146.4 313.2 146.4Q313.7 146.5 314.0 146.8Q314.4 147.0 314.7 147.5Q314.9 147.9 314.9 148.7L314.9 148.7L314.9 153L313.9 153L313.9 152.1L313.8 152.1Q313.7 152.3 313.5 152.6Q313.2 152.8 312.8 153.0Q312.4 153.2 311.9 153.2ZM312.1 152.2L312.1 152.2Q312.7 152.2 313.1 152.0Q313.5 151.8 313.7 151.4Q313.9 151.0 313.9 150.6L313.9 150.6L313.9 149.7Q313.8 149.8 313.6 149.9Q313.4 149.9 313.1 150.0Q312.8 150.0 312.6 150.0Q312.3 150.1 312.2 150.1L312.2 150.1Q311.8 150.1 311.4 150.3Q311.1 150.4 310.9 150.6Q310.7 150.8 310.7 151.2L310.7 151.2Q310.7 151.5 310.9 151.8Q311.1 152.0 311.4 152.1Q311.7 152.2 312.1 152.2ZM319.0 146.4L320.4 146.4L320.4 147.4L319.0 147.4L319.0 151.3Q319.0 151.7 319.2 151.9Q319.4 152.1 319.8 152.1L319.8 152.1Q319.9 152.1 320.1 152.1Q320.2 152.1 320.3 152.1L320.3 152.1L320.6 153.0Q320.4 153.0 320.2 153.1Q320.0 153.1 319.8 153.1L319.8 153.1Q318.9 153.1 318.4 152.6Q318.0 152.2 318.0 151.4L318.0 151.4L318.0 147.4L317.0 147.4L317.0 146.4L318.0 146.4L318.0 144.9L319.0 144.9L319.0 146.4ZM324.3 146.4L325.8 146.4L325.8 147.4L324.3 147.4L324.3 153L323.2 153L323.2 147.4L321.9 147.4L321.9 146.4L323.2 146.4L323.2 145.6Q323.2 145.0 323.5 144.6Q323.7 144.2 324.2 144.1Q324.6 143.9 325.1 143.9L325.1 143.9Q325.4 143.9 325.7 143.9Q325.9 144.0 326.0 144.0L326.0 144.0L325.8 144.9Q325.7 144.9 325.5 144.9Q325.4 144.8 325.2 144.8L325.2 144.8Q324.7 144.8 324.5 145.1Q324.3 145.3 324.3 145.8L324.3 145.8L324.3 146.4ZM330.8 153.1L330.8 153.1Q329.9 153.1 329.3 152.7Q328.6 152.3 328.2 151.5Q327.8 150.8 327.8 149.8L327.8 149.8Q327.8 148.7 328.2 148.0Q328.6 147.2 329.3 146.8Q329.9 146.4 330.8 146.4L330.8 146.4Q331.7 146.4 332.4 146.8Q333.1 147.2 333.4 148.0Q333.8 148.7 333.8 149.8L333.8 149.8Q333.8 150.8 333.4 151.5Q333.1 152.3 332.4 152.7Q331.7 153.1 330.8 153.1ZM330.8 152.2L330.8 152.2Q331.5 152.2 331.9 151.9Q332.3 151.5 332.5 151.0Q332.8 150.4 332.8 149.8L332.8 149.8Q332.8 149.1 332.5 148.6Q332.3 148.0 331.9 147.7Q331.5 147.3 330.8 147.3L330.8 147.3Q330.2 147.3 329.7 147.7Q329.3 148.0 329.1 148.6Q328.9 149.1 328.9 149.8L328.9 149.8Q328.9 150.4 329.1 151.0Q329.3 151.5 329.7 151.9Q330.2 152.2 330.8 152.2ZM337.4 153L336.4 153L336.4 146.4L337.4 146.4L337.4 147.5L337.4 147.5Q337.6 147.0 338.1 146.7Q338.6 146.4 339.1 146.4L339.1 146.4Q339.3 146.4 339.4 146.4Q339.6 146.4 339.7 146.4L339.7 146.4L339.7 147.4Q339.6 147.4 339.4 147.4Q339.3 147.4 339.0 147.4L339.0 147.4Q338.6 147.4 338.2 147.6Q337.8 147.8 337.6 148.1Q337.4 148.5 337.4 148.9L337.4 148.9L337.4 153ZM342.9 153L341.9 153L341.9 146.4L342.9 146.4L342.9 147.7Q343.0 147.3 343.3 147.0L343.3 147.0Q343.5 146.7 343.9 146.5Q344.3 146.3 344.7 146.3L344.7 146.3Q345.5 146.3 345.9 146.8L345.9 146.8Q346.3 147.1 346.4 147.7L346.4 147.7Q346.5 147.3 346.8 147.1L346.8 147.1Q347.1 146.7 347.5 146.5Q347.9 146.3 348.5 146.3L348.5 146.3Q349.0 146.3 349.5 146.6Q350.0 146.8 350.3 147.3Q350.5 147.8 350.5 148.6L350.5 148.6L350.5 153L349.5 153L349.5 148.6Q349.5 147.9 349.1 147.6Q348.7 147.3 348.2 147.3L348.2 147.3Q347.7 147.3 347.4 147.5Q347.1 147.7 346.9 148.0Q346.7 148.3 346.7 148.7L346.7 148.7L346.7 153L345.7 153L345.7 148.5Q345.7 148.0 345.3 147.6Q344.9 147.3 344.4 147.3L344.4 147.3Q344.0 147.3 343.7 147.5Q343.3 147.7 343.1 148.0Q342.9 148.4 342.9 148.9L342.9 148.9L342.9 153Z M358.8 153L357.8 153L357.8 146.4L358.8 146.4L358.8 147.7Q358.9 147.3 359.1 147.0L359.1 147.0Q359.4 146.7 359.8 146.5Q360.2 146.3 360.6 146.3L360.6 146.3Q361.3 146.3 361.8 146.8L361.8 146.8Q362.1 147.1 362.3 147.7L362.3 147.7Q362.4 147.3 362.6 147.1L362.6 147.1Q363.0 146.7 363.4 146.5Q363.8 146.3 364.4 146.3L364.4 146.3Q364.9 146.3 365.4 146.6Q365.9 146.8 366.1 147.3Q366.4 147.8 366.4 148.6L366.4 148.6L366.4 153L365.4 153L365.4 148.6Q365.4 147.9 365.0 147.6Q364.6 147.3 364.0 147.3L364.0 147.3Q363.6 147.3 363.3 147.5Q363.0 147.7 362.8 148.0Q362.6 148.3 362.6 148.7L362.6 148.7L362.6 153L361.6 153L361.6 148.5Q361.6 148.0 361.2 147.6Q360.8 147.3 360.3 147.3L360.3 147.3Q359.9 147.3 359.6 147.5Q359.2 147.7 359.0 148.0Q358.8 148.4 358.8 148.9L358.8 148.9L358.8 153ZM371.9 153.1L371.9 153.1Q371.0 153.1 370.4 152.7Q369.7 152.3 369.3 151.5Q369.0 150.8 369.0 149.8L369.0 149.8Q369.0 148.7 369.3 148.0Q369.7 147.2 370.4 146.8Q371.0 146.4 371.9 146.4L371.9 146.4Q372.8 146.4 373.5 146.8Q374.2 147.2 374.6 148.0Q374.9 148.7 374.9 149.8L374.9 149.8Q374.9 150.8 374.6 151.5Q374.2 152.3 373.5 152.7Q372.8 153.1 371.9 153.1ZM371.9 152.2L371.9 152.2Q372.6 152.2 373.0 151.9Q373.5 151.5 373.7 151.0Q373.9 150.4 373.9 149.8L373.9 149.8Q373.9 149.1 373.7 148.6Q373.5 148.0 373.0 147.7Q372.6 147.3 371.9 147.3L371.9 147.3Q371.3 147.3 370.9 147.7Q370.4 148.0 370.2 148.6Q370.0 149.1 370.0 149.8L370.0 149.8Q370.0 150.4 370.2 151.0Q370.4 151.5 370.9 151.9Q371.3 152.2 371.9 152.2ZM380.5 153.1L380.5 153.1Q379.9 153.1 379.5 152.9Q379.1 152.7 378.9 152.4Q378.7 152.2 378.6 152.0L378.6 152.0L378.5 152.0L378.5 153L377.5 153L377.5 144.3L378.5 144.3L378.5 147.5L378.6 147.5Q378.7 147.3 378.9 147.1Q379.1 146.8 379.5 146.6Q379.9 146.4 380.5 146.4L380.5 146.4Q381.3 146.4 381.9 146.8Q382.6 147.2 382.9 147.9Q383.3 148.7 383.3 149.7L383.3 149.7Q383.3 150.8 382.9 151.5Q382.6 152.3 382.0 152.7Q381.3 153.1 380.5 153.1ZM380.3 152.2L380.3 152.2Q381.0 152.2 381.4 151.9Q381.8 151.5 382.0 151.0Q382.2 150.4 382.2 149.7L382.2 149.7Q382.2 149.1 382.0 148.5Q381.8 148.0 381.4 147.6Q381.0 147.3 380.3 147.3L380.3 147.3Q379.7 147.3 379.3 147.6Q378.9 147.9 378.7 148.5Q378.5 149.0 378.5 149.7L378.5 149.7Q378.5 150.5 378.7 151.0Q378.9 151.6 379.3 151.9Q379.8 152.2 380.3 152.2ZM386.9 153L385.8 153L385.8 146.4L386.9 146.4L386.9 153ZM386.3 145.4L386.3 145.4Q386.0 145.4 385.8 145.2Q385.6 145.0 385.6 144.7L385.6 144.7Q385.6 144.4 385.8 144.2Q386.0 144.0 386.3 144.0L386.3 144.0Q386.7 144.0 386.9 144.2Q387.1 144.4 387.1 144.7L387.1 144.7Q387.1 145.0 386.9 145.2Q386.7 145.4 386.3 145.4ZM389.7 144.3L390.8 144.3L390.8 153L389.7 153L389.7 144.3ZM396.4 153.1L396.4 153.1Q395.4 153.1 394.7 152.7Q394.1 152.3 393.7 151.5Q393.3 150.8 393.3 149.8Q393.3 148.8 393.7 148.0Q394.0 147.2 394.7 146.8Q395.4 146.4 396.3 146.4L396.3 146.4Q396.8 146.4 397.3 146.5Q397.8 146.7 398.2 147.1Q398.6 147.5 398.9 148.1Q399.1 148.7 399.1 149.6L399.1 149.6L399.1 150.1L394.4 150.1Q394.4 150.7 394.6 151.2L394.6 151.2Q394.9 151.7 395.3 151.9Q395.8 152.2 396.4 152.2L396.4 152.2Q396.8 152.2 397.1 152.1Q397.4 152.0 397.6 151.8Q397.9 151.5 398.0 151.2L398.0 151.2L399.0 151.5Q398.9 152.0 398.5 152.3Q398.1 152.7 397.6 152.9Q397.1 153.1 396.4 153.1ZM394.4 149.2L394.4 149.2L398.0 149.2Q398.0 148.7 397.9 148.4L397.9 148.4Q397.6 147.9 397.2 147.6Q396.8 147.3 396.3 147.3Q395.7 147.3 395.2 147.6Q394.8 147.9 394.6 148.3L394.6 148.3Q394.4 148.7 394.4 149.2Z M407.8 153.2L407.8 153.2Q407.2 153.2 406.7 152.9Q406.2 152.7 405.9 152.2Q405.6 151.8 405.6 151.1L405.6 151.1Q405.6 150.6 405.8 150.2Q406.0 149.9 406.4 149.7Q406.8 149.5 407.2 149.4Q407.7 149.3 408.1 149.2L408.1 149.2Q408.7 149.1 409.1 149.1Q409.5 149.1 409.7 149.0Q409.8 148.9 409.8 148.6L409.8 148.6L409.8 148.6Q409.8 148.2 409.7 147.9Q409.5 147.6 409.2 147.4Q408.9 147.3 408.5 147.3L408.5 147.3Q408.0 147.3 407.7 147.4Q407.3 147.6 407.1 147.8Q406.9 148.0 406.8 148.3L406.8 148.3L405.8 147.9Q406.0 147.3 406.5 147.0Q406.9 146.6 407.4 146.5Q407.9 146.4 408.4 146.4L408.4 146.4Q408.8 146.4 409.2 146.4Q409.6 146.5 410.0 146.8Q410.4 147.0 410.6 147.5Q410.9 147.9 410.9 148.7L410.9 148.7L410.9 153L409.8 153L409.8 152.1L409.8 152.1Q409.7 152.3 409.4 152.6Q409.2 152.8 408.8 153.0Q408.4 153.2 407.8 153.2ZM408.0 152.2L408.0 152.2Q408.6 152.2 409.0 152.0Q409.4 151.8 409.6 151.4Q409.8 151.0 409.8 150.6L409.8 150.6L409.8 149.7Q409.8 149.8 409.5 149.9Q409.3 149.9 409.1 150.0Q408.8 150.0 408.5 150.0Q408.3 150.1 408.1 150.1L408.1 150.1Q407.7 150.1 407.4 150.3Q407.1 150.4 406.9 150.6Q406.7 150.8 406.7 151.2L406.7 151.2Q406.7 151.5 406.8 151.8Q407.0 152.0 407.3 152.1Q407.6 152.2 408.0 152.2ZM414.8 155.4L413.7 155.4L413.7 146.4L414.8 146.4L414.8 147.5L414.9 147.5Q415.0 147.3 415.2 147.1Q415.4 146.8 415.8 146.6Q416.1 146.4 416.8 146.4L416.8 146.4Q417.6 146.4 418.2 146.8Q418.8 147.2 419.2 147.9Q419.5 148.7 419.5 149.7L419.5 149.7Q419.5 150.8 419.2 151.5Q418.8 152.3 418.2 152.7Q417.6 153.1 416.8 153.1L416.8 153.1Q416.2 153.1 415.8 152.9Q415.4 152.7 415.2 152.4Q415.0 152.2 414.9 152.0L414.9 152.0L414.8 152.0L414.8 155.4ZM416.6 152.2L416.6 152.2Q417.2 152.2 417.6 151.9Q418.1 151.5 418.3 151.0Q418.5 150.4 418.5 149.7L418.5 149.7Q418.5 149.1 418.3 148.5Q418.1 148.0 417.7 147.6Q417.2 147.3 416.6 147.3L416.6 147.3Q416.0 147.3 415.6 147.6Q415.2 147.9 415.0 148.5Q414.8 149.0 414.8 149.7L414.8 149.7Q414.8 150.5 415.0 151.0Q415.2 151.6 415.6 151.9Q416.0 152.2 416.6 152.2ZM423.1 155.4L422.1 155.4L422.1 146.4L423.1 146.4L423.1 147.5L423.2 147.5Q423.3 147.3 423.5 147.1Q423.7 146.8 424.1 146.6Q424.5 146.4 425.1 146.4L425.1 146.4Q425.9 146.4 426.6 146.8Q427.2 147.2 427.5 147.9Q427.9 148.7 427.9 149.7L427.9 149.7Q427.9 150.8 427.5 151.5Q427.2 152.3 426.6 152.7Q425.9 153.1 425.1 153.1L425.1 153.1Q424.5 153.1 424.1 152.9Q423.7 152.7 423.5 152.4Q423.3 152.2 423.2 152.0L423.2 152.0L423.1 152.0L423.1 155.4ZM425.0 152.2L425.0 152.2Q425.6 152.2 426.0 151.9Q426.4 151.5 426.6 151.0Q426.8 150.4 426.8 149.7L426.8 149.7Q426.8 149.1 426.6 148.5Q426.4 148.0 426.0 147.6Q425.6 147.3 425.0 147.3L425.0 147.3Q424.4 147.3 424.0 147.6Q423.5 147.9 423.3 148.5Q423.1 149.0 423.1 149.7L423.1 149.7Q423.1 150.5 423.3 151.0Q423.5 151.6 424.0 151.9Q424.4 152.2 425.0 152.2ZM432.7 153.1L432.7 153.1Q432.0 153.1 431.5 152.9Q430.9 152.7 430.6 152.4Q430.3 152.0 430.1 151.4L430.1 151.4L431.1 151.2Q431.3 151.7 431.7 152.0Q432.1 152.2 432.6 152.2L432.6 152.2Q433.3 152.2 433.7 151.9Q434.1 151.6 434.1 151.2L434.1 151.2Q434.1 150.9 433.9 150.7Q433.7 150.4 433.2 150.3L433.2 150.3L432.1 150.1Q431.2 149.9 430.8 149.4Q430.3 149.0 430.3 148.3L430.3 148.3Q430.3 147.7 430.7 147.3Q431.0 146.9 431.5 146.6Q432.1 146.4 432.8 146.4L432.8 146.4Q433.4 146.4 433.9 146.6Q434.4 146.8 434.7 147.1Q435.0 147.5 435.1 147.9L435.1 147.9L434.2 148.2Q434.0 147.8 433.7 147.6Q433.4 147.3 432.8 147.3L432.8 147.3Q432.2 147.3 431.8 147.5Q431.4 147.8 431.4 148.2L431.4 148.2Q431.4 148.6 431.7 148.8Q431.9 149.0 432.5 149.2L432.5 149.2L433.5 149.4Q434.4 149.6 434.8 150.0Q435.2 150.5 435.2 151.2L435.2 151.2Q435.2 151.7 434.9 152.2Q434.6 152.6 434.0 152.9Q433.4 153.1 432.7 153.1Z M442.9 149.6L442.9 149.6Q442.6 149.6 442.4 149.4Q442.2 149.2 442.2 148.9L442.2 148.9Q442.2 148.5 442.4 148.3Q442.6 148.1 442.9 148.1L442.9 148.1Q443.3 148.1 443.5 148.3Q443.7 148.5 443.7 148.9L443.7 148.9Q443.7 149.2 443.5 149.4Q443.3 149.6 442.9 149.6Z M454.6 153.1L454.6 153.1Q453.5 153.1 452.6 152.6Q451.8 152.0 451.3 151.0Q450.8 150.0 450.8 148.6L450.8 148.6Q450.8 147.3 451.3 146.2Q451.8 145.2 452.6 144.7Q453.5 144.2 454.6 144.2L454.6 144.2Q455.8 144.2 456.6 144.7Q457.5 145.2 458.0 146.2Q458.5 147.3 458.5 148.6L458.5 148.6Q458.5 150.0 458.0 151.0Q457.5 152.0 456.6 152.6Q455.8 153.1 454.6 153.1ZM454.6 152.1L454.6 152.1Q455.4 152.1 456.0 151.7Q456.7 151.3 457.1 150.5Q457.4 149.8 457.4 148.6L457.4 148.6Q457.4 147.5 457.1 146.7Q456.7 146.0 456.0 145.6Q455.4 145.2 454.6 145.2L454.6 145.2Q453.9 145.2 453.2 145.6Q452.6 146.0 452.2 146.8Q451.8 147.5 451.8 148.6L451.8 148.6Q451.8 149.8 452.2 150.5Q452.6 151.3 453.2 151.7Q453.9 152.1 454.6 152.1ZM462.2 155.4L461.1 155.4L461.1 146.4L462.2 146.4L462.2 147.5L462.3 147.5Q462.4 147.3 462.6 147.1Q462.8 146.8 463.2 146.6Q463.5 146.4 464.2 146.4L464.2 146.4Q465.0 146.4 465.6 146.8Q466.3 147.2 466.6 147.9Q467.0 148.7 467.0 149.7L467.0 149.7Q467.0 150.8 466.6 151.5Q466.3 152.3 465.6 152.7Q465.0 153.1 464.2 153.1L464.2 153.1Q463.6 153.1 463.2 152.9Q462.8 152.7 462.6 152.4Q462.4 152.2 462.3 152.0L462.3 152.0L462.2 152.0L462.2 155.4ZM464.0 152.2L464.0 152.2Q464.6 152.2 465.1 151.9Q465.5 151.5 465.7 151.0Q465.9 150.4 465.9 149.7L465.9 149.7Q465.9 149.1 465.7 148.5Q465.5 148.0 465.1 147.6Q464.7 147.3 464.0 147.3L464.0 147.3Q463.4 147.3 463.0 147.6Q462.6 147.9 462.4 148.5Q462.2 149.0 462.2 149.7L462.2 149.7Q462.2 150.5 462.4 151.0Q462.6 151.6 463.0 151.9Q463.4 152.2 464.0 152.2ZM472.3 153.1L472.3 153.1Q471.3 153.1 470.6 152.7Q469.9 152.3 469.6 151.5Q469.2 150.8 469.2 149.8Q469.2 148.8 469.5 148.0Q469.9 147.2 470.6 146.8Q471.2 146.4 472.1 146.4L472.1 146.4Q472.6 146.4 473.2 146.5Q473.7 146.7 474.1 147.1Q474.5 147.5 474.7 148.1Q475.0 148.7 475.0 149.6L475.0 149.6L475.0 150.1L470.2 150.1Q470.3 150.7 470.5 151.2L470.5 151.2Q470.8 151.7 471.2 151.9Q471.7 152.2 472.3 152.2L472.3 152.2Q472.6 152.2 473.0 152.1Q473.3 152.0 473.5 151.8Q473.7 151.5 473.9 151.2L473.9 151.2L474.9 151.5Q474.7 152.0 474.4 152.3Q474.0 152.7 473.5 152.9Q472.9 153.1 472.3 153.1ZM470.3 149.2L470.3 149.2L473.9 149.2Q473.9 148.7 473.7 148.4L473.7 148.4Q473.5 147.9 473.1 147.6Q472.7 147.3 472.1 147.3Q471.5 147.3 471.1 147.6Q470.7 147.9 470.5 148.3L470.5 148.3Q470.3 148.7 470.3 149.2ZM478.5 149.1L478.5 149.1L478.5 153L477.5 153L477.5 146.4L478.5 146.4L478.5 147.7Q478.8 147.0 479.2 146.7L479.2 146.7Q479.8 146.4 480.5 146.4L480.5 146.4Q481.2 146.4 481.7 146.6Q482.2 146.9 482.5 147.5Q482.7 148.0 482.7 148.8L482.7 148.8L482.7 153L481.7 153L481.7 148.9Q481.7 148.2 481.3 147.7Q480.9 147.3 480.2 147.3L480.2 147.3Q479.7 147.3 479.4 147.5Q479.0 147.7 478.8 148.1Q478.5 148.5 478.5 149.1Z M491.2 146.4L492.5 146.4L492.5 147.4L491.2 147.4L491.2 151.3Q491.2 151.7 491.4 151.9Q491.5 152.1 492.0 152.1L492.0 152.1Q492.1 152.1 492.2 152.1Q492.4 152.1 492.5 152.1L492.5 152.1L492.7 153.0Q492.6 153.0 492.3 153.1Q492.1 153.1 491.9 153.1L491.9 153.1Q491.1 153.1 490.6 152.6Q490.1 152.2 490.1 151.4L490.1 151.4L490.1 147.4L489.1 147.4L489.1 146.4L490.1 146.4L490.1 144.9L491.2 144.9L491.2 146.4ZM497.5 153.1L497.5 153.1Q496.7 153.1 496.0 152.7Q495.3 152.3 494.9 151.5Q494.6 150.8 494.6 149.8L494.6 149.8Q494.6 148.7 494.9 148.0Q495.3 147.2 496.0 146.8Q496.7 146.4 497.5 146.4L497.5 146.4Q498.4 146.4 499.1 146.8Q499.8 147.2 500.2 148.0Q500.5 148.7 500.5 149.8L500.5 149.8Q500.5 150.8 500.2 151.5Q499.8 152.3 499.1 152.7Q498.4 153.1 497.5 153.1ZM497.5 152.2L497.5 152.2Q498.2 152.2 498.6 151.9Q499.1 151.5 499.3 151.0Q499.5 150.4 499.5 149.8L499.5 149.8Q499.5 149.1 499.3 148.6Q499.1 148.0 498.6 147.7Q498.2 147.3 497.5 147.3L497.5 147.3Q496.9 147.3 496.5 147.7Q496.0 148.0 495.8 148.6Q495.6 149.1 495.6 149.8L495.6 149.8Q495.6 150.4 495.8 151.0Q496.0 151.5 496.5 151.9Q496.9 152.2 497.5 152.2Z M508.7 153L507.6 153L507.6 144.3L512.9 144.3L512.9 145.3L508.7 145.3L508.7 148.2L512.5 148.2L512.5 149.2L508.7 149.2L508.7 153ZM516.6 153L515.5 153L515.5 146.4L516.6 146.4L516.6 147.5L516.6 147.5Q516.8 147.0 517.3 146.7Q517.7 146.4 518.3 146.4L518.3 146.4Q518.4 146.4 518.6 146.4Q518.8 146.4 518.9 146.4L518.9 146.4L518.9 147.4Q518.8 147.4 518.6 147.4Q518.4 147.4 518.2 147.4L518.2 147.4Q517.8 147.4 517.4 147.6Q517.0 147.8 516.8 148.1Q516.6 148.5 516.6 148.9L516.6 148.9L516.6 153ZM523.8 153.1L523.8 153.1Q522.9 153.1 522.2 152.7Q521.5 152.3 521.1 151.5Q520.7 150.8 520.7 149.8Q520.7 148.8 521.1 148.0Q521.5 147.2 522.1 146.8Q522.8 146.4 523.7 146.4L523.7 146.4Q524.2 146.4 524.7 146.5Q525.2 146.7 525.6 147.1Q526.0 147.5 526.3 148.1Q526.5 148.7 526.5 149.6L526.5 149.6L526.5 150.1L521.8 150.1Q521.8 150.7 522.1 151.2L522.1 151.2Q522.3 151.7 522.8 151.9Q523.2 152.2 523.8 152.2L523.8 152.2Q524.2 152.2 524.5 152.1Q524.8 152.0 525.1 151.8Q525.3 151.5 525.4 151.2L525.4 151.2L526.4 151.5Q526.3 152.0 525.9 152.3Q525.6 152.7 525.0 152.9Q524.5 153.1 523.8 153.1ZM521.8 149.2L521.8 149.2L525.5 149.2Q525.4 148.7 525.3 148.4L525.3 148.4Q525.1 147.9 524.7 147.6Q524.3 147.3 523.7 147.3Q523.1 147.3 522.7 147.6Q522.3 147.9 522.0 148.3L522.0 148.3Q521.8 148.7 521.8 149.2ZM531.8 153.1L531.8 153.1Q530.9 153.1 530.2 152.7Q529.5 152.3 529.1 151.5Q528.7 150.8 528.7 149.8Q528.7 148.8 529.1 148.0Q529.5 147.2 530.1 146.8Q530.8 146.4 531.7 146.4L531.7 146.4Q532.2 146.4 532.7 146.5Q533.2 146.7 533.6 147.1Q534.0 147.5 534.3 148.1Q534.5 148.7 534.5 149.6L534.5 149.6L534.5 150.1L529.8 150.1Q529.8 150.7 530.1 151.2L530.1 151.2Q530.3 151.7 530.8 151.9Q531.2 152.2 531.8 152.2L531.8 152.2Q532.2 152.2 532.5 152.1Q532.8 152.0 533.1 151.8Q533.3 151.5 533.4 151.2L533.4 151.2L534.4 151.5Q534.3 152.0 533.9 152.3Q533.6 152.7 533.0 152.9Q532.5 153.1 531.8 153.1ZM529.8 149.2L529.8 149.2L533.5 149.2Q533.4 148.7 533.3 148.4L533.3 148.4Q533.1 147.9 532.7 147.6Q532.3 147.3 531.7 147.3Q531.1 147.3 530.7 147.6Q530.2 147.9 530.0 148.3L530.0 148.3Q529.8 148.7 529.8 149.2ZM537.0 144.3L538.1 144.3L538.1 153L537.0 153L537.0 144.3ZM542.8 153.2L542.8 153.2Q542.2 153.2 541.7 152.9Q541.2 152.7 540.9 152.2Q540.6 151.8 540.6 151.1L540.6 151.1Q540.6 150.6 540.8 150.2Q541 149.9 541.4 149.7Q541.7 149.5 542.2 149.4Q542.6 149.3 543.1 149.2L543.1 149.2Q543.7 149.1 544.1 149.1Q544.4 149.1 544.6 149.0Q544.8 148.9 544.8 148.6L544.8 148.6L544.8 148.6Q544.8 148.2 544.6 147.9Q544.5 147.6 544.2 147.4Q543.9 147.3 543.4 147.3L543.4 147.3Q542.9 147.3 542.6 147.4Q542.3 147.6 542.1 147.8Q541.9 148.0 541.8 148.3L541.8 148.3L540.7 147.9Q541.0 147.3 541.4 147.0Q541.8 146.6 542.4 146.5Q542.9 146.4 543.4 146.4L543.4 146.4Q543.7 146.4 544.1 146.4Q544.6 146.5 544.9 146.8Q545.3 147.0 545.6 147.5Q545.8 147.9 545.8 148.7L545.8 148.7L545.8 153L544.8 153L544.8 152.1L544.7 152.1Q544.6 152.3 544.4 152.6Q544.1 152.8 543.7 153.0Q543.3 153.2 542.8 153.2ZM543.0 152.2L543.0 152.2Q543.6 152.2 544.0 152.0Q544.4 151.8 544.6 151.4Q544.8 151.0 544.8 150.6L544.8 150.6L544.8 149.7Q544.7 149.8 544.5 149.9Q544.3 149.9 544.0 150.0Q543.7 150.0 543.5 150.0Q543.2 150.1 543.1 150.1L543.1 150.1Q542.7 150.1 542.3 150.3Q542.0 150.4 541.8 150.6Q541.6 150.8 541.6 151.2L541.6 151.2Q541.6 151.5 541.8 151.8Q542.0 152.0 542.3 152.1Q542.6 152.2 543.0 152.2ZM549.7 149.1L549.7 149.1L549.7 153L548.7 153L548.7 146.4L549.7 146.4L549.7 147.7Q550.0 147.0 550.4 146.7L550.4 146.7Q551.0 146.4 551.7 146.4L551.7 146.4Q552.4 146.4 552.9 146.6Q553.4 146.9 553.7 147.5Q553.9 148.0 553.9 148.8L553.9 148.8L553.9 153L552.9 153L552.9 148.9Q552.9 148.2 552.5 147.7Q552.1 147.3 551.4 147.3L551.4 147.3Q550.9 147.3 550.6 147.5Q550.2 147.7 550.0 148.1Q549.7 148.5 549.7 149.1ZM559.4 153.1L559.4 153.1Q558.6 153.1 557.9 152.7Q557.2 152.3 556.8 151.5Q556.5 150.8 556.5 149.8L556.5 149.8Q556.5 148.7 556.8 148.0Q557.2 147.2 557.9 146.8Q558.6 146.4 559.4 146.4L559.4 146.4Q559.9 146.4 560.3 146.5Q560.8 146.6 561.1 146.8Q561.5 147.1 561.7 147.4Q562.0 147.8 562.1 148.2L562.1 148.2L561.1 148.5Q561.0 148.2 560.9 148.0Q560.7 147.8 560.5 147.6Q560.3 147.5 560.0 147.4Q559.8 147.3 559.4 147.3L559.4 147.3Q558.8 147.3 558.4 147.7Q557.9 148.0 557.7 148.6Q557.5 149.1 557.5 149.8L557.5 149.8Q557.5 150.4 557.7 151.0Q557.9 151.5 558.4 151.9Q558.8 152.2 559.4 152.2L559.4 152.2Q559.8 152.2 560.1 152.1Q560.3 152.0 560.5 151.9Q560.8 151.7 560.9 151.5Q561.0 151.3 561.1 151.0L561.1 151.0L562.1 151.3Q562.0 151.7 561.7 152.1Q561.5 152.4 561.1 152.6Q560.8 152.9 560.4 153.0Q559.9 153.1 559.4 153.1ZM567.4 153.1L567.4 153.1Q566.4 153.1 565.8 152.7Q565.1 152.3 564.7 151.5Q564.3 150.8 564.3 149.8Q564.3 148.8 564.7 148.0Q565.0 147.2 565.7 146.8Q566.4 146.4 567.3 146.4L567.3 146.4Q567.8 146.4 568.3 146.5Q568.8 146.7 569.2 147.1Q569.6 147.5 569.9 148.1Q570.1 148.7 570.1 149.6L570.1 149.6L570.1 150.1L565.4 150.1Q565.4 150.7 565.6 151.2L565.6 151.2Q565.9 151.7 566.3 151.9Q566.8 152.2 567.4 152.2L567.4 152.2Q567.8 152.2 568.1 152.1Q568.4 152.0 568.6 151.8Q568.9 151.5 569.0 151.2L569.0 151.2L570.0 151.5Q569.9 152.0 569.5 152.3Q569.1 152.7 568.6 152.9Q568.1 153.1 567.4 153.1ZM565.4 149.2L565.4 149.2L569.0 149.2Q569.0 148.7 568.9 148.4L568.9 148.4Q568.7 147.9 568.3 147.6Q567.9 147.3 567.3 147.3Q566.7 147.3 566.3 147.6Q565.8 147.9 565.6 148.3L565.6 148.3Q565.4 148.7 565.4 149.2Z M579.5 153.1L579.5 153.1Q578.6 153.1 578.0 152.8Q577.4 152.5 577.0 151.9Q576.7 151.4 576.7 150.7L576.7 150.7Q576.7 150.1 576.9 149.7Q577.2 149.3 577.6 149.0L577.6 149.0Q578.0 148.6 578.4 148.3L578.4 148.3Q578.3 148.1 578.2 148.0L578.2 148.0Q577.8 147.6 577.6 147.1Q577.4 146.7 577.4 146.2L577.4 146.2Q577.4 145.6 577.7 145.1Q577.9 144.7 578.4 144.4Q578.9 144.2 579.5 144.2L579.5 144.2Q580.2 144.2 580.7 144.4Q581.1 144.7 581.4 145.1Q581.7 145.5 581.7 146.1L581.7 146.1Q581.7 146.5 581.5 146.8Q581.4 147.1 581.1 147.4Q580.8 147.7 580.5 148.0L580.5 148.0L579.9 148.4L581.7 150.7Q581.8 150.6 581.9 150.4L581.9 150.4Q582.1 149.8 582.1 149.1L582.1 149.1L583.1 149.1Q583.1 150.0 582.9 150.6Q582.7 151.1 582.5 151.4L582.5 151.4Q582.4 151.5 582.4 151.5L582.4 151.5L583.6 153L582.4 153L581.7 152.3Q581.3 152.7 580.8 152.9L580.8 152.9Q580.1 153.1 579.5 153.1ZM581.1 151.5L579.1 149.0L578.8 149.3Q578.2 149.7 578.0 150.0Q577.8 150.4 577.8 150.8L577.8 150.8Q577.8 151.2 578.0 151.5Q578.2 151.8 578.6 152.0Q578.9 152.2 579.4 152.2L579.4 152.2Q579.9 152.2 580.4 152.0L580.4 152.0Q580.8 151.8 581.1 151.5L581.1 151.5ZM579.2 147.7L579.2 147.7L579.8 147.3Q580.0 147.1 580.1 147.0Q580.3 146.8 580.5 146.6Q580.6 146.4 580.6 146.1L580.6 146.1Q580.6 145.6 580.3 145.4Q580.0 145.1 579.6 145.1L579.6 145.1Q579.2 145.1 579.0 145.2Q578.7 145.4 578.6 145.6Q578.5 145.8 578.5 146.2L578.5 146.2Q578.5 146.5 578.6 146.8Q578.8 147.1 579.0 147.4L579.0 147.4Q579.1 147.5 579.2 147.7Z M590.2 144.3L591.4 144.3L591.4 153L590.2 153L590.2 144.3ZM595.4 149.1L595.4 149.1L595.4 153L594.3 153L594.3 146.4L595.3 146.4L595.4 147.7Q595.6 147.0 596.1 146.7L596.1 146.7Q596.6 146.4 597.4 146.4L597.4 146.4Q598.0 146.4 598.5 146.6Q599.0 146.9 599.3 147.5Q599.6 148.0 599.6 148.8L599.6 148.8L599.6 153L598.5 153L598.5 148.9Q598.5 148.2 598.1 147.7Q597.7 147.3 597.0 147.3L597.0 147.3Q596.6 147.3 596.2 147.5Q595.8 147.7 595.6 148.1Q595.4 148.5 595.4 149.1ZM603.7 146.4L605.0 146.4L605.0 147.4L603.7 147.4L603.7 151.3Q603.7 151.7 603.8 151.9Q604.0 152.1 604.4 152.1L604.4 152.1Q604.5 152.1 604.7 152.1Q604.8 152.1 605.0 152.1L605.0 152.1L605.2 153.0Q605.0 153.0 604.8 153.1Q604.6 153.1 604.4 153.1L604.4 153.1Q603.5 153.1 603.1 152.6Q602.6 152.2 602.6 151.4L602.6 151.4L602.6 147.4L601.6 147.4L601.6 146.4L602.6 146.4L602.6 144.9L603.7 144.9L603.7 146.4ZM610.1 153.1L610.1 153.1Q609.2 153.1 608.5 152.7Q607.8 152.3 607.4 151.5Q607.0 150.8 607.0 149.8Q607.0 148.8 607.4 148.0Q607.8 147.2 608.4 146.8Q609.1 146.4 610.0 146.4L610.0 146.4Q610.5 146.4 611.0 146.5Q611.5 146.7 611.9 147.1Q612.3 147.5 612.6 148.1Q612.8 148.7 612.8 149.6L612.8 149.6L612.8 150.1L608.1 150.1Q608.1 150.7 608.4 151.2L608.4 151.2Q608.6 151.7 609.1 151.9Q609.5 152.2 610.1 152.2L610.1 152.2Q610.5 152.2 610.8 152.1Q611.1 152.0 611.4 151.8Q611.6 151.5 611.7 151.2L611.7 151.2L612.7 151.5Q612.6 152.0 612.2 152.3Q611.8 152.7 611.3 152.9Q610.8 153.1 610.1 153.1ZM608.1 149.2L608.1 149.2L611.8 149.2Q611.7 148.7 611.6 148.4L611.6 148.4Q611.4 147.9 611.0 147.6Q610.6 147.3 610.0 147.3Q609.4 147.3 609.0 147.6Q608.5 147.9 608.3 148.3L608.3 148.3Q608.1 148.7 608.1 149.2ZM616.4 153L615.3 153L615.3 146.4L616.4 146.4L616.4 147.5L616.4 147.5Q616.6 147.0 617.1 146.7Q617.5 146.4 618.1 146.4L618.1 146.4Q618.3 146.4 618.4 146.4Q618.6 146.4 618.7 146.4L618.7 146.4L618.7 147.4Q618.6 147.4 618.4 147.4Q618.2 147.4 618.0 147.4L618.0 147.4Q617.6 147.4 617.2 147.6Q616.8 147.8 616.6 148.1Q616.4 148.5 616.4 148.9L616.4 148.9L616.4 153ZM621.9 149.1L621.9 149.1L621.9 153L620.9 153L620.9 146.4L621.9 146.4L621.9 147.7Q622.2 147.0 622.6 146.7L622.6 146.7Q623.1 146.4 623.9 146.4L623.9 146.4Q624.5 146.4 625.0 146.6Q625.5 146.9 625.8 147.5Q626.1 148.0 626.1 148.8L626.1 148.8L626.1 153L625.0 153L625.0 148.9Q625.0 148.2 624.7 147.7Q624.3 147.3 623.6 147.3L623.6 147.3Q623.1 147.3 622.7 147.5Q622.4 147.7 622.1 148.1Q621.9 148.5 621.9 149.1ZM631.2 153.1L631.2 153.1Q630.5 153.1 630.0 152.9Q629.5 152.7 629.1 152.4Q628.8 152.0 628.7 151.4L628.7 151.4L629.7 151.2Q629.8 151.7 630.2 152.0Q630.6 152.2 631.2 152.2L631.2 152.2Q631.9 152.2 632.3 151.9Q632.7 151.6 632.7 151.2L632.7 151.2Q632.7 150.9 632.4 150.7Q632.2 150.4 631.7 150.3L631.7 150.3L630.6 150.1Q629.7 149.9 629.3 149.4Q628.9 149.0 628.9 148.3L628.9 148.3Q628.9 147.7 629.2 147.3Q629.5 146.9 630.0 146.6Q630.6 146.4 631.3 146.4L631.3 146.4Q632.0 146.4 632.4 146.6Q632.9 146.8 633.2 147.1Q633.5 147.5 633.6 147.9L633.6 147.9L632.7 148.2Q632.6 147.8 632.2 147.6Q631.9 147.3 631.3 147.3L631.3 147.3Q630.7 147.3 630.3 147.5Q629.9 147.8 629.9 148.2L629.9 148.2Q629.9 148.6 630.2 148.8Q630.5 149.0 631.0 149.2L631.0 149.2L632.0 149.4Q632.9 149.6 633.3 150.0Q633.8 150.5 633.8 151.2L633.8 151.2Q633.8 151.7 633.4 152.2Q633.1 152.6 632.5 152.9Q631.9 153.1 631.2 153.1ZM637.3 149.1L637.3 149.1L637.3 153L636.3 153L636.3 144.3L637.3 144.3L637.3 147.6Q637.6 147.0 638.0 146.7L638.0 146.7Q638.6 146.4 639.3 146.4L639.3 146.4Q640.0 146.4 640.5 146.6Q641.0 146.9 641.3 147.5Q641.5 148.0 641.5 148.8L641.5 148.8L641.5 153L640.5 153L640.5 148.9Q640.5 148.2 640.1 147.7Q639.7 147.3 639.0 147.3L639.0 147.3Q638.5 147.3 638.2 147.5Q637.8 147.7 637.6 148.1Q637.3 148.5 637.3 149.1ZM645.4 153L644.4 153L644.4 146.4L645.4 146.4L645.4 153ZM644.9 145.4L644.9 145.4Q644.6 145.4 644.4 145.2Q644.2 145.0 644.2 144.7L644.2 144.7Q644.2 144.4 644.4 144.2Q644.6 144.0 644.9 144.0L644.9 144.0Q645.2 144.0 645.4 144.2Q645.7 144.4 645.7 144.7L645.7 144.7Q645.7 145.0 645.4 145.2Q645.2 145.4 644.9 145.4ZM649.3 155.4L648.3 155.4L648.3 146.4L649.3 146.4L649.3 147.5L649.4 147.5Q649.5 147.3 649.7 147.1Q649.9 146.8 650.3 146.6Q650.7 146.4 651.3 146.4L651.3 146.4Q652.1 146.4 652.8 146.8Q653.4 147.2 653.7 147.9Q654.1 148.7 654.1 149.7L654.1 149.7Q654.1 150.8 653.8 151.5Q653.4 152.3 652.8 152.7Q652.2 153.1 651.3 153.1L651.3 153.1Q650.7 153.1 650.3 152.9Q649.9 152.7 649.7 152.4Q649.5 152.2 649.4 152.0L649.4 152.0L649.3 152.0L649.3 155.4ZM651.2 152.2L651.2 152.2Q651.8 152.2 652.2 151.9Q652.6 151.5 652.8 151.0Q653.0 150.4 653.0 149.7L653.0 149.7Q653.0 149.1 652.8 148.5Q652.6 148.0 652.2 147.6Q651.8 147.3 651.2 147.3L651.2 147.3Q650.6 147.3 650.2 147.6Q649.7 147.9 649.5 148.5Q649.3 149.0 649.3 149.7L649.3 149.7Q649.3 150.5 649.5 151.0Q649.8 151.6 650.2 151.9Q650.6 152.2 651.2 152.2ZM658.9 153.1L658.9 153.1Q658.2 153.1 657.7 152.9Q657.1 152.7 656.8 152.4Q656.5 152.0 656.3 151.4L656.3 151.4L657.3 151.2Q657.5 151.7 657.9 152.0Q658.3 152.2 658.9 152.2L658.9 152.2Q659.5 152.2 659.9 151.9Q660.4 151.6 660.4 151.2L660.4 151.2Q660.4 150.9 660.1 150.7Q659.9 150.4 659.4 150.3L659.4 150.3L658.3 150.1Q657.4 149.9 657.0 149.4Q656.5 149.0 656.5 148.3L656.5 148.3Q656.5 147.7 656.9 147.3Q657.2 146.9 657.7 146.6Q658.3 146.4 659.0 146.4L659.0 146.4Q659.6 146.4 660.1 146.6Q660.6 146.8 660.9 147.1Q661.2 147.5 661.3 147.9L661.3 147.9L660.4 148.2Q660.2 147.8 659.9 147.6Q659.6 147.3 659.0 147.3L659.0 147.3Q658.4 147.3 658.0 147.5Q657.6 147.8 657.6 148.2L657.6 148.2Q657.6 148.6 657.9 148.8Q658.1 149.0 658.7 149.2L658.7 149.2L659.7 149.4Q660.6 149.6 661.0 150.0Q661.4 150.5 661.4 151.2L661.4 151.2Q661.4 151.7 661.1 152.2Q660.8 152.6 660.2 152.9Q659.6 153.1 658.9 153.1Z "/></g></svg>