<!-- Generated by readme-aura https://github.com/collectioneur/readme-aura -->
<svg width="860" height="260" viewBox="0 0 860 260" xmlns="http://www.w3.org/2000/svg"><clipPath id="satori_cp-id"><path x="0" y="0" width="860" height="260" d="M16,0 h828 a16,16 0 0 1 16,16 v228 a16,16 0 0 1 -16,16 h-828 a16,16 0 0 1 -16,-16 v-228 a16,16 0 0 1 16,-16"/></clipPath><mask id="satori_om-id"><rect x="0" y="0" width="860" height="260" fill="#fff"/></mask><path x="0" y="0" width="860" height="260" fill="#0d0810" d="M16,0 h828 a16,16 0 0 1 16,16 v228 a16,16 0 0 1 -16,16 h-828 a16,16 0 0 1 -16,-16 v-228 a16,16 0 0 1 16,-16"/><clipPath id="satori_cp-id-0" clip-path="url(#satori_cp-id)"><rect x="0" y="0" width="860" height="260"/></clipPath><mask id="satori_om-id-0"><rect x="0" y="0" width="860" height="260" fill="#fff" mask="url(#satori_om-id)"/></mask><svg x="0" y="0" width="860" height="260" preserveAspectRatio="none" clip-path="url(#satori_cp-id-0)" mask="url(#satori_om-id-0)"><defs><radialGradient id="sg1" cx="50%" cy="50%" r="50%"><stop offset="0%" stop-color="rgba(80,18,35,0.75)"></stop><stop offset="100%" stop-color="rgba(80,18,35,0)"></stop></radialGradient><radialGradient id="sg2" cx="50%" cy="50%" r="50%"><stop offset="0%" stop-color="rgba(130,55,75,0.55)"></stop><stop offset="100%" stop-color="rgba(130,55,75,0)"></stop></radialGradient><radialGradient id="sg3" cx="50%" cy="50%" r="50%"><stop offset="0%" stop-color="rgba(217,157,135,0.18)"></stop><stop offset="100%" stop-color="rgba(217,157,135,0)"></stop></radialGradient></defs><ellipse id="sb1" cx="150" cy="250" rx="300" ry="160" fill="url(#sg1)"></ellipse><ellipse id="sb2" cx="680" cy="250" rx="270" ry="150" fill="url(#sg2)"></ellipse><ellipse id="sb3" cx="430" cy="130" rx="180" ry="100" fill="url(#sg3)"></ellipse><style>

    @keyframes s1 { 0%,100%{transform:translateX(0);opacity:.6} 50%{transform:translateX(220px);opacity:.85} }
    @keyframes s2 { 0%,100%{transform:translateX(0);opacity:.5} 50%{transform:translateX(-190px);opacity:.8} }
    @keyframes s3 { 0%,100%{opacity:.7} 50%{opacity:.35} }
    #sb1{animation:s1 13s ease-in-out infinite} #sb2{animation:s2 10s ease-in-out infinite} #sb3{animation:s3 8s ease-in-out infinite}
  
</style>
</svg><mask id="satori_om-id-0-0"><rect x="0" y="0" width="0" height="260" fill="#fff" mask="url(#satori_om-id)"/></mask><mask id="satori_om-id-0-0-0"><rect x="0" y="0" width="0" height="260" fill="#fff" mask="url(#satori_om-id)"/></mask><mask id="satori_om-id-0-0-0-0"><rect x="0" y="0" width="0" height="260" fill="#fff" mask="url(#satori_om-id)"/></mask><mask id="satori_om-id-0-0-0-1"><rect x="0" y="0" width="0" height="260" fill="#fff" mask="url(#satori_om-id)"/></mask><mask id="satori_om-id-0-0-1"><rect x="0" y="0" width="0" height="260" fill="#fff" mask="url(#satori_om-id)"/></mask><mask id="satori_om-id-0-0-1-0"><rect x="0" y="0" width="0" height="260" fill="#fff" mask="url(#satori_om-id)"/></mask><mask id="satori_om-id-0-0-1-1"><rect x="0" y="0" width="0" height="260" fill="#fff" mask="url(#satori_om-id)"/></mask><mask id="satori_om-id-0-0-2"><rect x="0" y="0" width="0" height="260" fill="#fff" mask="url(#satori_om-id)"/></mask><mask id="satori_om-id-0-0-2-0"><rect x="0" y="0" width="0" height="260" fill="#fff" mask="url(#satori_om-id)"/></mask><mask id="satori_om-id-0-0-2-1"><rect x="0" y="0" width="0" height="260" fill="#fff" mask="url(#satori_om-id)"/></mask><mask id="satori_om-id-0-1"><rect x="0" y="0" width="0" height="260" fill="#fff" mask="url(#satori_om-id)"/></mask><mask id="satori_om-id-0-2"><rect x="0" y="0" width="0" height="260" fill="#fff" mask="url(#satori_om-id)"/></mask><mask id="satori_om-id-0-3"><rect x="0" y="0" width="0" height="260" fill="#fff" mask="url(#satori_om-id)"/></mask><mask id="satori_om-id-1"><rect x="0" y="38" width="860" height="185" fill="#fff" mask="url(#satori_om-id)"/></mask><mask id="satori_om-id-1-0"><rect x="343" y="38" width="174" height="13" fill="#fff" mask="url(#satori_om-id)"/></mask><g mask="url(#satori_om-id)" clip-path="url(#satori_cp-id)"><path fill="rgba(217,157,135,0.5)" d="M343 45.1L354 45.1L354 46.0L343 46.0L343 45.1Z M369.3 49.1L369.3 49.1Q368.3 49.1 367.5 48.6Q366.7 48.1 366.2 47.2Q365.7 46.3 365.7 45.0L365.7 45.0Q365.7 43.7 366.2 42.8Q366.7 41.9 367.4 41.4Q368.2 40.9 369.3 40.9L369.3 40.9Q369.9 40.9 370.5 41.1Q371.0 41.3 371.4 41.6Q371.9 42.0 372.2 42.4Q372.4 42.9 372.6 43.5L372.6 43.5L371.5 43.5Q371.4 43.1 371.2 42.8Q371.0 42.5 370.7 42.3Q370.4 42.1 370.1 42.0Q369.7 41.8 369.3 41.8L369.3 41.8Q368.6 41.8 368.0 42.2Q367.4 42.6 367.1 43.3Q366.7 44.0 366.7 45.0L366.7 45.0Q366.7 46.0 367.1 46.7Q367.4 47.4 368.0 47.8Q368.6 48.2 369.3 48.2L369.3 48.2Q370.0 48.2 370.5 47.9Q371.0 47.6 371.3 47.1L371.3 47.1Q371.6 46.6 371.6 45.9L371.6 45.9L369.5 45.9L369.5 45.0L372.6 45.0L372.6 45.9Q372.6 46.8 372.2 47.6Q371.8 48.3 371.0 48.7Q370.3 49.1 369.3 49.1ZM378.3 41.0L379.3 41.0L379.3 49L378.3 49L378.3 41.0ZM387.3 41.9L384.8 41.9L384.8 41.0L390.8 41.0L390.8 41.9L388.3 41.9L388.3 49L387.3 49L387.3 41.9ZM397.3 49L396.3 49L396.3 41.0L397.3 41.0L397.3 44.5L401.5 44.5L401.5 41.0L402.6 41.0L402.6 49L401.5 49L401.5 45.4L397.3 45.4L397.3 49ZM411.6 49.1L411.6 49.1Q410.7 49.1 410.0 48.8Q409.3 48.4 408.9 47.7Q408.5 47.1 408.5 46.3L408.5 46.3L408.5 41.0L409.5 41.0L409.5 46.2Q409.5 46.8 409.8 47.2Q410.0 47.7 410.5 47.9Q411.0 48.2 411.6 48.2L411.6 48.2Q412.3 48.2 412.8 47.9Q413.2 47.7 413.5 47.2Q413.7 46.8 413.7 46.2L413.7 46.2L413.7 41.0L414.7 41.0L414.7 46.3Q414.7 47.1 414.4 47.7Q414.0 48.4 413.3 48.8Q412.6 49.1 411.6 49.1ZM423.6 49L420.7 49L420.7 41.0L423.5 41.0Q424.4 41.0 424.9 41.3Q425.4 41.6 425.7 42.1Q426.0 42.5 426.0 43.1L426.0 43.1Q426.0 43.6 425.8 44.0Q425.6 44.3 425.3 44.5Q425.0 44.7 424.7 44.8L424.7 44.8L424.7 44.9Q425.0 44.9 425.4 45.1Q425.8 45.4 426.0 45.8Q426.3 46.2 426.3 46.9L426.3 46.9Q426.3 47.5 426.0 48.0Q425.7 48.4 425.1 48.7Q424.6 49 423.6 49L423.6 49ZM421.7 45.4L421.7 48.1L423.6 48.1Q424.5 48.1 424.9 47.7Q425.3 47.4 425.3 46.9L425.3 46.9Q425.3 46.5 425.1 46.1Q424.9 45.8 424.5 45.6Q424.2 45.4 423.6 45.4L423.6 45.4L421.7 45.4ZM421.7 41.9L421.7 44.5L423.5 44.5Q423.9 44.5 424.2 44.3Q424.6 44.2 424.8 43.9Q425.0 43.6 425.0 43.1L425.0 43.1Q425.0 42.6 424.6 42.3Q424.3 41.9 423.5 41.9L423.5 41.9L421.7 41.9Z M441.5 49.1L441.5 49.1Q440.7 49.1 440.0 48.9Q439.4 48.6 439.0 48.1Q438.7 47.6 438.6 46.9L438.6 46.9L439.7 46.9Q439.7 47.4 440.0 47.6Q440.2 47.9 440.7 48.1Q441.1 48.2 441.5 48.2L441.5 48.2Q442.1 48.2 442.5 48.0Q442.9 47.9 443.2 47.5Q443.4 47.2 443.4 46.8L443.4 46.8Q443.4 46.4 443.2 46.2Q443.0 45.9 442.7 45.8Q442.3 45.6 441.9 45.5L441.9 45.5L440.9 45.2Q439.9 45.0 439.4 44.4Q438.9 43.9 438.9 43.1L438.9 43.1Q438.9 42.5 439.2 42.0Q439.6 41.4 440.2 41.2Q440.8 40.9 441.6 40.9L441.6 40.9Q442.4 40.9 443.0 41.2Q443.6 41.4 444.0 41.9Q444.3 42.4 444.3 43.0L444.3 43.0L443.3 43.0Q443.3 42.4 442.8 42.1Q442.3 41.8 441.6 41.8L441.6 41.8Q441.1 41.8 440.7 42.0Q440.3 42.1 440.1 42.4Q439.8 42.7 439.8 43.1L439.8 43.1Q439.8 43.5 440.1 43.8Q440.4 44.0 440.7 44.2Q441.1 44.3 441.4 44.4L441.4 44.4L442.2 44.6Q442.5 44.7 442.9 44.8Q443.3 45.0 443.6 45.2Q444.0 45.5 444.2 45.9Q444.4 46.3 444.4 46.8L444.4 46.8Q444.4 47.5 444.1 48.0Q443.8 48.5 443.1 48.8Q442.5 49.1 441.5 49.1ZM452.1 41.9L449.6 41.9L449.6 41.0L455.6 41.0L455.6 41.9L453.1 41.9L453.1 49L452.1 49L452.1 41.9ZM461.5 49L460.4 49L463.4 41.0L464.5 41.0L467.5 49L466.4 49L465.6 46.8L462.3 46.8L461.5 49ZM462.6 45.9L465.3 45.9L464.7 44.3Q464.5 43.8 464.3 43.2L464.3 43.2Q464.2 42.6 463.9 41.8L463.9 41.8Q463.7 42.6 463.5 43.2L463.5 43.2Q463.3 43.8 463.2 44.3L463.2 44.3L462.6 45.9ZM474.8 41.9L472.3 41.9L472.3 41.0L478.3 41.0L478.3 41.9L475.8 41.9L475.8 49L474.8 49L474.8 41.9ZM486.4 49.1L486.4 49.1Q485.5 49.1 484.9 48.9Q484.2 48.6 483.9 48.1Q483.5 47.6 483.5 46.9L483.5 46.9L484.5 46.9Q484.6 47.4 484.8 47.6Q485.1 47.9 485.5 48.1Q485.9 48.2 486.4 48.2L486.4 48.2Q486.9 48.2 487.4 48.0Q487.8 47.9 488.0 47.5Q488.3 47.2 488.3 46.8L488.3 46.8Q488.3 46.4 488.1 46.2Q487.9 45.9 487.5 45.8Q487.1 45.6 486.7 45.5L486.7 45.5L485.7 45.2Q484.8 45.0 484.2 44.4Q483.7 43.9 483.7 43.1L483.7 43.1Q483.7 42.5 484.1 42.0Q484.4 41.4 485.1 41.2Q485.7 40.9 486.5 40.9L486.5 40.9Q487.2 40.9 487.9 41.2Q488.5 41.4 488.8 41.9Q489.2 42.4 489.2 43.0L489.2 43.0L488.2 43.0Q488.1 42.4 487.6 42.1Q487.1 41.8 486.4 41.8L486.4 41.8Q485.9 41.8 485.5 42.0Q485.1 42.1 484.9 42.4Q484.7 42.7 484.7 43.1L484.7 43.1Q484.7 43.5 485.0 43.8Q485.2 44.0 485.6 44.2Q485.9 44.3 486.2 44.4L486.2 44.4L487.0 44.6Q487.3 44.7 487.7 44.8Q488.1 45.0 488.5 45.2Q488.8 45.5 489.1 45.9Q489.3 46.3 489.3 46.8L489.3 46.8Q489.3 47.5 488.9 48.0Q488.6 48.5 488.0 48.8Q487.3 49.1 486.4 49.1Z M501.0 45.1L512.0 45.1L512.0 46.0L501.0 46.0L501.0 45.1Z "/></g><mask id="satori_om-id-1-1"><rect x="50" y="71" width="760" height="52" fill="#fff" mask="url(#satori_om-id)"/></mask><mask id="satori_om-id-1-1-0"><rect x="236" y="71" width="96" height="52" fill="#fff" mask="url(#satori_om-id)"/></mask><mask id="satori_om-id-1-1-0-0"><rect x="274" y="71" width="20" height="34" fill="#fff" mask="url(#satori_om-id)"/></mask><g mask="url(#satori_om-id)" clip-path="url(#satori_cp-id)"><path fill="#d99d87" d="M283.4 98.3L283.4 98.3Q281.8 98.3 280.4 97.8Q278.9 97.2 277.8 96.1Q276.6 94.9 276.0 93.0Q275.3 91.1 275.3 88.3L275.3 88.3Q275.3 85.7 275.9 83.7Q276.4 81.7 277.5 80.3Q278.6 78.8 280.1 78.1Q281.6 77.4 283.5 77.4L283.5 77.4Q285.5 77.4 287.1 78.1Q288.6 78.9 289.6 80.3Q290.5 81.6 290.7 83.3L290.7 83.3L286.6 83.3Q286.3 82.2 285.5 81.6Q284.7 81.0 283.5 81.0L283.5 81.0Q282.2 81.0 281.2 81.7Q280.3 82.5 279.9 84.0Q279.4 85.4 279.4 87.5L279.4 87.5L279.5 87.5Q280.0 86.6 280.8 85.9Q281.5 85.3 282.5 85.0Q283.5 84.6 284.6 84.6L284.6 84.6Q286.4 84.6 287.9 85.5Q289.3 86.3 290.1 87.8Q290.9 89.3 290.9 91.2L290.9 91.2Q290.9 93.3 290.0 94.9Q289.0 96.5 287.3 97.4Q285.6 98.3 283.4 98.3ZM283.3 95.0L283.3 95.0Q284.3 95.0 285.1 94.5Q285.9 94.0 286.4 93.2Q286.9 92.3 286.9 91.3L286.9 91.3Q286.9 90.3 286.4 89.5Q285.9 88.6 285.2 88.1Q284.4 87.7 283.4 87.7L283.4 87.7Q282.6 87.7 282.0 88.0Q281.3 88.2 280.8 88.7Q280.3 89.3 280.1 89.9Q279.8 90.6 279.8 91.3L279.8 91.3Q279.8 92.3 280.3 93.1Q280.7 94.0 281.5 94.5Q282.3 95.0 283.3 95.0Z "/></g><mask id="satori_om-id-1-1-0-1"><rect x="236" y="111" width="96" height="12" fill="#fff" mask="url(#satori_om-id)"/></mask><g mask="url(#satori_om-id)" clip-path="url(#satori_cp-id)"><path fill="rgba(123,98,97,0.7)" d="M237.8 121L236.9 121L236.9 113.7L239.4 113.7Q240.2 113.7 240.8 114.0Q241.3 114.3 241.6 114.8Q241.8 115.3 241.8 116.0Q241.8 116.6 241.6 117.1Q241.3 117.6 240.8 117.9L240.8 117.9Q240.6 118.0 240.5 118.0L240.5 118.0L242.1 121L241.1 121L239.5 118.2Q239.5 118.2 239.4 118.2L239.4 118.2L237.8 118.2L237.8 121ZM237.8 114.5L237.8 117.4L239.3 117.4Q239.9 117.4 240.3 117.2Q240.6 117.0 240.8 116.7Q240.9 116.4 240.9 116.0L240.9 116.0Q240.9 115.5 240.8 115.2Q240.6 114.9 240.3 114.7Q239.9 114.5 239.3 114.5L239.3 114.5L237.8 114.5ZM249.8 121L245.3 121L245.3 113.7L249.7 113.7L249.7 114.5L246.2 114.5L246.2 116.9L249.5 116.9L249.5 117.7L246.2 117.7L246.2 120.2L249.8 120.2L249.8 121ZM254.3 121L253.3 121L253.3 113.7L255.8 113.7Q256.7 113.7 257.2 114.0Q257.8 114.3 258.0 114.9Q258.3 115.4 258.3 116.0Q258.3 116.7 258.0 117.2Q257.8 117.7 257.2 118.1Q256.7 118.4 255.8 118.4L255.8 118.4L254.3 118.4L254.3 121ZM254.3 114.5L254.3 117.6L255.8 117.6Q256.4 117.6 256.7 117.4Q257.1 117.2 257.2 116.8Q257.4 116.5 257.4 116.0Q257.4 115.6 257.2 115.3Q257.1 114.9 256.7 114.7Q256.3 114.5 255.8 114.5L255.8 114.5L254.3 114.5ZM264.7 121.1L264.7 121.1Q263.7 121.1 263.0 120.6Q262.3 120.2 261.8 119.4Q261.4 118.5 261.4 117.4L261.4 117.4Q261.4 116.2 261.8 115.4Q262.3 114.5 263.0 114.1Q263.7 113.6 264.7 113.6L264.7 113.6Q265.6 113.6 266.3 114.1Q267.0 114.5 267.5 115.4Q267.9 116.2 267.9 117.4L267.9 117.4Q267.9 118.5 267.5 119.4Q267.0 120.2 266.3 120.6Q265.6 121.1 264.7 121.1ZM264.7 120.2L264.7 120.2Q265.3 120.2 265.8 119.9Q266.4 119.6 266.7 118.9Q267.0 118.3 267.0 117.4L267.0 117.4Q267.0 116.4 266.7 115.8Q266.4 115.1 265.8 114.8Q265.3 114.5 264.7 114.5L264.7 114.5Q264.0 114.5 263.5 114.8Q263.0 115.2 262.6 115.8Q262.3 116.4 262.3 117.4L262.3 117.4Q262.3 118.3 262.6 118.9Q263.0 119.6 263.5 119.9Q264.0 120.2 264.7 120.2ZM273.7 121.1L273.7 121.1Q272.9 121.1 272.3 120.9Q271.7 120.6 271.4 120.2Q271.1 119.7 271.0 119.1L271.0 119.1L272.0 119.1Q272.0 119.5 272.3 119.8Q272.5 120.0 272.9 120.2Q273.3 120.3 273.7 120.3L273.7 120.3Q274.2 120.3 274.6 120.1Q275.0 120.0 275.2 119.7Q275.4 119.4 275.4 119.0L275.4 119.0Q275.4 118.7 275.2 118.4Q275.0 118.2 274.7 118.1Q274.4 117.9 274.0 117.8L274.0 117.8L273.1 117.6Q272.2 117.3 271.7 116.9Q271.3 116.4 271.3 115.7L271.3 115.7Q271.3 115.1 271.6 114.6Q271.9 114.1 272.5 113.9Q273.0 113.6 273.8 113.6L273.8 113.6Q274.5 113.6 275.0 113.9Q275.6 114.1 275.9 114.6Q276.2 115.0 276.2 115.6L276.2 115.6L275.3 115.6Q275.3 115.0 274.8 114.7Q274.4 114.4 273.7 114.4L273.7 114.4Q273.3 114.4 272.9 114.6Q272.5 114.8 272.3 115.0Q272.2 115.3 272.2 115.6L272.2 115.6Q272.2 116.0 272.4 116.2Q272.6 116.5 273.0 116.6Q273.3 116.7 273.5 116.8L273.5 116.8L274.3 117.0Q274.6 117.1 274.9 117.2Q275.3 117.4 275.6 117.6Q275.9 117.8 276.1 118.2Q276.3 118.5 276.3 119.0L276.3 119.0Q276.3 119.6 276.0 120.1Q275.7 120.6 275.1 120.8Q274.5 121.1 273.7 121.1ZM279.8 113.7L280.7 113.7L280.7 121L279.8 121L279.8 113.7ZM286.3 114.5L284.1 114.5L284.1 113.7L289.6 113.7L289.6 114.5L287.3 114.5L287.3 121L286.3 121L286.3 114.5ZM295.9 121.1L295.9 121.1Q294.9 121.1 294.2 120.6Q293.5 120.2 293.1 119.4Q292.6 118.5 292.6 117.4L292.6 117.4Q292.6 116.2 293.1 115.4Q293.5 114.5 294.2 114.1Q294.9 113.6 295.9 113.6L295.9 113.6Q296.8 113.6 297.5 114.1Q298.3 114.5 298.7 115.4Q299.1 116.2 299.1 117.4L299.1 117.4Q299.1 118.5 298.7 119.4Q298.3 120.2 297.5 120.6Q296.8 121.1 295.9 121.1ZM295.9 120.2L295.9 120.2Q296.5 120.2 297.0 119.9Q297.6 119.6 297.9 118.9Q298.2 118.3 298.2 117.4L298.2 117.4Q298.2 116.4 297.9 115.8Q297.6 115.1 297.0 114.8Q296.5 114.5 295.9 114.5L295.9 114.5Q295.2 114.5 294.7 114.8Q294.2 115.2 293.8 115.8Q293.5 116.4 293.5 117.4L293.5 117.4Q293.5 118.3 293.8 118.9Q294.2 119.6 294.7 119.9Q295.2 120.2 295.9 120.2ZM303.5 121L302.6 121L302.6 113.7L305.1 113.7Q305.9 113.7 306.5 114.0Q307 114.3 307.3 114.8Q307.5 115.3 307.5 116.0Q307.5 116.6 307.3 117.1Q307 117.6 306.5 117.9L306.5 117.9Q306.3 118.0 306.2 118.0L306.2 118.0L307.8 121L306.7 121L305.2 118.2Q305.1 118.2 305.1 118.2L305.1 118.2L303.5 118.2L303.5 121ZM303.5 114.5L303.5 117.4L305.0 117.4Q305.6 117.4 305.9 117.2Q306.3 117.0 306.4 116.7Q306.6 116.4 306.6 116.0L306.6 116.0Q306.6 115.5 306.4 115.2Q306.3 114.9 305.9 114.7Q305.6 114.5 305.0 114.5L305.0 114.5L303.5 114.5ZM311.0 113.7L311.9 113.7L311.9 121L311.0 121L311.0 113.7ZM320.2 121L315.7 121L315.7 113.7L320.1 113.7L320.1 114.5L316.6 114.5L316.6 116.9L319.9 116.9L319.9 117.7L316.6 117.7L316.6 120.2L320.2 120.2L320.2 121ZM326.0 121.1L326.0 121.1Q325.2 121.1 324.7 120.9Q324.1 120.6 323.8 120.2Q323.4 119.7 323.4 119.1L323.4 119.1L324.3 119.1Q324.4 119.5 324.6 119.8Q324.9 120.0 325.2 120.2Q325.6 120.3 326.0 120.3L326.0 120.3Q326.5 120.3 326.9 120.1Q327.3 120.0 327.5 119.7Q327.8 119.4 327.8 119.0L327.8 119.0Q327.8 118.7 327.6 118.4Q327.4 118.2 327.0 118.1Q326.7 117.9 326.3 117.8L326.3 117.8L325.4 117.6Q324.6 117.3 324.1 116.9Q323.6 116.4 323.6 115.7L323.6 115.7Q323.6 115.1 323.9 114.6Q324.3 114.1 324.8 113.9Q325.4 113.6 326.1 113.6L326.1 113.6Q326.8 113.6 327.4 113.9Q327.9 114.1 328.2 114.6Q328.5 115.0 328.6 115.6L328.6 115.6L327.7 115.6Q327.6 115.0 327.2 114.7Q326.7 114.4 326.1 114.4L326.1 114.4Q325.6 114.4 325.2 114.6Q324.9 114.8 324.7 115.0Q324.5 115.3 324.5 115.6L324.5 115.6Q324.5 116.0 324.7 116.2Q325.0 116.5 325.3 116.6Q325.6 116.7 325.9 116.8L325.9 116.8L326.6 117.0Q326.9 117.1 327.3 117.2Q327.6 117.4 327.9 117.6Q328.2 117.8 328.5 118.2Q328.7 118.5 328.7 119.0L328.7 119.0Q328.7 119.6 328.4 120.1Q328.0 120.6 327.5 120.8Q326.9 121.1 326.0 121.1Z "/></g><mask id="satori_om-id-1-1-1"><rect x="362" y="71" width="80" height="52" fill="#fff" mask="url(#satori_om-id)"/></mask><mask id="satori_om-id-1-1-1-0"><rect x="393" y="71" width="19" height="34" fill="#fff" mask="url(#satori_om-id)"/></mask><g mask="url(#satori_om-id)" clip-path="url(#satori_cp-id)"><path fill="#d99d87" d="M409.1 98L394.7 98L394.7 95.0L401.9 88.2Q402.8 87.3 403.5 86.6Q404.1 85.9 404.5 85.2Q404.8 84.5 404.8 83.6L404.8 83.6Q404.8 82.7 404.4 82.1Q404.0 81.4 403.3 81.0Q402.5 80.7 401.6 80.7L401.6 80.7Q400.7 80.7 400.0 81.1Q399.3 81.5 398.9 82.2Q398.5 82.9 398.5 83.9L398.5 83.9L394.5 83.9Q394.5 81.9 395.4 80.4Q396.3 79.0 397.9 78.2Q399.5 77.4 401.7 77.4L401.7 77.4Q403.8 77.4 405.4 78.1Q407.0 78.9 407.9 80.3Q408.8 81.6 408.8 83.4L408.8 83.4Q408.8 84.5 408.4 85.6Q407.9 86.7 406.8 88.1Q405.7 89.5 403.6 91.4L403.6 91.4L400.5 94.4L400.5 94.6L409.1 94.6L409.1 98Z "/></g><mask id="satori_om-id-1-1-1-1"><rect x="362" y="111" width="80" height="12" fill="#fff" mask="url(#satori_om-id)"/></mask><g mask="url(#satori_om-id)" clip-path="url(#satori_cp-id)"><path fill="rgba(123,98,97,0.7)" d="M363.8 121L362.9 121L362.9 113.7L367.3 113.7L367.3 114.5L363.8 114.5L363.8 117.0L366.9 117.0L366.9 117.9L363.8 117.9L363.8 121ZM373.7 121.1L373.7 121.1Q372.8 121.1 372.1 120.6Q371.3 120.2 370.9 119.4Q370.5 118.5 370.5 117.4L370.5 117.4Q370.5 116.2 370.9 115.4Q371.3 114.5 372.1 114.1Q372.8 113.6 373.7 113.6L373.7 113.6Q374.7 113.6 375.4 114.1Q376.1 114.5 376.5 115.4Q377.0 116.2 377.0 117.4L377.0 117.4Q377.0 118.5 376.5 119.4Q376.1 120.2 375.4 120.6Q374.7 121.1 373.7 121.1ZM373.7 120.2L373.7 120.2Q374.4 120.2 374.9 119.9Q375.4 119.6 375.7 118.9Q376.1 118.3 376.1 117.4L376.1 117.4Q376.1 116.4 375.7 115.8Q375.4 115.1 374.9 114.8Q374.4 114.5 373.7 114.5L373.7 114.5Q373.1 114.5 372.5 114.8Q372.0 115.2 371.7 115.8Q371.4 116.4 371.4 117.4L371.4 117.4Q371.4 118.3 371.7 118.9Q372.0 119.6 372.5 119.9Q373.1 120.2 373.7 120.2ZM384.7 121L380.4 121L380.4 113.7L381.4 113.7L381.4 120.2L384.7 120.2L384.7 121ZM392.4 121L388.1 121L388.1 113.7L389.0 113.7L389.0 120.2L392.4 120.2L392.4 121ZM398.7 121.1L398.7 121.1Q397.8 121.1 397.0 120.6Q396.3 120.2 395.9 119.4Q395.5 118.5 395.5 117.4L395.5 117.4Q395.5 116.2 395.9 115.4Q396.3 114.5 397.0 114.1Q397.8 113.6 398.7 113.6L398.7 113.6Q399.6 113.6 400.3 114.1Q401.1 114.5 401.5 115.4Q401.9 116.2 401.9 117.4L401.9 117.4Q401.9 118.5 401.5 119.4Q401.1 120.2 400.3 120.6Q399.6 121.1 398.7 121.1ZM398.7 120.2L398.7 120.2Q399.3 120.2 399.9 119.9Q400.4 119.6 400.7 118.9Q401.0 118.3 401.0 117.4L401.0 117.4Q401.0 116.4 400.7 115.8Q400.4 115.1 399.9 114.8Q399.3 114.5 398.7 114.5L398.7 114.5Q398.0 114.5 397.5 114.8Q397.0 115.2 396.7 115.8Q396.4 116.4 396.4 117.4L396.4 117.4Q396.4 118.3 396.7 118.9Q397.0 119.6 397.5 119.9Q398.0 120.2 398.7 120.2ZM407.8 121L406.7 121L404.8 113.7L405.7 113.7L406.9 118.2Q407.0 118.5 407.0 118.9Q407.1 119.3 407.2 119.7L407.2 119.7Q407.2 119.9 407.3 120.1L407.3 120.1Q407.3 119.9 407.4 119.7L407.4 119.7Q407.5 119.3 407.5 118.9Q407.6 118.5 407.7 118.2L407.7 118.2L408.9 113.7L410.0 113.7L411.1 118.2Q411.2 118.5 411.3 118.9Q411.4 119.3 411.5 119.7L411.5 119.7Q411.5 119.9 411.6 120.1L411.6 120.1Q411.6 119.9 411.7 119.7L411.7 119.7Q411.7 119.3 411.8 118.9Q411.9 118.5 412 118.2L412 118.2L413.1 113.7L414.1 113.7L412.1 121L411.0 121L409.8 116.4Q409.7 115.9 409.5 115.4L409.5 115.4Q409.5 115.1 409.4 114.8L409.4 114.8Q409.4 115.1 409.3 115.4L409.3 115.4Q409.2 115.9 409.1 116.4L409.1 116.4L407.8 121ZM421.7 121L417.2 121L417.2 113.7L421.7 113.7L421.7 114.5L418.2 114.5L418.2 116.9L421.4 116.9L421.4 117.7L418.2 117.7L418.2 120.2L421.7 120.2L421.7 121ZM426.2 121L425.2 121L425.2 113.7L427.7 113.7Q428.6 113.7 429.1 114.0Q429.7 114.3 430.0 114.8Q430.2 115.3 430.2 116.0Q430.2 116.6 430.0 117.1Q429.7 117.6 429.1 117.9L429.1 117.9Q429.0 118.0 428.9 118.0L428.9 118.0L430.5 121L429.4 121L427.9 118.2Q427.8 118.2 427.7 118.2L427.7 118.2L426.2 118.2L426.2 121ZM426.2 114.5L426.2 117.4L427.7 117.4Q428.3 117.4 428.6 117.2Q429.0 117.0 429.1 116.7Q429.3 116.4 429.3 116.0L429.3 116.0Q429.3 115.5 429.1 115.2Q429.0 114.9 428.6 114.7Q428.3 114.5 427.7 114.5L427.7 114.5L426.2 114.5ZM436.0 121.1L436.0 121.1Q435.2 121.1 434.6 120.9Q434.1 120.6 433.7 120.2Q433.4 119.7 433.4 119.1L433.4 119.1L434.3 119.1Q434.4 119.5 434.6 119.8Q434.8 120.0 435.2 120.2Q435.6 120.3 436.0 120.3L436.0 120.3Q436.5 120.3 436.9 120.1Q437.3 120.0 437.5 119.7Q437.8 119.4 437.8 119.0L437.8 119.0Q437.8 118.7 437.6 118.4Q437.4 118.2 437.0 118.1Q436.7 117.9 436.3 117.8L436.3 117.8L435.4 117.6Q434.6 117.3 434.1 116.9Q433.6 116.4 433.6 115.7L433.6 115.7Q433.6 115.1 433.9 114.6Q434.2 114.1 434.8 113.9Q435.4 113.6 436.1 113.6L436.1 113.6Q436.8 113.6 437.3 113.9Q437.9 114.1 438.2 114.6Q438.5 115.0 438.6 115.6L438.6 115.6L437.6 115.6Q437.6 115.0 437.1 114.7Q436.7 114.4 436.0 114.4L436.0 114.4Q435.6 114.4 435.2 114.6Q434.9 114.8 434.7 115.0Q434.5 115.3 434.5 115.6L434.5 115.6Q434.5 116.0 434.7 116.2Q435.0 116.5 435.3 116.6Q435.6 116.7 435.9 116.8L435.9 116.8L436.6 117.0Q436.9 117.1 437.2 117.2Q437.6 117.4 437.9 117.6Q438.2 117.8 438.4 118.2Q438.7 118.5 438.7 119.0L438.7 119.0Q438.7 119.6 438.3 120.1Q438.0 120.6 437.4 120.8Q436.9 121.1 436.0 121.1Z "/></g><mask id="satori_om-id-1-1-2"><rect x="472" y="71" width="79" height="52" fill="#fff" mask="url(#satori_om-id)"/></mask><mask id="satori_om-id-1-1-2-0"><rect x="505" y="71" width="14" height="34" fill="#fff" mask="url(#satori_om-id)"/></mask><g mask="url(#satori_om-id)" clip-path="url(#satori_cp-id)"><path fill="#d99d87" d="M510.8 77.6L515.2 77.6L515.2 98L511.1 98L511.1 81.3L510.9 81.3L506.3 84.6L506.3 80.8L510.8 77.6Z "/></g><mask id="satori_om-id-1-1-2-1"><rect x="472" y="111" width="79" height="12" fill="#fff" mask="url(#satori_om-id)"/></mask><g mask="url(#satori_om-id)" clip-path="url(#satori_cp-id)"><path fill="rgba(123,98,97,0.7)" d="M473.8 121L472.9 121L472.9 113.7L477.3 113.7L477.3 114.5L473.8 114.5L473.8 117.0L476.9 117.0L476.9 117.9L473.8 117.9L473.8 121ZM483.7 121.1L483.7 121.1Q482.8 121.1 482.1 120.6Q481.3 120.2 480.9 119.4Q480.5 118.5 480.5 117.4L480.5 117.4Q480.5 116.2 480.9 115.4Q481.3 114.5 482.1 114.1Q482.8 113.6 483.7 113.6L483.7 113.6Q484.7 113.6 485.4 114.1Q486.1 114.5 486.5 115.4Q487.0 116.2 487.0 117.4L487.0 117.4Q487.0 118.5 486.5 119.4Q486.1 120.2 485.4 120.6Q484.7 121.1 483.7 121.1ZM483.7 120.2L483.7 120.2Q484.4 120.2 484.9 119.9Q485.4 119.6 485.7 118.9Q486.1 118.3 486.1 117.4L486.1 117.4Q486.1 116.4 485.7 115.8Q485.4 115.1 484.9 114.8Q484.4 114.5 483.7 114.5L483.7 114.5Q483.1 114.5 482.5 114.8Q482.0 115.2 481.7 115.8Q481.4 116.4 481.4 117.4L481.4 117.4Q481.4 118.3 481.7 118.9Q482.0 119.6 482.5 119.9Q483.1 120.2 483.7 120.2ZM494.7 121L490.4 121L490.4 113.7L491.4 113.7L491.4 120.2L494.7 120.2L494.7 121ZM502.4 121L498.1 121L498.1 113.7L499.0 113.7L499.0 120.2L502.4 120.2L502.4 121ZM508.7 121.1L508.7 121.1Q507.8 121.1 507.0 120.6Q506.3 120.2 505.9 119.4Q505.5 118.5 505.5 117.4L505.5 117.4Q505.5 116.2 505.9 115.4Q506.3 114.5 507.0 114.1Q507.8 113.6 508.7 113.6L508.7 113.6Q509.6 113.6 510.3 114.1Q511.1 114.5 511.5 115.4Q511.9 116.2 511.9 117.4L511.9 117.4Q511.9 118.5 511.5 119.4Q511.1 120.2 510.3 120.6Q509.6 121.1 508.7 121.1ZM508.7 120.2L508.7 120.2Q509.3 120.2 509.9 119.9Q510.4 119.6 510.7 118.9Q511.0 118.3 511.0 117.4L511.0 117.4Q511.0 116.4 510.7 115.8Q510.4 115.1 509.9 114.8Q509.3 114.5 508.7 114.5L508.7 114.5Q508.0 114.5 507.5 114.8Q507.0 115.2 506.7 115.8Q506.4 116.4 506.4 117.4L506.4 117.4Q506.4 118.3 506.7 118.9Q507.0 119.6 507.5 119.9Q508.0 120.2 508.7 120.2ZM517.8 121L516.7 121L514.8 113.7L515.7 113.7L516.9 118.2Q517.0 118.5 517.0 118.9Q517.1 119.3 517.2 119.7L517.2 119.7Q517.2 119.9 517.3 120.1L517.3 120.1Q517.3 119.9 517.4 119.7L517.4 119.7Q517.5 119.3 517.5 118.9Q517.6 118.5 517.7 118.2L517.7 118.2L518.9 113.7L520.0 113.7L521.1 118.2Q521.2 118.5 521.3 118.9Q521.4 119.3 521.5 119.7L521.5 119.7Q521.5 119.9 521.6 120.1L521.6 120.1Q521.6 119.9 521.7 119.7L521.7 119.7Q521.7 119.3 521.8 118.9Q521.9 118.5 522 118.2L522 118.2L523.1 113.7L524.1 113.7L522.1 121L521.0 121L519.8 116.4Q519.7 115.9 519.5 115.4L519.5 115.4Q519.5 115.1 519.4 114.8L519.4 114.8Q519.4 115.1 519.3 115.4L519.3 115.4Q519.2 115.9 519.1 116.4L519.1 116.4L517.8 121ZM527.2 113.7L528.2 113.7L528.2 121L527.2 121L527.2 113.7ZM532.9 121L531.9 121L531.9 113.7L533.0 113.7L536.0 118.4Q536.1 118.6 536.3 118.8Q536.4 119.1 536.6 119.5L536.6 119.5Q536.7 119.7 536.8 119.9L536.8 119.9Q536.8 119.7 536.8 119.4L536.8 119.4Q536.8 119.1 536.8 118.7Q536.8 118.4 536.8 118.2L536.8 118.2L536.8 113.7L537.7 113.7L537.7 121L536.6 121L534.0 116.9Q533.8 116.6 533.6 116.3Q533.4 116.0 533.2 115.5L533.2 115.5Q533.0 115.2 532.8 114.8L532.8 114.8Q532.8 115.2 532.8 115.5L532.8 115.5Q532.8 116.0 532.8 116.3Q532.9 116.7 532.9 116.8L532.9 116.8L532.9 121ZM544.4 121.1L544.4 121.1Q543.5 121.1 542.7 120.6Q542.0 120.2 541.6 119.4Q541.2 118.5 541.2 117.4L541.2 117.4Q541.2 116.2 541.6 115.4Q542.0 114.5 542.7 114.1Q543.4 113.6 544.4 113.6L544.4 113.6Q544.9 113.6 545.4 113.8Q545.9 114.0 546.3 114.3Q546.7 114.6 547.0 115.0Q547.3 115.5 547.4 116.0L547.4 116.0L546.4 116.0Q546.3 115.7 546.1 115.4Q545.9 115.1 545.7 114.9Q545.4 114.7 545.1 114.6Q544.8 114.5 544.4 114.5L544.4 114.5Q543.7 114.5 543.2 114.8Q542.7 115.1 542.4 115.8Q542.1 116.4 542.1 117.4L542.1 117.4Q542.1 118.3 542.4 118.9Q542.7 119.6 543.2 119.9Q543.8 120.2 544.4 120.2L544.4 120.2Q545.0 120.2 545.5 120.0Q546.0 119.7 546.2 119.2L546.2 119.2Q546.5 118.8 546.5 118.2L546.5 118.2L544.6 118.2L544.6 117.3L547.4 117.3L547.4 118.1Q547.4 119.0 547.0 119.7Q546.6 120.4 546.0 120.7Q545.3 121.1 544.4 121.1Z "/></g><mask id="satori_om-id-1-1-3"><rect x="581" y="71" width="43" height="52" fill="#fff" mask="url(#satori_om-id)"/></mask><mask id="satori_om-id-1-1-3-0"><rect x="593" y="71" width="20" height="34" fill="#fff" mask="url(#satori_om-id)"/></mask><g mask="url(#satori_om-id)" clip-path="url(#satori_cp-id)"><path fill="#d99d87" d="M602.1 98.3L602.1 98.3Q599.8 98.3 598.1 97.5Q596.3 96.8 595.3 95.5Q594.3 94.2 594.3 92.5L594.3 92.5Q594.3 91.3 594.9 90.2Q595.4 89.1 596.4 88.4Q597.4 87.7 598.7 87.5L598.7 87.5L598.7 87.3Q597.0 87.0 596.0 85.8Q595.0 84.5 595.0 82.8L595.0 82.8Q595.0 81.3 595.9 80.0Q596.9 78.8 598.5 78.1Q600.1 77.4 602.1 77.4L602.1 77.4Q604.1 77.4 605.7 78.1Q607.4 78.8 608.3 80.0Q609.2 81.3 609.2 82.8L609.2 82.8Q609.2 84.5 608.2 85.8Q607.2 87.0 605.6 87.3L605.6 87.3L605.6 87.5Q606.8 87.7 607.8 88.4Q608.8 89.1 609.4 90.2Q610.0 91.3 610.0 92.5L610.0 92.5Q610.0 94.2 608.9 95.5Q607.9 96.8 606.2 97.5Q604.4 98.3 602.1 98.3ZM602.1 95.2L602.1 95.2Q603.2 95.2 603.9 94.8Q604.7 94.4 605.2 93.8Q605.6 93.1 605.6 92.2L605.6 92.2Q605.6 91.3 605.1 90.6Q604.7 89.9 603.9 89.5Q603.1 89.1 602.1 89.1L602.1 89.1Q601.1 89.1 600.3 89.5Q599.5 89.9 599.1 90.6Q598.6 91.3 598.6 92.2L598.6 92.2Q598.6 93.1 599.0 93.7Q599.5 94.4 600.3 94.8Q601.1 95.2 602.1 95.2ZM602.1 86.1L602.1 86.1Q603.0 86.1 603.7 85.7Q604.3 85.3 604.7 84.7Q605.1 84.1 605.1 83.3L605.1 83.3Q605.1 82.5 604.7 81.8Q604.3 81.2 603.7 80.9Q603.0 80.5 602.1 80.5L602.1 80.5Q601.2 80.5 600.5 80.9Q599.9 81.2 599.5 81.8Q599.1 82.5 599.1 83.3L599.1 83.3Q599.1 84.1 599.5 84.7Q599.9 85.3 600.5 85.7Q601.2 86.1 602.1 86.1Z "/></g><mask id="satori_om-id-1-1-3-1"><rect x="581" y="111" width="43" height="12" fill="#fff" mask="url(#satori_om-id)"/></mask><g mask="url(#satori_om-id)" clip-path="url(#satori_cp-id)"><path fill="rgba(123,98,97,0.7)" d="M584.2 121.1L584.2 121.1Q583.4 121.1 582.8 120.9Q582.3 120.6 581.9 120.2Q581.6 119.7 581.6 119.1L581.6 119.1L582.5 119.1Q582.6 119.5 582.8 119.8Q583.0 120.0 583.4 120.2Q583.8 120.3 584.2 120.3L584.2 120.3Q584.7 120.3 585.1 120.1Q585.5 120.0 585.7 119.7Q585.9 119.4 585.9 119.0L585.9 119.0Q585.9 118.7 585.7 118.4Q585.6 118.2 585.2 118.1Q584.9 117.9 584.5 117.8L584.5 117.8L583.6 117.6Q582.7 117.3 582.3 116.9Q581.8 116.4 581.8 115.7L581.8 115.7Q581.8 115.1 582.1 114.6Q582.4 114.1 583.0 113.9Q583.6 113.6 584.3 113.6L584.3 113.6Q585.0 113.6 585.5 113.9Q586.1 114.1 586.4 114.6Q586.7 115.0 586.8 115.6L586.8 115.6L585.8 115.6Q585.8 115.0 585.3 114.7Q584.9 114.4 584.2 114.4L584.2 114.4Q583.8 114.4 583.4 114.6Q583.1 114.8 582.9 115.0Q582.7 115.3 582.7 115.6L582.7 115.6Q582.7 116.0 582.9 116.2Q583.1 116.5 583.5 116.6Q583.8 116.7 584.1 116.8L584.1 116.8L584.8 117.0Q585.1 117.1 585.4 117.2Q585.8 117.4 586.1 117.6Q586.4 117.8 586.6 118.2Q586.8 118.5 586.8 119.0L586.8 119.0Q586.8 119.6 586.5 120.1Q586.2 120.6 585.6 120.8Q585.0 121.1 584.2 121.1ZM592.2 114.5L589.9 114.5L589.9 113.7L595.4 113.7L595.4 114.5L593.1 114.5L593.1 121L592.2 121L592.2 114.5ZM599.1 121L598.1 121L600.8 113.7L601.8 113.7L604.5 121L603.5 121L602.8 119.0L599.8 119.0L599.1 121ZM600.1 118.2L602.5 118.2L602.0 116.7Q601.9 116.3 601.7 115.7L601.7 115.7Q601.5 115.2 601.3 114.5L601.3 114.5Q601.1 115.2 600.9 115.7L600.9 115.7Q600.7 116.3 600.6 116.7L600.6 116.7L600.1 118.2ZM608.6 121L607.6 121L607.6 113.7L610.1 113.7Q611.0 113.7 611.5 114.0Q612.1 114.3 612.4 114.8Q612.6 115.3 612.6 116.0Q612.6 116.6 612.4 117.1Q612.1 117.6 611.5 117.9L611.5 117.9Q611.4 118.0 611.3 118.0L611.3 118.0L612.9 121L611.8 121L610.3 118.2Q610.2 118.2 610.1 118.2L610.1 118.2L608.6 118.2L608.6 121ZM608.6 114.5L608.6 117.4L610.1 117.4Q610.7 117.4 611.0 117.2Q611.4 117.0 611.5 116.7Q611.7 116.4 611.7 116.0L611.7 116.0Q611.7 115.5 611.5 115.2Q611.4 114.9 611.0 114.7Q610.7 114.5 610.1 114.5L610.1 114.5L608.6 114.5ZM618.4 121.1L618.4 121.1Q617.6 121.1 617.0 120.9Q616.5 120.6 616.1 120.2Q615.8 119.7 615.8 119.1L615.8 119.1L616.7 119.1Q616.8 119.5 617.0 119.8Q617.2 120.0 617.6 120.2Q618.0 120.3 618.4 120.3L618.4 120.3Q618.9 120.3 619.3 120.1Q619.7 120.0 619.9 119.7Q620.2 119.4 620.2 119.0L620.2 119.0Q620.2 118.7 620.0 118.4Q619.8 118.2 619.4 118.1Q619.1 117.9 618.7 117.8L618.7 117.8L617.8 117.6Q617.0 117.3 616.5 116.9Q616.0 116.4 616.0 115.7L616.0 115.7Q616.0 115.1 616.3 114.6Q616.6 114.1 617.2 113.9Q617.8 113.6 618.5 113.6L618.5 113.6Q619.2 113.6 619.7 113.9Q620.3 114.1 620.6 114.6Q620.9 115.0 621.0 115.6L621.0 115.6L620.0 115.6Q620.0 115.0 619.5 114.7Q619.1 114.4 618.4 114.4L618.4 114.4Q618.0 114.4 617.6 114.6Q617.3 114.8 617.1 115.0Q616.9 115.3 616.9 115.6L616.9 115.6Q616.9 116.0 617.1 116.2Q617.4 116.5 617.7 116.6Q618.0 116.7 618.3 116.8L618.3 116.8L619.0 117.0Q619.3 117.1 619.6 117.2Q620.0 117.4 620.3 117.6Q620.6 117.8 620.8 118.2Q621.1 118.5 621.1 119.0L621.1 119.0Q621.1 119.6 620.7 120.1Q620.4 120.6 619.8 120.8Q619.3 121.1 618.4 121.1Z "/></g><mask id="satori_om-id-1-2"><rect x="126" y="143" width="608" height="1" fill="#fff" mask="url(#satori_om-id)"/></mask><rect x="126" y="143" width="608" height="1" fill="rgba(68,33,40,0.6)" clip-path="url(#satori_cp-id)" mask="url(#satori_om-id)"/><mask id="satori_om-id-1-3"><rect x="164" y="164" width="532" height="59" fill="#fff" mask="url(#satori_om-id)"/></mask><mask id="satori_om-id-1-3-0"><rect x="164" y="164" width="532" height="13" fill="#fff" mask="url(#satori_om-id)"/></mask><mask id="satori_om-id-1-3-0-0"><rect x="164" y="164" width="70" height="13" fill="#fff" mask="url(#satori_om-id)"/></mask><g mask="url(#satori_om-id)" clip-path="url(#satori_cp-id)"><path fill="rgba(153,145,137,0.8)" d="M167.5 175L167.5 175L165.0 175L165.0 167.0L167.6 167.0Q168.7 167.0 169.6 167.5Q170.4 168.0 170.8 168.8Q171.3 169.7 171.3 171.0L171.3 171.0Q171.3 172.2 170.8 173.1Q170.4 174.0 169.5 174.5Q168.7 175 167.5 175ZM166.0 167.9L166.0 174.1L167.4 174.1Q168.4 174.1 169.0 173.7Q169.7 173.4 170.0 172.7Q170.3 172.0 170.3 171.0L170.3 171.0Q170.3 170.0 170.0 169.3Q169.7 168.6 169.0 168.3Q168.4 167.9 167.5 167.9L167.5 167.9L166.0 167.9ZM175.5 175.1L175.5 175.1Q174.9 175.1 174.4 174.9Q174.0 174.7 173.7 174.3Q173.4 173.9 173.4 173.3L173.4 173.3Q173.4 172.8 173.6 172.5Q173.8 172.1 174.2 171.9Q174.5 171.8 174.9 171.7Q175.3 171.6 175.8 171.5L175.8 171.5Q176.3 171.5 176.6 171.4Q177.0 171.4 177.1 171.3Q177.3 171.2 177.3 171.0L177.3 171.0L177.3 170.9Q177.3 170.6 177.2 170.3Q177.0 170.0 176.7 169.9Q176.5 169.8 176.0 169.8L176.0 169.8Q175.6 169.8 175.3 169.9Q175.0 170.0 174.8 170.2Q174.6 170.4 174.5 170.6L174.5 170.6L173.6 170.3Q173.8 169.8 174.2 169.5Q174.6 169.2 175.1 169.0Q175.6 168.9 176.0 168.9L176.0 168.9Q176.3 168.9 176.7 169.0Q177.1 169.1 177.4 169.3Q177.8 169.5 178.0 169.9Q178.3 170.3 178.3 171.0L178.3 171.0L178.3 175L177.3 175L177.3 174.2L177.3 174.2Q177.1 174.4 176.9 174.6Q176.7 174.8 176.3 175.0Q176.0 175.1 175.5 175.1ZM175.6 174.3L175.6 174.3Q176.2 174.3 176.5 174.1Q176.9 173.9 177.1 173.5Q177.3 173.2 177.3 172.8L177.3 172.8L177.3 172.0Q177.2 172.1 177.0 172.1Q176.8 172.2 176.6 172.2Q176.3 172.3 176.1 172.3Q175.9 172.3 175.7 172.3L175.7 172.3Q175.4 172.4 175.1 172.5Q174.8 172.6 174.6 172.8Q174.4 173.0 174.4 173.3L174.4 173.3Q174.4 173.7 174.6 173.9Q174.7 174.1 175.0 174.2Q175.3 174.3 175.6 174.3ZM181.9 175L181.0 175L181.0 169.0L181.9 169.0L181.9 169.9L182.0 169.9Q182.1 169.5 182.6 169.2Q183.0 168.9 183.5 168.9L183.5 168.9Q183.6 168.9 183.8 168.9Q183.9 168.9 184.0 168.9L184.0 168.9L184.0 169.9Q184.0 169.9 183.8 169.9Q183.6 169.8 183.4 169.8L183.4 169.8Q183.0 169.8 182.7 170.0Q182.3 170.2 182.1 170.5Q181.9 170.8 181.9 171.2L181.9 171.2L181.9 175ZM187.2 169.0L188.5 169.0L188.5 169.8L187.2 169.8L187.2 173.4Q187.2 173.8 187.4 174.0Q187.6 174.2 187.9 174.2L187.9 174.2Q188.0 174.2 188.2 174.2Q188.3 174.2 188.4 174.2L188.4 174.2L188.6 175.0Q188.5 175.0 188.3 175.0Q188.1 175.1 187.9 175.1L187.9 175.1Q187.1 175.1 186.7 174.7Q186.3 174.3 186.3 173.5L186.3 173.5L186.3 169.8L185.4 169.8L185.4 169.0L186.3 169.0L186.3 167.6L187.2 167.6L187.2 169.0Z "/></g><mask id="satori_om-id-1-3-0-1"><rect x="246" y="169" width="403" height="4" fill="#fff" mask="url(#satori_om-id)"/></mask><path x="246" y="169" width="403" height="4" fill="rgba(68,33,40,0.5)" d="M248,169 h399 a2,2 0 0 1 2,2 v0 a2,2 0 0 1 -2,2 h-399 a2,2 0 0 1 -2,-2 v0 a2,2 0 0 1 2,-2" clip-path="url(#satori_cp-id)" mask="url(#satori_om-id)"/><mask id="satori_om-id-1-3-0-1-0"><rect x="246" y="169" width="202" height="4" fill="#fff" mask="url(#satori_om-id)"/></mask><g opacity="0.7"><path x="246" y="169" width="202" height="4" fill="#d99d87" d="M248,169 h198 a2,2 0 0 1 2,2 v0 a2,2 0 0 1 -2,2 h-198 a2,2 0 0 1 -2,-2 v0 a2,2 0 0 1 2,-2" clip-path="url(#satori_cp-id)" mask="url(#satori_om-id)"/></g><mask id="satori_om-id-1-3-0-2"><rect x="661" y="165" width="35" height="12" fill="#fff" mask="url(#satori_om-id)"/></mask><g mask="url(#satori_om-id)" clip-path="url(#satori_cp-id)"><path fill="rgba(123,98,97,0.7)" d="M675.9 175.1L675.9 175.1Q675.3 175.1 674.8 174.8Q674.3 174.6 674.0 174.2Q673.6 173.7 673.6 173.2L673.6 173.2L674.5 173.2Q674.6 173.5 674.7 173.7Q674.9 174.0 675.2 174.1Q675.5 174.3 675.9 174.3L675.9 174.3Q676.3 174.3 676.7 174.1Q677.0 173.9 677.2 173.5Q677.4 173.1 677.4 172.7L677.4 172.7Q677.4 172.2 677.2 171.9Q677.0 171.5 676.7 171.3Q676.3 171.1 675.9 171.1L675.9 171.1Q675.5 171.1 675.2 171.2Q674.8 171.3 674.6 171.4L674.6 171.4L673.7 171.3L674.2 167.7L678.0 167.7L678.0 168.5L674.9 168.5L674.7 170.7L674.7 170.7Q675.0 170.5 675.3 170.4Q675.6 170.2 676.0 170.2L676.0 170.2Q676.5 170.2 676.9 170.4Q677.4 170.6 677.7 170.9Q678.0 171.3 678.2 171.7Q678.3 172.1 678.3 172.7L678.3 172.7Q678.3 173.4 678.0 173.9Q677.7 174.5 677.2 174.8Q676.6 175.1 675.9 175.1ZM682.1 175.1L682.1 175.1Q681.3 175.1 680.7 174.7Q680.1 174.2 679.8 173.4Q679.5 172.6 679.5 171.4L679.5 171.4Q679.5 170.2 679.8 169.4Q680.1 168.5 680.7 168.1Q681.3 167.6 682.1 167.6L682.1 167.6Q682.9 167.6 683.5 168.1Q684.0 168.5 684.3 169.4Q684.6 170.2 684.6 171.4L684.6 171.4Q684.6 172.5 684.3 173.4Q684.0 174.2 683.5 174.7Q682.9 175.1 682.1 175.1ZM682.1 174.3L682.1 174.3Q682.6 174.3 683.0 173.9Q683.4 173.6 683.6 172.9Q683.8 172.3 683.8 171.4L683.8 171.4Q683.8 170.4 683.6 169.8Q683.4 169.1 683.0 168.8Q682.6 168.4 682.1 168.4L682.1 168.4Q681.6 168.4 681.2 168.8Q680.8 169.1 680.6 169.8Q680.4 170.4 680.4 171.4L680.4 171.4Q680.4 172.3 680.6 172.9Q680.8 173.6 681.2 173.9Q681.6 174.3 682.1 174.3ZM687.8 170.9L687.8 170.9Q687.3 170.9 687.0 170.7Q686.7 170.5 686.5 170.2Q686.4 169.9 686.4 169.5L686.4 169.5L686.4 169.1Q686.4 168.7 686.5 168.3Q686.7 168.0 687.0 167.8Q687.3 167.6 687.8 167.6L687.8 167.6Q688.3 167.6 688.6 167.8Q688.9 168.0 689.1 168.3Q689.2 168.7 689.2 169.1L689.2 169.1L689.2 169.5Q689.2 169.9 689.1 170.2Q688.9 170.5 688.6 170.7Q688.3 170.9 687.8 170.9ZM687.8 170.3L687.8 170.3Q688.2 170.3 688.3 170.0Q688.5 169.8 688.5 169.5L688.5 169.5L688.5 169.1Q688.5 168.8 688.3 168.5Q688.2 168.2 687.8 168.2L687.8 168.2Q687.4 168.2 687.3 168.5Q687.1 168.8 687.1 169.1L687.1 169.1L687.1 169.5Q687.1 169.8 687.3 170.0Q687.4 170.3 687.8 170.3ZM692.5 175.1L692.5 175.1Q692.1 175.1 691.7 174.9Q691.4 174.7 691.2 174.4Q691.1 174.1 691.1 173.7L691.1 173.7L691.1 173.3Q691.1 172.9 691.3 172.5Q691.4 172.2 691.7 172.0Q692.1 171.8 692.5 171.8L692.5 171.8Q693.0 171.8 693.3 172.0Q693.6 172.2 693.8 172.5Q693.9 172.9 693.9 173.3L693.9 173.3L693.9 173.7Q693.9 174.1 693.8 174.4Q693.6 174.7 693.3 174.9Q693.0 175.1 692.5 175.1ZM692.5 174.5L692.5 174.5Q692.9 174.5 693.0 174.2Q693.2 174.0 693.2 173.7L693.2 173.7L693.2 173.3Q693.2 173.0 693.0 172.7Q692.9 172.4 692.5 172.4L692.5 172.4Q692.2 172.4 692.0 172.7Q691.8 173.0 691.8 173.3L691.8 173.3L691.8 173.7Q691.8 174.0 692.0 174.2Q692.1 174.5 692.5 174.5ZM688.0 175L687.2 175L692.2 167.7L693.0 167.7L688.0 175Z "/></g><mask id="satori_om-id-1-3-1"><rect x="164" y="187" width="532" height="13" fill="#fff" mask="url(#satori_om-id)"/></mask><mask id="satori_om-id-1-3-1-0"><rect x="164" y="187" width="70" height="13" fill="#fff" mask="url(#satori_om-id)"/></mask><g mask="url(#satori_om-id)" clip-path="url(#satori_cp-id)"><path fill="rgba(153,145,137,0.8)" d="M168.2 198.1L168.2 198.1Q167.2 198.1 166.4 197.6Q165.6 197.1 165.1 196.2Q164.7 195.3 164.7 194.0L164.7 194.0Q164.7 192.7 165.1 191.8Q165.6 190.9 166.4 190.4Q167.2 189.9 168.2 189.9L168.2 189.9Q168.8 189.9 169.4 190.1Q169.9 190.2 170.3 190.6Q170.8 190.9 171.0 191.4Q171.3 191.9 171.4 192.5L171.4 192.5L170.4 192.5Q170.3 192.1 170.1 191.8Q169.9 191.5 169.6 191.3Q169.3 191.0 169.0 190.9Q168.6 190.8 168.2 190.8L168.2 190.8Q167.5 190.8 166.9 191.2Q166.3 191.6 166.0 192.3Q165.6 193.0 165.6 194.0L165.6 194.0Q165.6 195.0 166.0 195.7Q166.3 196.4 166.9 196.8Q167.5 197.2 168.2 197.2L168.2 197.2Q168.6 197.2 169.0 197.1Q169.3 196.9 169.6 196.7Q169.9 196.5 170.1 196.2Q170.3 195.9 170.4 195.5L170.4 195.5L171.4 195.5Q171.3 196.1 171.0 196.6Q170.8 197.1 170.3 197.4Q169.9 197.7 169.4 197.9Q168.8 198.1 168.2 198.1ZM177.1 197.5L176.2 197.5L176.2 195.3L174.1 195.3L174.1 194.4L176.2 194.4L176.2 192.3L177.1 192.3L177.1 194.4L179.3 194.4L179.3 195.3L177.1 195.3L177.1 197.5ZM185.4 197.5L184.5 197.5L184.5 195.3L182.4 195.3L182.4 194.4L184.5 194.4L184.5 192.3L185.4 192.3L185.4 194.4L187.5 194.4L187.5 195.3L185.4 195.3L185.4 197.5Z "/></g><mask id="satori_om-id-1-3-1-1"><rect x="246" y="192" width="403" height="4" fill="#fff" mask="url(#satori_om-id)"/></mask><path x="246" y="192" width="403" height="4" fill="rgba(68,33,40,0.5)" d="M248,192 h399 a2,2 0 0 1 2,2 v0 a2,2 0 0 1 -2,2 h-399 a2,2 0 0 1 -2,-2 v0 a2,2 0 0 1 2,-2" clip-path="url(#satori_cp-id)" mask="url(#satori_om-id)"/><mask id="satori_om-id-1-3-1-1-0"><rect x="246" y="192" width="133" height="4" fill="#fff" mask="url(#satori_om-id)"/></mask><g opacity="0.7"><path x="246" y="192" width="133" height="4" fill="#d99d87" d="M248,192 h129 a2,2 0 0 1 2,2 v0 a2,2 0 0 1 -2,2 h-129 a2,2 0 0 1 -2,-2 v0 a2,2 0 0 1 2,-2" clip-path="url(#satori_cp-id)" mask="url(#satori_om-id)"/></g><mask id="satori_om-id-1-3-1-2"><rect x="661" y="188" width="35" height="12" fill="#fff" mask="url(#satori_om-id)"/></mask><g mask="url(#satori_om-id)" clip-path="url(#satori_cp-id)"><path fill="rgba(123,98,97,0.7)" d="M676.1 198.1L676.1 198.1Q675.4 198.1 674.8 197.9Q674.3 197.6 674.0 197.2Q673.6 196.7 673.6 196.2L673.6 196.2L674.5 196.2Q674.6 196.5 674.8 196.8Q675.0 197.0 675.3 197.1Q675.7 197.3 676.1 197.3L676.1 197.3Q676.5 197.3 676.9 197.1Q677.3 197.0 677.5 196.7Q677.7 196.4 677.7 196.0L677.7 196.0Q677.7 195.6 677.5 195.3Q677.3 195.0 676.9 194.8Q676.5 194.7 676.0 194.7L676.0 194.7L675.4 194.7L675.4 193.9L676.0 193.9Q676.4 193.9 676.7 193.7Q677.0 193.6 677.2 193.3Q677.4 193.0 677.4 192.6L677.4 192.6Q677.4 192.3 677.3 192.0Q677.1 191.7 676.8 191.6Q676.5 191.4 676.1 191.4L676.1 191.4Q675.7 191.4 675.4 191.6Q675.1 191.7 674.9 192.0Q674.7 192.2 674.7 192.6L674.7 192.6L673.8 192.6Q673.8 192.0 674.1 191.5Q674.4 191.1 675.0 190.9Q675.5 190.6 676.1 190.6L676.1 190.6Q676.8 190.6 677.3 190.9Q677.8 191.2 678.1 191.6Q678.3 192.1 678.3 192.6L678.3 192.6Q678.3 193.2 678.0 193.6Q677.7 194.1 677.1 194.2L677.1 194.2L677.1 194.3Q677.6 194.4 677.9 194.6Q678.2 194.8 678.4 195.2Q678.6 195.6 678.6 196.0L678.6 196.0Q678.6 196.6 678.3 197.1Q677.9 197.6 677.4 197.8Q676.8 198.1 676.1 198.1ZM682.3 198.1L682.3 198.1Q681.6 198.1 681.0 197.9Q680.5 197.6 680.1 197.2Q679.8 196.7 679.8 196.2L679.8 196.2L680.7 196.2Q680.8 196.5 681.0 196.8Q681.2 197.0 681.5 197.1Q681.8 197.3 682.3 197.3L682.3 197.3Q682.7 197.3 683.1 197.1Q683.4 197.0 683.6 196.7Q683.8 196.4 683.8 196.0L683.8 196.0Q683.8 195.6 683.6 195.3Q683.4 195.0 683.1 194.8Q682.7 194.7 682.2 194.7L682.2 194.7L681.6 194.7L681.6 193.9L682.2 193.9Q682.6 193.9 682.9 193.7Q683.2 193.6 683.4 193.3Q683.6 193.0 683.6 192.6L683.6 192.6Q683.6 192.3 683.4 192.0Q683.3 191.7 683.0 191.6Q682.7 191.4 682.3 191.4L682.3 191.4Q681.9 191.4 681.6 191.6Q681.3 191.7 681.1 192.0Q680.9 192.2 680.8 192.6L680.8 192.6L679.9 192.6Q680.0 192.0 680.3 191.5Q680.6 191.1 681.1 190.9Q681.7 190.6 682.3 190.6L682.3 190.6Q683.0 190.6 683.5 190.9Q684.0 191.2 684.2 191.6Q684.5 192.1 684.5 192.6L684.5 192.6Q684.5 193.2 684.2 193.6Q683.8 194.1 683.3 194.2L683.3 194.2L683.3 194.3Q683.8 194.4 684.1 194.6Q684.4 194.8 684.6 195.2Q684.8 195.6 684.8 196.0L684.8 196.0Q684.8 196.6 684.4 197.1Q684.1 197.6 683.6 197.8Q683.0 198.1 682.3 198.1ZM687.9 193.9L687.9 193.9Q687.4 193.9 687.1 193.7Q686.8 193.5 686.6 193.2Q686.5 192.9 686.5 192.5L686.5 192.5L686.5 192.1Q686.5 191.7 686.6 191.3Q686.8 191.0 687.1 190.8Q687.4 190.6 687.9 190.6L687.9 190.6Q688.4 190.6 688.7 190.8Q689.0 191.0 689.2 191.3Q689.3 191.7 689.3 192.1L689.3 192.1L689.3 192.5Q689.3 192.9 689.2 193.2Q689.0 193.5 688.7 193.7Q688.4 193.9 687.9 193.9ZM687.9 193.3L687.9 193.3Q688.3 193.3 688.4 193.0Q688.6 192.8 688.6 192.5L688.6 192.5L688.6 192.1Q688.6 191.8 688.4 191.5Q688.3 191.2 687.9 191.2L687.9 191.2Q687.5 191.2 687.4 191.5Q687.2 191.8 687.2 192.1L687.2 192.1L687.2 192.5Q687.2 192.8 687.4 193.0Q687.5 193.3 687.9 193.3ZM692.6 198.1L692.6 198.1Q692.2 198.1 691.8 197.9Q691.5 197.7 691.4 197.4Q691.2 197.1 691.2 196.7L691.2 196.7L691.2 196.3Q691.2 195.9 691.4 195.5Q691.5 195.2 691.9 195.0Q692.2 194.8 692.6 194.8L692.6 194.8Q693.1 194.8 693.4 195.0Q693.7 195.2 693.9 195.5Q694.0 195.9 694.0 196.3L694.0 196.3L694.0 196.7Q694.0 197.1 693.9 197.4Q693.7 197.7 693.4 197.9Q693.1 198.1 692.6 198.1ZM692.6 197.5L692.6 197.5Q693 197.5 693.2 197.2Q693.3 197.0 693.3 196.7L693.3 196.7L693.3 196.3Q693.3 196.0 693.2 195.7Q693.0 195.4 692.6 195.4L692.6 195.4Q692.3 195.4 692.1 195.7Q691.9 196.0 691.9 196.3L691.9 196.3L691.9 196.7Q691.9 197.0 692.1 197.2Q692.3 197.5 692.6 197.5ZM688.2 198L687.3 198L692.3 190.7L693.2 190.7L688.2 198Z "/></g><mask id="satori_om-id-1-3-2"><rect x="164" y="210" width="532" height="13" fill="#fff" mask="url(#satori_om-id)"/></mask><mask id="satori_om-id-1-3-2-0"><rect x="164" y="210" width="70" height="13" fill="#fff" mask="url(#satori_om-id)"/></mask><g mask="url(#satori_om-id)" clip-path="url(#satori_cp-id)"><path fill="rgba(153,145,137,0.8)" d="M166.0 221L165.0 221L165.0 213.0L167.7 213.0Q168.6 213.0 169.2 213.3Q169.8 213.7 170.1 214.3Q170.4 214.8 170.4 215.5Q170.4 216.3 170.1 216.8Q169.8 217.4 169.2 217.8Q168.6 218.1 167.7 218.1L167.7 218.1L166.0 218.1L166.0 221ZM166.0 213.9L166.0 217.2L167.7 217.2Q168.3 217.2 168.7 217.0Q169.1 216.8 169.2 216.4Q169.4 216.0 169.4 215.5Q169.4 215.1 169.2 214.7Q169.1 214.3 168.7 214.1Q168.3 213.9 167.7 213.9L167.7 213.9L166.0 213.9ZM172.8 223.2L172.8 223.2L173.0 222.3L173.1 222.4Q173.4 222.4 173.7 222.4Q173.9 222.4 174.1 222.2Q174.3 222.0 174.4 221.5L174.4 221.5L174.6 221.0L172.3 215.0L173.4 215.0L174.7 218.6Q174.9 219.1 175.0 219.7L175.0 219.7Q175.1 219.9 175.1 220.1L175.1 220.1Q175.2 219.9 175.2 219.7L175.2 219.7Q175.4 219.1 175.6 218.6L175.6 218.6L176.9 215.0L177.9 215.0L175.3 221.9Q175.1 222.4 174.8 222.7Q174.6 223.0 174.2 223.1Q173.9 223.3 173.5 223.3L173.5 223.3Q173.2 223.3 173.0 223.3Q172.9 223.2 172.8 223.2ZM181.2 215.0L182.4 215.0L182.4 215.8L181.2 215.8L181.2 219.4Q181.2 219.8 181.3 220.0Q181.5 220.2 181.9 220.2L181.9 220.2Q182.0 220.2 182.1 220.2Q182.3 220.2 182.4 220.2L182.4 220.2L182.6 221.0Q182.4 221.0 182.2 221.0Q182.1 221.1 181.9 221.1L181.9 221.1Q181.1 221.1 180.7 220.7Q180.2 220.3 180.2 219.5L180.2 219.5L180.2 215.8L179.3 215.8L179.3 215.0L180.2 215.0L180.2 213.6L181.2 213.6L181.2 215.0ZM185.6 217.4L185.6 217.4L185.6 221L184.7 221L184.7 213.0L185.6 213.0L185.6 216.0Q185.9 215.5 186.2 215.3L186.2 215.3Q186.7 214.9 187.4 214.9L187.4 214.9Q188.0 214.9 188.5 215.2Q189.0 215.4 189.2 215.9Q189.5 216.4 189.5 217.2L189.5 217.2L189.5 221L188.5 221L188.5 217.3Q188.5 216.6 188.1 216.2Q187.8 215.8 187.1 215.8L187.1 215.8Q186.7 215.8 186.4 216.0Q186.0 216.2 185.8 216.5Q185.6 216.9 185.6 217.4ZM194.6 221.1L194.6 221.1Q193.8 221.1 193.2 220.7Q192.6 220.4 192.2 219.7Q191.9 219.0 191.9 218.0L191.9 218.0Q191.9 217.1 192.2 216.4Q192.6 215.7 193.2 215.3Q193.8 214.9 194.6 214.9L194.6 214.9Q195.4 214.9 196.0 215.3Q196.7 215.7 197.0 216.4Q197.3 217.1 197.3 218.0L197.3 218.0Q197.3 219.0 197.0 219.7Q196.7 220.4 196.0 220.7Q195.4 221.1 194.6 221.1ZM194.6 220.3L194.6 220.3Q195.2 220.3 195.6 220.0Q196.0 219.6 196.2 219.1Q196.4 218.6 196.4 218.0L196.4 218.0Q196.4 217.4 196.2 216.9Q196.0 216.4 195.6 216.1Q195.2 215.8 194.6 215.8L194.6 215.8Q194.0 215.8 193.6 216.1Q193.2 216.4 193.0 216.9Q192.9 217.4 192.9 218.0L192.9 218.0Q192.9 218.6 193.0 219.1Q193.2 219.6 193.6 220.0Q194.0 220.3 194.6 220.3ZM200.7 217.4L200.7 217.4L200.7 221L199.8 221L199.8 215.0L200.7 215.0L200.7 216.1Q200.9 215.5 201.3 215.3L201.3 215.3Q201.8 214.9 202.5 214.9L202.5 214.9Q203.1 214.9 203.6 215.2Q204.0 215.4 204.3 215.9Q204.6 216.4 204.6 217.2L204.6 217.2L204.6 221L203.6 221L203.6 217.3Q203.6 216.6 203.2 216.2Q202.9 215.8 202.2 215.8L202.2 215.8Q201.8 215.8 201.5 216.0Q201.1 216.2 200.9 216.5Q200.7 216.9 200.7 217.4Z "/></g><mask id="satori_om-id-1-3-2-1"><rect x="246" y="215" width="403" height="4" fill="#fff" mask="url(#satori_om-id)"/></mask><path x="246" y="215" width="403" height="4" fill="rgba(68,33,40,0.5)" d="M248,215 h399 a2,2 0 0 1 2,2 v0 a2,2 0 0 1 -2,2 h-399 a2,2 0 0 1 -2,-2 v0 a2,2 0 0 1 2,-2" clip-path="url(#satori_cp-id)" mask="url(#satori_om-id)"/><mask id="satori_om-id-1-3-2-1-0"><rect x="246" y="215" width="69" height="4" fill="#fff" mask="url(#satori_om-id)"/></mask><g opacity="0.7"><path x="246" y="215" width="69" height="4" fill="#d99d87" d="M248,215 h65 a2,2 0 0 1 2,2 v0 a2,2 0 0 1 -2,2 h-65 a2,2 0 0 1 -2,-2 v0 a2,2 0 0 1 2,-2" clip-path="url(#satori_cp-id)" mask="url(#satori_om-id)"/></g><mask id="satori_om-id-1-3-2-2"><rect x="661" y="211" width="35" height="12" fill="#fff" mask="url(#satori_om-id)"/></mask><g mask="url(#satori_om-id)" clip-path="url(#satori_cp-id)"><path fill="rgba(123,98,97,0.7)" d="M678.1 213.7L679.2 213.7L679.2 221L678.3 221L678.3 214.6L678.2 214.6L676.5 215.9L676.5 214.9L678.1 213.7ZM682.0 221L681.0 221L684.3 214.6L684.3 214.5L680.5 214.5L680.5 213.7L685.2 213.7L685.2 214.6L682.0 221ZM688.3 216.9L688.3 216.9Q687.8 216.9 687.5 216.7Q687.2 216.5 687.0 216.2Q686.8 215.9 686.8 215.5L686.8 215.5L686.8 215.1Q686.8 214.7 687.0 214.3Q687.2 214.0 687.5 213.8Q687.8 213.6 688.3 213.6L688.3 213.6Q688.7 213.6 689.1 213.8Q689.4 214.0 689.5 214.3Q689.7 214.7 689.7 215.1L689.7 215.1L689.7 215.5Q689.7 215.9 689.5 216.2Q689.4 216.5 689.1 216.7Q688.7 216.9 688.3 216.9ZM688.3 216.3L688.3 216.3Q688.7 216.3 688.8 216.0Q689.0 215.8 689.0 215.5L689.0 215.5L689.0 215.1Q689.0 214.8 688.8 214.5Q688.7 214.2 688.3 214.2L688.3 214.2Q687.9 214.2 687.8 214.5Q687.6 214.8 687.6 215.1L687.6 215.1L687.6 215.5Q687.6 215.8 687.8 216.0Q687.9 216.3 688.3 216.3ZM693.0 221.1L693.0 221.1Q692.5 221.1 692.2 220.9Q691.9 220.7 691.7 220.4Q691.6 220.1 691.6 219.7L691.6 219.7L691.6 219.3Q691.6 218.9 691.7 218.5Q691.9 218.2 692.2 218.0Q692.5 217.8 693.0 217.8L693.0 217.8Q693.5 217.8 693.8 218.0Q694.1 218.2 694.3 218.5Q694.4 218.9 694.4 219.3L694.4 219.3L694.4 219.7Q694.4 220.1 694.3 220.4Q694.1 220.7 693.8 220.9Q693.5 221.1 693.0 221.1ZM693.0 220.5L693.0 220.5Q693.4 220.5 693.5 220.2Q693.7 220.0 693.7 219.7L693.7 219.7L693.7 219.3Q693.7 219.0 693.5 218.7Q693.4 218.4 693.0 218.4L693.0 218.4Q692.6 218.4 692.5 218.7Q692.3 219.0 692.3 219.3L692.3 219.3L692.3 219.7Q692.3 220.0 692.5 220.2Q692.6 220.5 693.0 220.5ZM688.5 221L687.7 221L692.7 213.7L693.5 213.7L688.5 221Z "/></g></svg>