<!-- Generated by readme-aura https://github.com/collectioneur/readme-aura -->
<svg width="860" height="220" viewBox="0 0 860 220" xmlns="http://www.w3.org/2000/svg"><defs><clipPath id="satori_bc-id"><path x="0" y="0" width="860" height="220" d="M16,0 h828 a16,16 0 0 1 16,16 v188 a16,16 0 0 1 -16,16 h-828 a16,16 0 0 1 -16,-16 v-188 a16,16 0 0 1 16,-16"/></clipPath></defs><clipPath id="satori_cp-id"><path x="0" y="0" width="860" height="220" d="M16,0 h828 a16,16 0 0 1 16,16 v188 a16,16 0 0 1 -16,16 h-828 a16,16 0 0 1 -16,-16 v-188 a16,16 0 0 1 16,-16"/></clipPath><mask id="satori_om-id"><rect x="1" y="1" width="858" height="218" fill="#fff"/><path width="860" height="220" fill="none" stroke="#000" stroke-width="2" d="M4.686,4.686 A16,16 0 0 1 16,0 h828 a16,16 0 0 1 16,16 v188 a16,16 0 0 1 -16,16 h-828 a16,16 0 0 1 -16,-16 v-188 A16,16 0 0 1 4.686,4.686"/></mask><path x="0" y="0" width="860" height="220" fill="#0d0810" d="M16,0 h828 a16,16 0 0 1 16,16 v188 a16,16 0 0 1 -16,16 h-828 a16,16 0 0 1 -16,-16 v-188 a16,16 0 0 1 16,-16"/><path width="860" height="220" clip-path="url(#satori_bc-id)" fill="none" stroke="rgba(68,33,40,0.6)" stroke-width="2" d="M4.686,4.686 A16,16 0 0 1 16,0 h828 a16,16 0 0 1 16,16 v188 a16,16 0 0 1 -16,16 h-828 a16,16 0 0 1 -16,-16 v-188 A16,16 0 0 1 4.686,4.686"/><clipPath id="satori_cp-id-0" clip-path="url(#satori_cp-id)"><rect x="1" y="1" width="860" height="220"/></clipPath><mask id="satori_om-id-0"><rect x="1" y="1" width="860" height="220" fill="#fff" mask="url(#satori_om-id)"/></mask><svg x="1" y="1" width="860" height="220" preserveAspectRatio="none" clip-path="url(#satori_cp-id-0)" mask="url(#satori_om-id-0)"><defs><radialGradient id="hg1" cx="50%" cy="50%" r="50%"><stop offset="0%" stop-color="rgba(90,20,40,0.85)"></stop><stop offset="50%" stop-color="rgba(60,10,25,0.35)"></stop><stop offset="100%" stop-color="rgba(60,10,25,0)"></stop></radialGradient><radialGradient id="hg2" cx="50%" cy="50%" r="50%"><stop offset="0%" stop-color="rgba(140,60,80,0.7)"></stop><stop offset="50%" stop-color="rgba(100,30,55,0.28)"></stop><stop offset="100%" stop-color="rgba(100,30,55,0)"></stop></radialGradient><radialGradient id="hg3" cx="50%" cy="50%" r="50%"><stop offset="0%" stop-color="rgba(180,110,90,0.5)"></stop><stop offset="50%" stop-color="rgba(140,80,60,0.2)"></stop><stop offset="100%" stop-color="rgba(140,80,60,0)"></stop></radialGradient><radialGradient id="hg4" cx="50%" cy="50%" r="50%"><stop offset="0%" stop-color="rgba(60,10,50,0.65)"></stop><stop offset="60%" stop-color="rgba(40,5,35,0.2)"></stop><stop offset="100%" stop-color="rgba(40,5,35,0)"></stop></radialGradient><radialGradient id="hg5" cx="50%" cy="50%" r="50%"><stop offset="0%" stop-color="rgba(110,40,60,0.55)"></stop><stop offset="55%" stop-color="rgba(80,20,40,0.18)"></stop><stop offset="100%" stop-color="rgba(80,20,40,0)"></stop></radialGradient><radialGradient id="hg6" cx="50%" cy="50%" r="50%"><stop offset="0%" stop-color="rgba(217,157,135,0.3)"></stop><stop offset="60%" stop-color="rgba(217,157,135,0.08)"></stop><stop offset="100%" stop-color="rgba(217,157,135,0)"></stop></radialGradient></defs><ellipse id="h1" cx="150" cy="240" rx="280" ry="180" fill="url(#hg1)"></ellipse><ellipse id="h2" cx="350" cy="250" rx="240" ry="160" fill="url(#hg2)"></ellipse><ellipse id="h3" cx="500" cy="245" rx="200" ry="140" fill="url(#hg3)"></ellipse><ellipse id="h4" cx="680" cy="255" rx="170" ry="130" fill="url(#hg4)"></ellipse><ellipse id="h5" cx="420" cy="235" rx="230" ry="170" fill="url(#hg5)"></ellipse><ellipse id="h6" cx="760" cy="200" rx="120" ry="100" fill="url(#hg6)"></ellipse><style>

    @keyframes d1 { 0%,100%{transform:translateX(0);opacity:.85} 50%{transform:translateX(280px);opacity:1} }
    @keyframes d2 { 0%,100%{transform:translateX(0);opacity:.7} 50%{transform:translateX(-220px);opacity:.95} }
    @keyframes d3 { 0%,100%{transform:translateX(0);opacity:.75} 50%{transform:translateX(180px);opacity:.55} }
    @keyframes d4 { 0%,100%{transform:translateX(0);opacity:.8} 50%{transform:translateX(-300px);opacity:1} }
    @keyframes d5 { 0%,100%{transform:translateX(0);opacity:.6} 33%{transform:translateX(-140px);opacity:.9} 66%{transform:translateX(90px);opacity:1} }
    @keyframes pg { 0%,100%{transform:scale(1);opacity:.75} 50%{transform:scale(1.3);opacity:.4} }
    @keyframes tf { 0%,100%{opacity:.9} 50%{opacity:1} }
    #h1{animation:d1 10s ease-in-out infinite} #h2{animation:d2 13s ease-in-out infinite}
    #h3{animation:d3 8s ease-in-out infinite} #h4{animation:d4 15s ease-in-out infinite reverse}
    #h5{animation:d5 11s ease-in-out infinite} #h6{animation:pg 7s ease-in-out infinite}
    #ht{animation:tf 5s ease-in-out infinite}
  
</style>
</svg><mask id="satori_om-id-0-0"><rect x="1" y="1" width="0" height="220" fill="#fff" mask="url(#satori_om-id)"/></mask><mask id="satori_om-id-0-0-0"><rect x="1" y="1" width="0" height="220" fill="#fff" mask="url(#satori_om-id)"/></mask><mask id="satori_om-id-0-0-0-0"><rect x="1" y="1" width="0" height="220" fill="#fff" mask="url(#satori_om-id)"/></mask><mask id="satori_om-id-0-0-0-1"><rect x="1" y="1" width="0" height="220" fill="#fff" mask="url(#satori_om-id)"/></mask><mask id="satori_om-id-0-0-0-2"><rect x="1" y="1" width="0" height="220" fill="#fff" mask="url(#satori_om-id)"/></mask><mask id="satori_om-id-0-0-1"><rect x="1" y="1" width="0" height="220" fill="#fff" mask="url(#satori_om-id)"/></mask><mask id="satori_om-id-0-0-1-0"><rect x="1" y="1" width="0" height="220" fill="#fff" mask="url(#satori_om-id)"/></mask><mask id="satori_om-id-0-0-1-1"><rect x="1" y="1" width="0" height="220" fill="#fff" mask="url(#satori_om-id)"/></mask><mask id="satori_om-id-0-0-1-2"><rect x="1" y="1" width="0" height="220" fill="#fff" mask="url(#satori_om-id)"/></mask><mask id="satori_om-id-0-0-2"><rect x="1" y="1" width="0" height="220" fill="#fff" mask="url(#satori_om-id)"/></mask><mask id="satori_om-id-0-0-2-0"><rect x="1" y="1" width="0" height="220" fill="#fff" mask="url(#satori_om-id)"/></mask><mask id="satori_om-id-0-0-2-1"><rect x="1" y="1" width="0" height="220" fill="#fff" mask="url(#satori_om-id)"/></mask><mask id="satori_om-id-0-0-2-2"><rect x="1" y="1" width="0" height="220" fill="#fff" mask="url(#satori_om-id)"/></mask><mask id="satori_om-id-0-0-3"><rect x="1" y="1" width="0" height="220" fill="#fff" mask="url(#satori_om-id)"/></mask><mask id="satori_om-id-0-0-3-0"><rect x="1" y="1" width="0" height="220" fill="#fff" mask="url(#satori_om-id)"/></mask><mask id="satori_om-id-0-0-3-1"><rect x="1" y="1" width="0" height="220" fill="#fff" mask="url(#satori_om-id)"/></mask><mask id="satori_om-id-0-0-3-2"><rect x="1" y="1" width="0" height="220" fill="#fff" mask="url(#satori_om-id)"/></mask><mask id="satori_om-id-0-0-4"><rect x="1" y="1" width="0" height="220" fill="#fff" mask="url(#satori_om-id)"/></mask><mask id="satori_om-id-0-0-4-0"><rect x="1" y="1" width="0" height="220" fill="#fff" mask="url(#satori_om-id)"/></mask><mask id="satori_om-id-0-0-4-1"><rect x="1" y="1" width="0" height="220" fill="#fff" mask="url(#satori_om-id)"/></mask><mask id="satori_om-id-0-0-4-2"><rect x="1" y="1" width="0" height="220" fill="#fff" mask="url(#satori_om-id)"/></mask><mask id="satori_om-id-0-0-5"><rect x="1" y="1" width="0" height="220" fill="#fff" mask="url(#satori_om-id)"/></mask><mask id="satori_om-id-0-0-5-0"><rect x="1" y="1" width="0" height="220" fill="#fff" mask="url(#satori_om-id)"/></mask><mask id="satori_om-id-0-0-5-1"><rect x="1" y="1" width="0" height="220" fill="#fff" mask="url(#satori_om-id)"/></mask><mask id="satori_om-id-0-0-5-2"><rect x="1" y="1" width="0" height="220" fill="#fff" mask="url(#satori_om-id)"/></mask><mask id="satori_om-id-0-1"><rect x="1" y="1" width="0" height="220" fill="#fff" mask="url(#satori_om-id)"/></mask><mask id="satori_om-id-0-2"><rect x="1" y="1" width="0" height="220" fill="#fff" mask="url(#satori_om-id)"/></mask><mask id="satori_om-id-0-3"><rect x="1" y="1" width="0" height="220" fill="#fff" mask="url(#satori_om-id)"/></mask><mask id="satori_om-id-0-4"><rect x="1" y="1" width="0" height="220" fill="#fff" mask="url(#satori_om-id)"/></mask><mask id="satori_om-id-0-5"><rect x="1" y="1" width="0" height="220" fill="#fff" mask="url(#satori_om-id)"/></mask><mask id="satori_om-id-0-6"><rect x="1" y="1" width="0" height="220" fill="#fff" mask="url(#satori_om-id)"/></mask><mask id="satori_om-id-1"><rect x="198" y="64" width="465" height="92" fill="#fff" mask="url(#satori_om-id)"/></mask><mask id="satori_om-id-1-0"><rect x="281" y="64" width="299" height="38" fill="#fff" mask="url(#satori_om-id)"/></mask><g mask="url(#satori_om-id)" clip-path="url(#satori_cp-id)"><path fill="#d99d87" d="M301.1 97L283.5 97L283.5 69.4L289.2 69.4L289.2 92.3L301.1 92.3L301.1 97ZM314.0 97.3L314.0 97.3Q311.9 97.3 310.2 96.3Q308.6 95.4 307.7 93.6Q306.9 91.9 306.9 89.4L306.9 89.4L306.9 76.3L312.4 76.3L312.4 88.5Q312.4 90.4 313.4 91.5Q314.4 92.6 316.2 92.6L316.2 92.6Q317.4 92.6 318.3 92.1Q319.2 91.6 319.7 90.6Q320.2 89.6 320.2 88.3L320.2 88.3L320.2 76.3L325.8 76.3L325.8 97L320.5 97L320.5 92.7Q319.7 94.7 318.3 95.8L318.3 95.8Q316.6 97.3 314.0 97.3ZM338.1 85.0L338.1 85.0L338.1 97L332.5 97L332.5 76.3L337.8 76.3L337.8 80.5Q338.6 78.6 340.0 77.4L340.0 77.4Q341.7 76.0 344.3 76.0L344.3 76.0Q346.5 76.0 348.1 76.9Q349.7 77.9 350.5 79.6Q351.4 81.4 351.4 83.8L351.4 83.8L351.4 97L345.9 97L345.9 84.8Q345.9 82.8 344.9 81.7Q343.9 80.7 342.1 80.7L342.1 80.7Q340.9 80.7 340.0 81.2Q339.1 81.7 338.6 82.6Q338.1 83.6 338.1 85.0ZM364.0 97.4L364.0 97.4Q362.0 97.4 360.4 96.7Q358.9 96.0 358.0 94.6Q357.1 93.3 357.1 91.2L357.1 91.2Q357.1 89.5 357.7 88.3Q358.3 87.1 359.4 86.4Q360.6 85.7 362.0 85.3Q363.4 85.0 364.9 84.8L364.9 84.8Q366.7 84.6 367.8 84.5Q368.9 84.3 369.4 84.0Q369.9 83.6 369.9 83.0L369.9 83.0L369.9 82.9Q369.9 82.0 369.5 81.4Q369.2 80.8 368.4 80.4Q367.7 80.1 366.7 80.1L366.7 80.1Q365.6 80.1 364.8 80.4Q364.0 80.8 363.5 81.3Q363 81.8 362.8 82.5L362.8 82.5L357.7 81.7Q358.2 79.9 359.4 78.6Q360.7 77.3 362.5 76.7Q364.4 76.0 366.7 76.0L366.7 76.0Q368.4 76.0 369.9 76.4Q371.5 76.8 372.8 77.6Q374.0 78.5 374.8 79.8Q375.5 81.2 375.5 83.0L375.5 83.0L375.5 97L370.2 97L370.2 94.1L370.0 94.1Q369.5 95.1 368.7 95.8Q367.9 96.6 366.7 97.0Q365.5 97.4 364.0 97.4ZM365.5 93.5L365.5 93.5Q366.9 93.5 367.9 93.0Q368.8 92.5 369.4 91.6Q370.0 90.7 370.0 89.6L370.0 89.6L370.0 87.3Q369.7 87.5 369.2 87.7Q368.7 87.8 368.1 87.9Q367.5 88.0 366.9 88.1Q366.3 88.2 365.8 88.3L365.8 88.3Q364.8 88.4 364.0 88.8Q363.3 89.1 362.8 89.6Q362.4 90.2 362.4 91.0L362.4 91.0Q362.4 91.8 362.8 92.4Q363.2 92.9 363.9 93.2Q364.6 93.5 365.5 93.5Z M398.0 97L391.8 97L401.2 69.4L408.6 69.4L418.3 97L412.0 97L409.9 90.6L400.1 90.6L398.0 97ZM401.5 86.1L408.4 86.1L407.6 83.7Q406.8 81.1 406.0 78L406.0 78Q405.4 76.0 404.9 73.8L404.9 73.8Q404.3 76.1 403.8 78.0L403.8 78.0Q403.1 81.1 402.3 83.7L402.3 83.7L401.5 86.1ZM423.6 69.4L429.2 69.4L429.2 97L423.6 97L423.6 69.4ZM441.5 97L435.9 97L435.9 69.4L441.5 69.4L441.5 84.2L441.8 84.2L448.6 76.3L455.0 76.3L447.3 85.3L455.4 97L448.9 97L443.1 88.6L441.5 90.3L441.5 97ZM467.1 97.3L467.1 97.3Q464.9 97.3 463.3 96.3Q461.7 95.4 460.8 93.6Q459.9 91.9 459.9 89.4L459.9 89.4L459.9 76.3L465.5 76.3L465.5 88.5Q465.5 90.4 466.5 91.5Q467.5 92.6 469.3 92.6L469.3 92.6Q470.4 92.6 471.4 92.1Q472.3 91.6 472.8 90.6Q473.3 89.6 473.3 88.3L473.3 88.3L473.3 76.3L478.9 76.3L478.9 97L473.6 97L473.5 92.7Q472.8 94.7 471.4 95.8L471.4 95.8Q469.7 97.3 467.1 97.3ZM492.8 76.3L497.1 76.3L497.1 80.5L492.8 80.5L492.8 97L487.3 97L487.3 80.5L483.6 80.5L483.6 76.3L487.3 76.3L487.3 74.7Q487.3 72.5 488.1 71.0Q489.0 69.5 490.5 68.8Q492.1 68.1 494.0 68.1L494.0 68.1Q495.3 68.1 496.4 68.3Q497.5 68.5 498.0 68.6L498.0 68.6L497.0 72.8Q496.6 72.7 496.2 72.6Q495.7 72.5 495.1 72.5L495.1 72.5Q493.9 72.5 493.3 73.1Q492.8 73.8 492.8 74.8L492.8 74.8L492.8 76.3ZM508.5 97.4L508.5 97.4Q506.5 97.4 505.0 96.7Q503.4 96.0 502.5 94.6Q501.6 93.3 501.6 91.2L501.6 91.2Q501.6 89.5 502.3 88.3Q502.9 87.1 504.0 86.4Q505.1 85.7 506.5 85.3Q507.9 85.0 509.4 84.8L509.4 84.8Q511.2 84.6 512.3 84.5Q513.5 84.3 514.0 84.0Q514.5 83.6 514.5 83.0L514.5 83.0L514.5 82.9Q514.5 82.0 514.1 81.4Q513.7 80.8 513.0 80.4Q512.3 80.1 511.2 80.1L511.2 80.1Q510.1 80.1 509.4 80.4Q508.6 80.8 508.1 81.3Q507.6 81.8 507.3 82.5L507.3 82.5L502.2 81.7Q502.7 79.9 504.0 78.6Q505.2 77.3 507.1 76.7Q508.9 76.0 511.2 76.0L511.2 76.0Q512.9 76.0 514.5 76.4Q516.1 76.8 517.3 77.6Q518.6 78.5 519.3 79.8Q520.0 81.2 520.0 83.0L520.0 83.0L520.0 97L514.8 97L514.8 94.1L514.6 94.1Q514.1 95.1 513.2 95.8Q512.4 96.6 511.2 97.0Q510.1 97.4 508.5 97.4ZM510.1 93.5L510.1 93.5Q511.4 93.5 512.4 93.0Q513.4 92.5 514.0 91.6Q514.5 90.7 514.5 89.6L514.5 89.6L514.5 87.3Q514.3 87.5 513.8 87.7Q513.3 87.8 512.7 87.9Q512.0 88.0 511.4 88.1Q510.9 88.2 510.4 88.3L510.4 88.3Q509.4 88.4 508.6 88.8Q507.8 89.1 507.4 89.6Q507.0 90.2 507.0 91.0L507.0 91.0Q507.0 91.8 507.4 92.4Q507.8 92.9 508.5 93.2Q509.2 93.5 510.1 93.5ZM532.4 97L526.8 97L526.8 76.3L532.4 76.3L532.4 97ZM529.6 73.5L529.6 73.5Q528.3 73.5 527.4 72.7Q526.5 71.9 526.5 70.7L526.5 70.7Q526.5 69.5 527.4 68.7Q528.3 67.8 529.6 67.8L529.6 67.8Q530.8 67.8 531.7 68.7Q532.6 69.5 532.6 70.7L532.6 70.7Q532.6 71.9 531.7 72.7Q530.8 73.5 529.6 73.5ZM544.7 97L539.1 97L539.1 76.3L544.5 76.3L544.5 79.9L544.7 79.9Q545.3 77.9 546.6 77.0Q548.0 76.0 549.7 76.0L549.7 76.0Q550.1 76.0 550.6 76.0Q551.1 76.1 551.5 76.2L551.5 76.2L551.5 81.1Q551.1 81.0 550.4 80.9Q549.7 80.9 549.1 80.9L549.1 80.9Q547.8 80.9 546.8 81.4Q545.8 82.0 545.2 82.9Q544.7 83.9 544.7 85.2L544.7 85.2L544.7 97ZM556.4 104.3L556.4 104.3L557.7 100.2L558.4 100.3Q559.5 100.6 560.4 100.5Q561.2 100.4 561.8 99.8Q562.3 99.2 562.4 98.2L562.4 98.2L562.6 97.1L554.8 76.3L560.7 76.3L564.2 87.0Q564.8 89.1 565.2 91.1L565.2 91.1Q565.3 91.8 565.5 92.5L565.5 92.5Q565.7 91.8 565.8 91.1L565.8 91.1Q566.3 89.0 567.0 87.0L567.0 87.0L570.6 76.3L576.5 76.3L567.7 99.4Q567.0 101.1 566.0 102.3Q565.1 103.6 563.6 104.2Q562.1 104.9 560.0 104.9L560.0 104.9Q558.9 104.9 558.0 104.7Q557.0 104.6 556.4 104.3Z "/></g><mask id="satori_om-id-1-1"><rect x="263" y="112" width="336" height="17" fill="#fff" mask="url(#satori_om-id)"/></mask><g mask="url(#satori_om-id)" clip-path="url(#satori_cp-id)"><path fill="rgba(153,145,137,0.9)" d="M267.5 126.2L267.5 126.2Q266.4 126.2 265.6 125.8Q264.8 125.5 264.3 124.8Q263.9 124.2 263.8 123.3L263.8 123.3L265.1 123.3Q265.2 123.9 265.5 124.3Q265.9 124.7 266.4 124.8Q266.9 125.0 267.5 125.0L267.5 125.0Q268.2 125.0 268.7 124.8Q269.3 124.6 269.6 124.2Q269.9 123.7 269.9 123.2L269.9 123.2Q269.9 122.7 269.6 122.4Q269.4 122.1 268.9 121.9Q268.5 121.7 267.9 121.5L267.9 121.5L266.7 121.2Q265.4 120.9 264.8 120.2Q264.1 119.6 264.1 118.5L264.1 118.5Q264.1 117.7 264.5 117.0Q265.0 116.4 265.8 116.0Q266.6 115.7 267.6 115.7L267.6 115.7Q268.6 115.7 269.4 116.0Q270.1 116.4 270.6 117.0Q271.0 117.6 271.1 118.4L271.1 118.4L269.8 118.4Q269.7 117.6 269.1 117.2Q268.4 116.8 267.5 116.8L267.5 116.8Q266.9 116.8 266.4 117.0Q265.9 117.3 265.6 117.6Q265.3 118.0 265.3 118.5L265.3 118.5Q265.3 119.0 265.7 119.3Q266.0 119.7 266.5 119.8Q266.9 120.0 267.3 120.1L267.3 120.1L268.3 120.4Q268.7 120.5 269.2 120.7Q269.7 120.9 270.2 121.2Q270.6 121.5 270.9 122.0Q271.2 122.5 271.2 123.2L271.2 123.2Q271.2 124.1 270.8 124.7Q270.3 125.4 269.5 125.8Q268.7 126.2 267.5 126.2ZM278.2 126.2L278.2 126.2Q277.1 126.2 276.4 125.7Q275.6 125.2 275.1 124.3Q274.7 123.4 274.7 122.2L274.7 122.2Q274.7 121.0 275.1 120.1Q275.6 119.2 276.4 118.8Q277.1 118.3 278.2 118.3L278.2 118.3Q279.2 118.3 280.0 118.8Q280.8 119.2 281.2 120.1Q281.7 121.0 281.7 122.2L281.7 122.2Q281.7 123.4 281.2 124.3Q280.8 125.2 280.0 125.7Q279.2 126.2 278.2 126.2ZM278.2 125.1L278.2 125.1Q278.9 125.1 279.4 124.7Q279.9 124.3 280.2 123.6Q280.4 123.0 280.4 122.2L280.4 122.2Q280.4 121.5 280.2 120.8Q279.9 120.2 279.4 119.8Q278.9 119.4 278.2 119.4L278.2 119.4Q277.4 119.4 276.9 119.8Q276.4 120.2 276.2 120.8Q275.9 121.5 275.9 122.2L275.9 122.2Q275.9 123.0 276.2 123.6Q276.4 124.3 276.9 124.7Q277.4 125.1 278.2 125.1ZM287.2 118.4L289.0 118.4L289.0 119.4L287.2 119.4L287.2 126L286.0 126L286.0 119.4L284.5 119.4L284.5 118.4L286.0 118.4L286.0 117.3Q286.0 116.7 286.3 116.2Q286.6 115.8 287.1 115.6Q287.6 115.3 288.2 115.3L288.2 115.3Q288.6 115.3 288.9 115.4Q289.2 115.5 289.3 115.5L289.3 115.5L289.0 116.6Q288.9 116.6 288.7 116.5Q288.6 116.5 288.3 116.5L288.3 116.5Q287.8 116.5 287.5 116.8Q287.2 117.1 287.2 117.6L287.2 117.6L287.2 118.4ZM294.1 118.4L295.6 118.4L295.6 119.4L294.1 119.4L294.1 124.0Q294.1 124.5 294.3 124.8Q294.5 125.0 295.0 125.0L295.0 125.0Q295.1 125.0 295.3 125.0Q295.5 124.9 295.6 124.9L295.6 124.9L295.9 126.0Q295.7 126.0 295.4 126.1Q295.2 126.1 294.9 126.1L294.9 126.1Q294.0 126.1 293.4 125.6Q292.8 125.0 292.8 124.1L292.8 124.1L292.8 119.4L291.7 119.4L291.7 118.4L292.8 118.4L292.8 116.5L294.1 116.5L294.1 118.4ZM302.2 126L300.9 126L298.6 118.4L299.9 118.4L300.9 121.7Q301.0 122.4 301.3 123.2L301.3 123.2Q301.4 123.9 301.6 124.7L301.6 124.7Q301.7 123.9 301.9 123.3L301.9 123.3Q302.1 122.4 302.3 121.7L302.3 121.7L303.2 118.4L304.5 118.4L305.4 121.7Q305.6 122.4 305.8 123.3L305.8 123.3Q306.0 123.9 306.2 124.7L306.2 124.7Q306.3 123.9 306.5 123.3L306.5 123.3Q306.7 122.4 306.9 121.7L306.9 121.7L307.8 118.4L309.1 118.4L306.8 126L305.6 126L304.6 122.5Q304.4 122.0 304.3 121.5Q304.1 120.9 304.0 120.3L304.0 120.3Q303.9 120.1 303.9 119.8L303.9 119.8Q303.8 120.0 303.7 120.3L303.7 120.3Q303.6 120.9 303.4 121.5Q303.3 122.0 303.1 122.5L303.1 122.5L302.2 126ZM314.8 126.2L314.8 126.2Q314.1 126.2 313.5 125.9Q312.9 125.6 312.6 125.1Q312.2 124.6 312.2 123.8L312.2 123.8Q312.2 123.2 312.5 122.8Q312.7 122.3 313.2 122.1Q313.6 121.9 314.1 121.8Q314.7 121.6 315.2 121.6L315.2 121.6Q315.9 121.5 316.3 121.4Q316.7 121.4 316.9 121.3Q317.1 121.2 317.1 120.9L317.1 120.9L317.1 120.8Q317.1 120.4 317.0 120.0Q316.8 119.7 316.4 119.5Q316.1 119.3 315.5 119.3L315.5 119.3Q315 119.3 314.6 119.5Q314.2 119.7 314.0 119.9Q313.7 120.2 313.6 120.5L313.6 120.5L312.4 120.1Q312.7 119.4 313.2 119.0Q313.7 118.6 314.3 118.4Q314.9 118.3 315.5 118.3L315.5 118.3Q315.9 118.3 316.4 118.4Q316.9 118.4 317.3 118.7Q317.8 119.0 318.1 119.5Q318.4 120.1 318.4 121.0L318.4 121.0L318.4 126L317.2 126L317.2 125.0L317.1 125.0Q317.0 125.2 316.7 125.5Q316.4 125.8 315.9 126.0Q315.5 126.2 314.8 126.2ZM315.0 125.1L315.0 125.1Q315.7 125.1 316.2 124.8Q316.7 124.6 316.9 124.1Q317.1 123.7 317.1 123.2L317.1 123.2L317.1 122.2Q317.1 122.3 316.8 122.3Q316.6 122.4 316.2 122.5Q315.9 122.5 315.6 122.6Q315.3 122.6 315.1 122.6L315.1 122.6Q314.7 122.7 314.3 122.8Q313.9 122.9 313.7 123.2Q313.4 123.5 313.4 123.9L313.4 123.9Q313.4 124.3 313.7 124.6Q313.9 124.8 314.2 125.0Q314.6 125.1 315.0 125.1ZM323.8 126L322.5 126L322.5 118.4L323.7 118.4L323.7 119.5L323.8 119.5Q324.0 119.0 324.6 118.6Q325.1 118.2 325.8 118.2L325.8 118.2Q325.9 118.2 326.1 118.3Q326.3 118.3 326.4 118.3L326.4 118.3L326.4 119.5Q326.4 119.5 326.1 119.5Q325.9 119.4 325.7 119.4L325.7 119.4Q325.1 119.4 324.7 119.7Q324.3 119.9 324.0 120.3Q323.8 120.7 323.8 121.2L323.8 121.2L323.8 126ZM333.0 126.2L333.0 126.2Q331.9 126.2 331.1 125.7Q330.3 125.2 329.9 124.3Q329.4 123.4 329.4 122.2Q329.4 121.1 329.9 120.2Q330.3 119.3 331.1 118.8Q331.8 118.3 332.9 118.3L332.9 118.3Q333.5 118.3 334.1 118.5Q334.7 118.7 335.1 119.1Q335.6 119.6 335.9 120.3Q336.2 121.0 336.2 122.1L336.2 122.1L336.2 122.6L330.7 122.6Q330.7 123.3 331.0 123.9L331.0 123.9Q331.3 124.5 331.8 124.8Q332.3 125.1 333.0 125.1L333.0 125.1Q333.5 125.1 333.8 124.9Q334.2 124.8 334.5 124.5Q334.8 124.3 334.9 123.9L334.9 123.9L336.1 124.2Q335.9 124.8 335.5 125.2Q335.1 125.7 334.4 125.9Q333.8 126.2 333.0 126.2ZM330.7 121.6L330.7 121.6L335.0 121.6Q334.9 121.0 334.7 120.6L334.7 120.6Q334.5 120.0 334.0 119.7Q333.6 119.4 332.9 119.4Q332.2 119.4 331.7 119.7Q331.2 120.0 330.9 120.6L330.9 120.6Q330.7 121.0 330.7 121.6Z M352.3 126L346.1 126L346.1 115.8L352.3 115.8L352.3 117.0L347.4 117.0L347.4 120.3L351.9 120.3L351.9 121.4L347.4 121.4L347.4 124.9L352.3 124.9L352.3 126ZM357.6 121.4L357.6 121.4L357.6 126L356.3 126L356.3 118.4L357.5 118.4L357.5 119.8Q357.8 119.1 358.3 118.7L358.3 118.7Q359.0 118.3 359.8 118.3L359.8 118.3Q360.6 118.3 361.2 118.6Q361.8 118.9 362.1 119.5Q362.4 120.2 362.4 121.1L362.4 121.1L362.4 126L361.2 126L361.2 121.2Q361.2 120.4 360.7 119.9Q360.3 119.4 359.5 119.4L359.5 119.4Q358.9 119.4 358.5 119.6Q358.1 119.8 357.8 120.3Q357.6 120.8 357.6 121.4ZM369.7 129.0L369.7 129.0Q368.8 129.0 368.2 128.8Q367.6 128.6 367.2 128.2Q366.8 127.9 366.5 127.5L366.5 127.5L367.5 126.8Q367.7 127.0 368.0 127.3Q368.2 127.6 368.6 127.8Q369.0 127.9 369.7 127.9L369.7 127.9Q370.6 127.9 371.2 127.5Q371.8 127.1 371.8 126.1L371.8 126.1L371.8 124.6L371.7 124.6Q371.5 124.8 371.3 125.1Q371.1 125.4 370.6 125.6Q370.2 125.9 369.5 125.9L369.5 125.9Q368.5 125.9 367.8 125.4Q367.1 125.0 366.6 124.2Q366.2 123.3 366.2 122.1L366.2 122.1Q366.2 121.0 366.6 120.1Q367.1 119.2 367.8 118.7Q368.5 118.3 369.5 118.3L369.5 118.3Q370.2 118.3 370.7 118.5Q371.1 118.7 371.3 119.1Q371.6 119.4 371.7 119.6L371.7 119.6L371.8 119.6L371.8 118.4L373.0 118.4L373.0 126.2Q373.0 127.2 372.6 127.8Q372.1 128.4 371.4 128.7Q370.6 129.0 369.7 129.0ZM369.7 124.8L369.7 124.8Q370.4 124.8 370.8 124.5Q371.3 124.1 371.6 123.5Q371.8 123.0 371.8 122.1L371.8 122.1Q371.8 121.3 371.6 120.7Q371.3 120.1 370.8 119.7Q370.4 119.4 369.7 119.4L369.7 119.4Q368.9 119.4 368.4 119.7Q368.0 120.1 367.7 120.7Q367.5 121.4 367.5 122.1L367.5 122.1Q367.5 122.9 367.7 123.5Q368.0 124.1 368.5 124.4Q368.9 124.8 369.7 124.8ZM378.4 126L377.2 126L377.2 118.4L378.4 118.4L378.4 126ZM377.8 117.1L377.8 117.1Q377.5 117.1 377.2 116.9Q376.9 116.6 376.9 116.3L376.9 116.3Q376.9 116.0 377.2 115.7Q377.5 115.5 377.8 115.5L377.8 115.5Q378.2 115.5 378.4 115.7Q378.7 116.0 378.7 116.3L378.7 116.3Q378.7 116.6 378.4 116.9Q378.2 117.1 377.8 117.1ZM383.8 121.4L383.8 121.4L383.8 126L382.6 126L382.6 118.4L383.8 118.4L383.8 119.8Q384.1 119.1 384.6 118.7L384.6 118.7Q385.2 118.3 386.1 118.3L386.1 118.3Q386.9 118.3 387.5 118.6Q388.0 118.9 388.4 119.5Q388.7 120.2 388.7 121.1L388.7 121.1L388.7 126L387.5 126L387.5 121.2Q387.5 120.4 387.0 119.9Q386.5 119.4 385.7 119.4L385.7 119.4Q385.2 119.4 384.7 119.6Q384.3 119.8 384.1 120.3Q383.8 120.8 383.8 121.4ZM396.1 126.2L396.1 126.2Q394.9 126.2 394.1 125.7Q393.3 125.2 392.9 124.3Q392.5 123.4 392.5 122.2Q392.5 121.1 392.9 120.2Q393.3 119.3 394.1 118.8Q394.9 118.3 395.9 118.3L395.9 118.3Q396.5 118.3 397.1 118.5Q397.7 118.7 398.2 119.1Q398.7 119.6 399.0 120.3Q399.2 121.0 399.2 122.1L399.2 122.1L399.2 122.6L393.7 122.6Q393.7 123.3 394.0 123.9L394.0 123.9Q394.3 124.5 394.8 124.8Q395.4 125.1 396.1 125.1L396.1 125.1Q396.5 125.1 396.9 124.9Q397.3 124.8 397.5 124.5Q397.8 124.3 397.9 123.9L397.9 123.9L399.1 124.2Q398.9 124.8 398.5 125.2Q398.1 125.7 397.5 125.9Q396.8 126.2 396.1 126.2ZM393.7 121.6L393.7 121.6L398.0 121.6Q397.9 121.0 397.8 120.6L397.8 120.6Q397.5 120.0 397.1 119.7Q396.6 119.4 395.9 119.4Q395.2 119.4 394.7 119.7Q394.2 120.0 394.0 120.6L394.0 120.6Q393.8 121.0 393.7 121.6ZM406.2 126.2L406.2 126.2Q405.1 126.2 404.3 125.7Q403.5 125.2 403.1 124.3Q402.6 123.4 402.6 122.2Q402.6 121.1 403.1 120.2Q403.5 119.3 404.3 118.8Q405.0 118.3 406.1 118.3L406.1 118.3Q406.7 118.3 407.3 118.5Q407.9 118.7 408.3 119.1Q408.8 119.6 409.1 120.3Q409.4 121.0 409.4 122.1L409.4 122.1L409.4 122.6L403.9 122.6Q403.9 123.3 404.2 123.9L404.2 123.9Q404.5 124.5 405.0 124.8Q405.5 125.1 406.2 125.1L406.2 125.1Q406.7 125.1 407.0 124.9Q407.4 124.8 407.7 124.5Q407.9 124.3 408.1 123.9L408.1 123.9L409.3 124.2Q409.1 124.8 408.7 125.2Q408.3 125.7 407.6 125.9Q407.0 126.2 406.2 126.2ZM403.9 121.6L403.9 121.6L408.2 121.6Q408.1 121.0 407.9 120.6L407.9 120.6Q407.7 120.0 407.2 119.7Q406.8 119.4 406.1 119.4Q405.4 119.4 404.9 119.7Q404.4 120.0 404.1 120.6L404.1 120.6Q403.9 121.0 403.9 121.6ZM414.4 126L413.2 126L413.2 118.4L414.4 118.4L414.4 119.5L414.4 119.5Q414.6 119.0 415.2 118.6Q415.7 118.2 416.4 118.2L416.4 118.2Q416.6 118.2 416.7 118.3Q416.9 118.3 417.0 118.3L417.0 118.3L417.0 119.5Q417.0 119.5 416.8 119.5Q416.5 119.4 416.3 119.4L416.3 119.4Q415.8 119.4 415.3 119.7Q414.9 119.9 414.6 120.3Q414.4 120.7 414.4 121.2L414.4 121.2L414.4 126Z M433.0 112.5L434.1 112.5L434.1 129.3L433.0 129.3L433.0 112.5ZM452.3 126L451.0 126L451.0 115.8L457.2 115.8L457.2 117.0L452.3 117.0L452.3 120.4L456.7 120.4L456.7 121.6L452.3 121.6L452.3 126ZM461.1 115.8L462.3 115.8L462.3 126L461.1 126L461.1 115.8ZM469.1 126.1L469.1 126.1Q468.3 126.1 467.7 125.8Q467.1 125.5 466.8 124.8Q466.5 124.2 466.5 123.2L466.5 123.2L466.5 118.4L467.7 118.4L467.7 123.1Q467.7 124.0 468.2 124.5Q468.7 125.0 469.5 125.0L469.5 125.0Q470.0 125.0 470.4 124.7Q470.9 124.5 471.1 124.0Q471.4 123.6 471.4 122.9L471.4 122.9L471.4 118.4L472.6 118.4L472.6 126L471.4 126L471.4 124.6Q471.1 125.3 470.6 125.7L470.6 125.7Q469.9 126.1 469.1 126.1ZM478.2 118.4L479.8 118.4L479.8 119.4L478.2 119.4L478.2 124.0Q478.2 124.5 478.4 124.8Q478.6 125.0 479.1 125.0L479.1 125.0Q479.2 125.0 479.4 125.0Q479.6 124.9 479.7 124.9L479.7 124.9L480.0 126.0Q479.8 126.0 479.6 126.1Q479.3 126.1 479.1 126.1L479.1 126.1Q478.1 126.1 477.5 125.6Q477.0 125.0 477.0 124.1L477.0 124.1L477.0 119.4L475.8 119.4L475.8 118.4L477.0 118.4L477.0 116.5L478.2 116.5L478.2 118.4ZM484.8 118.4L486.4 118.4L486.4 119.4L484.8 119.4L484.8 124.0Q484.8 124.5 485.0 124.8Q485.2 125.0 485.7 125.0L485.7 125.0Q485.8 125.0 486.0 125.0Q486.2 124.9 486.3 124.9L486.3 124.9L486.6 126.0Q486.4 126.0 486.1 126.1Q485.9 126.1 485.7 126.1L485.7 126.1Q484.7 126.1 484.1 125.6Q483.6 125.0 483.6 124.1L483.6 124.1L483.6 119.4L482.4 119.4L482.4 118.4L483.6 118.4L483.6 116.5L484.8 116.5L484.8 118.4ZM493.1 126.2L493.1 126.2Q492.0 126.2 491.2 125.7Q490.4 125.2 490.0 124.3Q489.6 123.4 489.6 122.2Q489.6 121.1 490.0 120.2Q490.4 119.3 491.2 118.8Q492.0 118.3 493.0 118.3L493.0 118.3Q493.6 118.3 494.2 118.5Q494.8 118.7 495.3 119.1Q495.8 119.6 496.0 120.3Q496.3 121.0 496.3 122.1L496.3 122.1L496.3 122.6L490.8 122.6Q490.8 123.3 491.1 123.9L491.1 123.9Q491.4 124.5 491.9 124.8Q492.5 125.1 493.2 125.1L493.2 125.1Q493.6 125.1 494.0 124.9Q494.3 124.8 494.6 124.5Q494.9 124.3 495.0 123.9L495.0 123.9L496.2 124.2Q496.0 124.8 495.6 125.2Q495.2 125.7 494.6 125.9Q493.9 126.2 493.1 126.2ZM490.8 121.6L490.8 121.6L495.1 121.6Q495.0 121.0 494.9 120.6L494.9 120.6Q494.6 120.0 494.2 119.7Q493.7 119.4 493.0 119.4Q492.3 119.4 491.8 119.7Q491.3 120.0 491.1 120.6L491.1 120.6Q490.9 121.0 490.8 121.6ZM501.3 126L500.1 126L500.1 118.4L501.3 118.4L501.3 119.5L501.4 119.5Q501.6 119.0 502.1 118.6Q502.7 118.2 503.4 118.2L503.4 118.2Q503.5 118.2 503.7 118.3Q503.9 118.3 504.0 118.3L504.0 118.3L504.0 119.5Q503.9 119.5 503.7 119.5Q503.5 119.4 503.2 119.4L503.2 119.4Q502.7 119.4 502.3 119.7Q501.8 119.9 501.6 120.3Q501.3 120.7 501.3 121.2L501.3 121.2L501.3 126Z M516.6 126L516.6 126L513.5 126L513.5 115.8L516.8 115.8Q518.3 115.8 519.3 116.4Q520.4 117.0 520.9 118.2Q521.5 119.3 521.5 120.9L521.5 120.9Q521.5 122.5 520.9 123.6Q520.4 124.8 519.3 125.4Q518.2 126 516.6 126ZM514.8 117.0L514.8 124.9L516.6 124.9Q517.8 124.9 518.6 124.4Q519.4 123.9 519.8 123.0Q520.2 122.1 520.2 120.9L520.2 120.9Q520.2 119.7 519.8 118.8Q519.4 117.9 518.6 117.4Q517.9 117.0 516.7 117.0L516.7 117.0L514.8 117.0ZM528.6 126.2L528.6 126.2Q527.5 126.2 526.7 125.7Q525.9 125.2 525.5 124.3Q525.0 123.4 525.0 122.2Q525.0 121.1 525.5 120.2Q525.9 119.3 526.7 118.8Q527.4 118.3 528.5 118.3L528.5 118.3Q529.1 118.3 529.7 118.5Q530.3 118.7 530.8 119.1Q531.2 119.6 531.5 120.3Q531.8 121.0 531.8 122.1L531.8 122.1L531.8 122.6L526.3 122.6Q526.3 123.3 526.6 123.9L526.6 123.9Q526.9 124.5 527.4 124.8Q527.9 125.1 528.6 125.1L528.6 125.1Q529.1 125.1 529.4 124.9Q529.8 124.8 530.1 124.5Q530.4 124.3 530.5 123.9L530.5 123.9L531.7 124.2Q531.5 124.8 531.1 125.2Q530.7 125.7 530.0 125.9Q529.4 126.2 528.6 126.2ZM526.3 121.6L526.3 121.6L530.6 121.6Q530.5 121.0 530.3 120.6L530.3 120.6Q530.1 120.0 529.6 119.7Q529.2 119.4 528.5 119.4Q527.8 119.4 527.3 119.7Q526.8 120.0 526.5 120.6L526.5 120.6Q526.3 121.0 526.3 121.6ZM539.1 126L537.8 126L534.9 118.4L536.2 118.4L537.8 122.9Q538.1 123.6 538.3 124.3L538.3 124.3Q538.4 124.6 538.4 124.9L538.4 124.9Q538.5 124.6 538.6 124.3L538.6 124.3Q538.8 123.6 539.0 122.9L539.0 122.9L540.6 118.4L542.0 118.4L539.1 126ZM548.7 126.2L548.7 126.2Q547.5 126.2 546.7 125.7Q545.9 125.2 545.5 124.3Q545.1 123.4 545.1 122.2Q545.1 121.1 545.5 120.2Q545.9 119.3 546.7 118.8Q547.5 118.3 548.5 118.3L548.5 118.3Q549.1 118.3 549.7 118.5Q550.3 118.7 550.8 119.1Q551.3 119.6 551.6 120.3Q551.8 121.0 551.8 122.1L551.8 122.1L551.8 122.6L546.3 122.6Q546.3 123.3 546.6 123.9L546.6 123.9Q546.9 124.5 547.4 124.8Q548.0 125.1 548.7 125.1L548.7 125.1Q549.1 125.1 549.5 124.9Q549.8 124.8 550.1 124.5Q550.4 124.3 550.5 123.9L550.5 123.9L551.7 124.2Q551.5 124.8 551.1 125.2Q550.7 125.7 550.1 125.9Q549.4 126.2 548.7 126.2ZM546.3 121.6L546.3 121.6L550.6 121.6Q550.5 121.0 550.4 120.6L550.4 120.6Q550.1 120.0 549.7 119.7Q549.2 119.4 548.5 119.4Q547.8 119.4 547.3 119.7Q546.8 120.0 546.6 120.6L546.6 120.6Q546.4 121.0 546.3 121.6ZM555.6 115.8L556.8 115.8L556.8 126L555.6 126L555.6 115.8ZM564.1 126.2L564.1 126.2Q563.1 126.2 562.3 125.7Q561.5 125.2 561.1 124.3Q560.6 123.4 560.6 122.2L560.6 122.2Q560.6 121.0 561.1 120.1Q561.5 119.2 562.3 118.8Q563.1 118.3 564.1 118.3L564.1 118.3Q565.1 118.3 565.9 118.8Q566.7 119.2 567.2 120.1Q567.6 121.0 567.6 122.2L567.6 122.2Q567.6 123.4 567.2 124.3Q566.7 125.2 565.9 125.7Q565.1 126.2 564.1 126.2ZM564.1 125.1L564.1 125.1Q564.9 125.1 565.4 124.7Q565.9 124.3 566.1 123.6Q566.4 123.0 566.4 122.2L566.4 122.2Q566.4 121.5 566.1 120.8Q565.9 120.2 565.4 119.8Q564.9 119.4 564.1 119.4L564.1 119.4Q563.3 119.4 562.8 119.8Q562.4 120.2 562.1 120.8Q561.9 121.5 561.9 122.2L561.9 122.2Q561.9 123.0 562.1 123.6Q562.4 124.3 562.8 124.7Q563.3 125.1 564.1 125.1ZM572.6 128.9L571.4 128.9L571.4 118.4L572.6 118.4L572.6 119.6L572.7 119.6Q572.8 119.4 573.1 119.1Q573.3 118.8 573.7 118.5Q574.2 118.3 574.9 118.3L574.9 118.3Q575.9 118.3 576.6 118.7Q577.3 119.2 577.8 120.1Q578.2 121.0 578.2 122.2L578.2 122.2Q578.2 123.4 577.8 124.3Q577.3 125.2 576.6 125.7Q575.9 126.2 574.9 126.2L574.9 126.2Q574.2 126.2 573.8 125.9Q573.3 125.7 573.1 125.3Q572.8 125.0 572.7 124.8L572.7 124.8L572.6 124.8L572.6 128.9ZM574.8 125.1L574.8 125.1Q575.5 125.1 575.9 124.7Q576.4 124.3 576.7 123.6Q576.9 123.0 576.9 122.2L576.9 122.2Q576.9 121.4 576.7 120.8Q576.4 120.1 576.0 119.7Q575.5 119.4 574.8 119.4L574.8 119.4Q574.0 119.4 573.6 119.7Q573.1 120.1 572.8 120.7Q572.6 121.3 572.6 122.2L572.6 122.2Q572.6 123.0 572.8 123.7Q573.1 124.3 573.6 124.7Q574.1 125.1 574.8 125.1ZM585.2 126.2L585.2 126.2Q584.1 126.2 583.3 125.7Q582.5 125.2 582.0 124.3Q581.6 123.4 581.6 122.2Q581.6 121.1 582.0 120.2Q582.4 119.3 583.2 118.8Q584.0 118.3 585.0 118.3L585.0 118.3Q585.6 118.3 586.2 118.5Q586.8 118.7 587.3 119.1Q587.8 119.6 588.1 120.3Q588.4 121.0 588.4 122.1L588.4 122.1L588.4 122.6L582.8 122.6Q582.9 123.3 583.1 123.9L583.1 123.9Q583.4 124.5 584.0 124.8Q584.5 125.1 585.2 125.1L585.2 125.1Q585.6 125.1 586.0 124.9Q586.4 124.8 586.6 124.5Q586.9 124.3 587.0 123.9L587.0 123.9L588.2 124.2Q588.1 124.8 587.6 125.2Q587.2 125.7 586.6 125.9Q586.0 126.2 585.2 126.2ZM582.8 121.6L582.8 121.6L587.1 121.6Q587.1 121.0 586.9 120.6L586.9 120.6Q586.6 120.0 586.2 119.7Q585.7 119.4 585.0 119.4Q584.3 119.4 583.8 119.7Q583.4 120.0 583.1 120.6L583.1 120.6Q582.9 121.0 582.8 121.6ZM593.4 126L592.1 126L592.1 118.4L593.3 118.4L593.3 119.5L593.4 119.5Q593.6 119.0 594.1 118.6Q594.7 118.2 595.4 118.2L595.4 118.2Q595.5 118.2 595.7 118.3Q595.9 118.3 596.0 118.3L596.0 118.3L596.0 119.5Q595.9 119.5 595.7 119.5Q595.5 119.4 595.3 119.4L595.3 119.4Q594.7 119.4 594.3 119.7Q593.8 119.9 593.6 120.3Q593.4 120.7 593.4 121.2L593.4 121.2L593.4 126Z "/></g><mask id="satori_om-id-1-2"><rect x="198" y="141" width="465" height="15" fill="#fff" mask="url(#satori_om-id)"/></mask><g mask="url(#satori_om-id)" clip-path="url(#satori_cp-id)"><path fill="rgba(217,157,135,0.6)" d="M202.6 153.1L202.6 153.1Q201.5 153.1 200.6 152.6Q199.7 152.0 199.2 151.0Q198.7 150.0 198.7 148.6L198.7 148.6Q198.7 147.3 199.2 146.2Q199.7 145.2 200.6 144.7Q201.5 144.2 202.6 144.2L202.6 144.2Q203.3 144.2 203.8 144.3Q204.4 144.5 204.9 144.9Q205.4 145.3 205.7 145.8Q206.0 146.3 206.1 147.0L206.1 147.0L205.0 147.0Q204.9 146.6 204.7 146.2Q204.5 145.9 204.1 145.7Q203.8 145.4 203.4 145.3Q203.0 145.2 202.6 145.2L202.6 145.2Q201.8 145.2 201.2 145.6Q200.5 146.0 200.2 146.8Q199.8 147.5 199.8 148.6L199.8 148.6Q199.8 149.8 200.2 150.5Q200.5 151.3 201.2 151.7Q201.8 152.1 202.6 152.1L202.6 152.1Q203.0 152.1 203.4 152.0Q203.8 151.8 204.1 151.6Q204.5 151.4 204.7 151.0Q204.9 150.7 205.0 150.3L205.0 150.3L206.1 150.3Q206.0 150.9 205.7 151.4Q205.4 152.0 204.9 152.3Q204.4 152.7 203.8 152.9Q203.3 153.1 202.6 153.1ZM209.7 153L208.7 153L208.7 146.4L209.7 146.4L209.7 147.5L209.8 147.5Q210.0 147.0 210.4 146.7Q210.9 146.4 211.5 146.4L211.5 146.4Q211.6 146.4 211.8 146.4Q211.9 146.4 212.0 146.4L212.0 146.4L212.0 147.4Q212.0 147.4 211.8 147.4Q211.6 147.4 211.4 147.4L211.4 147.4Q210.9 147.4 210.5 147.6Q210.2 147.8 210.0 148.1Q209.7 148.5 209.7 148.9L209.7 148.9L209.7 153ZM216.0 153.2L216.0 153.2Q215.4 153.2 214.9 152.9Q214.4 152.7 214.1 152.2Q213.8 151.8 213.8 151.1L213.8 151.1Q213.8 150.6 214.0 150.2Q214.3 149.9 214.6 149.7Q215 149.5 215.5 149.4Q215.9 149.3 216.4 149.2L216.4 149.2Q216.9 149.1 217.3 149.1Q217.7 149.1 217.9 149.0Q218.0 148.9 218.0 148.6L218.0 148.6L218.0 148.6Q218.0 148.2 217.9 147.9Q217.7 147.6 217.4 147.4Q217.1 147.3 216.7 147.3L216.7 147.3Q216.2 147.3 215.9 147.4Q215.5 147.6 215.3 147.8Q215.1 148.0 215.0 148.3L215.0 148.3L214.0 147.9Q214.3 147.3 214.7 147.0Q215.1 146.6 215.6 146.5Q216.1 146.4 216.6 146.4L216.6 146.4Q217.0 146.4 217.4 146.4Q217.8 146.5 218.2 146.8Q218.6 147.0 218.8 147.5Q219.1 147.9 219.1 148.7L219.1 148.7L219.1 153L218.1 153L218.1 152.1L218.0 152.1Q217.9 152.3 217.6 152.6Q217.4 152.8 217.0 153.0Q216.6 153.2 216.0 153.2ZM216.2 152.2L216.2 152.2Q216.8 152.2 217.2 152.0Q217.6 151.8 217.8 151.4Q218.0 151.0 218.0 150.6L218.0 150.6L218.0 149.7Q218.0 149.8 217.8 149.9Q217.5 149.9 217.3 150.0Q217.0 150.0 216.7 150.0Q216.5 150.1 216.3 150.1L216.3 150.1Q215.9 150.1 215.6 150.3Q215.3 150.4 215.1 150.6Q214.9 150.8 214.9 151.2L214.9 151.2Q214.9 151.5 215.0 151.8Q215.2 152.0 215.5 152.1Q215.8 152.2 216.2 152.2ZM223.5 146.4L225.0 146.4L225.0 147.4L223.5 147.4L223.5 153L222.4 153L222.4 147.4L221.1 147.4L221.1 146.4L222.4 146.4L222.4 145.6Q222.4 145.0 222.7 144.6Q223.0 144.2 223.4 144.1Q223.8 143.9 224.3 143.9L224.3 143.9Q224.7 143.9 224.9 143.9Q225.2 144.0 225.3 144.0L225.3 144.0L225.0 144.9Q224.9 144.9 224.8 144.9Q224.6 144.8 224.4 144.8L224.4 144.8Q223.9 144.8 223.7 145.1Q223.5 145.3 223.5 145.8L223.5 145.8L223.5 146.4ZM228.6 146.4L230.0 146.4L230.0 147.4L228.6 147.4L228.6 151.3Q228.6 151.7 228.8 151.9Q229.0 152.1 229.4 152.1L229.4 152.1Q229.5 152.1 229.6 152.1Q229.8 152.1 229.9 152.1L229.9 152.1L230.1 153.0Q230.0 153.0 229.8 153.1Q229.6 153.1 229.4 153.1L229.4 153.1Q228.5 153.1 228.0 152.6Q227.6 152.2 227.6 151.4L227.6 151.4L227.6 147.4L226.6 147.4L226.6 146.4L227.6 146.4L227.6 144.9L228.6 144.9L228.6 146.4ZM233.4 153L232.3 153L232.3 146.4L233.4 146.4L233.4 153ZM232.8 145.4L232.8 145.4Q232.5 145.4 232.3 145.2Q232.1 145.0 232.1 144.7L232.1 144.7Q232.1 144.4 232.3 144.2Q232.5 144.0 232.8 144.0L232.8 144.0Q233.2 144.0 233.4 144.2Q233.6 144.4 233.6 144.7L233.6 144.7Q233.6 145.0 233.4 145.2Q233.2 145.4 232.8 145.4ZM237.3 149.1L237.3 149.1L237.3 153L236.2 153L236.2 146.4L237.2 146.4L237.2 147.7Q237.5 147.0 237.9 146.7L237.9 146.7Q238.5 146.4 239.2 146.4L239.2 146.4Q239.9 146.4 240.4 146.6Q240.9 146.9 241.2 147.5Q241.5 148.0 241.5 148.8L241.5 148.8L241.5 153L240.4 153L240.4 148.9Q240.4 148.2 240.0 147.7Q239.6 147.3 238.9 147.3L238.9 147.3Q238.5 147.3 238.1 147.5Q237.7 147.7 237.5 148.1Q237.3 148.5 237.3 149.1ZM247.0 155.6L247.0 155.6Q246.2 155.6 245.7 155.4Q245.2 155.2 244.8 154.9Q244.5 154.6 244.3 154.3L244.3 154.3L245.1 153.7Q245.3 153.9 245.5 154.1Q245.7 154.3 246.0 154.5Q246.4 154.7 247.0 154.7L247.0 154.7Q247.8 154.7 248.3 154.3Q248.8 153.9 248.8 153.1L248.8 153.1L248.8 151.8L248.7 151.8Q248.6 152.0 248.4 152.2Q248.1 152.5 247.8 152.7Q247.4 152.9 246.8 152.9L246.8 152.9Q246.0 152.9 245.3 152.5Q244.7 152.2 244.4 151.4Q244.0 150.7 244.0 149.7L244.0 149.7Q244.0 148.7 244.4 147.9Q244.7 147.2 245.3 146.8Q246.0 146.4 246.8 146.4L246.8 146.4Q247.4 146.4 247.8 146.6Q248.2 146.8 248.4 147.1Q248.6 147.3 248.7 147.5L248.7 147.5L248.8 147.5L248.8 146.4L249.8 146.4L249.8 153.2Q249.8 154.0 249.4 154.5Q249.1 155.1 248.4 155.3Q247.8 155.6 247.0 155.6ZM246.9 152.0L246.9 152.0Q247.5 152.0 247.9 151.7Q248.4 151.4 248.6 150.9Q248.8 150.4 248.8 149.7L248.8 149.7Q248.8 149.0 248.6 148.4Q248.4 147.9 247.9 147.6Q247.5 147.3 246.9 147.3L246.9 147.3Q246.3 147.3 245.9 147.6Q245.5 147.9 245.3 148.5Q245.1 149.0 245.1 149.7L245.1 149.7Q245.1 150.3 245.3 150.9Q245.5 151.4 245.9 151.7Q246.3 152.0 246.9 152.0Z M259.7 153.1L259.7 153.1Q258.8 153.1 258.1 152.7Q257.5 152.3 257.1 151.5Q256.7 150.8 256.7 149.8L256.7 149.8Q256.7 148.7 257.1 148.0Q257.5 147.2 258.1 146.8Q258.8 146.4 259.7 146.4L259.7 146.4Q260.2 146.4 260.6 146.5Q261.0 146.6 261.4 146.8Q261.7 147.1 262.0 147.4Q262.2 147.8 262.4 148.2L262.4 148.2L261.4 148.5Q261.3 148.2 261.1 148.0Q261.0 147.8 260.8 147.6Q260.6 147.5 260.3 147.4Q260.0 147.3 259.7 147.3L259.7 147.3Q259.1 147.3 258.6 147.7Q258.2 148.0 258.0 148.6Q257.8 149.1 257.8 149.8L257.8 149.8Q257.8 150.4 258.0 151.0Q258.2 151.5 258.6 151.9Q259.1 152.2 259.7 152.2L259.7 152.2Q260.0 152.2 260.3 152.1Q260.6 152.0 260.8 151.9Q261.0 151.7 261.2 151.5Q261.3 151.3 261.4 151.0L261.4 151.0L262.4 151.3Q262.3 151.7 262.0 152.1Q261.8 152.4 261.4 152.6Q261.0 152.9 260.6 153.0Q260.2 153.1 259.7 153.1ZM266.0 153L264.9 153L264.9 146.4L265.9 146.4L265.9 147.5L266.0 147.5Q266.2 147.0 266.6 146.7Q267.1 146.4 267.7 146.4L267.7 146.4Q267.8 146.4 268.0 146.4Q268.1 146.4 268.2 146.4L268.2 146.4L268.2 147.4Q268.2 147.4 268.0 147.4Q267.8 147.4 267.6 147.4L267.6 147.4Q267.1 147.4 266.7 147.6Q266.4 147.8 266.2 148.1Q266.0 148.5 266.0 148.9L266.0 148.9L266.0 153ZM273.1 153.1L273.1 153.1Q272.2 153.1 271.5 152.7Q270.9 152.3 270.5 151.5Q270.1 150.8 270.1 149.8L270.1 149.8Q270.1 148.7 270.5 148.0Q270.9 147.2 271.5 146.8Q272.2 146.4 273.1 146.4L273.1 146.4Q274.0 146.4 274.7 146.8Q275.3 147.2 275.7 148.0Q276.1 148.7 276.1 149.8L276.1 149.8Q276.1 150.8 275.7 151.5Q275.3 152.3 274.7 152.7Q274.0 153.1 273.1 153.1ZM273.1 152.2L273.1 152.2Q273.7 152.2 274.2 151.9Q274.6 151.5 274.8 151.0Q275.0 150.4 275.0 149.8L275.0 149.8Q275.0 149.1 274.8 148.6Q274.6 148.0 274.2 147.7Q273.7 147.3 273.1 147.3L273.1 147.3Q272.4 147.3 272.0 147.7Q271.6 148.0 271.4 148.6Q271.2 149.1 271.2 149.8L271.2 149.8Q271.2 150.4 271.4 151.0Q271.6 151.5 272.0 151.9Q272.4 152.2 273.1 152.2ZM280.8 153.1L280.8 153.1Q280.2 153.1 279.6 152.9Q279.1 152.7 278.8 152.4Q278.4 152.0 278.3 151.4L278.3 151.4L279.3 151.2Q279.5 151.7 279.9 152.0Q280.2 152.2 280.8 152.2L280.8 152.2Q281.5 152.2 281.9 151.9Q282.3 151.6 282.3 151.2L282.3 151.2Q282.3 150.9 282.1 150.7Q281.9 150.4 281.4 150.3L281.4 150.3L280.3 150.1Q279.4 149.9 279.0 149.4Q278.5 149.0 278.5 148.3L278.5 148.3Q278.5 147.7 278.8 147.3Q279.2 146.9 279.7 146.6Q280.2 146.4 280.9 146.4L280.9 146.4Q281.6 146.4 282.1 146.6Q282.6 146.8 282.9 147.1Q283.2 147.5 283.3 147.9L283.3 147.9L282.3 148.2Q282.2 147.8 281.9 147.6Q281.6 147.3 281.0 147.3L281.0 147.3Q280.4 147.3 280.0 147.5Q279.6 147.8 279.6 148.2L279.6 148.2Q279.6 148.6 279.8 148.8Q280.1 149.0 280.7 149.2L280.7 149.2L281.7 149.4Q282.6 149.6 283.0 150.0Q283.4 150.5 283.4 151.2L283.4 151.2Q283.4 151.7 283.1 152.2Q282.8 152.6 282.2 152.9Q281.6 153.1 280.8 153.1ZM288.2 153.1L288.2 153.1Q287.5 153.1 287.0 152.9Q286.5 152.7 286.1 152.4Q285.8 152.0 285.7 151.4L285.7 151.4L286.7 151.2Q286.8 151.7 287.2 152.0Q287.6 152.2 288.2 152.2L288.2 152.2Q288.8 152.2 289.3 151.9Q289.7 151.6 289.7 151.2L289.7 151.2Q289.7 150.9 289.4 150.7Q289.2 150.4 288.7 150.3L288.7 150.3L287.6 150.1Q286.7 149.9 286.3 149.4Q285.9 149.0 285.9 148.3L285.9 148.3Q285.9 147.7 286.2 147.3Q286.5 146.9 287.0 146.6Q287.6 146.4 288.3 146.4L288.3 146.4Q289.0 146.4 289.4 146.6Q289.9 146.8 290.2 147.1Q290.5 147.5 290.6 147.9L290.6 147.9L289.7 148.2Q289.5 147.8 289.2 147.6Q288.9 147.3 288.3 147.3L288.3 147.3Q287.7 147.3 287.3 147.5Q286.9 147.8 286.9 148.2L286.9 148.2Q286.9 148.6 287.2 148.8Q287.4 149.0 288.0 149.2L288.0 149.2L289.0 149.4Q289.9 149.6 290.3 150.0Q290.8 150.5 290.8 151.2L290.8 151.2Q290.8 151.7 290.4 152.2Q290.1 152.6 289.5 152.9Q288.9 153.1 288.2 153.1ZM293.2 148.8L297.0 148.8L297.0 149.8L293.2 149.8L293.2 148.8ZM300.9 155.4L299.8 155.4L299.8 146.4L300.8 146.4L300.8 147.5L300.9 147.5Q301.0 147.3 301.2 147.1Q301.4 146.8 301.8 146.6Q302.2 146.4 302.8 146.4L302.8 146.4Q303.7 146.4 304.3 146.8Q304.9 147.2 305.3 147.9Q305.6 148.7 305.6 149.7L305.6 149.7Q305.6 150.8 305.3 151.5Q304.9 152.3 304.3 152.7Q303.7 153.1 302.8 153.1L302.8 153.1Q302.2 153.1 301.8 152.9Q301.5 152.7 301.3 152.4Q301.0 152.2 300.9 152.0L300.9 152.0L300.9 152.0L300.9 155.4ZM302.7 152.2L302.7 152.2Q303.3 152.2 303.7 151.9Q304.1 151.5 304.3 151.0Q304.5 150.4 304.5 149.7L304.5 149.7Q304.5 149.1 304.3 148.5Q304.1 148.0 303.7 147.6Q303.3 147.3 302.7 147.3L302.7 147.3Q302.1 147.3 301.7 147.6Q301.3 147.9 301.1 148.5Q300.8 149.0 300.8 149.7L300.8 149.7Q300.8 150.5 301.1 151.0Q301.3 151.6 301.7 151.9Q302.1 152.2 302.7 152.2ZM308.1 144.3L309.2 144.3L309.2 153L308.1 153L308.1 144.3ZM313.9 153.2L313.9 153.2Q313.3 153.2 312.8 152.9Q312.3 152.7 312.0 152.2Q311.7 151.8 311.7 151.1L311.7 151.1Q311.7 150.6 311.9 150.2Q312.1 149.9 312.5 149.7Q312.8 149.5 313.3 149.4Q313.7 149.3 314.2 149.2L314.2 149.2Q314.8 149.1 315.2 149.1Q315.5 149.1 315.7 149.0Q315.9 148.9 315.9 148.6L315.9 148.6L315.9 148.6Q315.9 148.2 315.7 147.9Q315.6 147.6 315.3 147.4Q315.0 147.3 314.5 147.3L314.5 147.3Q314.0 147.3 313.7 147.4Q313.4 147.6 313.2 147.8Q313.0 148.0 312.9 148.3L312.9 148.3L311.8 147.9Q312.1 147.3 312.5 147.0Q313.0 146.6 313.5 146.5Q314.0 146.4 314.5 146.4L314.5 146.4Q314.8 146.4 315.2 146.4Q315.7 146.5 316.0 146.8Q316.4 147.0 316.7 147.5Q316.9 147.9 316.9 148.7L316.9 148.7L316.9 153L315.9 153L315.9 152.1L315.8 152.1Q315.7 152.3 315.5 152.6Q315.2 152.8 314.8 153.0Q314.4 153.2 313.9 153.2ZM314.1 152.2L314.1 152.2Q314.7 152.2 315.1 152.0Q315.5 151.8 315.7 151.4Q315.9 151.0 315.9 150.6L315.9 150.6L315.9 149.7Q315.8 149.8 315.6 149.9Q315.4 149.9 315.1 150.0Q314.8 150.0 314.6 150.0Q314.3 150.1 314.2 150.1L314.2 150.1Q313.8 150.1 313.4 150.3Q313.1 150.4 312.9 150.6Q312.7 150.8 312.7 151.2L312.7 151.2Q312.7 151.5 312.9 151.8Q313.1 152.0 313.4 152.1Q313.7 152.2 314.1 152.2ZM321.0 146.4L322.4 146.4L322.4 147.4L321.0 147.4L321.0 151.3Q321.0 151.7 321.2 151.9Q321.4 152.1 321.8 152.1L321.8 152.1Q321.9 152.1 322.1 152.1Q322.2 152.1 322.3 152.1L322.3 152.1L322.6 153.0Q322.4 153.0 322.2 153.1Q322.0 153.1 321.8 153.1L321.8 153.1Q320.9 153.1 320.4 152.6Q320.0 152.2 320.0 151.4L320.0 151.4L320.0 147.4L319.0 147.4L319.0 146.4L320.0 146.4L320.0 144.9L321.0 144.9L321.0 146.4ZM326.3 146.4L327.8 146.4L327.8 147.4L326.3 147.4L326.3 153L325.2 153L325.2 147.4L323.9 147.4L323.9 146.4L325.2 146.4L325.2 145.6Q325.2 145.0 325.5 144.6Q325.7 144.2 326.2 144.1Q326.6 143.9 327.1 143.9L327.1 143.9Q327.4 143.9 327.7 143.9Q327.9 144.0 328.0 144.0L328.0 144.0L327.8 144.9Q327.7 144.9 327.5 144.9Q327.4 144.8 327.2 144.8L327.2 144.8Q326.7 144.8 326.5 145.1Q326.3 145.3 326.3 145.8L326.3 145.8L326.3 146.4ZM332.8 153.1L332.8 153.1Q331.9 153.1 331.3 152.7Q330.6 152.3 330.2 151.5Q329.8 150.8 329.8 149.8L329.8 149.8Q329.8 148.7 330.2 148.0Q330.6 147.2 331.3 146.8Q331.9 146.4 332.8 146.4L332.8 146.4Q333.7 146.4 334.4 146.8Q335.1 147.2 335.4 148.0Q335.8 148.7 335.8 149.8L335.8 149.8Q335.8 150.8 335.4 151.5Q335.1 152.3 334.4 152.7Q333.7 153.1 332.8 153.1ZM332.8 152.2L332.8 152.2Q333.5 152.2 333.9 151.9Q334.3 151.5 334.5 151.0Q334.8 150.4 334.8 149.8L334.8 149.8Q334.8 149.1 334.5 148.6Q334.3 148.0 333.9 147.7Q333.5 147.3 332.8 147.3L332.8 147.3Q332.2 147.3 331.7 147.7Q331.3 148.0 331.1 148.6Q330.9 149.1 330.9 149.8L330.9 149.8Q330.9 150.4 331.1 151.0Q331.3 151.5 331.7 151.9Q332.2 152.2 332.8 152.2ZM339.4 153L338.4 153L338.4 146.4L339.4 146.4L339.4 147.5L339.4 147.5Q339.6 147.0 340.1 146.7Q340.6 146.4 341.1 146.4L341.1 146.4Q341.3 146.4 341.4 146.4Q341.6 146.4 341.7 146.4L341.7 146.4L341.7 147.4Q341.6 147.4 341.4 147.4Q341.3 147.4 341.0 147.4L341.0 147.4Q340.6 147.4 340.2 147.6Q339.8 147.8 339.6 148.1Q339.4 148.5 339.4 148.9L339.4 148.9L339.4 153ZM344.9 153L343.9 153L343.9 146.4L344.9 146.4L344.9 147.7Q345.0 147.3 345.3 147.0L345.3 147.0Q345.5 146.7 345.9 146.5Q346.3 146.3 346.7 146.3L346.7 146.3Q347.5 146.3 347.9 146.8L347.9 146.8Q348.3 147.1 348.4 147.7L348.4 147.7Q348.5 147.3 348.8 147.1L348.8 147.1Q349.1 146.7 349.5 146.5Q349.9 146.3 350.5 146.3L350.5 146.3Q351.0 146.3 351.5 146.6Q352.0 146.8 352.3 147.3Q352.5 147.8 352.5 148.6L352.5 148.6L352.5 153L351.5 153L351.5 148.6Q351.5 147.9 351.1 147.6Q350.7 147.3 350.2 147.3L350.2 147.3Q349.7 147.3 349.4 147.5Q349.1 147.7 348.9 148.0Q348.7 148.3 348.7 148.7L348.7 148.7L348.7 153L347.7 153L347.7 148.5Q347.7 148.0 347.3 147.6Q346.9 147.3 346.4 147.3L346.4 147.3Q346.0 147.3 345.7 147.5Q345.3 147.7 345.1 148.0Q344.9 148.4 344.9 148.9L344.9 148.9L344.9 153Z M360.8 153L359.8 153L359.8 146.4L360.8 146.4L360.8 147.7Q360.9 147.3 361.1 147.0L361.1 147.0Q361.4 146.7 361.8 146.5Q362.2 146.3 362.6 146.3L362.6 146.3Q363.3 146.3 363.8 146.8L363.8 146.8Q364.1 147.1 364.3 147.7L364.3 147.7Q364.4 147.3 364.6 147.1L364.6 147.1Q365.0 146.7 365.4 146.5Q365.8 146.3 366.4 146.3L366.4 146.3Q366.9 146.3 367.4 146.6Q367.9 146.8 368.1 147.3Q368.4 147.8 368.4 148.6L368.4 148.6L368.4 153L367.4 153L367.4 148.6Q367.4 147.9 367.0 147.6Q366.6 147.3 366.0 147.3L366.0 147.3Q365.6 147.3 365.3 147.5Q365.0 147.7 364.8 148.0Q364.6 148.3 364.6 148.7L364.6 148.7L364.6 153L363.6 153L363.6 148.5Q363.6 148.0 363.2 147.6Q362.8 147.3 362.3 147.3L362.3 147.3Q361.9 147.3 361.6 147.5Q361.2 147.7 361.0 148.0Q360.8 148.4 360.8 148.9L360.8 148.9L360.8 153ZM373.9 153.1L373.9 153.1Q373.0 153.1 372.4 152.7Q371.7 152.3 371.3 151.5Q371.0 150.8 371.0 149.8L371.0 149.8Q371.0 148.7 371.3 148.0Q371.7 147.2 372.4 146.8Q373.0 146.4 373.9 146.4L373.9 146.4Q374.8 146.4 375.5 146.8Q376.2 147.2 376.6 148.0Q376.9 148.7 376.9 149.8L376.9 149.8Q376.9 150.8 376.6 151.5Q376.2 152.3 375.5 152.7Q374.8 153.1 373.9 153.1ZM373.9 152.2L373.9 152.2Q374.6 152.2 375.0 151.9Q375.5 151.5 375.7 151.0Q375.9 150.4 375.9 149.8L375.9 149.8Q375.9 149.1 375.7 148.6Q375.5 148.0 375.0 147.7Q374.6 147.3 373.9 147.3L373.9 147.3Q373.3 147.3 372.9 147.7Q372.4 148.0 372.2 148.6Q372.0 149.1 372.0 149.8L372.0 149.8Q372.0 150.4 372.2 151.0Q372.4 151.5 372.9 151.9Q373.3 152.2 373.9 152.2ZM382.5 153.1L382.5 153.1Q381.9 153.1 381.5 152.9Q381.1 152.7 380.9 152.4Q380.7 152.2 380.6 152.0L380.6 152.0L380.5 152.0L380.5 153L379.5 153L379.5 144.3L380.5 144.3L380.5 147.5L380.6 147.5Q380.7 147.3 380.9 147.1Q381.1 146.8 381.5 146.6Q381.9 146.4 382.5 146.4L382.5 146.4Q383.3 146.4 383.9 146.8Q384.6 147.2 384.9 147.9Q385.3 148.7 385.3 149.7L385.3 149.7Q385.3 150.8 384.9 151.5Q384.6 152.3 384.0 152.7Q383.3 153.1 382.5 153.1ZM382.3 152.2L382.3 152.2Q383.0 152.2 383.4 151.9Q383.8 151.5 384.0 151.0Q384.2 150.4 384.2 149.7L384.2 149.7Q384.2 149.1 384.0 148.5Q383.8 148.0 383.4 147.6Q383.0 147.3 382.3 147.3L382.3 147.3Q381.7 147.3 381.3 147.6Q380.9 147.9 380.7 148.5Q380.5 149.0 380.5 149.7L380.5 149.7Q380.5 150.5 380.7 151.0Q380.9 151.6 381.3 151.9Q381.8 152.2 382.3 152.2ZM388.9 153L387.8 153L387.8 146.4L388.9 146.4L388.9 153ZM388.3 145.4L388.3 145.4Q388.0 145.4 387.8 145.2Q387.6 145.0 387.6 144.7L387.6 144.7Q387.6 144.4 387.8 144.2Q388.0 144.0 388.3 144.0L388.3 144.0Q388.7 144.0 388.9 144.2Q389.1 144.4 389.1 144.7L389.1 144.7Q389.1 145.0 388.9 145.2Q388.7 145.4 388.3 145.4ZM391.7 144.3L392.8 144.3L392.8 153L391.7 153L391.7 144.3ZM398.4 153.1L398.4 153.1Q397.4 153.1 396.7 152.7Q396.1 152.3 395.7 151.5Q395.3 150.8 395.3 149.8Q395.3 148.8 395.7 148.0Q396.0 147.2 396.7 146.8Q397.4 146.4 398.3 146.4L398.3 146.4Q398.8 146.4 399.3 146.5Q399.8 146.7 400.2 147.1Q400.6 147.5 400.9 148.1Q401.1 148.7 401.1 149.6L401.1 149.6L401.1 150.1L396.4 150.1Q396.4 150.7 396.6 151.2L396.6 151.2Q396.9 151.7 397.3 151.9Q397.8 152.2 398.4 152.2L398.4 152.2Q398.8 152.2 399.1 152.1Q399.4 152.0 399.6 151.8Q399.9 151.5 400.0 151.2L400.0 151.2L401.0 151.5Q400.9 152.0 400.5 152.3Q400.1 152.7 399.6 152.9Q399.1 153.1 398.4 153.1ZM396.4 149.2L396.4 149.2L400.0 149.2Q400.0 148.7 399.9 148.4L399.9 148.4Q399.6 147.9 399.2 147.6Q398.8 147.3 398.3 147.3Q397.7 147.3 397.2 147.6Q396.8 147.9 396.6 148.3L396.6 148.3Q396.4 148.7 396.4 149.2Z M409.8 153.2L409.8 153.2Q409.2 153.2 408.7 152.9Q408.2 152.7 407.9 152.2Q407.6 151.8 407.6 151.1L407.6 151.1Q407.6 150.6 407.8 150.2Q408.0 149.9 408.4 149.7Q408.8 149.5 409.2 149.4Q409.7 149.3 410.1 149.2L410.1 149.2Q410.7 149.1 411.1 149.1Q411.5 149.1 411.7 149.0Q411.8 148.9 411.8 148.6L411.8 148.6L411.8 148.6Q411.8 148.2 411.7 147.9Q411.5 147.6 411.2 147.4Q410.9 147.3 410.5 147.3L410.5 147.3Q410.0 147.3 409.7 147.4Q409.3 147.6 409.1 147.8Q408.9 148.0 408.8 148.3L408.8 148.3L407.8 147.9Q408.0 147.3 408.5 147.0Q408.9 146.6 409.4 146.5Q409.9 146.4 410.4 146.4L410.4 146.4Q410.8 146.4 411.2 146.4Q411.6 146.5 412.0 146.8Q412.4 147.0 412.6 147.5Q412.9 147.9 412.9 148.7L412.9 148.7L412.9 153L411.8 153L411.8 152.1L411.8 152.1Q411.7 152.3 411.4 152.6Q411.2 152.8 410.8 153.0Q410.4 153.2 409.8 153.2ZM410.0 152.2L410.0 152.2Q410.6 152.2 411.0 152.0Q411.4 151.8 411.6 151.4Q411.8 151.0 411.8 150.6L411.8 150.6L411.8 149.7Q411.8 149.8 411.5 149.9Q411.3 149.9 411.1 150.0Q410.8 150.0 410.5 150.0Q410.3 150.1 410.1 150.1L410.1 150.1Q409.7 150.1 409.4 150.3Q409.1 150.4 408.9 150.6Q408.7 150.8 408.7 151.2L408.7 151.2Q408.7 151.5 408.8 151.8Q409.0 152.0 409.3 152.1Q409.6 152.2 410.0 152.2ZM416.8 155.4L415.7 155.4L415.7 146.4L416.8 146.4L416.8 147.5L416.9 147.5Q417.0 147.3 417.2 147.1Q417.4 146.8 417.8 146.6Q418.1 146.4 418.8 146.4L418.8 146.4Q419.6 146.4 420.2 146.8Q420.8 147.2 421.2 147.9Q421.5 148.7 421.5 149.7L421.5 149.7Q421.5 150.8 421.2 151.5Q420.8 152.3 420.2 152.7Q419.6 153.1 418.8 153.1L418.8 153.1Q418.2 153.1 417.8 152.9Q417.4 152.7 417.2 152.4Q417.0 152.2 416.9 152.0L416.9 152.0L416.8 152.0L416.8 155.4ZM418.6 152.2L418.6 152.2Q419.2 152.2 419.6 151.9Q420.1 151.5 420.3 151.0Q420.5 150.4 420.5 149.7L420.5 149.7Q420.5 149.1 420.3 148.5Q420.1 148.0 419.7 147.6Q419.2 147.3 418.6 147.3L418.6 147.3Q418.0 147.3 417.6 147.6Q417.2 147.9 417.0 148.5Q416.8 149.0 416.8 149.7L416.8 149.7Q416.8 150.5 417.0 151.0Q417.2 151.6 417.6 151.9Q418.0 152.2 418.6 152.2ZM425.1 155.4L424.1 155.4L424.1 146.4L425.1 146.4L425.1 147.5L425.2 147.5Q425.3 147.3 425.5 147.1Q425.7 146.8 426.1 146.6Q426.5 146.4 427.1 146.4L427.1 146.4Q427.9 146.4 428.6 146.8Q429.2 147.2 429.5 147.9Q429.9 148.7 429.9 149.7L429.9 149.7Q429.9 150.8 429.5 151.5Q429.2 152.3 428.6 152.7Q427.9 153.1 427.1 153.1L427.1 153.1Q426.5 153.1 426.1 152.9Q425.7 152.7 425.5 152.4Q425.3 152.2 425.2 152.0L425.2 152.0L425.1 152.0L425.1 155.4ZM427.0 152.2L427.0 152.2Q427.6 152.2 428.0 151.9Q428.4 151.5 428.6 151.0Q428.8 150.4 428.8 149.7L428.8 149.7Q428.8 149.1 428.6 148.5Q428.4 148.0 428.0 147.6Q427.6 147.3 427.0 147.3L427.0 147.3Q426.4 147.3 426.0 147.6Q425.5 147.9 425.3 148.5Q425.1 149.0 425.1 149.7L425.1 149.7Q425.1 150.5 425.3 151.0Q425.5 151.6 426.0 151.9Q426.4 152.2 427.0 152.2ZM434.7 153.1L434.7 153.1Q434.0 153.1 433.5 152.9Q432.9 152.7 432.6 152.4Q432.3 152.0 432.1 151.4L432.1 151.4L433.1 151.2Q433.3 151.7 433.7 152.0Q434.1 152.2 434.6 152.2L434.6 152.2Q435.3 152.2 435.7 151.9Q436.1 151.6 436.1 151.2L436.1 151.2Q436.1 150.9 435.9 150.7Q435.7 150.4 435.2 150.3L435.2 150.3L434.1 150.1Q433.2 149.9 432.8 149.4Q432.3 149.0 432.3 148.3L432.3 148.3Q432.3 147.7 432.7 147.3Q433.0 146.9 433.5 146.6Q434.1 146.4 434.8 146.4L434.8 146.4Q435.4 146.4 435.9 146.6Q436.4 146.8 436.7 147.1Q437.0 147.5 437.1 147.9L437.1 147.9L436.2 148.2Q436.0 147.8 435.7 147.6Q435.4 147.3 434.8 147.3L434.8 147.3Q434.2 147.3 433.8 147.5Q433.4 147.8 433.4 148.2L433.4 148.2Q433.4 148.6 433.7 148.8Q433.9 149.0 434.5 149.2L434.5 149.2L435.5 149.4Q436.4 149.6 436.8 150.0Q437.2 150.5 437.2 151.2L437.2 151.2Q437.2 151.7 436.9 152.2Q436.6 152.6 436.0 152.9Q435.4 153.1 434.7 153.1Z M444.9 149.6L444.9 149.6Q444.6 149.6 444.4 149.4Q444.2 149.2 444.2 148.9L444.2 148.9Q444.2 148.5 444.4 148.3Q444.6 148.1 444.9 148.1L444.9 148.1Q445.3 148.1 445.5 148.3Q445.7 148.5 445.7 148.9L445.7 148.9Q445.7 149.2 445.5 149.4Q445.3 149.6 444.9 149.6Z M456.6 153.1L456.6 153.1Q455.5 153.1 454.6 152.6Q453.8 152.0 453.3 151.0Q452.8 150.0 452.8 148.6L452.8 148.6Q452.8 147.3 453.3 146.2Q453.8 145.2 454.6 144.7Q455.5 144.2 456.6 144.2L456.6 144.2Q457.8 144.2 458.6 144.7Q459.5 145.2 460.0 146.2Q460.5 147.3 460.5 148.6L460.5 148.6Q460.5 150.0 460.0 151.0Q459.5 152.0 458.6 152.6Q457.8 153.1 456.6 153.1ZM456.6 152.1L456.6 152.1Q457.4 152.1 458.0 151.7Q458.7 151.3 459.1 150.5Q459.4 149.8 459.4 148.6L459.4 148.6Q459.4 147.5 459.1 146.7Q458.7 146.0 458.0 145.6Q457.4 145.2 456.6 145.2L456.6 145.2Q455.9 145.2 455.2 145.6Q454.6 146.0 454.2 146.8Q453.8 147.5 453.8 148.6L453.8 148.6Q453.8 149.8 454.2 150.5Q454.6 151.3 455.2 151.7Q455.9 152.1 456.6 152.1ZM464.2 155.4L463.1 155.4L463.1 146.4L464.2 146.4L464.2 147.5L464.3 147.5Q464.4 147.3 464.6 147.1Q464.8 146.8 465.2 146.6Q465.5 146.4 466.2 146.4L466.2 146.4Q467.0 146.4 467.6 146.8Q468.3 147.2 468.6 147.9Q469.0 148.7 469.0 149.7L469.0 149.7Q469.0 150.8 468.6 151.5Q468.3 152.3 467.6 152.7Q467.0 153.1 466.2 153.1L466.2 153.1Q465.6 153.1 465.2 152.9Q464.8 152.7 464.6 152.4Q464.4 152.2 464.3 152.0L464.3 152.0L464.2 152.0L464.2 155.4ZM466.0 152.2L466.0 152.2Q466.6 152.2 467.1 151.9Q467.5 151.5 467.7 151.0Q467.9 150.4 467.9 149.7L467.9 149.7Q467.9 149.1 467.7 148.5Q467.5 148.0 467.1 147.6Q466.7 147.3 466.0 147.3L466.0 147.3Q465.4 147.3 465.0 147.6Q464.6 147.9 464.4 148.5Q464.2 149.0 464.2 149.7L464.2 149.7Q464.2 150.5 464.4 151.0Q464.6 151.6 465.0 151.9Q465.4 152.2 466.0 152.2ZM474.3 153.1L474.3 153.1Q473.3 153.1 472.6 152.7Q471.9 152.3 471.6 151.5Q471.2 150.8 471.2 149.8Q471.2 148.8 471.5 148.0Q471.9 147.2 472.6 146.8Q473.2 146.4 474.1 146.4L474.1 146.4Q474.6 146.4 475.2 146.5Q475.7 146.7 476.1 147.1Q476.5 147.5 476.7 148.1Q477.0 148.7 477.0 149.6L477.0 149.6L477.0 150.1L472.2 150.1Q472.3 150.7 472.5 151.2L472.5 151.2Q472.8 151.7 473.2 151.9Q473.7 152.2 474.3 152.2L474.3 152.2Q474.6 152.2 475.0 152.1Q475.3 152.0 475.5 151.8Q475.7 151.5 475.9 151.2L475.9 151.2L476.9 151.5Q476.7 152.0 476.4 152.3Q476.0 152.7 475.5 152.9Q474.9 153.1 474.3 153.1ZM472.3 149.2L472.3 149.2L475.9 149.2Q475.9 148.7 475.7 148.4L475.7 148.4Q475.5 147.9 475.1 147.6Q474.7 147.3 474.1 147.3Q473.5 147.3 473.1 147.6Q472.7 147.9 472.5 148.3L472.5 148.3Q472.3 148.7 472.3 149.2ZM480.5 149.1L480.5 149.1L480.5 153L479.5 153L479.5 146.4L480.5 146.4L480.5 147.7Q480.8 147.0 481.2 146.7L481.2 146.7Q481.8 146.4 482.5 146.4L482.5 146.4Q483.2 146.4 483.7 146.6Q484.2 146.9 484.5 147.5Q484.7 148.0 484.7 148.8L484.7 148.8L484.7 153L483.7 153L483.7 148.9Q483.7 148.2 483.3 147.7Q482.9 147.3 482.2 147.3L482.2 147.3Q481.7 147.3 481.4 147.5Q481.0 147.7 480.8 148.1Q480.5 148.5 480.5 149.1Z M493.2 146.4L494.5 146.4L494.5 147.4L493.2 147.4L493.2 151.3Q493.2 151.7 493.4 151.9Q493.5 152.1 494.0 152.1L494.0 152.1Q494.1 152.1 494.2 152.1Q494.4 152.1 494.5 152.1L494.5 152.1L494.7 153.0Q494.6 153.0 494.3 153.1Q494.1 153.1 493.9 153.1L493.9 153.1Q493.1 153.1 492.6 152.6Q492.1 152.2 492.1 151.4L492.1 151.4L492.1 147.4L491.1 147.4L491.1 146.4L492.1 146.4L492.1 144.9L493.2 144.9L493.2 146.4ZM499.5 153.1L499.5 153.1Q498.7 153.1 498.0 152.7Q497.3 152.3 496.9 151.5Q496.6 150.8 496.6 149.8L496.6 149.8Q496.6 148.7 496.9 148.0Q497.3 147.2 498.0 146.8Q498.7 146.4 499.5 146.4L499.5 146.4Q500.4 146.4 501.1 146.8Q501.8 147.2 502.2 148.0Q502.5 148.7 502.5 149.8L502.5 149.8Q502.5 150.8 502.2 151.5Q501.8 152.3 501.1 152.7Q500.4 153.1 499.5 153.1ZM499.5 152.2L499.5 152.2Q500.2 152.2 500.6 151.9Q501.1 151.5 501.3 151.0Q501.5 150.4 501.5 149.8L501.5 149.8Q501.5 149.1 501.3 148.6Q501.1 148.0 500.6 147.7Q500.2 147.3 499.5 147.3L499.5 147.3Q498.9 147.3 498.5 147.7Q498.0 148.0 497.8 148.6Q497.6 149.1 497.6 149.8L497.6 149.8Q497.6 150.4 497.8 151.0Q498.0 151.5 498.5 151.9Q498.9 152.2 499.5 152.2Z M511.0 146.4L512.5 146.4L512.5 147.4L511.0 147.4L511.0 153L509.9 153L509.9 147.4L508.6 147.4L508.6 146.4L509.9 146.4L509.9 145.6Q509.9 145.0 510.2 144.6Q510.5 144.2 510.9 144.1Q511.3 143.9 511.8 143.9L511.8 143.9Q512.2 143.9 512.4 143.9Q512.7 144.0 512.8 144.0L512.8 144.0L512.5 144.9Q512.4 144.9 512.3 144.9Q512.1 144.8 511.9 144.8L511.9 144.8Q511.4 144.8 511.2 145.1Q511.0 145.3 511.0 145.8L511.0 145.8L511.0 146.4ZM515.9 153L514.9 153L514.9 146.4L515.9 146.4L515.9 147.5L516.0 147.5Q516.2 147.0 516.6 146.7Q517.1 146.4 517.7 146.4L517.7 146.4Q517.8 146.4 518.0 146.4Q518.1 146.4 518.2 146.4L518.2 146.4L518.2 147.4Q518.2 147.4 518.0 147.4Q517.8 147.4 517.6 147.4L517.6 147.4Q517.1 147.4 516.7 147.6Q516.4 147.8 516.2 148.1Q515.9 148.5 515.9 148.9L515.9 148.9L515.9 153ZM523.2 153.1L523.2 153.1Q522.2 153.1 521.5 152.7Q520.8 152.3 520.5 151.5Q520.1 150.8 520.1 149.8Q520.1 148.8 520.5 148.0Q520.8 147.2 521.5 146.8Q522.2 146.4 523.0 146.4L523.0 146.4Q523.6 146.4 524.1 146.5Q524.6 146.7 525.0 147.1Q525.4 147.5 525.7 148.1Q525.9 148.7 525.9 149.6L525.9 149.6L525.9 150.1L521.2 150.1Q521.2 150.7 521.4 151.2L521.4 151.2Q521.7 151.7 522.1 151.9Q522.6 152.2 523.2 152.2L523.2 152.2Q523.6 152.2 523.9 152.1Q524.2 152.0 524.4 151.8Q524.6 151.5 524.8 151.2L524.8 151.2L525.8 151.5Q525.6 152.0 525.3 152.3Q524.9 152.7 524.4 152.9Q523.8 153.1 523.2 153.1ZM521.2 149.2L521.2 149.2L524.8 149.2Q524.8 148.7 524.6 148.4L524.6 148.4Q524.4 147.9 524.0 147.6Q523.6 147.3 523.0 147.3Q522.5 147.3 522.0 147.6Q521.6 147.9 521.4 148.3L521.4 148.3Q521.2 148.7 521.2 149.2ZM531.2 153.1L531.2 153.1Q530.2 153.1 529.5 152.7Q528.8 152.3 528.5 151.5Q528.1 150.8 528.1 149.8Q528.1 148.8 528.5 148.0Q528.8 147.2 529.5 146.8Q530.1 146.4 531.0 146.4L531.0 146.4Q531.6 146.4 532.1 146.5Q532.6 146.7 533.0 147.1Q533.4 147.5 533.6 148.1Q533.9 148.7 533.9 149.6L533.9 149.6L533.9 150.1L529.2 150.1Q529.2 150.7 529.4 151.2L529.4 151.2Q529.7 151.7 530.1 151.9Q530.6 152.2 531.2 152.2L531.2 152.2Q531.6 152.2 531.9 152.1Q532.2 152.0 532.4 151.8Q532.6 151.5 532.8 151.2L532.8 151.2L533.8 151.5Q533.6 152.0 533.3 152.3Q532.9 152.7 532.4 152.9Q531.8 153.1 531.2 153.1ZM529.2 149.2L529.2 149.2L532.8 149.2Q532.8 148.7 532.6 148.4L532.6 148.4Q532.4 147.9 532.0 147.6Q531.6 147.3 531.0 147.3Q530.4 147.3 530.0 147.6Q529.6 147.9 529.4 148.3L529.4 148.3Q529.2 148.7 529.2 149.2ZM536.4 144.3L537.5 144.3L537.5 153L536.4 153L536.4 144.3ZM542.1 153.2L542.1 153.2Q541.5 153.2 541.0 152.9Q540.5 152.7 540.2 152.2Q539.9 151.8 539.9 151.1L539.9 151.1Q539.9 150.6 540.1 150.2Q540.4 149.9 540.7 149.7Q541.1 149.5 541.6 149.4Q542.0 149.3 542.5 149.2L542.5 149.2Q543.0 149.1 543.4 149.1Q543.8 149.1 544.0 149.0Q544.1 148.9 544.1 148.6L544.1 148.6L544.1 148.6Q544.1 148.2 544.0 147.9Q543.8 147.6 543.5 147.4Q543.2 147.3 542.8 147.3L542.8 147.3Q542.3 147.3 542.0 147.4Q541.6 147.6 541.4 147.8Q541.2 148.0 541.1 148.3L541.1 148.3L540.1 147.9Q540.4 147.3 540.8 147.0Q541.2 146.6 541.7 146.5Q542.2 146.4 542.7 146.4L542.7 146.4Q543.1 146.4 543.5 146.4Q543.9 146.5 544.3 146.8Q544.7 147.0 544.9 147.5Q545.2 147.9 545.2 148.7L545.2 148.7L545.2 153L544.2 153L544.2 152.1L544.1 152.1Q544.0 152.3 543.7 152.6Q543.5 152.8 543.1 153.0Q542.7 153.2 542.1 153.2ZM542.3 152.2L542.3 152.2Q542.9 152.2 543.3 152.0Q543.7 151.8 543.9 151.4Q544.1 151.0 544.1 150.6L544.1 150.6L544.1 149.7Q544.1 149.8 543.9 149.9Q543.6 149.9 543.4 150.0Q543.1 150.0 542.8 150.0Q542.6 150.1 542.4 150.1L542.4 150.1Q542.0 150.1 541.7 150.3Q541.4 150.4 541.2 150.6Q541.0 150.8 541.0 151.2L541.0 151.2Q541.0 151.5 541.1 151.8Q541.3 152.0 541.6 152.1Q541.9 152.2 542.3 152.2ZM549.1 149.1L549.1 149.1L549.1 153L548.0 153L548.0 146.4L549.1 146.4L549.1 147.7Q549.3 147.0 549.8 146.7L549.8 146.7Q550.3 146.4 551.1 146.4L551.1 146.4Q551.7 146.4 552.2 146.6Q552.7 146.9 553.0 147.5Q553.3 148.0 553.3 148.8L553.3 148.8L553.3 153L552.2 153L552.2 148.9Q552.2 148.2 551.8 147.7Q551.4 147.3 550.8 147.3L550.8 147.3Q550.3 147.3 549.9 147.5Q549.5 147.7 549.3 148.1Q549.1 148.5 549.1 149.1ZM558.8 153.1L558.8 153.1Q557.9 153.1 557.2 152.7Q556.6 152.3 556.2 151.5Q555.8 150.8 555.8 149.8L555.8 149.8Q555.8 148.7 556.2 148.0Q556.6 147.2 557.2 146.8Q557.9 146.4 558.8 146.4L558.8 146.4Q559.3 146.4 559.7 146.5Q560.1 146.6 560.5 146.8Q560.8 147.1 561.1 147.4Q561.3 147.8 561.5 148.2L561.5 148.2L560.4 148.5Q560.4 148.2 560.2 148.0Q560.1 147.8 559.9 147.6Q559.7 147.5 559.4 147.4Q559.1 147.3 558.8 147.3L558.8 147.3Q558.1 147.3 557.7 147.7Q557.3 148.0 557.1 148.6Q556.9 149.1 556.9 149.8L556.9 149.8Q556.9 150.4 557.1 151.0Q557.3 151.5 557.7 151.9Q558.1 152.2 558.8 152.2L558.8 152.2Q559.1 152.2 559.4 152.1Q559.7 152.0 559.9 151.9Q560.1 151.7 560.3 151.5Q560.4 151.3 560.5 151.0L560.5 151.0L561.5 151.3Q561.4 151.7 561.1 152.1Q560.8 152.4 560.5 152.6Q560.1 152.9 559.7 153.0Q559.3 153.1 558.8 153.1ZM566.7 153.1L566.7 153.1Q565.8 153.1 565.1 152.7Q564.4 152.3 564.0 151.5Q563.7 150.8 563.7 149.8Q563.7 148.8 564.0 148.0Q564.4 147.2 565.1 146.8Q565.7 146.4 566.6 146.4L566.6 146.4Q567.1 146.4 567.7 146.5Q568.2 146.7 568.6 147.1Q569.0 147.5 569.2 148.1Q569.5 148.7 569.5 149.6L569.5 149.6L569.5 150.1L564.7 150.1Q564.8 150.7 565.0 151.2L565.0 151.2Q565.2 151.7 565.7 151.9Q566.2 152.2 566.8 152.2L566.8 152.2Q567.1 152.2 567.5 152.1Q567.8 152.0 568.0 151.8Q568.2 151.5 568.4 151.2L568.4 151.2L569.4 151.5Q569.2 152.0 568.9 152.3Q568.5 152.7 568.0 152.9Q567.4 153.1 566.7 153.1ZM564.8 149.2L564.8 149.2L568.4 149.2Q568.4 148.7 568.2 148.4L568.2 148.4Q568.0 147.9 567.6 147.6Q567.2 147.3 566.6 147.3Q566.0 147.3 565.6 147.6Q565.2 147.9 565.0 148.3L565.0 148.3Q564.8 148.7 564.8 149.2Z M578.8 153.1L578.8 153.1Q578.0 153.1 577.3 152.8Q576.7 152.5 576.4 151.9Q576.0 151.4 576.0 150.7L576.0 150.7Q576.0 150.1 576.3 149.7Q576.5 149.3 576.9 149.0L576.9 149.0Q577.3 148.6 577.8 148.3L577.8 148.3Q577.7 148.1 577.6 148.0L577.6 148.0Q577.2 147.6 577.0 147.1Q576.8 146.7 576.8 146.2L576.8 146.2Q576.8 145.6 577.0 145.1Q577.3 144.7 577.8 144.4Q578.3 144.2 578.9 144.2L578.9 144.2Q579.6 144.2 580.0 144.4Q580.5 144.7 580.8 145.1Q581.0 145.5 581.0 146.1L581.0 146.1Q581.0 146.5 580.9 146.8Q580.7 147.1 580.5 147.4Q580.2 147.7 579.9 148.0L579.9 148.0L579.2 148.4L581.1 150.7Q581.2 150.6 581.2 150.4L581.2 150.4Q581.5 149.8 581.5 149.1L581.5 149.1L582.5 149.1Q582.5 150.0 582.3 150.6Q582.1 151.1 581.8 151.4L581.8 151.4Q581.8 151.5 581.8 151.5L581.8 151.5L583.0 153L581.7 153L581.1 152.3Q580.7 152.7 580.1 152.9L580.1 152.9Q579.5 153.1 578.8 153.1ZM580.5 151.5L578.4 149.0L578.1 149.3Q577.6 149.7 577.4 150.0Q577.1 150.4 577.1 150.8L577.1 150.8Q577.1 151.2 577.3 151.5Q577.5 151.8 577.9 152.0Q578.3 152.2 578.8 152.2L578.8 152.2Q579.3 152.2 579.8 152.0L579.8 152.0Q580.2 151.8 580.5 151.5L580.5 151.5ZM578.6 147.7L578.6 147.7L579.2 147.3Q579.3 147.1 579.5 147.0Q579.7 146.8 579.8 146.6Q580.0 146.4 580.0 146.1L580.0 146.1Q580.0 145.6 579.7 145.4Q579.4 145.1 578.9 145.1L578.9 145.1Q578.6 145.1 578.3 145.2Q578.1 145.4 578.0 145.6Q577.8 145.8 577.8 146.2L577.8 146.2Q577.8 146.5 578.0 146.8Q578.1 147.1 578.4 147.4L578.4 147.4Q578.5 147.5 578.6 147.7Z M590.5 153L589.5 153L589.5 146.4L590.5 146.4L590.5 153ZM590.0 145.4L590.0 145.4Q589.7 145.4 589.5 145.2Q589.3 145.0 589.3 144.7L589.3 144.7Q589.3 144.4 589.5 144.2Q589.7 144.0 590.0 144.0L590.0 144.0Q590.3 144.0 590.5 144.2Q590.7 144.4 590.7 144.7L590.7 144.7Q590.7 145.0 590.5 145.2Q590.3 145.4 590.0 145.4ZM594.4 149.1L594.4 149.1L594.4 153L593.4 153L593.4 146.4L594.4 146.4L594.4 147.7Q594.7 147.0 595.1 146.7L595.1 146.7Q595.7 146.4 596.4 146.4L596.4 146.4Q597.1 146.4 597.6 146.6Q598.1 146.9 598.3 147.5Q598.6 148.0 598.6 148.8L598.6 148.8L598.6 153L597.6 153L597.6 148.9Q597.6 148.2 597.2 147.7Q596.8 147.3 596.1 147.3L596.1 147.3Q595.6 147.3 595.2 147.5Q594.9 147.7 594.6 148.1Q594.4 148.5 594.4 149.1ZM602.7 146.4L604.0 146.4L604.0 147.4L602.7 147.4L602.7 151.3Q602.7 151.7 602.9 151.9Q603.1 152.1 603.5 152.1L603.5 152.1Q603.6 152.1 603.7 152.1Q603.9 152.1 604.0 152.1L604.0 152.1L604.2 153.0Q604.1 153.0 603.9 153.1Q603.6 153.1 603.4 153.1L603.4 153.1Q602.6 153.1 602.1 152.6Q601.6 152.2 601.6 151.4L601.6 151.4L601.6 147.4L600.7 147.4L600.7 146.4L601.6 146.4L601.6 144.9L602.7 144.9L602.7 146.4ZM609.1 153.1L609.1 153.1Q608.2 153.1 607.5 152.7Q606.8 152.3 606.4 151.5Q606.1 150.8 606.1 149.8Q606.1 148.8 606.4 148.0Q606.8 147.2 607.5 146.8Q608.1 146.4 609.0 146.4L609.0 146.4Q609.5 146.4 610.0 146.5Q610.6 146.7 611.0 147.1Q611.4 147.5 611.6 148.1Q611.9 148.7 611.9 149.6L611.9 149.6L611.9 150.1L607.1 150.1Q607.2 150.7 607.4 151.2L607.4 151.2Q607.6 151.7 608.1 151.9Q608.6 152.2 609.2 152.2L609.2 152.2Q609.5 152.2 609.9 152.1Q610.2 152.0 610.4 151.8Q610.6 151.5 610.8 151.2L610.8 151.2L611.8 151.5Q611.6 152.0 611.3 152.3Q610.9 152.7 610.4 152.9Q609.8 153.1 609.1 153.1ZM607.1 149.2L607.1 149.2L610.8 149.2Q610.8 148.7 610.6 148.4L610.6 148.4Q610.4 147.9 610.0 147.6Q609.6 147.3 609.0 147.3Q608.4 147.3 608.0 147.6Q607.6 147.9 607.4 148.3L607.4 148.3Q607.2 148.7 607.1 149.2ZM615.4 153L614.4 153L614.4 146.4L615.4 146.4L615.4 147.5L615.5 147.5Q615.7 147.0 616.1 146.7Q616.6 146.4 617.2 146.4L617.2 146.4Q617.3 146.4 617.5 146.4Q617.6 146.4 617.7 146.4L617.7 146.4L617.7 147.4Q617.7 147.4 617.5 147.4Q617.3 147.4 617.1 147.4L617.1 147.4Q616.6 147.4 616.2 147.6Q615.9 147.8 615.7 148.1Q615.4 148.5 615.4 148.9L615.4 148.9L615.4 153ZM621.0 149.1L621.0 149.1L621.0 153L619.9 153L619.9 146.4L620.9 146.4L620.9 147.7Q621.2 147.0 621.6 146.7L621.6 146.7Q622.2 146.4 622.9 146.4L622.9 146.4Q623.6 146.4 624.1 146.6Q624.6 146.9 624.9 147.5Q625.1 148.0 625.1 148.8L625.1 148.8L625.1 153L624.1 153L624.1 148.9Q624.1 148.2 623.7 147.7Q623.3 147.3 622.6 147.3L622.6 147.3Q622.1 147.3 621.8 147.5Q621.4 147.7 621.2 148.1Q621.0 148.5 621.0 149.1ZM630.2 153.1L630.2 153.1Q629.5 153.1 629.0 152.9Q628.5 152.7 628.2 152.4Q627.8 152.0 627.7 151.4L627.7 151.4L628.7 151.2Q628.8 151.7 629.2 152.0Q629.6 152.2 630.2 152.2L630.2 152.2Q630.9 152.2 631.3 151.9Q631.7 151.6 631.7 151.2L631.7 151.2Q631.7 150.9 631.5 150.7Q631.2 150.4 630.7 150.3L630.7 150.3L629.7 150.1Q628.8 149.9 628.3 149.4Q627.9 149.0 627.9 148.3L627.9 148.3Q627.9 147.7 628.2 147.3Q628.5 146.9 629.1 146.6Q629.6 146.4 630.3 146.4L630.3 146.4Q631 146.4 631.5 146.6Q631.9 146.8 632.2 147.1Q632.5 147.5 632.7 147.9L632.7 147.9L631.7 148.2Q631.6 147.8 631.3 147.6Q631.0 147.3 630.3 147.3L630.3 147.3Q629.7 147.3 629.4 147.5Q629.0 147.8 629.0 148.2L629.0 148.2Q629.0 148.6 629.2 148.8Q629.5 149.0 630.1 149.2L630.1 149.2L631.1 149.4Q631.9 149.6 632.4 150.0Q632.8 150.5 632.8 151.2L632.8 151.2Q632.8 151.7 632.5 152.2Q632.2 152.6 631.6 152.9Q631.0 153.1 630.2 153.1ZM636.4 149.1L636.4 149.1L636.4 153L635.3 153L635.3 144.3L636.4 144.3L636.4 147.6Q636.7 147.0 637.1 146.7L637.1 146.7Q637.6 146.4 638.4 146.4L638.4 146.4Q639.0 146.4 639.5 146.6Q640.0 146.9 640.3 147.5Q640.6 148.0 640.6 148.8L640.6 148.8L640.6 153L639.5 153L639.5 148.9Q639.5 148.2 639.1 147.7Q638.7 147.3 638.0 147.3L638.0 147.3Q637.6 147.3 637.2 147.5Q636.8 147.7 636.6 148.1Q636.4 148.5 636.4 149.1ZM644.5 153L643.4 153L643.4 146.4L644.5 146.4L644.5 153ZM644.0 145.4L644.0 145.4Q643.7 145.4 643.4 145.2Q643.2 145.0 643.2 144.7L643.2 144.7Q643.2 144.4 643.4 144.2Q643.7 144.0 644.0 144.0L644.0 144.0Q644.3 144.0 644.5 144.2Q644.7 144.4 644.7 144.7L644.7 144.7Q644.7 145.0 644.5 145.2Q644.3 145.4 644.0 145.4ZM648.4 155.4L647.3 155.4L647.3 146.4L648.3 146.4L648.3 147.5L648.5 147.5Q648.6 147.3 648.8 147.1Q649.0 146.8 649.4 146.6Q649.7 146.4 650.4 146.4L650.4 146.4Q651.2 146.4 651.8 146.8Q652.4 147.2 652.8 147.9Q653.1 148.7 653.1 149.7L653.1 149.7Q653.1 150.8 652.8 151.5Q652.4 152.3 651.8 152.7Q651.2 153.1 650.4 153.1L650.4 153.1Q649.8 153.1 649.4 152.9Q649.0 152.7 648.8 152.4Q648.6 152.2 648.5 152.0L648.5 152.0L648.4 152.0L648.4 155.4ZM650.2 152.2L650.2 152.2Q650.8 152.2 651.2 151.9Q651.7 151.5 651.9 151.0Q652.1 150.4 652.1 149.7L652.1 149.7Q652.1 149.1 651.9 148.5Q651.7 148.0 651.2 147.6Q650.8 147.3 650.2 147.3L650.2 147.3Q649.6 147.3 649.2 147.6Q648.8 147.9 648.6 148.5Q648.4 149.0 648.4 149.7L648.4 149.7Q648.4 150.5 648.6 151.0Q648.8 151.6 649.2 151.9Q649.6 152.2 650.2 152.2ZM657.9 153.1L657.9 153.1Q657.2 153.1 656.7 152.9Q656.2 152.7 655.8 152.4Q655.5 152.0 655.4 151.4L655.4 151.4L656.4 151.2Q656.5 151.7 656.9 152.0Q657.3 152.2 657.9 152.2L657.9 152.2Q658.6 152.2 659.0 151.9Q659.4 151.6 659.4 151.2L659.4 151.2Q659.4 150.9 659.2 150.7Q658.9 150.4 658.4 150.3L658.4 150.3L657.3 150.1Q656.5 149.9 656.0 149.4Q655.6 149.0 655.6 148.3L655.6 148.3Q655.6 147.7 655.9 147.3Q656.2 146.9 656.8 146.6Q657.3 146.4 658.0 146.4L658.0 146.4Q658.7 146.4 659.2 146.6Q659.6 146.8 659.9 147.1Q660.2 147.5 660.4 147.9L660.4 147.9L659.4 148.2Q659.3 147.8 659.0 147.6Q658.6 147.3 658.0 147.3L658.0 147.3Q657.4 147.3 657.0 147.5Q656.7 147.8 656.7 148.2L656.7 148.2Q656.7 148.6 656.9 148.8Q657.2 149.0 657.8 149.2L657.8 149.2L658.7 149.4Q659.6 149.6 660.1 150.0Q660.5 150.5 660.5 151.2L660.5 151.2Q660.5 151.7 660.2 152.2Q659.8 152.6 659.3 152.9Q658.7 153.1 657.9 153.1Z "/></g></svg>