<!-- Generated by readme-aura https://github.com/collectioneur/readme-aura -->
<svg width="860" height="260" viewBox="0 0 860 260" xmlns="http://www.w3.org/2000/svg"><defs><clipPath id="satori_bc-id"><path x="0" y="0" width="860" height="260" d="M16,0 h828 a16,16 0 0 1 16,16 v228 a16,16 0 0 1 -16,16 h-828 a16,16 0 0 1 -16,-16 v-228 a16,16 0 0 1 16,-16"/></clipPath></defs><clipPath id="satori_cp-id"><path x="0" y="0" width="860" height="260" d="M16,0 h828 a16,16 0 0 1 16,16 v228 a16,16 0 0 1 -16,16 h-828 a16,16 0 0 1 -16,-16 v-228 a16,16 0 0 1 16,-16"/></clipPath><mask id="satori_om-id"><rect x="1" y="1" width="858" height="258" fill="#fff"/><path width="860" height="260" fill="none" stroke="#000" stroke-width="2" d="M4.686,4.686 A16,16 0 0 1 16,0 h828 a16,16 0 0 1 16,16 v228 a16,16 0 0 1 -16,16 h-828 a16,16 0 0 1 -16,-16 v-228 A16,16 0 0 1 4.686,4.686"/></mask><path x="0" y="0" width="860" height="260" fill="#0d0810" d="M16,0 h828 a16,16 0 0 1 16,16 v228 a16,16 0 0 1 -16,16 h-828 a16,16 0 0 1 -16,-16 v-228 a16,16 0 0 1 16,-16"/><path width="860" height="260" clip-path="url(#satori_bc-id)" fill="none" stroke="rgba(68,33,40,0.5)" stroke-width="2" d="M4.686,4.686 A16,16 0 0 1 16,0 h828 a16,16 0 0 1 16,16 v228 a16,16 0 0 1 -16,16 h-828 a16,16 0 0 1 -16,-16 v-228 A16,16 0 0 1 4.686,4.686"/><clipPath id="satori_cp-id-0" clip-path="url(#satori_cp-id)"><rect x="1" y="1" width="860" height="260"/></clipPath><mask id="satori_om-id-0"><rect x="1" y="1" width="860" height="260" fill="#fff" mask="url(#satori_om-id)"/></mask><svg x="1" y="1" width="860" height="260" preserveAspectRatio="none" clip-path="url(#satori_cp-id-0)" mask="url(#satori_om-id-0)"><defs><radialGradient id="sg1" cx="50%" cy="50%" r="50%"><stop offset="0%" stop-color="rgba(80,18,35,0.75)"></stop><stop offset="100%" stop-color="rgba(80,18,35,0)"></stop></radialGradient><radialGradient id="sg2" cx="50%" cy="50%" r="50%"><stop offset="0%" stop-color="rgba(130,55,75,0.55)"></stop><stop offset="100%" stop-color="rgba(130,55,75,0)"></stop></radialGradient><radialGradient id="sg3" cx="50%" cy="50%" r="50%"><stop offset="0%" stop-color="rgba(217,157,135,0.18)"></stop><stop offset="100%" stop-color="rgba(217,157,135,0)"></stop></radialGradient></defs><ellipse id="sb1" cx="150" cy="250" rx="300" ry="160" fill="url(#sg1)"></ellipse><ellipse id="sb2" cx="680" cy="250" rx="270" ry="150" fill="url(#sg2)"></ellipse><ellipse id="sb3" cx="430" cy="130" rx="180" ry="100" fill="url(#sg3)"></ellipse><style>

    @keyframes s1 { 0%,100%{transform:translateX(0);opacity:.6} 50%{transform:translateX(220px);opacity:.85} }
    @keyframes s2 { 0%,100%{transform:translateX(0);opacity:.5} 50%{transform:translateX(-190px);opacity:.8} }
    @keyframes s3 { 0%,100%{opacity:.7} 50%{opacity:.35} }
    #sb1{animation:s1 13s ease-in-out infinite} #sb2{animation:s2 10s ease-in-out infinite} #sb3{animation:s3 8s ease-in-out infinite}
  
</style>
</svg><mask id="satori_om-id-0-0"><rect x="1" y="1" width="0" height="260" fill="#fff" mask="url(#satori_om-id)"/></mask><mask id="satori_om-id-0-0-0"><rect x="1" y="1" width="0" height="260" fill="#fff" mask="url(#satori_om-id)"/></mask><mask id="satori_om-id-0-0-0-0"><rect x="1" y="1" width="0" height="260" fill="#fff" mask="url(#satori_om-id)"/></mask><mask id="satori_om-id-0-0-0-1"><rect x="1" y="1" width="0" height="260" fill="#fff" mask="url(#satori_om-id)"/></mask><mask id="satori_om-id-0-0-1"><rect x="1" y="1" width="0" height="260" fill="#fff" mask="url(#satori_om-id)"/></mask><mask id="satori_om-id-0-0-1-0"><rect x="1" y="1" width="0" height="260" fill="#fff" mask="url(#satori_om-id)"/></mask><mask id="satori_om-id-0-0-1-1"><rect x="1" y="1" width="0" height="260" fill="#fff" mask="url(#satori_om-id)"/></mask><mask id="satori_om-id-0-0-2"><rect x="1" y="1" width="0" height="260" fill="#fff" mask="url(#satori_om-id)"/></mask><mask id="satori_om-id-0-0-2-0"><rect x="1" y="1" width="0" height="260" fill="#fff" mask="url(#satori_om-id)"/></mask><mask id="satori_om-id-0-0-2-1"><rect x="1" y="1" width="0" height="260" fill="#fff" mask="url(#satori_om-id)"/></mask><mask id="satori_om-id-0-1"><rect x="1" y="1" width="0" height="260" fill="#fff" mask="url(#satori_om-id)"/></mask><mask id="satori_om-id-0-2"><rect x="1" y="1" width="0" height="260" fill="#fff" mask="url(#satori_om-id)"/></mask><mask id="satori_om-id-0-3"><rect x="1" y="1" width="0" height="260" fill="#fff" mask="url(#satori_om-id)"/></mask><mask id="satori_om-id-1"><rect x="1" y="15" width="858" height="231" fill="#fff" mask="url(#satori_om-id)"/></mask><mask id="satori_om-id-1-0"><rect x="343" y="15" width="174" height="13" fill="#fff" mask="url(#satori_om-id)"/></mask><g mask="url(#satori_om-id)" clip-path="url(#satori_cp-id)"><path fill="rgba(217,157,135,0.5)" d="M343 22.1L354 22.1L354 23.0L343 23.0L343 22.1Z M369.3 26.1L369.3 26.1Q368.3 26.1 367.5 25.6Q366.7 25.1 366.2 24.2Q365.7 23.3 365.7 22.0L365.7 22.0Q365.7 20.7 366.2 19.8Q366.7 18.9 367.4 18.4Q368.2 17.9 369.3 17.9L369.3 17.9Q369.9 17.9 370.5 18.1Q371.0 18.3 371.4 18.6Q371.9 19.0 372.2 19.4Q372.4 19.9 372.6 20.5L372.6 20.5L371.5 20.5Q371.4 20.1 371.2 19.8Q371.0 19.5 370.7 19.3Q370.4 19.1 370.1 19.0Q369.7 18.8 369.3 18.8L369.3 18.8Q368.6 18.8 368.0 19.2Q367.4 19.6 367.1 20.3Q366.7 21.0 366.7 22.0L366.7 22.0Q366.7 23.0 367.1 23.7Q367.4 24.4 368.0 24.8Q368.6 25.2 369.3 25.2L369.3 25.2Q370.0 25.2 370.5 24.9Q371.0 24.6 371.3 24.1L371.3 24.1Q371.6 23.6 371.6 22.9L371.6 22.9L369.5 22.9L369.5 22.0L372.6 22.0L372.6 22.9Q372.6 23.8 372.2 24.6Q371.8 25.3 371.0 25.7Q370.3 26.1 369.3 26.1ZM378.3 18.0L379.3 18.0L379.3 26L378.3 26L378.3 18.0ZM387.3 18.9L384.8 18.9L384.8 18.0L390.8 18.0L390.8 18.9L388.3 18.9L388.3 26L387.3 26L387.3 18.9ZM397.3 26L396.3 26L396.3 18.0L397.3 18.0L397.3 21.5L401.5 21.5L401.5 18.0L402.6 18.0L402.6 26L401.5 26L401.5 22.4L397.3 22.4L397.3 26ZM411.6 26.1L411.6 26.1Q410.7 26.1 410.0 25.8Q409.3 25.4 408.9 24.7Q408.5 24.1 408.5 23.3L408.5 23.3L408.5 18.0L409.5 18.0L409.5 23.2Q409.5 23.8 409.8 24.2Q410.0 24.7 410.5 24.9Q411.0 25.2 411.6 25.2L411.6 25.2Q412.3 25.2 412.8 24.9Q413.2 24.7 413.5 24.2Q413.7 23.8 413.7 23.2L413.7 23.2L413.7 18.0L414.7 18.0L414.7 23.3Q414.7 24.1 414.4 24.7Q414.0 25.4 413.3 25.8Q412.6 26.1 411.6 26.1ZM423.6 26L420.7 26L420.7 18.0L423.5 18.0Q424.4 18.0 424.9 18.3Q425.4 18.6 425.7 19.1Q426.0 19.5 426.0 20.1L426.0 20.1Q426.0 20.6 425.8 21.0Q425.6 21.3 425.3 21.5Q425.0 21.7 424.7 21.8L424.7 21.8L424.7 21.9Q425.0 21.9 425.4 22.1Q425.8 22.4 426.0 22.8Q426.3 23.2 426.3 23.9L426.3 23.9Q426.3 24.5 426.0 25.0Q425.7 25.4 425.1 25.7Q424.6 26 423.6 26L423.6 26ZM421.7 22.4L421.7 25.1L423.6 25.1Q424.5 25.1 424.9 24.7Q425.3 24.4 425.3 23.9L425.3 23.9Q425.3 23.5 425.1 23.1Q424.9 22.8 424.5 22.6Q424.2 22.4 423.6 22.4L423.6 22.4L421.7 22.4ZM421.7 18.9L421.7 21.5L423.5 21.5Q423.9 21.5 424.2 21.3Q424.6 21.2 424.8 20.9Q425.0 20.6 425.0 20.1L425.0 20.1Q425.0 19.6 424.6 19.3Q424.3 18.9 423.5 18.9L423.5 18.9L421.7 18.9Z M441.5 26.1L441.5 26.1Q440.7 26.1 440.0 25.9Q439.4 25.6 439.0 25.1Q438.7 24.6 438.6 23.9L438.6 23.9L439.7 23.9Q439.7 24.4 440.0 24.6Q440.2 24.9 440.7 25.1Q441.1 25.2 441.5 25.2L441.5 25.2Q442.1 25.2 442.5 25.0Q442.9 24.9 443.2 24.5Q443.4 24.2 443.4 23.8L443.4 23.8Q443.4 23.4 443.2 23.2Q443.0 22.9 442.7 22.8Q442.3 22.6 441.9 22.5L441.9 22.5L440.9 22.2Q439.9 22.0 439.4 21.4Q438.9 20.9 438.9 20.1L438.9 20.1Q438.9 19.5 439.2 19.0Q439.6 18.4 440.2 18.2Q440.8 17.9 441.6 17.9L441.6 17.9Q442.4 17.9 443.0 18.2Q443.6 18.4 444.0 18.9Q444.3 19.4 444.3 20.0L444.3 20.0L443.3 20.0Q443.3 19.4 442.8 19.1Q442.3 18.8 441.6 18.8L441.6 18.8Q441.1 18.8 440.7 19.0Q440.3 19.1 440.1 19.4Q439.8 19.7 439.8 20.1L439.8 20.1Q439.8 20.5 440.1 20.8Q440.4 21.0 440.7 21.2Q441.1 21.3 441.4 21.4L441.4 21.4L442.2 21.6Q442.5 21.7 442.9 21.8Q443.3 22.0 443.6 22.2Q444.0 22.5 444.2 22.9Q444.4 23.3 444.4 23.8L444.4 23.8Q444.4 24.5 444.1 25.0Q443.8 25.5 443.1 25.8Q442.5 26.1 441.5 26.1ZM452.1 18.9L449.6 18.9L449.6 18.0L455.6 18.0L455.6 18.9L453.1 18.9L453.1 26L452.1 26L452.1 18.9ZM461.5 26L460.4 26L463.4 18.0L464.5 18.0L467.5 26L466.4 26L465.6 23.8L462.3 23.8L461.5 26ZM462.6 22.9L465.3 22.9L464.7 21.3Q464.5 20.8 464.3 20.2L464.3 20.2Q464.2 19.6 463.9 18.8L463.9 18.8Q463.7 19.6 463.5 20.2L463.5 20.2Q463.3 20.8 463.2 21.3L463.2 21.3L462.6 22.9ZM474.8 18.9L472.3 18.9L472.3 18.0L478.3 18.0L478.3 18.9L475.8 18.9L475.8 26L474.8 26L474.8 18.9ZM486.4 26.1L486.4 26.1Q485.5 26.1 484.9 25.9Q484.2 25.6 483.9 25.1Q483.5 24.6 483.5 23.9L483.5 23.9L484.5 23.9Q484.6 24.4 484.8 24.6Q485.1 24.9 485.5 25.1Q485.9 25.2 486.4 25.2L486.4 25.2Q486.9 25.2 487.4 25.0Q487.8 24.9 488.0 24.5Q488.3 24.2 488.3 23.8L488.3 23.8Q488.3 23.4 488.1 23.2Q487.9 22.9 487.5 22.8Q487.1 22.6 486.7 22.5L486.7 22.5L485.7 22.2Q484.8 22.0 484.2 21.4Q483.7 20.9 483.7 20.1L483.7 20.1Q483.7 19.5 484.1 19.0Q484.4 18.4 485.1 18.2Q485.7 17.9 486.5 17.9L486.5 17.9Q487.2 17.9 487.9 18.2Q488.5 18.4 488.8 18.9Q489.2 19.4 489.2 20.0L489.2 20.0L488.2 20.0Q488.1 19.4 487.6 19.1Q487.1 18.8 486.4 18.8L486.4 18.8Q485.9 18.8 485.5 19.0Q485.1 19.1 484.9 19.4Q484.7 19.7 484.7 20.1L484.7 20.1Q484.7 20.5 485.0 20.8Q485.2 21.0 485.6 21.2Q485.9 21.3 486.2 21.4L486.2 21.4L487.0 21.6Q487.3 21.7 487.7 21.8Q488.1 22.0 488.5 22.2Q488.8 22.5 489.1 22.9Q489.3 23.3 489.3 23.8L489.3 23.8Q489.3 24.5 488.9 25.0Q488.6 25.5 488.0 25.8Q487.3 26.1 486.4 26.1Z M501.0 22.1L512.0 22.1L512.0 23.0L501.0 23.0L501.0 22.1Z "/></g><mask id="satori_om-id-1-1"><rect x="51" y="48" width="758" height="52" fill="#fff" mask="url(#satori_om-id)"/></mask><mask id="satori_om-id-1-1-0"><rect x="236" y="48" width="96" height="52" fill="#fff" mask="url(#satori_om-id)"/></mask><mask id="satori_om-id-1-1-0-0"><rect x="270" y="48" width="29" height="34" fill="#fff" mask="url(#satori_om-id)"/></mask><g mask="url(#satori_om-id)" clip-path="url(#satori_cp-id)"><path fill="#d99d87" d="M270 65.0L298 65.0L298 68.3L270 68.3L270 65.0Z "/></g><mask id="satori_om-id-1-1-0-1"><rect x="236" y="88" width="96" height="12" fill="#fff" mask="url(#satori_om-id)"/></mask><g mask="url(#satori_om-id)" clip-path="url(#satori_cp-id)"><path fill="rgba(123,98,97,0.7)" d="M237.8 98L236.9 98L236.9 90.7L239.4 90.7Q240.2 90.7 240.8 91.0Q241.3 91.3 241.6 91.8Q241.8 92.3 241.8 93.0Q241.8 93.6 241.6 94.1Q241.3 94.6 240.8 94.9L240.8 94.9Q240.6 95.0 240.5 95.0L240.5 95.0L242.1 98L241.1 98L239.5 95.2Q239.5 95.2 239.4 95.2L239.4 95.2L237.8 95.2L237.8 98ZM237.8 91.5L237.8 94.4L239.3 94.4Q239.9 94.4 240.3 94.2Q240.6 94.0 240.8 93.7Q240.9 93.4 240.9 93.0L240.9 93.0Q240.9 92.5 240.8 92.2Q240.6 91.9 240.3 91.7Q239.9 91.5 239.3 91.5L239.3 91.5L237.8 91.5ZM249.8 98L245.3 98L245.3 90.7L249.7 90.7L249.7 91.5L246.2 91.5L246.2 93.9L249.5 93.9L249.5 94.7L246.2 94.7L246.2 97.2L249.8 97.2L249.8 98ZM254.3 98L253.3 98L253.3 90.7L255.8 90.7Q256.7 90.7 257.2 91.0Q257.8 91.3 258.0 91.9Q258.3 92.4 258.3 93.0Q258.3 93.7 258.0 94.2Q257.8 94.7 257.2 95.1Q256.7 95.4 255.8 95.4L255.8 95.4L254.3 95.4L254.3 98ZM254.3 91.5L254.3 94.6L255.8 94.6Q256.4 94.6 256.7 94.4Q257.1 94.2 257.2 93.8Q257.4 93.5 257.4 93.0Q257.4 92.6 257.2 92.3Q257.1 91.9 256.7 91.7Q256.3 91.5 255.8 91.5L255.8 91.5L254.3 91.5ZM264.7 98.1L264.7 98.1Q263.7 98.1 263.0 97.6Q262.3 97.2 261.8 96.4Q261.4 95.5 261.4 94.4L261.4 94.4Q261.4 93.2 261.8 92.4Q262.3 91.5 263.0 91.1Q263.7 90.6 264.7 90.6L264.7 90.6Q265.6 90.6 266.3 91.1Q267.0 91.5 267.5 92.4Q267.9 93.2 267.9 94.4L267.9 94.4Q267.9 95.5 267.5 96.4Q267.0 97.2 266.3 97.6Q265.6 98.1 264.7 98.1ZM264.7 97.2L264.7 97.2Q265.3 97.2 265.8 96.9Q266.4 96.6 266.7 95.9Q267.0 95.3 267.0 94.4L267.0 94.4Q267.0 93.4 266.7 92.8Q266.4 92.1 265.8 91.8Q265.3 91.5 264.7 91.5L264.7 91.5Q264.0 91.5 263.5 91.8Q263.0 92.2 262.6 92.8Q262.3 93.4 262.3 94.4L262.3 94.4Q262.3 95.3 262.6 95.9Q263.0 96.6 263.5 96.9Q264.0 97.2 264.7 97.2ZM273.7 98.1L273.7 98.1Q272.9 98.1 272.3 97.9Q271.7 97.6 271.4 97.2Q271.1 96.7 271.0 96.1L271.0 96.1L272.0 96.1Q272.0 96.5 272.3 96.8Q272.5 97.0 272.9 97.2Q273.3 97.3 273.7 97.3L273.7 97.3Q274.2 97.3 274.6 97.1Q275.0 97.0 275.2 96.7Q275.4 96.4 275.4 96.0L275.4 96.0Q275.4 95.7 275.2 95.4Q275.0 95.2 274.7 95.1Q274.4 94.9 274.0 94.8L274.0 94.8L273.1 94.6Q272.2 94.3 271.7 93.9Q271.3 93.4 271.3 92.7L271.3 92.7Q271.3 92.1 271.6 91.6Q271.9 91.1 272.5 90.9Q273.0 90.6 273.8 90.6L273.8 90.6Q274.5 90.6 275.0 90.9Q275.6 91.1 275.9 91.6Q276.2 92.0 276.2 92.6L276.2 92.6L275.3 92.6Q275.3 92.0 274.8 91.7Q274.4 91.4 273.7 91.4L273.7 91.4Q273.3 91.4 272.9 91.6Q272.5 91.8 272.3 92.0Q272.2 92.3 272.2 92.6L272.2 92.6Q272.2 93.0 272.4 93.2Q272.6 93.5 273.0 93.6Q273.3 93.7 273.5 93.8L273.5 93.8L274.3 94.0Q274.6 94.1 274.9 94.2Q275.3 94.4 275.6 94.6Q275.9 94.8 276.1 95.2Q276.3 95.5 276.3 96.0L276.3 96.0Q276.3 96.6 276.0 97.1Q275.7 97.6 275.1 97.8Q274.5 98.1 273.7 98.1ZM279.8 90.7L280.7 90.7L280.7 98L279.8 98L279.8 90.7ZM286.3 91.5L284.1 91.5L284.1 90.7L289.6 90.7L289.6 91.5L287.3 91.5L287.3 98L286.3 98L286.3 91.5ZM295.9 98.1L295.9 98.1Q294.9 98.1 294.2 97.6Q293.5 97.2 293.1 96.4Q292.6 95.5 292.6 94.4L292.6 94.4Q292.6 93.2 293.1 92.4Q293.5 91.5 294.2 91.1Q294.9 90.6 295.9 90.6L295.9 90.6Q296.8 90.6 297.5 91.1Q298.3 91.5 298.7 92.4Q299.1 93.2 299.1 94.4L299.1 94.4Q299.1 95.5 298.7 96.4Q298.3 97.2 297.5 97.6Q296.8 98.1 295.9 98.1ZM295.9 97.2L295.9 97.2Q296.5 97.2 297.0 96.9Q297.6 96.6 297.9 95.9Q298.2 95.3 298.2 94.4L298.2 94.4Q298.2 93.4 297.9 92.8Q297.6 92.1 297.0 91.8Q296.5 91.5 295.9 91.5L295.9 91.5Q295.2 91.5 294.7 91.8Q294.2 92.2 293.8 92.8Q293.5 93.4 293.5 94.4L293.5 94.4Q293.5 95.3 293.8 95.9Q294.2 96.6 294.7 96.9Q295.2 97.2 295.9 97.2ZM303.5 98L302.6 98L302.6 90.7L305.1 90.7Q305.9 90.7 306.5 91.0Q307 91.3 307.3 91.8Q307.5 92.3 307.5 93.0Q307.5 93.6 307.3 94.1Q307 94.6 306.5 94.9L306.5 94.9Q306.3 95.0 306.2 95.0L306.2 95.0L307.8 98L306.7 98L305.2 95.2Q305.1 95.2 305.1 95.2L305.1 95.2L303.5 95.2L303.5 98ZM303.5 91.5L303.5 94.4L305.0 94.4Q305.6 94.4 305.9 94.2Q306.3 94.0 306.4 93.7Q306.6 93.4 306.6 93.0L306.6 93.0Q306.6 92.5 306.4 92.2Q306.3 91.9 305.9 91.7Q305.6 91.5 305.0 91.5L305.0 91.5L303.5 91.5ZM311.0 90.7L311.9 90.7L311.9 98L311.0 98L311.0 90.7ZM320.2 98L315.7 98L315.7 90.7L320.1 90.7L320.1 91.5L316.6 91.5L316.6 93.9L319.9 93.9L319.9 94.7L316.6 94.7L316.6 97.2L320.2 97.2L320.2 98ZM326.0 98.1L326.0 98.1Q325.2 98.1 324.7 97.9Q324.1 97.6 323.8 97.2Q323.4 96.7 323.4 96.1L323.4 96.1L324.3 96.1Q324.4 96.5 324.6 96.8Q324.9 97.0 325.2 97.2Q325.6 97.3 326.0 97.3L326.0 97.3Q326.5 97.3 326.9 97.1Q327.3 97.0 327.5 96.7Q327.8 96.4 327.8 96.0L327.8 96.0Q327.8 95.7 327.6 95.4Q327.4 95.2 327.0 95.1Q326.7 94.9 326.3 94.8L326.3 94.8L325.4 94.6Q324.6 94.3 324.1 93.9Q323.6 93.4 323.6 92.7L323.6 92.7Q323.6 92.1 323.9 91.6Q324.3 91.1 324.8 90.9Q325.4 90.6 326.1 90.6L326.1 90.6Q326.8 90.6 327.4 90.9Q327.9 91.1 328.2 91.6Q328.5 92.0 328.6 92.6L328.6 92.6L327.7 92.6Q327.6 92.0 327.2 91.7Q326.7 91.4 326.1 91.4L326.1 91.4Q325.6 91.4 325.2 91.6Q324.9 91.8 324.7 92.0Q324.5 92.3 324.5 92.6L324.5 92.6Q324.5 93.0 324.7 93.2Q325.0 93.5 325.3 93.6Q325.6 93.7 325.9 93.8L325.9 93.8L326.6 94.0Q326.9 94.1 327.3 94.2Q327.6 94.4 327.9 94.6Q328.2 94.8 328.5 95.2Q328.7 95.5 328.7 96.0L328.7 96.0Q328.7 96.6 328.4 97.1Q328.0 97.6 327.5 97.8Q326.9 98.1 326.0 98.1Z "/></g><mask id="satori_om-id-1-1-1"><rect x="362" y="48" width="80" height="52" fill="#fff" mask="url(#satori_om-id)"/></mask><mask id="satori_om-id-1-1-1-0"><rect x="383" y="48" width="39" height="34" fill="#fff" mask="url(#satori_om-id)"/></mask><g mask="url(#satori_om-id)" clip-path="url(#satori_cp-id)"><path fill="#d99d87" d="M394.1 71.4L384.4 71.4L384.4 68.1L392.9 54.6L398.1 54.6L398.1 68.0L400.7 68.0L400.7 71.4L398.1 71.4L398.1 75L394.1 75L394.1 71.4ZM388.6 68.0L394.2 68.0L394.2 59.2L394.0 59.2L388.6 67.8L388.6 68.0ZM419.0 75L404.6 75L404.6 72.0L411.8 65.2Q412.8 64.3 413.4 63.6Q414.1 62.9 414.4 62.2Q414.7 61.5 414.7 60.6L414.7 60.6Q414.7 59.7 414.3 59.1Q413.9 58.4 413.2 58.0Q412.5 57.7 411.6 57.7L411.6 57.7Q410.6 57.7 409.9 58.1Q409.2 58.5 408.8 59.2Q408.4 59.9 408.4 60.9L408.4 60.9L404.4 60.9Q404.4 58.9 405.3 57.4Q406.3 56.0 407.9 55.2Q409.5 54.4 411.6 54.4L411.6 54.4Q413.8 54.4 415.4 55.1Q417.0 55.9 417.9 57.3Q418.8 58.6 418.8 60.4L418.8 60.4Q418.8 61.5 418.3 62.6Q417.9 63.7 416.7 65.1Q415.6 66.5 413.5 68.4L413.5 68.4L410.4 71.4L410.4 71.6L419.0 71.6L419.0 75Z "/></g><mask id="satori_om-id-1-1-1-1"><rect x="362" y="88" width="80" height="12" fill="#fff" mask="url(#satori_om-id)"/></mask><g mask="url(#satori_om-id)" clip-path="url(#satori_cp-id)"><path fill="rgba(123,98,97,0.7)" d="M363.8 98L362.9 98L362.9 90.7L367.3 90.7L367.3 91.5L363.8 91.5L363.8 94.0L366.9 94.0L366.9 94.9L363.8 94.9L363.8 98ZM373.7 98.1L373.7 98.1Q372.8 98.1 372.1 97.6Q371.3 97.2 370.9 96.4Q370.5 95.5 370.5 94.4L370.5 94.4Q370.5 93.2 370.9 92.4Q371.3 91.5 372.1 91.1Q372.8 90.6 373.7 90.6L373.7 90.6Q374.7 90.6 375.4 91.1Q376.1 91.5 376.5 92.4Q377.0 93.2 377.0 94.4L377.0 94.4Q377.0 95.5 376.5 96.4Q376.1 97.2 375.4 97.6Q374.7 98.1 373.7 98.1ZM373.7 97.2L373.7 97.2Q374.4 97.2 374.9 96.9Q375.4 96.6 375.7 95.9Q376.1 95.3 376.1 94.4L376.1 94.4Q376.1 93.4 375.7 92.8Q375.4 92.1 374.9 91.8Q374.4 91.5 373.7 91.5L373.7 91.5Q373.1 91.5 372.5 91.8Q372.0 92.2 371.7 92.8Q371.4 93.4 371.4 94.4L371.4 94.4Q371.4 95.3 371.7 95.9Q372.0 96.6 372.5 96.9Q373.1 97.2 373.7 97.2ZM384.7 98L380.4 98L380.4 90.7L381.4 90.7L381.4 97.2L384.7 97.2L384.7 98ZM392.4 98L388.1 98L388.1 90.7L389.0 90.7L389.0 97.2L392.4 97.2L392.4 98ZM398.7 98.1L398.7 98.1Q397.8 98.1 397.0 97.6Q396.3 97.2 395.9 96.4Q395.5 95.5 395.5 94.4L395.5 94.4Q395.5 93.2 395.9 92.4Q396.3 91.5 397.0 91.1Q397.8 90.6 398.7 90.6L398.7 90.6Q399.6 90.6 400.3 91.1Q401.1 91.5 401.5 92.4Q401.9 93.2 401.9 94.4L401.9 94.4Q401.9 95.5 401.5 96.4Q401.1 97.2 400.3 97.6Q399.6 98.1 398.7 98.1ZM398.7 97.2L398.7 97.2Q399.3 97.2 399.9 96.9Q400.4 96.6 400.7 95.9Q401.0 95.3 401.0 94.4L401.0 94.4Q401.0 93.4 400.7 92.8Q400.4 92.1 399.9 91.8Q399.3 91.5 398.7 91.5L398.7 91.5Q398.0 91.5 397.5 91.8Q397.0 92.2 396.7 92.8Q396.4 93.4 396.4 94.4L396.4 94.4Q396.4 95.3 396.7 95.9Q397.0 96.6 397.5 96.9Q398.0 97.2 398.7 97.2ZM407.8 98L406.7 98L404.8 90.7L405.7 90.7L406.9 95.2Q407.0 95.5 407.0 95.9Q407.1 96.3 407.2 96.7L407.2 96.7Q407.2 96.9 407.3 97.1L407.3 97.1Q407.3 96.9 407.4 96.7L407.4 96.7Q407.5 96.3 407.5 95.9Q407.6 95.5 407.7 95.2L407.7 95.2L408.9 90.7L410.0 90.7L411.1 95.2Q411.2 95.5 411.3 95.9Q411.4 96.3 411.5 96.7L411.5 96.7Q411.5 96.9 411.6 97.1L411.6 97.1Q411.6 96.9 411.7 96.7L411.7 96.7Q411.7 96.3 411.8 95.9Q411.9 95.5 412 95.2L412 95.2L413.1 90.7L414.1 90.7L412.1 98L411.0 98L409.8 93.4Q409.7 92.9 409.5 92.4L409.5 92.4Q409.5 92.1 409.4 91.8L409.4 91.8Q409.4 92.1 409.3 92.4L409.3 92.4Q409.2 92.9 409.1 93.4L409.1 93.4L407.8 98ZM421.7 98L417.2 98L417.2 90.7L421.7 90.7L421.7 91.5L418.2 91.5L418.2 93.9L421.4 93.9L421.4 94.7L418.2 94.7L418.2 97.2L421.7 97.2L421.7 98ZM426.2 98L425.2 98L425.2 90.7L427.7 90.7Q428.6 90.7 429.1 91.0Q429.7 91.3 430.0 91.8Q430.2 92.3 430.2 93.0Q430.2 93.6 430.0 94.1Q429.7 94.6 429.1 94.9L429.1 94.9Q429.0 95.0 428.9 95.0L428.9 95.0L430.5 98L429.4 98L427.9 95.2Q427.8 95.2 427.7 95.2L427.7 95.2L426.2 95.2L426.2 98ZM426.2 91.5L426.2 94.4L427.7 94.4Q428.3 94.4 428.6 94.2Q429.0 94.0 429.1 93.7Q429.3 93.4 429.3 93.0L429.3 93.0Q429.3 92.5 429.1 92.2Q429.0 91.9 428.6 91.7Q428.3 91.5 427.7 91.5L427.7 91.5L426.2 91.5ZM436.0 98.1L436.0 98.1Q435.2 98.1 434.6 97.9Q434.1 97.6 433.7 97.2Q433.4 96.7 433.4 96.1L433.4 96.1L434.3 96.1Q434.4 96.5 434.6 96.8Q434.8 97.0 435.2 97.2Q435.6 97.3 436.0 97.3L436.0 97.3Q436.5 97.3 436.9 97.1Q437.3 97.0 437.5 96.7Q437.8 96.4 437.8 96.0L437.8 96.0Q437.8 95.7 437.6 95.4Q437.4 95.2 437.0 95.1Q436.7 94.9 436.3 94.8L436.3 94.8L435.4 94.6Q434.6 94.3 434.1 93.9Q433.6 93.4 433.6 92.7L433.6 92.7Q433.6 92.1 433.9 91.6Q434.2 91.1 434.8 90.9Q435.4 90.6 436.1 90.6L436.1 90.6Q436.8 90.6 437.3 90.9Q437.9 91.1 438.2 91.6Q438.5 92.0 438.6 92.6L438.6 92.6L437.6 92.6Q437.6 92.0 437.1 91.7Q436.7 91.4 436.0 91.4L436.0 91.4Q435.6 91.4 435.2 91.6Q434.9 91.8 434.7 92.0Q434.5 92.3 434.5 92.6L434.5 92.6Q434.5 93.0 434.7 93.2Q435.0 93.5 435.3 93.6Q435.6 93.7 435.9 93.8L435.9 93.8L436.6 94.0Q436.9 94.1 437.2 94.2Q437.6 94.4 437.9 94.6Q438.2 94.8 438.4 95.2Q438.7 95.5 438.7 96.0L438.7 96.0Q438.7 96.6 438.3 97.1Q438.0 97.6 437.4 97.8Q436.9 98.1 436.0 98.1Z "/></g><mask id="satori_om-id-1-1-2"><rect x="472" y="48" width="79" height="52" fill="#fff" mask="url(#satori_om-id)"/></mask><mask id="satori_om-id-1-1-2-0"><rect x="495" y="48" width="33" height="34" fill="#fff" mask="url(#satori_om-id)"/></mask><g mask="url(#satori_om-id)" clip-path="url(#satori_cp-id)"><path fill="#d99d87" d="M500.8 54.6L505.2 54.6L505.2 75L501.1 75L501.1 58.3L500.9 58.3L496.3 61.6L496.3 57.8L500.8 54.6ZM517.5 75.3L517.5 75.3Q514.9 75.3 513.1 74.0Q511.3 72.8 510.3 70.5Q509.4 68.1 509.4 64.8L509.4 64.8Q509.4 61.5 510.3 59.2Q511.3 56.8 513.1 55.6Q514.9 54.4 517.5 54.4L517.5 54.4Q520.1 54.4 521.9 55.6Q523.7 56.9 524.7 59.2Q525.7 61.5 525.7 64.8L525.7 64.8Q525.7 68.1 524.7 70.5Q523.7 72.8 521.9 74.0Q520.1 75.3 517.5 75.3ZM517.5 71.8L517.5 71.8Q518.8 71.8 519.6 71.0Q520.5 70.2 521.0 68.6Q521.4 67.1 521.4 64.8L521.4 64.8Q521.4 62.6 521.0 61.0Q520.5 59.4 519.6 58.6Q518.8 57.8 517.5 57.8L517.5 57.8Q516.3 57.8 515.4 58.6Q514.5 59.5 514.1 61.0Q513.6 62.6 513.6 64.8L513.6 64.8Q513.6 67.1 514.1 68.6Q514.5 70.2 515.4 71.0Q516.3 71.8 517.5 71.8Z "/></g><mask id="satori_om-id-1-1-2-1"><rect x="472" y="88" width="79" height="12" fill="#fff" mask="url(#satori_om-id)"/></mask><g mask="url(#satori_om-id)" clip-path="url(#satori_cp-id)"><path fill="rgba(123,98,97,0.7)" d="M473.8 98L472.9 98L472.9 90.7L477.3 90.7L477.3 91.5L473.8 91.5L473.8 94.0L476.9 94.0L476.9 94.9L473.8 94.9L473.8 98ZM483.7 98.1L483.7 98.1Q482.8 98.1 482.1 97.6Q481.3 97.2 480.9 96.4Q480.5 95.5 480.5 94.4L480.5 94.4Q480.5 93.2 480.9 92.4Q481.3 91.5 482.1 91.1Q482.8 90.6 483.7 90.6L483.7 90.6Q484.7 90.6 485.4 91.1Q486.1 91.5 486.5 92.4Q487.0 93.2 487.0 94.4L487.0 94.4Q487.0 95.5 486.5 96.4Q486.1 97.2 485.4 97.6Q484.7 98.1 483.7 98.1ZM483.7 97.2L483.7 97.2Q484.4 97.2 484.9 96.9Q485.4 96.6 485.7 95.9Q486.1 95.3 486.1 94.4L486.1 94.4Q486.1 93.4 485.7 92.8Q485.4 92.1 484.9 91.8Q484.4 91.5 483.7 91.5L483.7 91.5Q483.1 91.5 482.5 91.8Q482.0 92.2 481.7 92.8Q481.4 93.4 481.4 94.4L481.4 94.4Q481.4 95.3 481.7 95.9Q482.0 96.6 482.5 96.9Q483.1 97.2 483.7 97.2ZM494.7 98L490.4 98L490.4 90.7L491.4 90.7L491.4 97.2L494.7 97.2L494.7 98ZM502.4 98L498.1 98L498.1 90.7L499.0 90.7L499.0 97.2L502.4 97.2L502.4 98ZM508.7 98.1L508.7 98.1Q507.8 98.1 507.0 97.6Q506.3 97.2 505.9 96.4Q505.5 95.5 505.5 94.4L505.5 94.4Q505.5 93.2 505.9 92.4Q506.3 91.5 507.0 91.1Q507.8 90.6 508.7 90.6L508.7 90.6Q509.6 90.6 510.3 91.1Q511.1 91.5 511.5 92.4Q511.9 93.2 511.9 94.4L511.9 94.4Q511.9 95.5 511.5 96.4Q511.1 97.2 510.3 97.6Q509.6 98.1 508.7 98.1ZM508.7 97.2L508.7 97.2Q509.3 97.2 509.9 96.9Q510.4 96.6 510.7 95.9Q511.0 95.3 511.0 94.4L511.0 94.4Q511.0 93.4 510.7 92.8Q510.4 92.1 509.9 91.8Q509.3 91.5 508.7 91.5L508.7 91.5Q508.0 91.5 507.5 91.8Q507.0 92.2 506.7 92.8Q506.4 93.4 506.4 94.4L506.4 94.4Q506.4 95.3 506.7 95.9Q507.0 96.6 507.5 96.9Q508.0 97.2 508.7 97.2ZM517.8 98L516.7 98L514.8 90.7L515.7 90.7L516.9 95.2Q517.0 95.5 517.0 95.9Q517.1 96.3 517.2 96.7L517.2 96.7Q517.2 96.9 517.3 97.1L517.3 97.1Q517.3 96.9 517.4 96.7L517.4 96.7Q517.5 96.3 517.5 95.9Q517.6 95.5 517.7 95.2L517.7 95.2L518.9 90.7L520.0 90.7L521.1 95.2Q521.2 95.5 521.3 95.9Q521.4 96.3 521.5 96.7L521.5 96.7Q521.5 96.9 521.6 97.1L521.6 97.1Q521.6 96.9 521.7 96.7L521.7 96.7Q521.7 96.3 521.8 95.9Q521.9 95.5 522 95.2L522 95.2L523.1 90.7L524.1 90.7L522.1 98L521.0 98L519.8 93.4Q519.7 92.9 519.5 92.4L519.5 92.4Q519.5 92.1 519.4 91.8L519.4 91.8Q519.4 92.1 519.3 92.4L519.3 92.4Q519.2 92.9 519.1 93.4L519.1 93.4L517.8 98ZM527.2 90.7L528.2 90.7L528.2 98L527.2 98L527.2 90.7ZM532.9 98L531.9 98L531.9 90.7L533.0 90.7L536.0 95.4Q536.1 95.6 536.3 95.8Q536.4 96.1 536.6 96.5L536.6 96.5Q536.7 96.7 536.8 96.9L536.8 96.9Q536.8 96.7 536.8 96.4L536.8 96.4Q536.8 96.1 536.8 95.7Q536.8 95.4 536.8 95.2L536.8 95.2L536.8 90.7L537.7 90.7L537.7 98L536.6 98L534.0 93.9Q533.8 93.6 533.6 93.3Q533.4 93.0 533.2 92.5L533.2 92.5Q533.0 92.2 532.8 91.8L532.8 91.8Q532.8 92.2 532.8 92.5L532.8 92.5Q532.8 93.0 532.8 93.3Q532.9 93.7 532.9 93.8L532.9 93.8L532.9 98ZM544.4 98.1L544.4 98.1Q543.5 98.1 542.7 97.6Q542.0 97.2 541.6 96.4Q541.2 95.5 541.2 94.4L541.2 94.4Q541.2 93.2 541.6 92.4Q542.0 91.5 542.7 91.1Q543.4 90.6 544.4 90.6L544.4 90.6Q544.9 90.6 545.4 90.8Q545.9 91.0 546.3 91.3Q546.7 91.6 547.0 92.0Q547.3 92.5 547.4 93.0L547.4 93.0L546.4 93.0Q546.3 92.7 546.1 92.4Q545.9 92.1 545.7 91.9Q545.4 91.7 545.1 91.6Q544.8 91.5 544.4 91.5L544.4 91.5Q543.7 91.5 543.2 91.8Q542.7 92.1 542.4 92.8Q542.1 93.4 542.1 94.4L542.1 94.4Q542.1 95.3 542.4 95.9Q542.7 96.6 543.2 96.9Q543.8 97.2 544.4 97.2L544.4 97.2Q545.0 97.2 545.5 97.0Q546.0 96.7 546.2 96.2L546.2 96.2Q546.5 95.8 546.5 95.2L546.5 95.2L544.6 95.2L544.6 94.3L547.4 94.3L547.4 95.1Q547.4 96.0 547.0 96.7Q546.6 97.4 546.0 97.7Q545.3 98.1 544.4 98.1Z "/></g><mask id="satori_om-id-1-1-3"><rect x="581" y="48" width="43" height="52" fill="#fff" mask="url(#satori_om-id)"/></mask><mask id="satori_om-id-1-1-3-0"><rect x="588" y="48" width="29" height="34" fill="#fff" mask="url(#satori_om-id)"/></mask><g mask="url(#satori_om-id)" clip-path="url(#satori_cp-id)"><path fill="#d99d87" d="M588 65.0L616 65.0L616 68.3L588 68.3L588 65.0Z "/></g><mask id="satori_om-id-1-1-3-1"><rect x="581" y="88" width="43" height="12" fill="#fff" mask="url(#satori_om-id)"/></mask><g mask="url(#satori_om-id)" clip-path="url(#satori_cp-id)"><path fill="rgba(123,98,97,0.7)" d="M584.2 98.1L584.2 98.1Q583.4 98.1 582.8 97.9Q582.3 97.6 581.9 97.2Q581.6 96.7 581.6 96.1L581.6 96.1L582.5 96.1Q582.6 96.5 582.8 96.8Q583.0 97.0 583.4 97.2Q583.8 97.3 584.2 97.3L584.2 97.3Q584.7 97.3 585.1 97.1Q585.5 97.0 585.7 96.7Q585.9 96.4 585.9 96.0L585.9 96.0Q585.9 95.7 585.7 95.4Q585.6 95.2 585.2 95.1Q584.9 94.9 584.5 94.8L584.5 94.8L583.6 94.6Q582.7 94.3 582.3 93.9Q581.8 93.4 581.8 92.7L581.8 92.7Q581.8 92.1 582.1 91.6Q582.4 91.1 583.0 90.9Q583.6 90.6 584.3 90.6L584.3 90.6Q585.0 90.6 585.5 90.9Q586.1 91.1 586.4 91.6Q586.7 92.0 586.8 92.6L586.8 92.6L585.8 92.6Q585.8 92.0 585.3 91.7Q584.9 91.4 584.2 91.4L584.2 91.4Q583.8 91.4 583.4 91.6Q583.1 91.8 582.9 92.0Q582.7 92.3 582.7 92.6L582.7 92.6Q582.7 93.0 582.9 93.2Q583.1 93.5 583.5 93.6Q583.8 93.7 584.1 93.8L584.1 93.8L584.8 94.0Q585.1 94.1 585.4 94.2Q585.8 94.4 586.1 94.6Q586.4 94.8 586.6 95.2Q586.8 95.5 586.8 96.0L586.8 96.0Q586.8 96.6 586.5 97.1Q586.2 97.6 585.6 97.8Q585.0 98.1 584.2 98.1ZM592.2 91.5L589.9 91.5L589.9 90.7L595.4 90.7L595.4 91.5L593.1 91.5L593.1 98L592.2 98L592.2 91.5ZM599.1 98L598.1 98L600.8 90.7L601.8 90.7L604.5 98L603.5 98L602.8 96.0L599.8 96.0L599.1 98ZM600.1 95.2L602.5 95.2L602.0 93.7Q601.9 93.3 601.7 92.7L601.7 92.7Q601.5 92.2 601.3 91.5L601.3 91.5Q601.1 92.2 600.9 92.7L600.9 92.7Q600.7 93.3 600.6 93.7L600.6 93.7L600.1 95.2ZM608.6 98L607.6 98L607.6 90.7L610.1 90.7Q611.0 90.7 611.5 91.0Q612.1 91.3 612.4 91.8Q612.6 92.3 612.6 93.0Q612.6 93.6 612.4 94.1Q612.1 94.6 611.5 94.9L611.5 94.9Q611.4 95.0 611.3 95.0L611.3 95.0L612.9 98L611.8 98L610.3 95.2Q610.2 95.2 610.1 95.2L610.1 95.2L608.6 95.2L608.6 98ZM608.6 91.5L608.6 94.4L610.1 94.4Q610.7 94.4 611.0 94.2Q611.4 94.0 611.5 93.7Q611.7 93.4 611.7 93.0L611.7 93.0Q611.7 92.5 611.5 92.2Q611.4 91.9 611.0 91.7Q610.7 91.5 610.1 91.5L610.1 91.5L608.6 91.5ZM618.4 98.1L618.4 98.1Q617.6 98.1 617.0 97.9Q616.5 97.6 616.1 97.2Q615.8 96.7 615.8 96.1L615.8 96.1L616.7 96.1Q616.8 96.5 617.0 96.8Q617.2 97.0 617.6 97.2Q618.0 97.3 618.4 97.3L618.4 97.3Q618.9 97.3 619.3 97.1Q619.7 97.0 619.9 96.7Q620.2 96.4 620.2 96.0L620.2 96.0Q620.2 95.7 620.0 95.4Q619.8 95.2 619.4 95.1Q619.1 94.9 618.7 94.8L618.7 94.8L617.8 94.6Q617.0 94.3 616.5 93.9Q616.0 93.4 616.0 92.7L616.0 92.7Q616.0 92.1 616.3 91.6Q616.6 91.1 617.2 90.9Q617.8 90.6 618.5 90.6L618.5 90.6Q619.2 90.6 619.7 90.9Q620.3 91.1 620.6 91.6Q620.9 92.0 621.0 92.6L621.0 92.6L620.0 92.6Q620.0 92.0 619.5 91.7Q619.1 91.4 618.4 91.4L618.4 91.4Q618.0 91.4 617.6 91.6Q617.3 91.8 617.1 92.0Q616.9 92.3 616.9 92.6L616.9 92.6Q616.9 93.0 617.1 93.2Q617.4 93.5 617.7 93.6Q618.0 93.7 618.3 93.8L618.3 93.8L619.0 94.0Q619.3 94.1 619.6 94.2Q620.0 94.4 620.3 94.6Q620.6 94.8 620.8 95.2Q621.1 95.5 621.1 96.0L621.1 96.0Q621.1 96.6 620.7 97.1Q620.4 97.6 619.8 97.8Q619.3 98.1 618.4 98.1Z "/></g><mask id="satori_om-id-1-2"><rect x="127" y="120" width="606" height="1" fill="#fff" mask="url(#satori_om-id)"/></mask><rect x="127" y="120" width="606" height="1" fill="rgba(68,33,40,0.6)" clip-path="url(#satori_cp-id)" mask="url(#satori_om-id)"/><mask id="satori_om-id-1-3"><rect x="165" y="141" width="530" height="105" fill="#fff" mask="url(#satori_om-id)"/></mask><mask id="satori_om-id-1-3-0"><rect x="165" y="141" width="530" height="13" fill="#fff" mask="url(#satori_om-id)"/></mask><mask id="satori_om-id-1-3-0-0"><rect x="165" y="141" width="70" height="13" fill="#fff" mask="url(#satori_om-id)"/></mask><g mask="url(#satori_om-id)" clip-path="url(#satori_cp-id)"><path fill="rgba(153,145,137,0.8)" d="M168.0 144.9L165.5 144.9L165.5 144.0L171.6 144.0L171.6 144.9L169.1 144.9L169.1 152L168.0 152L168.0 144.9ZM173.9 154.2L173.9 154.2L174.1 153.3L174.2 153.4Q174.5 153.4 174.7 153.4Q175.0 153.4 175.2 153.2Q175.4 153.0 175.5 152.5L175.5 152.5L175.7 152.0L173.4 146.0L174.4 146.0L175.7 149.6Q175.9 150.1 176.1 150.7L176.1 150.7Q176.1 150.9 176.2 151.1L176.2 151.1Q176.2 150.9 176.3 150.7L176.3 150.7Q176.5 150.1 176.7 149.6L176.7 149.6L177.9 146.0L179.0 146.0L176.4 152.9Q176.2 153.4 175.9 153.7Q175.7 154.0 175.3 154.1Q175.0 154.3 174.6 154.3L174.6 154.3Q174.3 154.3 174.1 154.3Q173.9 154.2 173.9 154.2ZM182.1 154.2L181.1 154.2L181.1 146.0L182.1 146.0L182.1 147.0L182.2 147.0Q182.3 146.8 182.5 146.6Q182.6 146.3 183.0 146.1Q183.3 145.9 183.9 145.9L183.9 145.9Q184.7 145.9 185.2 146.3Q185.8 146.7 186.1 147.4Q186.5 148.1 186.5 149.0L186.5 149.0Q186.5 150.0 186.1 150.7Q185.8 151.4 185.2 151.7Q184.7 152.1 183.9 152.1L183.9 152.1Q183.3 152.1 183.0 151.9Q182.7 151.7 182.5 151.5Q182.3 151.2 182.2 151.1L182.2 151.1L182.1 151.1L182.1 154.2ZM183.8 151.3L183.8 151.3Q184.3 151.3 184.7 151.0Q185.1 150.7 185.3 150.1Q185.5 149.6 185.5 149.0L185.5 149.0Q185.5 148.4 185.3 147.9Q185.1 147.4 184.7 147.1Q184.3 146.8 183.8 146.8L183.8 146.8Q183.2 146.8 182.8 147.1Q182.5 147.3 182.3 147.8Q182.1 148.3 182.1 149.0L182.1 149.0Q182.1 149.7 182.3 150.2Q182.5 150.7 182.9 151.0Q183.2 151.3 183.8 151.3ZM191.4 152.1L191.4 152.1Q190.5 152.1 189.9 151.7Q189.3 151.4 188.9 150.7Q188.6 150.0 188.6 149.0Q188.6 148.1 188.9 147.4Q189.2 146.7 189.9 146.3Q190.5 145.9 191.3 145.9L191.3 145.9Q191.8 145.9 192.2 146.1Q192.7 146.2 193.1 146.6Q193.4 146.9 193.7 147.5Q193.9 148.1 193.9 148.9L193.9 148.9L193.9 149.3L189.6 149.3Q189.6 149.9 189.8 150.3L189.8 150.3Q190.0 150.8 190.4 151.0Q190.8 151.3 191.4 151.3L191.4 151.3Q191.8 151.3 192.0 151.2Q192.3 151.1 192.5 150.9Q192.8 150.7 192.9 150.3L192.9 150.3L193.8 150.6Q193.7 151.1 193.3 151.4Q193.0 151.7 192.5 151.9Q192.0 152.1 191.4 152.1ZM189.6 148.5L189.6 148.5L192.9 148.5Q192.9 148.1 192.7 147.8L192.7 147.8Q192.6 147.3 192.2 147.0Q191.8 146.8 191.3 146.8Q190.7 146.8 190.3 147.0Q190.0 147.3 189.8 147.7L189.8 147.7Q189.6 148.1 189.6 148.5ZM199.0 152.1L199.0 152.1Q198.1 152.1 197.5 151.9Q196.8 151.6 196.5 151.1Q196.1 150.6 196.1 149.9L196.1 149.9L197.1 149.9Q197.1 150.4 197.4 150.6Q197.7 150.9 198.1 151.1Q198.5 151.2 199.0 151.2L199.0 151.2Q199.5 151.2 199.9 151.0Q200.4 150.9 200.6 150.5Q200.9 150.2 200.9 149.8L200.9 149.8Q200.9 149.4 200.7 149.2Q200.4 148.9 200.1 148.8Q199.7 148.6 199.3 148.5L199.3 148.5L198.3 148.2Q197.4 148.0 196.8 147.4Q196.3 146.9 196.3 146.1L196.3 146.1Q196.3 145.5 196.6 145.0Q197.0 144.4 197.6 144.2Q198.3 143.9 199.0 143.9L199.0 143.9Q199.8 143.9 200.4 144.2Q201.0 144.4 201.4 144.9Q201.7 145.4 201.8 146.0L201.8 146.0L200.8 146.0Q200.7 145.4 200.2 145.1Q199.7 144.8 199.0 144.8L199.0 144.8Q198.5 144.8 198.1 145.0Q197.7 145.1 197.5 145.4Q197.3 145.7 197.3 146.1L197.3 146.1Q197.3 146.5 197.5 146.8Q197.8 147.0 198.2 147.2Q198.5 147.3 198.8 147.4L198.8 147.4L199.6 147.6Q199.9 147.7 200.3 147.8Q200.7 148.0 201.1 148.2Q201.4 148.5 201.6 148.9Q201.9 149.3 201.9 149.8L201.9 149.8Q201.9 150.5 201.5 151.0Q201.2 151.5 200.5 151.8Q199.9 152.1 199.0 152.1ZM206.8 152.1L206.8 152.1Q206.0 152.1 205.3 151.7Q204.7 151.4 204.4 150.7Q204.0 150.0 204.0 149.0L204.0 149.0Q204.0 148.1 204.4 147.4Q204.7 146.7 205.3 146.3Q206.0 145.9 206.8 145.9L206.8 145.9Q207.2 145.9 207.6 146.0Q208.0 146.1 208.3 146.4Q208.6 146.6 208.9 146.9Q209.1 147.2 209.2 147.6L209.2 147.6L208.3 147.8Q208.2 147.6 208.1 147.4Q208.0 147.2 207.8 147.1Q207.6 146.9 207.3 146.9Q207.1 146.8 206.8 146.8L206.8 146.8Q206.2 146.8 205.8 147.1Q205.4 147.4 205.2 147.9Q205.0 148.4 205.0 149.0L205.0 149.0Q205.0 149.6 205.2 150.1Q205.4 150.6 205.8 151.0Q206.2 151.3 206.8 151.3L206.8 151.3Q207.1 151.3 207.3 151.2Q207.6 151.1 207.8 151.0Q208.0 150.8 208.1 150.6Q208.2 150.4 208.3 150.2L208.3 150.2L209.2 150.4Q209.1 150.8 208.9 151.1Q208.7 151.5 208.3 151.7Q208.0 151.9 207.6 152.0Q207.2 152.1 206.8 152.1ZM212.6 152L211.6 152L211.6 146.0L212.6 146.0L212.6 146.9L212.6 146.9Q212.8 146.5 213.2 146.2Q213.6 145.9 214.2 145.9L214.2 145.9Q214.3 145.9 214.4 145.9Q214.6 145.9 214.7 145.9L214.7 145.9L214.7 146.9Q214.6 146.9 214.5 146.9Q214.3 146.8 214.1 146.8L214.1 146.8Q213.7 146.8 213.3 147.0Q213.0 147.2 212.8 147.5Q212.6 147.8 212.6 148.2L212.6 148.2L212.6 152ZM217.7 152L216.8 152L216.8 146.0L217.7 146.0L217.7 152ZM217.3 145.0L217.3 145.0Q217.0 145.0 216.8 144.8Q216.6 144.6 216.6 144.4L216.6 144.4Q216.6 144.1 216.8 143.9Q217.0 143.7 217.3 143.7L217.3 143.7Q217.5 143.7 217.7 143.9Q217.9 144.1 217.9 144.4L217.9 144.4Q217.9 144.6 217.7 144.8Q217.5 145.0 217.3 145.0ZM221.4 154.2L220.4 154.2L220.4 146.0L221.4 146.0L221.4 147.0L221.5 147.0Q221.6 146.8 221.8 146.6Q221.9 146.3 222.3 146.1Q222.6 145.9 223.2 145.9L223.2 145.9Q224.0 145.9 224.5 146.3Q225.1 146.7 225.4 147.4Q225.8 148.1 225.8 149.0L225.8 149.0Q225.8 150.0 225.4 150.7Q225.1 151.4 224.5 151.7Q224.0 152.1 223.2 152.1L223.2 152.1Q222.6 152.1 222.3 151.9Q221.9 151.7 221.8 151.5Q221.6 151.2 221.5 151.1L221.5 151.1L221.4 151.1L221.4 154.2ZM223.1 151.3L223.1 151.3Q223.6 151.3 224.0 151.0Q224.4 150.7 224.6 150.1Q224.8 149.6 224.8 149.0L224.8 149.0Q224.8 148.4 224.6 147.9Q224.4 147.4 224.0 147.1Q223.6 146.8 223.1 146.8L223.1 146.8Q222.5 146.8 222.1 147.1Q221.8 147.3 221.6 147.8Q221.4 148.3 221.4 149.0L221.4 149.0Q221.4 149.7 221.6 150.2Q221.8 150.7 222.1 151.0Q222.5 151.3 223.1 151.3ZM229.3 146.0L230.5 146.0L230.5 146.8L229.3 146.8L229.3 150.4Q229.3 150.8 229.5 151.0Q229.6 151.2 230.0 151.2L230.0 151.2Q230.1 151.2 230.2 151.2Q230.4 151.2 230.5 151.2L230.5 151.2L230.7 152.0Q230.5 152.0 230.4 152.0Q230.2 152.1 230.0 152.1L230.0 152.1Q229.2 152.1 228.8 151.7Q228.3 151.3 228.3 150.5L228.3 150.5L228.3 146.8L227.4 146.8L227.4 146.0L228.3 146.0L228.3 144.6L229.3 144.6L229.3 146.0Z "/></g><mask id="satori_om-id-1-3-0-1"><rect x="247" y="146" width="401" height="4" fill="#fff" mask="url(#satori_om-id)"/></mask><path x="247" y="146" width="401" height="4" fill="rgba(68,33,40,0.5)" d="M249,146 h397 a2,2 0 0 1 2,2 v0 a2,2 0 0 1 -2,2 h-397 a2,2 0 0 1 -2,-2 v0 a2,2 0 0 1 2,-2" clip-path="url(#satori_cp-id)" mask="url(#satori_om-id)"/><mask id="satori_om-id-1-3-0-1-0"><rect x="247" y="146" width="0" height="4" fill="#fff" mask="url(#satori_om-id)"/></mask><g opacity="0.7"><rect x="247" y="146" width="0" height="4" fill="#d99d87" clip-path="url(#satori_cp-id)" mask="url(#satori_om-id)"/></g><mask id="satori_om-id-1-3-0-2"><rect x="661" y="142" width="35" height="12" fill="#fff" mask="url(#satori_om-id)"/></mask><g mask="url(#satori_om-id)" clip-path="url(#satori_cp-id)"><path fill="rgba(123,98,97,0.7)" d="M682.2 152.1L682.2 152.1Q681.3 152.1 680.8 151.7Q680.2 151.2 679.9 150.4Q679.6 149.6 679.6 148.4L679.6 148.4Q679.6 147.2 679.9 146.4Q680.2 145.5 680.8 145.1Q681.3 144.6 682.2 144.6L682.2 144.6Q683.0 144.6 683.5 145.1Q684.1 145.5 684.4 146.4Q684.7 147.2 684.7 148.4L684.7 148.4Q684.7 149.5 684.4 150.4Q684.1 151.2 683.5 151.7Q683.0 152.1 682.2 152.1ZM682.2 151.3L682.2 151.3Q682.7 151.3 683.1 150.9Q683.4 150.6 683.6 149.9Q683.8 149.3 683.8 148.4L683.8 148.4Q683.8 147.4 683.6 146.8Q683.4 146.1 683.1 145.8Q682.7 145.4 682.2 145.4L682.2 145.4Q681.6 145.4 681.3 145.8Q680.9 146.1 680.7 146.8Q680.5 147.4 680.5 148.4L680.5 148.4Q680.5 149.3 680.7 149.9Q680.9 150.6 681.3 150.9Q681.6 151.3 682.2 151.3ZM687.9 147.9L687.9 147.9Q687.4 147.9 687.1 147.7Q686.8 147.5 686.6 147.2Q686.4 146.9 686.4 146.5L686.4 146.5L686.4 146.1Q686.4 145.7 686.6 145.3Q686.8 145.0 687.1 144.8Q687.4 144.6 687.9 144.6L687.9 144.6Q688.3 144.6 688.6 144.8Q689.0 145.0 689.1 145.3Q689.3 145.7 689.3 146.1L689.3 146.1L689.3 146.5Q689.3 146.9 689.1 147.2Q689.0 147.5 688.6 147.7Q688.3 147.9 687.9 147.9ZM687.9 147.3L687.9 147.3Q688.2 147.3 688.4 147.0Q688.5 146.8 688.5 146.5L688.5 146.5L688.5 146.1Q688.5 145.8 688.4 145.5Q688.2 145.2 687.9 145.2L687.9 145.2Q687.5 145.2 687.3 145.5Q687.2 145.8 687.2 146.1L687.2 146.1L687.2 146.5Q687.2 146.8 687.3 147.0Q687.5 147.3 687.9 147.3ZM692.6 152.1L692.6 152.1Q692.1 152.1 691.8 151.9Q691.5 151.7 691.3 151.4Q691.2 151.1 691.2 150.7L691.2 150.7L691.2 150.3Q691.2 149.9 691.3 149.5Q691.5 149.2 691.8 149.0Q692.1 148.8 692.6 148.8L692.6 148.8Q693.1 148.8 693.4 149.0Q693.7 149.2 693.8 149.5Q694.0 149.9 694.0 150.3L694.0 150.3L694.0 150.7Q694.0 151.1 693.8 151.4Q693.7 151.7 693.4 151.9Q693.0 152.1 692.6 152.1ZM692.6 151.5L692.6 151.5Q693.0 151.5 693.1 151.2Q693.3 151.0 693.3 150.7L693.3 150.7L693.3 150.3Q693.3 150.0 693.1 149.7Q693.0 149.4 692.6 149.4L692.6 149.4Q692.2 149.4 692.1 149.7Q691.9 150.0 691.9 150.3L691.9 150.3L691.9 150.7Q691.9 151.0 692.1 151.2Q692.2 151.5 692.6 151.5ZM688.1 152L687.3 152L692.3 144.7L693.1 144.7L688.1 152Z "/></g><mask id="satori_om-id-1-3-1"><rect x="165" y="164" width="530" height="13" fill="#fff" mask="url(#satori_om-id)"/></mask><mask id="satori_om-id-1-3-1-0"><rect x="165" y="164" width="70" height="13" fill="#fff" mask="url(#satori_om-id)"/></mask><g mask="url(#satori_om-id)" clip-path="url(#satori_cp-id)"><path fill="rgba(153,145,137,0.8)" d="M167.9 175.1L167.9 175.1Q166.9 175.1 166.2 174.5Q165.5 173.9 165.5 172.7L165.5 172.7L165.5 172.3L166.6 172.3L166.6 172.7Q166.6 173.4 166.9 173.8Q167.3 174.2 167.9 174.2L167.9 174.2Q168.5 174.2 168.9 173.8Q169.3 173.4 169.3 172.7L169.3 172.7L169.3 167.0L170.3 167.0L170.3 172.7Q170.3 173.9 169.6 174.5Q169.0 175.1 167.9 175.1ZM174.8 175.1L174.8 175.1Q174.2 175.1 173.8 174.9Q173.3 174.7 173.0 174.3Q172.8 173.9 172.8 173.3L172.8 173.3Q172.8 172.8 173.0 172.5Q173.2 172.1 173.5 171.9Q173.9 171.8 174.3 171.7Q174.7 171.6 175.1 171.5L175.1 171.5Q175.6 171.5 176.0 171.4Q176.3 171.4 176.5 171.3Q176.6 171.2 176.6 171.0L176.6 171.0L176.6 170.9Q176.6 170.6 176.5 170.3Q176.4 170.0 176.1 169.9Q175.8 169.8 175.4 169.8L175.4 169.8Q175.0 169.8 174.6 169.9Q174.3 170.0 174.2 170.2Q174.0 170.4 173.9 170.6L173.9 170.6L172.9 170.3Q173.2 169.8 173.6 169.5Q173.9 169.2 174.4 169.0Q174.9 168.9 175.4 168.9L175.4 168.9Q175.7 168.9 176.0 169.0Q176.4 169.1 176.8 169.3Q177.1 169.5 177.4 169.9Q177.6 170.3 177.6 171.0L177.6 171.0L177.6 175L176.7 175L176.7 174.2L176.6 174.2Q176.5 174.4 176.3 174.6Q176.0 174.8 175.7 175.0Q175.3 175.1 174.8 175.1ZM175.0 174.3L175.0 174.3Q175.5 174.3 175.9 174.1Q176.3 173.9 176.4 173.5Q176.6 173.2 176.6 172.8L176.6 172.8L176.6 172.0Q176.6 172.1 176.4 172.1Q176.2 172.2 175.9 172.2Q175.7 172.3 175.4 172.3Q175.2 172.3 175.1 172.3L175.1 172.3Q174.7 172.4 174.4 172.5Q174.1 172.6 173.9 172.8Q173.7 173.0 173.7 173.3L173.7 173.3Q173.7 173.7 173.9 173.9Q174.1 174.1 174.3 174.2Q174.6 174.3 175.0 174.3ZM183.1 175L182.0 175L179.7 169.0L180.8 169.0L182.1 172.6Q182.3 173.1 182.4 173.7L182.4 173.7Q182.5 173.9 182.5 174.1L182.5 174.1Q182.6 173.9 182.7 173.7L182.7 173.7Q182.8 173.1 183.0 172.6L183.0 172.6L184.3 169.0L185.3 169.0L183.1 175ZM189.2 175.1L189.2 175.1Q188.6 175.1 188.1 174.9Q187.7 174.7 187.4 174.3Q187.1 173.9 187.1 173.3L187.1 173.3Q187.1 172.8 187.3 172.5Q187.5 172.1 187.9 171.9Q188.2 171.8 188.6 171.7Q189.0 171.6 189.5 171.5L189.5 171.5Q190.0 171.5 190.3 171.4Q190.7 171.4 190.8 171.3Q191.0 171.2 191.0 171.0L191.0 171.0L191.0 170.9Q191.0 170.6 190.9 170.3Q190.7 170.0 190.4 169.9Q190.2 169.8 189.7 169.8L189.7 169.8Q189.3 169.8 189.0 169.9Q188.7 170.0 188.5 170.2Q188.3 170.4 188.2 170.6L188.2 170.6L187.3 170.3Q187.5 169.8 187.9 169.5Q188.3 169.2 188.8 169.0Q189.3 168.9 189.7 168.9L189.7 168.9Q190.0 168.9 190.4 169.0Q190.8 169.1 191.1 169.3Q191.5 169.5 191.7 169.9Q192.0 170.3 192.0 171.0L192.0 171.0L192.0 175L191.0 175L191.0 174.2L191.0 174.2Q190.8 174.4 190.6 174.6Q190.4 174.8 190.0 175.0Q189.7 175.1 189.2 175.1ZM189.3 174.3L189.3 174.3Q189.9 174.3 190.2 174.1Q190.6 173.9 190.8 173.5Q191.0 173.2 191.0 172.8L191.0 172.8L191.0 172.0Q190.9 172.1 190.7 172.1Q190.5 172.2 190.3 172.2Q190.0 172.3 189.8 172.3Q189.6 172.3 189.4 172.3L189.4 172.3Q189.1 172.4 188.8 172.5Q188.5 172.6 188.3 172.8Q188.1 173.0 188.1 173.3L188.1 173.3Q188.1 173.7 188.3 173.9Q188.4 174.1 188.7 174.2Q189.0 174.3 189.3 174.3ZM197.3 175.1L197.3 175.1Q196.5 175.1 195.8 174.9Q195.2 174.6 194.8 174.1Q194.5 173.6 194.4 172.9L194.4 172.9L195.5 172.9Q195.5 173.4 195.8 173.6Q196.1 173.9 196.5 174.1Q196.9 174.2 197.3 174.2L197.3 174.2Q197.9 174.2 198.3 174.0Q198.8 173.9 199.0 173.5Q199.3 173.2 199.3 172.8L199.3 172.8Q199.3 172.4 199.0 172.2Q198.8 171.9 198.5 171.8Q198.1 171.6 197.7 171.5L197.7 171.5L196.7 171.2Q195.7 171.0 195.2 170.4Q194.7 169.9 194.7 169.1L194.7 169.1Q194.7 168.5 195.0 168.0Q195.4 167.4 196.0 167.2Q196.6 166.9 197.4 166.9L197.4 166.9Q198.2 166.9 198.8 167.2Q199.4 167.4 199.8 167.9Q200.1 168.4 200.1 169.0L200.1 169.0L199.1 169.0Q199.1 168.4 198.6 168.1Q198.1 167.8 197.4 167.8L197.4 167.8Q196.9 167.8 196.5 168.0Q196.1 168.1 195.9 168.4Q195.7 168.7 195.7 169.1L195.7 169.1Q195.7 169.5 195.9 169.8Q196.2 170.0 196.5 170.2Q196.9 170.3 197.2 170.4L197.2 170.4L198.0 170.6Q198.3 170.7 198.7 170.8Q199.1 171.0 199.4 171.2Q199.8 171.5 200.0 171.9Q200.2 172.3 200.2 172.8L200.2 172.8Q200.2 173.5 199.9 174.0Q199.6 174.5 198.9 174.8Q198.3 175.1 197.3 175.1ZM205.2 175.1L205.2 175.1Q204.3 175.1 203.7 174.7Q203.1 174.4 202.8 173.7Q202.4 173.0 202.4 172.0L202.4 172.0Q202.4 171.1 202.8 170.4Q203.1 169.7 203.7 169.3Q204.3 168.9 205.2 168.9L205.2 168.9Q205.6 168.9 206.0 169.0Q206.4 169.1 206.7 169.4Q207.0 169.6 207.2 169.9Q207.5 170.2 207.6 170.6L207.6 170.6L206.7 170.8Q206.6 170.6 206.5 170.4Q206.3 170.2 206.1 170.1Q206.0 169.9 205.7 169.9Q205.5 169.8 205.2 169.8L205.2 169.8Q204.6 169.8 204.2 170.1Q203.8 170.4 203.6 170.9Q203.4 171.4 203.4 172.0L203.4 172.0Q203.4 172.6 203.6 173.1Q203.8 173.6 204.2 174.0Q204.6 174.3 205.2 174.3L205.2 174.3Q205.5 174.3 205.7 174.2Q206.0 174.1 206.2 174.0Q206.4 173.8 206.5 173.6Q206.6 173.4 206.7 173.2L206.7 173.2L207.6 173.4Q207.5 173.8 207.3 174.1Q207.0 174.5 206.7 174.7Q206.4 174.9 206.0 175.0Q205.6 175.1 205.2 175.1ZM211.0 175L210.0 175L210.0 169.0L210.9 169.0L210.9 169.9L211.0 169.9Q211.2 169.5 211.6 169.2Q212.0 168.9 212.6 168.9L212.6 168.9Q212.7 168.9 212.8 168.9Q213.0 168.9 213.1 168.9L213.1 168.9L213.1 169.9Q213.0 169.9 212.8 169.9Q212.7 169.8 212.5 169.8L212.5 169.8Q212.0 169.8 211.7 170.0Q211.4 170.2 211.2 170.5Q211.0 170.8 211.0 171.2L211.0 171.2L211.0 175ZM216.1 175L215.1 175L215.1 169.0L216.1 169.0L216.1 175ZM215.6 168.0L215.6 168.0Q215.4 168.0 215.2 167.8Q215.0 167.6 215.0 167.4L215.0 167.4Q215.0 167.1 215.2 166.9Q215.4 166.7 215.6 166.7L215.6 166.7Q215.9 166.7 216.1 166.9Q216.3 167.1 216.3 167.4L216.3 167.4Q216.3 167.6 216.1 167.8Q215.9 168.0 215.6 168.0ZM219.8 177.2L218.8 177.2L218.8 169.0L219.7 169.0L219.7 170.0L219.9 170.0Q220.0 169.8 220.1 169.6Q220.3 169.3 220.7 169.1Q221.0 168.9 221.6 168.9L221.6 168.9Q222.3 168.9 222.9 169.3Q223.5 169.7 223.8 170.4Q224.1 171.1 224.1 172.0L224.1 172.0Q224.1 173.0 223.8 173.7Q223.5 174.4 222.9 174.7Q222.3 175.1 221.6 175.1L221.6 175.1Q221.0 175.1 220.7 174.9Q220.3 174.7 220.1 174.5Q220.0 174.2 219.9 174.1L219.9 174.1L219.8 174.1L219.8 177.2ZM221.5 174.3L221.5 174.3Q222.0 174.3 222.4 174.0Q222.8 173.7 223.0 173.1Q223.2 172.6 223.2 172.0L223.2 172.0Q223.2 171.4 223.0 170.9Q222.8 170.4 222.4 170.1Q222.0 169.8 221.5 169.8L221.5 169.8Q220.9 169.8 220.5 170.1Q220.1 170.3 220.0 170.8Q219.8 171.3 219.8 172.0L219.8 172.0Q219.8 172.7 220.0 173.2Q220.2 173.7 220.5 174.0Q220.9 174.3 221.5 174.3ZM227.7 169.0L228.9 169.0L228.9 169.8L227.7 169.8L227.7 173.4Q227.7 173.8 227.8 174.0Q228.0 174.2 228.4 174.2L228.4 174.2Q228.5 174.2 228.6 174.2Q228.8 174.2 228.9 174.2L228.9 174.2L229.1 175.0Q228.9 175.0 228.7 175.0Q228.5 175.1 228.4 175.1L228.4 175.1Q227.6 175.1 227.1 174.7Q226.7 174.3 226.7 173.5L226.7 173.5L226.7 169.8L225.8 169.8L225.8 169.0L226.7 169.0L226.7 167.6L227.7 167.6L227.7 169.0Z "/></g><mask id="satori_om-id-1-3-1-1"><rect x="247" y="169" width="401" height="4" fill="#fff" mask="url(#satori_om-id)"/></mask><path x="247" y="169" width="401" height="4" fill="rgba(68,33,40,0.5)" d="M249,169 h397 a2,2 0 0 1 2,2 v0 a2,2 0 0 1 -2,2 h-397 a2,2 0 0 1 -2,-2 v0 a2,2 0 0 1 2,-2" clip-path="url(#satori_cp-id)" mask="url(#satori_om-id)"/><mask id="satori_om-id-1-3-1-1-0"><rect x="247" y="169" width="0" height="4" fill="#fff" mask="url(#satori_om-id)"/></mask><g opacity="0.7"><rect x="247" y="169" width="0" height="4" fill="#d99d87" clip-path="url(#satori_cp-id)" mask="url(#satori_om-id)"/></g><mask id="satori_om-id-1-3-1-2"><rect x="661" y="165" width="35" height="12" fill="#fff" mask="url(#satori_om-id)"/></mask><g mask="url(#satori_om-id)" clip-path="url(#satori_cp-id)"><path fill="rgba(123,98,97,0.7)" d="M682.2 175.1L682.2 175.1Q681.3 175.1 680.8 174.7Q680.2 174.2 679.9 173.4Q679.6 172.6 679.6 171.4L679.6 171.4Q679.6 170.2 679.9 169.4Q680.2 168.5 680.8 168.1Q681.3 167.6 682.2 167.6L682.2 167.6Q683.0 167.6 683.5 168.1Q684.1 168.5 684.4 169.4Q684.7 170.2 684.7 171.4L684.7 171.4Q684.7 172.5 684.4 173.4Q684.1 174.2 683.5 174.7Q683.0 175.1 682.2 175.1ZM682.2 174.3L682.2 174.3Q682.7 174.3 683.1 173.9Q683.4 173.6 683.6 172.9Q683.8 172.3 683.8 171.4L683.8 171.4Q683.8 170.4 683.6 169.8Q683.4 169.1 683.1 168.8Q682.7 168.4 682.2 168.4L682.2 168.4Q681.6 168.4 681.3 168.8Q680.9 169.1 680.7 169.8Q680.5 170.4 680.5 171.4L680.5 171.4Q680.5 172.3 680.7 172.9Q680.9 173.6 681.3 173.9Q681.6 174.3 682.2 174.3ZM687.9 170.9L687.9 170.9Q687.4 170.9 687.1 170.7Q686.8 170.5 686.6 170.2Q686.4 169.9 686.4 169.5L686.4 169.5L686.4 169.1Q686.4 168.7 686.6 168.3Q686.8 168.0 687.1 167.8Q687.4 167.6 687.9 167.6L687.9 167.6Q688.3 167.6 688.6 167.8Q689.0 168.0 689.1 168.3Q689.3 168.7 689.3 169.1L689.3 169.1L689.3 169.5Q689.3 169.9 689.1 170.2Q689.0 170.5 688.6 170.7Q688.3 170.9 687.9 170.9ZM687.9 170.3L687.9 170.3Q688.2 170.3 688.4 170.0Q688.5 169.8 688.5 169.5L688.5 169.5L688.5 169.1Q688.5 168.8 688.4 168.5Q688.2 168.2 687.9 168.2L687.9 168.2Q687.5 168.2 687.3 168.5Q687.2 168.8 687.2 169.1L687.2 169.1L687.2 169.5Q687.2 169.8 687.3 170.0Q687.5 170.3 687.9 170.3ZM692.6 175.1L692.6 175.1Q692.1 175.1 691.8 174.9Q691.5 174.7 691.3 174.4Q691.2 174.1 691.2 173.7L691.2 173.7L691.2 173.3Q691.2 172.9 691.3 172.5Q691.5 172.2 691.8 172.0Q692.1 171.8 692.6 171.8L692.6 171.8Q693.1 171.8 693.4 172.0Q693.7 172.2 693.8 172.5Q694.0 172.9 694.0 173.3L694.0 173.3L694.0 173.7Q694.0 174.1 693.8 174.4Q693.7 174.7 693.4 174.9Q693.0 175.1 692.6 175.1ZM692.6 174.5L692.6 174.5Q693.0 174.5 693.1 174.2Q693.3 174.0 693.3 173.7L693.3 173.7L693.3 173.3Q693.3 173.0 693.1 172.7Q693.0 172.4 692.6 172.4L692.6 172.4Q692.2 172.4 692.1 172.7Q691.9 173.0 691.9 173.3L691.9 173.3L691.9 173.7Q691.9 174.0 692.1 174.2Q692.2 174.5 692.6 174.5ZM688.1 175L687.3 175L692.3 167.7L693.1 167.7L688.1 175Z "/></g><mask id="satori_om-id-1-3-2"><rect x="165" y="187" width="530" height="13" fill="#fff" mask="url(#satori_om-id)"/></mask><mask id="satori_om-id-1-3-2-0"><rect x="165" y="187" width="70" height="13" fill="#fff" mask="url(#satori_om-id)"/></mask><g mask="url(#satori_om-id)" clip-path="url(#satori_cp-id)"><path fill="rgba(153,145,137,0.8)" d="M167.0 198L166.0 198L166.0 190.0L168.7 190.0Q169.6 190.0 170.2 190.3Q170.8 190.7 171.1 191.3Q171.4 191.8 171.4 192.5Q171.4 193.3 171.1 193.8Q170.8 194.4 170.2 194.8Q169.6 195.1 168.7 195.1L168.7 195.1L167.0 195.1L167.0 198ZM167.0 190.9L167.0 194.2L168.7 194.2Q169.3 194.2 169.7 194.0Q170.1 193.8 170.2 193.4Q170.4 193.0 170.4 192.5Q170.4 192.1 170.2 191.7Q170.1 191.3 169.7 191.1Q169.3 190.9 168.7 190.9L168.7 190.9L167.0 190.9ZM173.8 200.2L173.8 200.2L174.0 199.3L174.1 199.4Q174.4 199.4 174.7 199.4Q174.9 199.4 175.1 199.2Q175.3 199.0 175.4 198.5L175.4 198.5L175.6 198.0L173.3 192.0L174.4 192.0L175.7 195.6Q175.9 196.1 176.0 196.7L176.0 196.7Q176.1 196.9 176.1 197.1L176.1 197.1Q176.2 196.9 176.2 196.7L176.2 196.7Q176.4 196.1 176.6 195.6L176.6 195.6L177.9 192.0L178.9 192.0L176.3 198.9Q176.1 199.4 175.8 199.7Q175.6 200.0 175.2 200.1Q174.9 200.3 174.5 200.3L174.5 200.3Q174.2 200.3 174.0 200.3Q173.9 200.2 173.8 200.2ZM182.2 192.0L183.4 192.0L183.4 192.8L182.2 192.8L182.2 196.4Q182.2 196.8 182.3 197.0Q182.5 197.2 182.9 197.2L182.9 197.2Q183.0 197.2 183.1 197.2Q183.3 197.2 183.4 197.2L183.4 197.2L183.6 198.0Q183.4 198.0 183.2 198.0Q183.1 198.1 182.9 198.1L182.9 198.1Q182.1 198.1 181.7 197.7Q181.2 197.3 181.2 196.5L181.2 196.5L181.2 192.8L180.3 192.8L180.3 192.0L181.2 192.0L181.2 190.6L182.2 190.6L182.2 192.0ZM186.6 194.4L186.6 194.4L186.6 198L185.7 198L185.7 190.0L186.6 190.0L186.6 193.0Q186.9 192.5 187.2 192.3L187.2 192.3Q187.7 191.9 188.4 191.9L188.4 191.9Q189.0 191.9 189.5 192.2Q190.0 192.4 190.2 192.9Q190.5 193.4 190.5 194.2L190.5 194.2L190.5 198L189.5 198L189.5 194.3Q189.5 193.6 189.1 193.2Q188.8 192.8 188.1 192.8L188.1 192.8Q187.7 192.8 187.4 193.0Q187.0 193.2 186.8 193.5Q186.6 193.9 186.6 194.4ZM195.6 198.1L195.6 198.1Q194.8 198.1 194.2 197.7Q193.6 197.4 193.2 196.7Q192.9 196.0 192.9 195.0L192.9 195.0Q192.9 194.1 193.2 193.4Q193.6 192.7 194.2 192.3Q194.8 191.9 195.6 191.9L195.6 191.9Q196.4 191.9 197.0 192.3Q197.7 192.7 198.0 193.4Q198.3 194.1 198.3 195.0L198.3 195.0Q198.3 196.0 198.0 196.7Q197.7 197.4 197.0 197.7Q196.4 198.1 195.6 198.1ZM195.6 197.3L195.6 197.3Q196.2 197.3 196.6 197.0Q197.0 196.6 197.2 196.1Q197.4 195.6 197.4 195.0L197.4 195.0Q197.4 194.4 197.2 193.9Q197.0 193.4 196.6 193.1Q196.2 192.8 195.6 192.8L195.6 192.8Q195.0 192.8 194.6 193.1Q194.2 193.4 194.0 193.9Q193.9 194.4 193.9 195.0L193.9 195.0Q193.9 195.6 194.0 196.1Q194.2 196.6 194.6 197.0Q195.0 197.3 195.6 197.3ZM201.7 194.4L201.7 194.4L201.7 198L200.8 198L200.8 192.0L201.7 192.0L201.7 193.1Q201.9 192.5 202.3 192.3L202.3 192.3Q202.8 191.9 203.5 191.9L203.5 191.9Q204.1 191.9 204.6 192.2Q205.0 192.4 205.3 192.9Q205.6 193.4 205.6 194.2L205.6 194.2L205.6 198L204.6 198L204.6 194.3Q204.6 193.6 204.2 193.2Q203.9 192.8 203.2 192.8L203.2 192.8Q202.8 192.8 202.5 193.0Q202.1 193.2 201.9 193.5Q201.7 193.9 201.7 194.4Z "/></g><mask id="satori_om-id-1-3-2-1"><rect x="247" y="192" width="401" height="4" fill="#fff" mask="url(#satori_om-id)"/></mask><path x="247" y="192" width="401" height="4" fill="rgba(68,33,40,0.5)" d="M249,192 h397 a2,2 0 0 1 2,2 v0 a2,2 0 0 1 -2,2 h-397 a2,2 0 0 1 -2,-2 v0 a2,2 0 0 1 2,-2" clip-path="url(#satori_cp-id)" mask="url(#satori_om-id)"/><mask id="satori_om-id-1-3-2-1-0"><rect x="247" y="192" width="0" height="4" fill="#fff" mask="url(#satori_om-id)"/></mask><g opacity="0.7"><rect x="247" y="192" width="0" height="4" fill="#d99d87" clip-path="url(#satori_cp-id)" mask="url(#satori_om-id)"/></g><mask id="satori_om-id-1-3-2-2"><rect x="661" y="188" width="35" height="12" fill="#fff" mask="url(#satori_om-id)"/></mask><g mask="url(#satori_om-id)" clip-path="url(#satori_cp-id)"><path fill="rgba(123,98,97,0.7)" d="M682.2 198.1L682.2 198.1Q681.3 198.1 680.8 197.7Q680.2 197.2 679.9 196.4Q679.6 195.6 679.6 194.4L679.6 194.4Q679.6 193.2 679.9 192.4Q680.2 191.5 680.8 191.1Q681.3 190.6 682.2 190.6L682.2 190.6Q683.0 190.6 683.5 191.1Q684.1 191.5 684.4 192.4Q684.7 193.2 684.7 194.4L684.7 194.4Q684.7 195.5 684.4 196.4Q684.1 197.2 683.5 197.7Q683.0 198.1 682.2 198.1ZM682.2 197.3L682.2 197.3Q682.7 197.3 683.1 196.9Q683.4 196.6 683.6 195.9Q683.8 195.3 683.8 194.4L683.8 194.4Q683.8 193.4 683.6 192.8Q683.4 192.1 683.1 191.8Q682.7 191.4 682.2 191.4L682.2 191.4Q681.6 191.4 681.3 191.8Q680.9 192.1 680.7 192.8Q680.5 193.4 680.5 194.4L680.5 194.4Q680.5 195.3 680.7 195.9Q680.9 196.6 681.3 196.9Q681.6 197.3 682.2 197.3ZM687.9 193.9L687.9 193.9Q687.4 193.9 687.1 193.7Q686.8 193.5 686.6 193.2Q686.4 192.9 686.4 192.5L686.4 192.5L686.4 192.1Q686.4 191.7 686.6 191.3Q686.8 191.0 687.1 190.8Q687.4 190.6 687.9 190.6L687.9 190.6Q688.3 190.6 688.6 190.8Q689.0 191.0 689.1 191.3Q689.3 191.7 689.3 192.1L689.3 192.1L689.3 192.5Q689.3 192.9 689.1 193.2Q689.0 193.5 688.6 193.7Q688.3 193.9 687.9 193.9ZM687.9 193.3L687.9 193.3Q688.2 193.3 688.4 193.0Q688.5 192.8 688.5 192.5L688.5 192.5L688.5 192.1Q688.5 191.8 688.4 191.5Q688.2 191.2 687.9 191.2L687.9 191.2Q687.5 191.2 687.3 191.5Q687.2 191.8 687.2 192.1L687.2 192.1L687.2 192.5Q687.2 192.8 687.3 193.0Q687.5 193.3 687.9 193.3ZM692.6 198.1L692.6 198.1Q692.1 198.1 691.8 197.9Q691.5 197.7 691.3 197.4Q691.2 197.1 691.2 196.7L691.2 196.7L691.2 196.3Q691.2 195.9 691.3 195.5Q691.5 195.2 691.8 195.0Q692.1 194.8 692.6 194.8L692.6 194.8Q693.1 194.8 693.4 195.0Q693.7 195.2 693.8 195.5Q694.0 195.9 694.0 196.3L694.0 196.3L694.0 196.7Q694.0 197.1 693.8 197.4Q693.7 197.7 693.4 197.9Q693.0 198.1 692.6 198.1ZM692.6 197.5L692.6 197.5Q693.0 197.5 693.1 197.2Q693.3 197.0 693.3 196.7L693.3 196.7L693.3 196.3Q693.3 196.0 693.1 195.7Q693.0 195.4 692.6 195.4L692.6 195.4Q692.2 195.4 692.1 195.7Q691.9 196.0 691.9 196.3L691.9 196.3L691.9 196.7Q691.9 197.0 692.1 197.2Q692.2 197.5 692.6 197.5ZM688.1 198L687.3 198L692.3 190.7L693.1 190.7L688.1 198Z "/></g><mask id="satori_om-id-1-3-3"><rect x="165" y="210" width="530" height="13" fill="#fff" mask="url(#satori_om-id)"/></mask><mask id="satori_om-id-1-3-3-0"><rect x="165" y="210" width="70" height="13" fill="#fff" mask="url(#satori_om-id)"/></mask><g mask="url(#satori_om-id)" clip-path="url(#satori_cp-id)"><path fill="rgba(153,145,137,0.8)" d="M167.0 221L166.0 221L166.0 213.0L168.7 213.0Q169.6 213.0 170.2 213.3Q170.8 213.6 171.1 214.2Q171.4 214.8 171.4 215.5Q171.4 216.2 171.1 216.7Q170.8 217.3 170.2 217.6L170.2 217.6Q170.1 217.7 170.0 217.7L170.0 217.7L171.7 221L170.6 221L168.9 217.9Q168.8 217.9 168.7 217.9L168.7 217.9L167.0 217.9L167.0 221ZM167.0 213.9L167.0 217.0L168.7 217.0Q169.3 217.0 169.7 216.8Q170.1 216.6 170.2 216.3Q170.4 215.9 170.4 215.5L170.4 215.5Q170.4 215.0 170.2 214.6Q170.1 214.3 169.7 214.1Q169.3 213.9 168.7 213.9L168.7 213.9L167.0 213.9ZM176.0 221.1L176.0 221.1Q175.4 221.1 174.9 220.8Q174.4 220.6 174.2 220.1Q173.9 219.6 173.9 218.8L173.9 218.8L173.9 215.0L174.9 215.0L174.9 218.7Q174.9 219.4 175.3 219.8Q175.6 220.2 176.3 220.2L176.3 220.2Q176.7 220.2 177.0 220.0Q177.4 219.8 177.6 219.5Q177.8 219.1 177.8 218.6L177.8 218.6L177.8 215.0L178.7 215.0L178.7 221L177.8 221L177.8 219.9Q177.5 220.5 177.1 220.7L177.1 220.7Q176.6 221.1 176.0 221.1ZM183.5 221.1L183.5 221.1Q182.9 221.1 182.4 220.9Q181.9 220.8 181.6 220.4Q181.3 220.1 181.2 219.5L181.2 219.5L182.1 219.3Q182.2 219.8 182.6 220.0Q182.9 220.3 183.5 220.3L183.5 220.3Q184.1 220.3 184.5 220.0Q184.8 219.7 184.8 219.4L184.8 219.4Q184.8 219.1 184.6 218.9Q184.4 218.6 184.0 218.5L184.0 218.5L183.0 218.3Q182.1 218.1 181.7 217.7Q181.3 217.3 181.3 216.7L181.3 216.7Q181.3 216.2 181.6 215.8Q181.9 215.4 182.4 215.1Q182.9 214.9 183.6 214.9L183.6 214.9Q184.2 214.9 184.6 215.1Q185.1 215.3 185.3 215.6Q185.6 215.9 185.7 216.4L185.7 216.4L184.9 216.6Q184.7 216.3 184.4 216.0Q184.2 215.7 183.6 215.7L183.6 215.7Q183.0 215.7 182.7 216.0Q182.3 216.2 182.3 216.6L182.3 216.6Q182.3 216.9 182.6 217.1Q182.8 217.3 183.3 217.5L183.3 217.5L184.2 217.7Q185.1 217.9 185.4 218.3Q185.8 218.7 185.8 219.3L185.8 219.3Q185.8 219.8 185.5 220.2Q185.2 220.7 184.7 220.9Q184.2 221.1 183.5 221.1ZM189.4 215.0L190.6 215.0L190.6 215.8L189.4 215.8L189.4 219.4Q189.4 219.8 189.5 220.0Q189.7 220.2 190.1 220.2L190.1 220.2Q190.2 220.2 190.3 220.2Q190.5 220.2 190.6 220.2L190.6 220.2L190.8 221.0Q190.6 221.0 190.4 221.0Q190.2 221.1 190.0 221.1L190.0 221.1Q189.3 221.1 188.8 220.7Q188.4 220.3 188.4 219.5L188.4 219.5L188.4 215.8L187.5 215.8L187.5 215.0L188.4 215.0L188.4 213.6L189.4 213.6L189.4 215.0Z "/></g><mask id="satori_om-id-1-3-3-1"><rect x="247" y="215" width="401" height="4" fill="#fff" mask="url(#satori_om-id)"/></mask><path x="247" y="215" width="401" height="4" fill="rgba(68,33,40,0.5)" d="M249,215 h397 a2,2 0 0 1 2,2 v0 a2,2 0 0 1 -2,2 h-397 a2,2 0 0 1 -2,-2 v0 a2,2 0 0 1 2,-2" clip-path="url(#satori_cp-id)" mask="url(#satori_om-id)"/><mask id="satori_om-id-1-3-3-1-0"><rect x="247" y="215" width="0" height="4" fill="#fff" mask="url(#satori_om-id)"/></mask><g opacity="0.7"><rect x="247" y="215" width="0" height="4" fill="#d99d87" clip-path="url(#satori_cp-id)" mask="url(#satori_om-id)"/></g><mask id="satori_om-id-1-3-3-2"><rect x="661" y="211" width="35" height="12" fill="#fff" mask="url(#satori_om-id)"/></mask><g mask="url(#satori_om-id)" clip-path="url(#satori_cp-id)"><path fill="rgba(123,98,97,0.7)" d="M682.2 221.1L682.2 221.1Q681.3 221.1 680.8 220.7Q680.2 220.2 679.9 219.4Q679.6 218.6 679.6 217.4L679.6 217.4Q679.6 216.2 679.9 215.4Q680.2 214.5 680.8 214.1Q681.3 213.6 682.2 213.6L682.2 213.6Q683.0 213.6 683.5 214.1Q684.1 214.5 684.4 215.4Q684.7 216.2 684.7 217.4L684.7 217.4Q684.7 218.5 684.4 219.4Q684.1 220.2 683.5 220.7Q683.0 221.1 682.2 221.1ZM682.2 220.3L682.2 220.3Q682.7 220.3 683.1 219.9Q683.4 219.6 683.6 218.9Q683.8 218.3 683.8 217.4L683.8 217.4Q683.8 216.4 683.6 215.8Q683.4 215.1 683.1 214.8Q682.7 214.4 682.2 214.4L682.2 214.4Q681.6 214.4 681.3 214.8Q680.9 215.1 680.7 215.8Q680.5 216.4 680.5 217.4L680.5 217.4Q680.5 218.3 680.7 218.9Q680.9 219.6 681.3 219.9Q681.6 220.3 682.2 220.3ZM687.9 216.9L687.9 216.9Q687.4 216.9 687.1 216.7Q686.8 216.5 686.6 216.2Q686.4 215.9 686.4 215.5L686.4 215.5L686.4 215.1Q686.4 214.7 686.6 214.3Q686.8 214.0 687.1 213.8Q687.4 213.6 687.9 213.6L687.9 213.6Q688.3 213.6 688.6 213.8Q689.0 214.0 689.1 214.3Q689.3 214.7 689.3 215.1L689.3 215.1L689.3 215.5Q689.3 215.9 689.1 216.2Q689.0 216.5 688.6 216.7Q688.3 216.9 687.9 216.9ZM687.9 216.3L687.9 216.3Q688.2 216.3 688.4 216.0Q688.5 215.8 688.5 215.5L688.5 215.5L688.5 215.1Q688.5 214.8 688.4 214.5Q688.2 214.2 687.9 214.2L687.9 214.2Q687.5 214.2 687.3 214.5Q687.2 214.8 687.2 215.1L687.2 215.1L687.2 215.5Q687.2 215.8 687.3 216.0Q687.5 216.3 687.9 216.3ZM692.6 221.1L692.6 221.1Q692.1 221.1 691.8 220.9Q691.5 220.7 691.3 220.4Q691.2 220.1 691.2 219.7L691.2 219.7L691.2 219.3Q691.2 218.9 691.3 218.5Q691.5 218.2 691.8 218.0Q692.1 217.8 692.6 217.8L692.6 217.8Q693.1 217.8 693.4 218.0Q693.7 218.2 693.8 218.5Q694.0 218.9 694.0 219.3L694.0 219.3L694.0 219.7Q694.0 220.1 693.8 220.4Q693.7 220.7 693.4 220.9Q693.0 221.1 692.6 221.1ZM692.6 220.5L692.6 220.5Q693.0 220.5 693.1 220.2Q693.3 220.0 693.3 219.7L693.3 219.7L693.3 219.3Q693.3 219.0 693.1 218.7Q693.0 218.4 692.6 218.4L692.6 218.4Q692.2 218.4 692.1 218.7Q691.9 219.0 691.9 219.3L691.9 219.3L691.9 219.7Q691.9 220.0 692.1 220.2Q692.2 220.5 692.6 220.5ZM688.1 221L687.3 221L692.3 213.7L693.1 213.7L688.1 221Z "/></g><mask id="satori_om-id-1-3-4"><rect x="165" y="233" width="530" height="13" fill="#fff" mask="url(#satori_om-id)"/></mask><mask id="satori_om-id-1-3-4-0"><rect x="165" y="233" width="70" height="13" fill="#fff" mask="url(#satori_om-id)"/></mask><g mask="url(#satori_om-id)" clip-path="url(#satori_cp-id)"><path fill="rgba(153,145,137,0.8)" d="M169.2 244.1L169.2 244.1Q168.2 244.1 167.4 243.6Q166.6 243.1 166.1 242.2Q165.7 241.3 165.7 240.0L165.7 240.0Q165.7 238.7 166.1 237.8Q166.6 236.9 167.4 236.4Q168.1 235.9 169.2 235.9L169.2 235.9Q169.8 235.9 170.4 236.1Q170.9 236.3 171.3 236.6Q171.8 237.0 172.1 237.4Q172.4 237.9 172.5 238.5L172.5 238.5L171.4 238.5Q171.3 238.1 171.1 237.8Q170.9 237.5 170.6 237.3Q170.3 237.1 170.0 237.0Q169.6 236.8 169.2 236.8L169.2 236.8Q168.5 236.8 167.9 237.2Q167.3 237.6 167.0 238.3Q166.6 239.0 166.6 240.0L166.6 240.0Q166.6 241.0 167.0 241.7Q167.3 242.4 167.9 242.8Q168.5 243.2 169.2 243.2L169.2 243.2Q169.9 243.2 170.4 242.9Q170.9 242.6 171.2 242.1L171.2 242.1Q171.5 241.6 171.5 240.9L171.5 240.9L169.4 240.9L169.4 240.0L172.5 240.0L172.5 240.9Q172.5 241.8 172.1 242.6Q171.7 243.3 170.9 243.7Q170.2 244.1 169.2 244.1ZM177.5 244.1L177.5 244.1Q176.7 244.1 176.1 243.7Q175.5 243.4 175.1 242.7Q174.8 242.0 174.8 241.0L174.8 241.0Q174.8 240.1 175.1 239.4Q175.5 238.7 176.1 238.3Q176.7 237.9 177.5 237.9L177.5 237.9Q178.3 237.9 178.9 238.3Q179.6 238.7 179.9 239.4Q180.2 240.1 180.2 241.0L180.2 241.0Q180.2 242.0 179.9 242.7Q179.6 243.4 178.9 243.7Q178.3 244.1 177.5 244.1ZM177.5 243.3L177.5 243.3Q178.1 243.3 178.5 243.0Q178.9 242.6 179.1 242.1Q179.3 241.6 179.3 241.0L179.3 241.0Q179.3 240.4 179.1 239.9Q178.9 239.4 178.5 239.1Q178.1 238.8 177.5 238.8L177.5 238.8Q176.9 238.8 176.5 239.1Q176.1 239.4 175.9 239.9Q175.7 240.4 175.7 241.0L175.7 241.0Q175.7 241.6 175.9 242.1Q176.1 242.6 176.5 243.0Q176.9 243.3 177.5 243.3Z "/></g><mask id="satori_om-id-1-3-4-1"><rect x="247" y="238" width="401" height="4" fill="#fff" mask="url(#satori_om-id)"/></mask><path x="247" y="238" width="401" height="4" fill="rgba(68,33,40,0.5)" d="M249,238 h397 a2,2 0 0 1 2,2 v0 a2,2 0 0 1 -2,2 h-397 a2,2 0 0 1 -2,-2 v0 a2,2 0 0 1 2,-2" clip-path="url(#satori_cp-id)" mask="url(#satori_om-id)"/><mask id="satori_om-id-1-3-4-1-0"><rect x="247" y="238" width="0" height="4" fill="#fff" mask="url(#satori_om-id)"/></mask><g opacity="0.7"><rect x="247" y="238" width="0" height="4" fill="#d99d87" clip-path="url(#satori_cp-id)" mask="url(#satori_om-id)"/></g><mask id="satori_om-id-1-3-4-2"><rect x="661" y="234" width="35" height="12" fill="#fff" mask="url(#satori_om-id)"/></mask><g mask="url(#satori_om-id)" clip-path="url(#satori_cp-id)"><path fill="rgba(123,98,97,0.7)" d="M682.2 244.1L682.2 244.1Q681.3 244.1 680.8 243.7Q680.2 243.2 679.9 242.4Q679.6 241.6 679.6 240.4L679.6 240.4Q679.6 239.2 679.9 238.4Q680.2 237.5 680.8 237.1Q681.3 236.6 682.2 236.6L682.2 236.6Q683.0 236.6 683.5 237.1Q684.1 237.5 684.4 238.4Q684.7 239.2 684.7 240.4L684.7 240.4Q684.7 241.5 684.4 242.4Q684.1 243.2 683.5 243.7Q683.0 244.1 682.2 244.1ZM682.2 243.3L682.2 243.3Q682.7 243.3 683.1 242.9Q683.4 242.6 683.6 241.9Q683.8 241.3 683.8 240.4L683.8 240.4Q683.8 239.4 683.6 238.8Q683.4 238.1 683.1 237.8Q682.7 237.4 682.2 237.4L682.2 237.4Q681.6 237.4 681.3 237.8Q680.9 238.1 680.7 238.8Q680.5 239.4 680.5 240.4L680.5 240.4Q680.5 241.3 680.7 241.9Q680.9 242.6 681.3 242.9Q681.6 243.3 682.2 243.3ZM687.9 239.9L687.9 239.9Q687.4 239.9 687.1 239.7Q686.8 239.5 686.6 239.2Q686.4 238.9 686.4 238.5L686.4 238.5L686.4 238.1Q686.4 237.7 686.6 237.3Q686.8 237.0 687.1 236.8Q687.4 236.6 687.9 236.6L687.9 236.6Q688.3 236.6 688.6 236.8Q689.0 237.0 689.1 237.3Q689.3 237.7 689.3 238.1L689.3 238.1L689.3 238.5Q689.3 238.9 689.1 239.2Q689.0 239.5 688.6 239.7Q688.3 239.9 687.9 239.9ZM687.9 239.3L687.9 239.3Q688.2 239.3 688.4 239.0Q688.5 238.8 688.5 238.5L688.5 238.5L688.5 238.1Q688.5 237.8 688.4 237.5Q688.2 237.2 687.9 237.2L687.9 237.2Q687.5 237.2 687.3 237.5Q687.2 237.8 687.2 238.1L687.2 238.1L687.2 238.5Q687.2 238.8 687.3 239.0Q687.5 239.3 687.9 239.3ZM692.6 244.1L692.6 244.1Q692.1 244.1 691.8 243.9Q691.5 243.7 691.3 243.4Q691.2 243.1 691.2 242.7L691.2 242.7L691.2 242.3Q691.2 241.9 691.3 241.5Q691.5 241.2 691.8 241.0Q692.1 240.8 692.6 240.8L692.6 240.8Q693.1 240.8 693.4 241.0Q693.7 241.2 693.8 241.5Q694.0 241.9 694.0 242.3L694.0 242.3L694.0 242.7Q694.0 243.1 693.8 243.4Q693.7 243.7 693.4 243.9Q693.0 244.1 692.6 244.1ZM692.6 243.5L692.6 243.5Q693.0 243.5 693.1 243.2Q693.3 243.0 693.3 242.7L693.3 242.7L693.3 242.3Q693.3 242.0 693.1 241.7Q693.0 241.4 692.6 241.4L692.6 241.4Q692.2 241.4 692.1 241.7Q691.9 242.0 691.9 242.3L691.9 242.3L691.9 242.7Q691.9 243.0 692.1 243.2Q692.2 243.5 692.6 243.5ZM688.1 244L687.3 244L692.3 236.7L693.1 236.7L688.1 244Z "/></g></svg>