<!-- Generated by readme-aura https://github.com/collectioneur/readme-aura -->
<svg width="860" height="220" viewBox="0 0 860 220" xmlns="http://www.w3.org/2000/svg"><defs><clipPath id="satori_bc-id"><path x="0" y="0" width="860" height="220" d="M16,0 h828 a16,16 0 0 1 16,16 v188 a16,16 0 0 1 -16,16 h-828 a16,16 0 0 1 -16,-16 v-188 a16,16 0 0 1 16,-16"/></clipPath></defs><clipPath id="satori_cp-id"><path x="0" y="0" width="860" height="220" d="M16,0 h828 a16,16 0 0 1 16,16 v188 a16,16 0 0 1 -16,16 h-828 a16,16 0 0 1 -16,-16 v-188 a16,16 0 0 1 16,-16"/></clipPath><mask id="satori_om-id"><rect x="1" y="1" width="858" height="218" fill="#fff"/><path width="860" height="220" fill="none" stroke="#000" stroke-width="2" d="M4.686,4.686 A16,16 0 0 1 16,0 h828 a16,16 0 0 1 16,16 v188 a16,16 0 0 1 -16,16 h-828 a16,16 0 0 1 -16,-16 v-188 A16,16 0 0 1 4.686,4.686"/></mask><path x="0" y="0" width="860" height="220" fill="#0d0810" d="M16,0 h828 a16,16 0 0 1 16,16 v188 a16,16 0 0 1 -16,16 h-828 a16,16 0 0 1 -16,-16 v-188 a16,16 0 0 1 16,-16"/><path width="860" height="220" clip-path="url(#satori_bc-id)" fill="none" stroke="rgba(68,33,40,0.6)" stroke-width="2" d="M4.686,4.686 A16,16 0 0 1 16,0 h828 a16,16 0 0 1 16,16 v188 a16,16 0 0 1 -16,16 h-828 a16,16 0 0 1 -16,-16 v-188 A16,16 0 0 1 4.686,4.686"/><clipPath id="satori_cp-id-0" clip-path="url(#satori_cp-id)"><rect x="1" y="1" width="860" height="220"/></clipPath><mask id="satori_om-id-0"><rect x="1" y="1" width="860" height="220" fill="#fff" mask="url(#satori_om-id)"/></mask><svg x="1" y="1" width="860" height="220" preserveAspectRatio="none" clip-path="url(#satori_cp-id-0)" mask="url(#satori_om-id-0)"><defs><radialGradient id="hg1" cx="50%" cy="50%" r="50%"><stop offset="0%" stop-color="rgba(90,20,40,0.85)"></stop><stop offset="50%" stop-color="rgba(60,10,25,0.35)"></stop><stop offset="100%" stop-color="rgba(60,10,25,0)"></stop></radialGradient><radialGradient id="hg2" cx="50%" cy="50%" r="50%"><stop offset="0%" stop-color="rgba(140,60,80,0.7)"></stop><stop offset="50%" stop-color="rgba(100,30,55,0.28)"></stop><stop offset="100%" stop-color="rgba(100,30,55,0)"></stop></radialGradient><radialGradient id="hg3" cx="50%" cy="50%" r="50%"><stop offset="0%" stop-color="rgba(180,110,90,0.5)"></stop><stop offset="50%" stop-color="rgba(140,80,60,0.2)"></stop><stop offset="100%" stop-color="rgba(140,80,60,0)"></stop></radialGradient><radialGradient id="hg4" cx="50%" cy="50%" r="50%"><stop offset="0%" stop-color="rgba(60,10,50,0.65)"></stop><stop offset="60%" stop-color="rgba(40,5,35,0.2)"></stop><stop offset="100%" stop-color="rgba(40,5,35,0)"></stop></radialGradient><radialGradient id="hg5" cx="50%" cy="50%" r="50%"><stop offset="0%" stop-color="rgba(110,40,60,0.55)"></stop><stop offset="55%" stop-color="rgba(80,20,40,0.18)"></stop><stop offset="100%" stop-color="rgba(80,20,40,0)"></stop></radialGradient><radialGradient id="hg6" cx="50%" cy="50%" r="50%"><stop offset="0%" stop-color="rgba(217,157,135,0.3)"></stop><stop offset="60%" stop-color="rgba(217,157,135,0.08)"></stop><stop offset="100%" stop-color="rgba(217,157,135,0)"></stop></radialGradient></defs><ellipse id="h1" cx="150" cy="240" rx="280" ry="180" fill="url(#hg1)"></ellipse><ellipse id="h2" cx="350" cy="250" rx="240" ry="160" fill="url(#hg2)"></ellipse><ellipse id="h3" cx="500" cy="245" rx="200" ry="140" fill="url(#hg3)"></ellipse><ellipse id="h4" cx="680" cy="255" rx="170" ry="130" fill="url(#hg4)"></ellipse><ellipse id="h5" cx="420" cy="235" rx="230" ry="170" fill="url(#hg5)"></ellipse><ellipse id="h6" cx="760" cy="200" rx="120" ry="100" fill="url(#hg6)"></ellipse><style>

    @keyframes d1 { 0%,100%{transform:translateX(0);opacity:.85} 50%{transform:translateX(280px);opacity:1} }
    @keyframes d2 { 0%,100%{transform:translateX(0);opacity:.7} 50%{transform:translateX(-220px);opacity:.95} }
    @keyframes d3 { 0%,100%{transform:translateX(0);opacity:.75} 50%{transform:translateX(180px);opacity:.55} }
    @keyframes d4 { 0%,100%{transform:translateX(0);opacity:.8} 50%{transform:translateX(-300px);opacity:1} }
    @keyframes d5 { 0%,100%{transform:translateX(0);opacity:.6} 33%{transform:translateX(-140px);opacity:.9} 66%{transform:translateX(90px);opacity:1} }
    @keyframes pg { 0%,100%{transform:scale(1);opacity:.75} 50%{transform:scale(1.3);opacity:.4} }
    @keyframes tf { 0%,100%{opacity:.9} 50%{opacity:1} }
    #h1{animation:d1 10s ease-in-out infinite} #h2{animation:d2 13s ease-in-out infinite}
    #h3{animation:d3 8s ease-in-out infinite} #h4{animation:d4 15s ease-in-out infinite reverse}
    #h5{animation:d5 11s ease-in-out infinite} #h6{animation:pg 7s ease-in-out infinite}
    #ht{animation:tf 5s ease-in-out infinite}
  
</style>
</svg><mask id="satori_om-id-0-0"><rect x="1" y="1" width="0" height="220" fill="#fff" mask="url(#satori_om-id)"/></mask><mask id="satori_om-id-0-0-0"><rect x="1" y="1" width="0" height="220" fill="#fff" mask="url(#satori_om-id)"/></mask><mask id="satori_om-id-0-0-0-0"><rect x="1" y="1" width="0" height="220" fill="#fff" mask="url(#satori_om-id)"/></mask><mask id="satori_om-id-0-0-0-1"><rect x="1" y="1" width="0" height="220" fill="#fff" mask="url(#satori_om-id)"/></mask><mask id="satori_om-id-0-0-0-2"><rect x="1" y="1" width="0" height="220" fill="#fff" mask="url(#satori_om-id)"/></mask><mask id="satori_om-id-0-0-1"><rect x="1" y="1" width="0" height="220" fill="#fff" mask="url(#satori_om-id)"/></mask><mask id="satori_om-id-0-0-1-0"><rect x="1" y="1" width="0" height="220" fill="#fff" mask="url(#satori_om-id)"/></mask><mask id="satori_om-id-0-0-1-1"><rect x="1" y="1" width="0" height="220" fill="#fff" mask="url(#satori_om-id)"/></mask><mask id="satori_om-id-0-0-1-2"><rect x="1" y="1" width="0" height="220" fill="#fff" mask="url(#satori_om-id)"/></mask><mask id="satori_om-id-0-0-2"><rect x="1" y="1" width="0" height="220" fill="#fff" mask="url(#satori_om-id)"/></mask><mask id="satori_om-id-0-0-2-0"><rect x="1" y="1" width="0" height="220" fill="#fff" mask="url(#satori_om-id)"/></mask><mask id="satori_om-id-0-0-2-1"><rect x="1" y="1" width="0" height="220" fill="#fff" mask="url(#satori_om-id)"/></mask><mask id="satori_om-id-0-0-2-2"><rect x="1" y="1" width="0" height="220" fill="#fff" mask="url(#satori_om-id)"/></mask><mask id="satori_om-id-0-0-3"><rect x="1" y="1" width="0" height="220" fill="#fff" mask="url(#satori_om-id)"/></mask><mask id="satori_om-id-0-0-3-0"><rect x="1" y="1" width="0" height="220" fill="#fff" mask="url(#satori_om-id)"/></mask><mask id="satori_om-id-0-0-3-1"><rect x="1" y="1" width="0" height="220" fill="#fff" mask="url(#satori_om-id)"/></mask><mask id="satori_om-id-0-0-3-2"><rect x="1" y="1" width="0" height="220" fill="#fff" mask="url(#satori_om-id)"/></mask><mask id="satori_om-id-0-0-4"><rect x="1" y="1" width="0" height="220" fill="#fff" mask="url(#satori_om-id)"/></mask><mask id="satori_om-id-0-0-4-0"><rect x="1" y="1" width="0" height="220" fill="#fff" mask="url(#satori_om-id)"/></mask><mask id="satori_om-id-0-0-4-1"><rect x="1" y="1" width="0" height="220" fill="#fff" mask="url(#satori_om-id)"/></mask><mask id="satori_om-id-0-0-4-2"><rect x="1" y="1" width="0" height="220" fill="#fff" mask="url(#satori_om-id)"/></mask><mask id="satori_om-id-0-0-5"><rect x="1" y="1" width="0" height="220" fill="#fff" mask="url(#satori_om-id)"/></mask><mask id="satori_om-id-0-0-5-0"><rect x="1" y="1" width="0" height="220" fill="#fff" mask="url(#satori_om-id)"/></mask><mask id="satori_om-id-0-0-5-1"><rect x="1" y="1" width="0" height="220" fill="#fff" mask="url(#satori_om-id)"/></mask><mask id="satori_om-id-0-0-5-2"><rect x="1" y="1" width="0" height="220" fill="#fff" mask="url(#satori_om-id)"/></mask><mask id="satori_om-id-0-1"><rect x="1" y="1" width="0" height="220" fill="#fff" mask="url(#satori_om-id)"/></mask><mask id="satori_om-id-0-2"><rect x="1" y="1" width="0" height="220" fill="#fff" mask="url(#satori_om-id)"/></mask><mask id="satori_om-id-0-3"><rect x="1" y="1" width="0" height="220" fill="#fff" mask="url(#satori_om-id)"/></mask><mask id="satori_om-id-0-4"><rect x="1" y="1" width="0" height="220" fill="#fff" mask="url(#satori_om-id)"/></mask><mask id="satori_om-id-0-5"><rect x="1" y="1" width="0" height="220" fill="#fff" mask="url(#satori_om-id)"/></mask><mask id="satori_om-id-0-6"><rect x="1" y="1" width="0" height="220" fill="#fff" mask="url(#satori_om-id)"/></mask><mask id="satori_om-id-1"><rect x="194" y="64" width="472" height="92" fill="#fff" mask="url(#satori_om-id)"/></mask><mask id="satori_om-id-1-0"><rect x="281" y="64" width="299" height="38" fill="#fff" mask="url(#satori_om-id)"/></mask><g mask="url(#satori_om-id)" clip-path="url(#satori_cp-id)"><path fill="#d99d87" d="M301.1 97L283.5 97L283.5 69.4L289.2 69.4L289.2 92.3L301.1 92.3L301.1 97ZM314.0 97.3L314.0 97.3Q311.9 97.3 310.2 96.3Q308.6 95.4 307.7 93.6Q306.9 91.9 306.9 89.4L306.9 89.4L306.9 76.3L312.4 76.3L312.4 88.5Q312.4 90.4 313.4 91.5Q314.4 92.6 316.2 92.6L316.2 92.6Q317.4 92.6 318.3 92.1Q319.2 91.6 319.7 90.6Q320.2 89.6 320.2 88.3L320.2 88.3L320.2 76.3L325.8 76.3L325.8 97L320.5 97L320.5 92.7Q319.7 94.7 318.3 95.8L318.3 95.8Q316.6 97.3 314.0 97.3ZM338.1 85.0L338.1 85.0L338.1 97L332.5 97L332.5 76.3L337.8 76.3L337.8 80.5Q338.6 78.6 340.0 77.4L340.0 77.4Q341.7 76.0 344.3 76.0L344.3 76.0Q346.5 76.0 348.1 76.9Q349.7 77.9 350.5 79.6Q351.4 81.4 351.4 83.8L351.4 83.8L351.4 97L345.9 97L345.9 84.8Q345.9 82.8 344.9 81.7Q343.9 80.7 342.1 80.7L342.1 80.7Q340.9 80.7 340.0 81.2Q339.1 81.7 338.6 82.6Q338.1 83.6 338.1 85.0ZM364.0 97.4L364.0 97.4Q362.0 97.4 360.4 96.7Q358.9 96.0 358.0 94.6Q357.1 93.3 357.1 91.2L357.1 91.2Q357.1 89.5 357.7 88.3Q358.3 87.1 359.4 86.4Q360.6 85.7 362.0 85.3Q363.4 85.0 364.9 84.8L364.9 84.8Q366.7 84.6 367.8 84.5Q368.9 84.3 369.4 84.0Q369.9 83.6 369.9 83.0L369.9 83.0L369.9 82.9Q369.9 82.0 369.5 81.4Q369.2 80.8 368.4 80.4Q367.7 80.1 366.7 80.1L366.7 80.1Q365.6 80.1 364.8 80.4Q364.0 80.8 363.5 81.3Q363 81.8 362.8 82.5L362.8 82.5L357.7 81.7Q358.2 79.9 359.4 78.6Q360.7 77.3 362.5 76.7Q364.4 76.0 366.7 76.0L366.7 76.0Q368.4 76.0 369.9 76.4Q371.5 76.8 372.8 77.6Q374.0 78.5 374.8 79.8Q375.5 81.2 375.5 83.0L375.5 83.0L375.5 97L370.2 97L370.2 94.1L370.0 94.1Q369.5 95.1 368.7 95.8Q367.9 96.6 366.7 97.0Q365.5 97.4 364.0 97.4ZM365.5 93.5L365.5 93.5Q366.9 93.5 367.9 93.0Q368.8 92.5 369.4 91.6Q370.0 90.7 370.0 89.6L370.0 89.6L370.0 87.3Q369.7 87.5 369.2 87.7Q368.7 87.8 368.1 87.9Q367.5 88.0 366.9 88.1Q366.3 88.2 365.8 88.3L365.8 88.3Q364.8 88.4 364.0 88.8Q363.3 89.1 362.8 89.6Q362.4 90.2 362.4 91.0L362.4 91.0Q362.4 91.8 362.8 92.4Q363.2 92.9 363.9 93.2Q364.6 93.5 365.5 93.5Z M398.0 97L391.8 97L401.2 69.4L408.6 69.4L418.3 97L412.0 97L409.9 90.6L400.1 90.6L398.0 97ZM401.5 86.1L408.4 86.1L407.6 83.7Q406.8 81.1 406.0 78L406.0 78Q405.4 76.0 404.9 73.8L404.9 73.8Q404.3 76.1 403.8 78.0L403.8 78.0Q403.1 81.1 402.3 83.7L402.3 83.7L401.5 86.1ZM423.6 69.4L429.2 69.4L429.2 97L423.6 97L423.6 69.4ZM441.5 97L435.9 97L435.9 69.4L441.5 69.4L441.5 84.2L441.8 84.2L448.6 76.3L455.0 76.3L447.3 85.3L455.4 97L448.9 97L443.1 88.6L441.5 90.3L441.5 97ZM467.1 97.3L467.1 97.3Q464.9 97.3 463.3 96.3Q461.7 95.4 460.8 93.6Q459.9 91.9 459.9 89.4L459.9 89.4L459.9 76.3L465.5 76.3L465.5 88.5Q465.5 90.4 466.5 91.5Q467.5 92.6 469.3 92.6L469.3 92.6Q470.4 92.6 471.4 92.1Q472.3 91.6 472.8 90.6Q473.3 89.6 473.3 88.3L473.3 88.3L473.3 76.3L478.9 76.3L478.9 97L473.6 97L473.5 92.7Q472.8 94.7 471.4 95.8L471.4 95.8Q469.7 97.3 467.1 97.3ZM492.8 76.3L497.1 76.3L497.1 80.5L492.8 80.5L492.8 97L487.3 97L487.3 80.5L483.6 80.5L483.6 76.3L487.3 76.3L487.3 74.7Q487.3 72.5 488.1 71.0Q489.0 69.5 490.5 68.8Q492.1 68.1 494.0 68.1L494.0 68.1Q495.3 68.1 496.4 68.3Q497.5 68.5 498.0 68.6L498.0 68.6L497.0 72.8Q496.6 72.7 496.2 72.6Q495.7 72.5 495.1 72.5L495.1 72.5Q493.9 72.5 493.3 73.1Q492.8 73.8 492.8 74.8L492.8 74.8L492.8 76.3ZM508.5 97.4L508.5 97.4Q506.5 97.4 505.0 96.7Q503.4 96.0 502.5 94.6Q501.6 93.3 501.6 91.2L501.6 91.2Q501.6 89.5 502.3 88.3Q502.9 87.1 504.0 86.4Q505.1 85.7 506.5 85.3Q507.9 85.0 509.4 84.8L509.4 84.8Q511.2 84.6 512.3 84.5Q513.5 84.3 514.0 84.0Q514.5 83.6 514.5 83.0L514.5 83.0L514.5 82.9Q514.5 82.0 514.1 81.4Q513.7 80.8 513.0 80.4Q512.3 80.1 511.2 80.1L511.2 80.1Q510.1 80.1 509.4 80.4Q508.6 80.8 508.1 81.3Q507.6 81.8 507.3 82.5L507.3 82.5L502.2 81.7Q502.7 79.9 504.0 78.6Q505.2 77.3 507.1 76.7Q508.9 76.0 511.2 76.0L511.2 76.0Q512.9 76.0 514.5 76.4Q516.1 76.8 517.3 77.6Q518.6 78.5 519.3 79.8Q520.0 81.2 520.0 83.0L520.0 83.0L520.0 97L514.8 97L514.8 94.1L514.6 94.1Q514.1 95.1 513.2 95.8Q512.4 96.6 511.2 97.0Q510.1 97.4 508.5 97.4ZM510.1 93.5L510.1 93.5Q511.4 93.5 512.4 93.0Q513.4 92.5 514.0 91.6Q514.5 90.7 514.5 89.6L514.5 89.6L514.5 87.3Q514.3 87.5 513.8 87.7Q513.3 87.8 512.7 87.9Q512.0 88.0 511.4 88.1Q510.9 88.2 510.4 88.3L510.4 88.3Q509.4 88.4 508.6 88.8Q507.8 89.1 507.4 89.6Q507.0 90.2 507.0 91.0L507.0 91.0Q507.0 91.8 507.4 92.4Q507.8 92.9 508.5 93.2Q509.2 93.5 510.1 93.5ZM532.4 97L526.8 97L526.8 76.3L532.4 76.3L532.4 97ZM529.6 73.5L529.6 73.5Q528.3 73.5 527.4 72.7Q526.5 71.9 526.5 70.7L526.5 70.7Q526.5 69.5 527.4 68.7Q528.3 67.8 529.6 67.8L529.6 67.8Q530.8 67.8 531.7 68.7Q532.6 69.5 532.6 70.7L532.6 70.7Q532.6 71.9 531.7 72.7Q530.8 73.5 529.6 73.5ZM544.7 97L539.1 97L539.1 76.3L544.5 76.3L544.5 79.9L544.7 79.9Q545.3 77.9 546.6 77.0Q548.0 76.0 549.7 76.0L549.7 76.0Q550.1 76.0 550.6 76.0Q551.1 76.1 551.5 76.2L551.5 76.2L551.5 81.1Q551.1 81.0 550.4 80.9Q549.7 80.9 549.1 80.9L549.1 80.9Q547.8 80.9 546.8 81.4Q545.8 82.0 545.2 82.9Q544.7 83.9 544.7 85.2L544.7 85.2L544.7 97ZM556.4 104.3L556.4 104.3L557.7 100.2L558.4 100.3Q559.5 100.6 560.4 100.5Q561.2 100.4 561.8 99.8Q562.3 99.2 562.4 98.2L562.4 98.2L562.6 97.1L554.8 76.3L560.7 76.3L564.2 87.0Q564.8 89.1 565.2 91.1L565.2 91.1Q565.3 91.8 565.5 92.5L565.5 92.5Q565.7 91.8 565.8 91.1L565.8 91.1Q566.3 89.0 567.0 87.0L567.0 87.0L570.6 76.3L576.5 76.3L567.7 99.4Q567.0 101.1 566.0 102.3Q565.1 103.6 563.6 104.2Q562.1 104.9 560.0 104.9L560.0 104.9Q558.9 104.9 558.0 104.7Q557.0 104.6 556.4 104.3Z "/></g><mask id="satori_om-id-1-1"><rect x="262" y="112" width="336" height="17" fill="#fff" mask="url(#satori_om-id)"/></mask><g mask="url(#satori_om-id)" clip-path="url(#satori_cp-id)"><path fill="rgba(153,145,137,0.9)" d="M266.5 126.2L266.5 126.2Q265.4 126.2 264.6 125.8Q263.8 125.5 263.3 124.8Q262.9 124.2 262.8 123.3L262.8 123.3L264.1 123.3Q264.2 123.9 264.5 124.3Q264.9 124.7 265.4 124.8Q265.9 125.0 266.5 125.0L266.5 125.0Q267.2 125.0 267.7 124.8Q268.3 124.6 268.6 124.2Q268.9 123.7 268.9 123.2L268.9 123.2Q268.9 122.7 268.6 122.4Q268.4 122.1 267.9 121.9Q267.5 121.7 266.9 121.5L266.9 121.5L265.7 121.2Q264.4 120.9 263.8 120.2Q263.1 119.6 263.1 118.5L263.1 118.5Q263.1 117.7 263.5 117.0Q264.0 116.4 264.8 116.0Q265.6 115.7 266.6 115.7L266.6 115.7Q267.6 115.7 268.4 116.0Q269.1 116.4 269.6 117.0Q270.0 117.6 270.1 118.4L270.1 118.4L268.8 118.4Q268.7 117.6 268.1 117.2Q267.4 116.8 266.5 116.8L266.5 116.8Q265.9 116.8 265.4 117.0Q264.9 117.3 264.6 117.6Q264.3 118.0 264.3 118.5L264.3 118.5Q264.3 119.0 264.7 119.3Q265.0 119.7 265.5 119.8Q265.9 120.0 266.3 120.1L266.3 120.1L267.3 120.4Q267.7 120.5 268.2 120.7Q268.7 120.9 269.2 121.2Q269.6 121.5 269.9 122.0Q270.2 122.5 270.2 123.2L270.2 123.2Q270.2 124.1 269.8 124.7Q269.3 125.4 268.5 125.8Q267.7 126.2 266.5 126.2ZM277.2 126.2L277.2 126.2Q276.1 126.2 275.4 125.7Q274.6 125.2 274.1 124.3Q273.7 123.4 273.7 122.2L273.7 122.2Q273.7 121.0 274.1 120.1Q274.6 119.2 275.4 118.8Q276.1 118.3 277.2 118.3L277.2 118.3Q278.2 118.3 279.0 118.8Q279.8 119.2 280.2 120.1Q280.7 121.0 280.7 122.2L280.7 122.2Q280.7 123.4 280.2 124.3Q279.8 125.2 279.0 125.7Q278.2 126.2 277.2 126.2ZM277.2 125.1L277.2 125.1Q277.9 125.1 278.4 124.7Q278.9 124.3 279.2 123.6Q279.4 123.0 279.4 122.2L279.4 122.2Q279.4 121.5 279.2 120.8Q278.9 120.2 278.4 119.8Q277.9 119.4 277.2 119.4L277.2 119.4Q276.4 119.4 275.9 119.8Q275.4 120.2 275.2 120.8Q274.9 121.5 274.9 122.2L274.9 122.2Q274.9 123.0 275.2 123.6Q275.4 124.3 275.9 124.7Q276.4 125.1 277.2 125.1ZM286.2 118.4L288.0 118.4L288.0 119.4L286.2 119.4L286.2 126L285.0 126L285.0 119.4L283.5 119.4L283.5 118.4L285.0 118.4L285.0 117.3Q285.0 116.7 285.3 116.2Q285.6 115.8 286.1 115.6Q286.6 115.3 287.2 115.3L287.2 115.3Q287.6 115.3 287.9 115.4Q288.2 115.5 288.3 115.5L288.3 115.5L288.0 116.6Q287.9 116.6 287.7 116.5Q287.6 116.5 287.3 116.5L287.3 116.5Q286.8 116.5 286.5 116.8Q286.2 117.1 286.2 117.6L286.2 117.6L286.2 118.4ZM293.1 118.4L294.6 118.4L294.6 119.4L293.1 119.4L293.1 124.0Q293.1 124.5 293.3 124.8Q293.5 125.0 294.0 125.0L294.0 125.0Q294.1 125.0 294.3 125.0Q294.5 124.9 294.6 124.9L294.6 124.9L294.9 126.0Q294.7 126.0 294.4 126.1Q294.2 126.1 293.9 126.1L293.9 126.1Q293.0 126.1 292.4 125.6Q291.8 125.0 291.8 124.1L291.8 124.1L291.8 119.4L290.7 119.4L290.7 118.4L291.8 118.4L291.8 116.5L293.1 116.5L293.1 118.4ZM301.2 126L299.9 126L297.6 118.4L298.9 118.4L299.9 121.7Q300.0 122.4 300.3 123.2L300.3 123.2Q300.4 123.9 300.6 124.7L300.6 124.7Q300.7 123.9 300.9 123.3L300.9 123.3Q301.1 122.4 301.3 121.7L301.3 121.7L302.2 118.4L303.5 118.4L304.4 121.7Q304.6 122.4 304.8 123.3L304.8 123.3Q305.0 123.9 305.2 124.7L305.2 124.7Q305.3 123.9 305.5 123.3L305.5 123.3Q305.7 122.4 305.9 121.7L305.9 121.7L306.8 118.4L308.1 118.4L305.8 126L304.6 126L303.6 122.5Q303.4 122.0 303.3 121.5Q303.1 120.9 303.0 120.3L303.0 120.3Q302.9 120.1 302.9 119.8L302.9 119.8Q302.8 120.0 302.7 120.3L302.7 120.3Q302.6 120.9 302.4 121.5Q302.3 122.0 302.1 122.5L302.1 122.5L301.2 126ZM313.8 126.2L313.8 126.2Q313.1 126.2 312.5 125.9Q311.9 125.6 311.6 125.1Q311.2 124.6 311.2 123.8L311.2 123.8Q311.2 123.2 311.5 122.8Q311.7 122.3 312.2 122.1Q312.6 121.9 313.1 121.8Q313.7 121.6 314.2 121.6L314.2 121.6Q314.9 121.5 315.3 121.4Q315.7 121.4 315.9 121.3Q316.1 121.2 316.1 120.9L316.1 120.9L316.1 120.8Q316.1 120.4 316.0 120.0Q315.8 119.7 315.4 119.5Q315.1 119.3 314.5 119.3L314.5 119.3Q314 119.3 313.6 119.5Q313.2 119.7 313.0 119.9Q312.7 120.2 312.6 120.5L312.6 120.5L311.4 120.1Q311.7 119.4 312.2 119.0Q312.7 118.6 313.3 118.4Q313.9 118.3 314.5 118.3L314.5 118.3Q314.9 118.3 315.4 118.4Q315.9 118.4 316.3 118.7Q316.8 119.0 317.1 119.5Q317.4 120.1 317.4 121.0L317.4 121.0L317.4 126L316.2 126L316.2 125.0L316.1 125.0Q316.0 125.2 315.7 125.5Q315.4 125.8 314.9 126.0Q314.5 126.2 313.8 126.2ZM314.0 125.1L314.0 125.1Q314.7 125.1 315.2 124.8Q315.7 124.6 315.9 124.1Q316.1 123.7 316.1 123.2L316.1 123.2L316.1 122.2Q316.1 122.3 315.8 122.3Q315.6 122.4 315.2 122.5Q314.9 122.5 314.6 122.6Q314.3 122.6 314.1 122.6L314.1 122.6Q313.7 122.7 313.3 122.8Q312.9 122.9 312.7 123.2Q312.4 123.5 312.4 123.9L312.4 123.9Q312.4 124.3 312.7 124.6Q312.9 124.8 313.2 125.0Q313.6 125.1 314.0 125.1ZM322.8 126L321.5 126L321.5 118.4L322.7 118.4L322.7 119.5L322.8 119.5Q323.0 119.0 323.6 118.6Q324.1 118.2 324.8 118.2L324.8 118.2Q324.9 118.2 325.1 118.3Q325.3 118.3 325.4 118.3L325.4 118.3L325.4 119.5Q325.4 119.5 325.1 119.5Q324.9 119.4 324.7 119.4L324.7 119.4Q324.1 119.4 323.7 119.7Q323.3 119.9 323.0 120.3Q322.8 120.7 322.8 121.2L322.8 121.2L322.8 126ZM332.0 126.2L332.0 126.2Q330.9 126.2 330.1 125.7Q329.3 125.2 328.9 124.3Q328.4 123.4 328.4 122.2Q328.4 121.1 328.9 120.2Q329.3 119.3 330.1 118.8Q330.8 118.3 331.9 118.3L331.9 118.3Q332.5 118.3 333.1 118.5Q333.7 118.7 334.1 119.1Q334.6 119.6 334.9 120.3Q335.2 121.0 335.2 122.1L335.2 122.1L335.2 122.6L329.7 122.6Q329.7 123.3 330.0 123.9L330.0 123.9Q330.3 124.5 330.8 124.8Q331.3 125.1 332.0 125.1L332.0 125.1Q332.5 125.1 332.8 124.9Q333.2 124.8 333.5 124.5Q333.8 124.3 333.9 123.9L333.9 123.9L335.1 124.2Q334.9 124.8 334.5 125.2Q334.1 125.7 333.4 125.9Q332.8 126.2 332.0 126.2ZM329.7 121.6L329.7 121.6L334.0 121.6Q333.9 121.0 333.7 120.6L333.7 120.6Q333.5 120.0 333.0 119.7Q332.6 119.4 331.9 119.4Q331.2 119.4 330.7 119.7Q330.2 120.0 329.9 120.6L329.9 120.6Q329.7 121.0 329.7 121.6Z M351.3 126L345.1 126L345.1 115.8L351.3 115.8L351.3 117.0L346.4 117.0L346.4 120.3L350.9 120.3L350.9 121.4L346.4 121.4L346.4 124.9L351.3 124.9L351.3 126ZM356.6 121.4L356.6 121.4L356.6 126L355.3 126L355.3 118.4L356.5 118.4L356.5 119.8Q356.8 119.1 357.3 118.7L357.3 118.7Q358.0 118.3 358.8 118.3L358.8 118.3Q359.6 118.3 360.2 118.6Q360.8 118.9 361.1 119.5Q361.4 120.2 361.4 121.1L361.4 121.1L361.4 126L360.2 126L360.2 121.2Q360.2 120.4 359.7 119.9Q359.3 119.4 358.5 119.4L358.5 119.4Q357.9 119.4 357.5 119.6Q357.1 119.8 356.8 120.3Q356.6 120.8 356.6 121.4ZM368.7 129.0L368.7 129.0Q367.8 129.0 367.2 128.8Q366.6 128.6 366.2 128.2Q365.8 127.9 365.5 127.5L365.5 127.5L366.5 126.8Q366.7 127.0 367.0 127.3Q367.2 127.6 367.6 127.8Q368.0 127.9 368.7 127.9L368.7 127.9Q369.6 127.9 370.2 127.5Q370.8 127.1 370.8 126.1L370.8 126.1L370.8 124.6L370.7 124.6Q370.5 124.8 370.3 125.1Q370.1 125.4 369.6 125.6Q369.2 125.9 368.5 125.9L368.5 125.9Q367.5 125.9 366.8 125.4Q366.1 125.0 365.6 124.2Q365.2 123.3 365.2 122.1L365.2 122.1Q365.2 121.0 365.6 120.1Q366.1 119.2 366.8 118.7Q367.5 118.3 368.5 118.3L368.5 118.3Q369.2 118.3 369.7 118.5Q370.1 118.7 370.3 119.1Q370.6 119.4 370.7 119.6L370.7 119.6L370.8 119.6L370.8 118.4L372.0 118.4L372.0 126.2Q372.0 127.2 371.6 127.8Q371.1 128.4 370.4 128.7Q369.6 129.0 368.7 129.0ZM368.7 124.8L368.7 124.8Q369.4 124.8 369.8 124.5Q370.3 124.1 370.6 123.5Q370.8 123.0 370.8 122.1L370.8 122.1Q370.8 121.3 370.6 120.7Q370.3 120.1 369.8 119.7Q369.4 119.4 368.7 119.4L368.7 119.4Q367.9 119.4 367.4 119.7Q367.0 120.1 366.7 120.7Q366.5 121.4 366.5 122.1L366.5 122.1Q366.5 122.9 366.7 123.5Q367.0 124.1 367.5 124.4Q367.9 124.8 368.7 124.8ZM377.4 126L376.2 126L376.2 118.4L377.4 118.4L377.4 126ZM376.8 117.1L376.8 117.1Q376.5 117.1 376.2 116.9Q375.9 116.6 375.9 116.3L375.9 116.3Q375.9 116.0 376.2 115.7Q376.5 115.5 376.8 115.5L376.8 115.5Q377.2 115.5 377.4 115.7Q377.7 116.0 377.7 116.3L377.7 116.3Q377.7 116.6 377.4 116.9Q377.2 117.1 376.8 117.1ZM382.8 121.4L382.8 121.4L382.8 126L381.6 126L381.6 118.4L382.8 118.4L382.8 119.8Q383.1 119.1 383.6 118.7L383.6 118.7Q384.2 118.3 385.1 118.3L385.1 118.3Q385.9 118.3 386.5 118.6Q387.0 118.9 387.4 119.5Q387.7 120.2 387.7 121.1L387.7 121.1L387.7 126L386.5 126L386.5 121.2Q386.5 120.4 386.0 119.9Q385.5 119.4 384.7 119.4L384.7 119.4Q384.2 119.4 383.7 119.6Q383.3 119.8 383.1 120.3Q382.8 120.8 382.8 121.4ZM395.1 126.2L395.1 126.2Q393.9 126.2 393.1 125.7Q392.3 125.2 391.9 124.3Q391.5 123.4 391.5 122.2Q391.5 121.1 391.9 120.2Q392.3 119.3 393.1 118.8Q393.9 118.3 394.9 118.3L394.9 118.3Q395.5 118.3 396.1 118.5Q396.7 118.7 397.2 119.1Q397.7 119.6 398.0 120.3Q398.2 121.0 398.2 122.1L398.2 122.1L398.2 122.6L392.7 122.6Q392.7 123.3 393.0 123.9L393.0 123.9Q393.3 124.5 393.8 124.8Q394.4 125.1 395.1 125.1L395.1 125.1Q395.5 125.1 395.9 124.9Q396.3 124.8 396.5 124.5Q396.8 124.3 396.9 123.9L396.9 123.9L398.1 124.2Q397.9 124.8 397.5 125.2Q397.1 125.7 396.5 125.9Q395.8 126.2 395.1 126.2ZM392.7 121.6L392.7 121.6L397.0 121.6Q396.9 121.0 396.8 120.6L396.8 120.6Q396.5 120.0 396.1 119.7Q395.6 119.4 394.9 119.4Q394.2 119.4 393.7 119.7Q393.2 120.0 393.0 120.6L393.0 120.6Q392.8 121.0 392.7 121.6ZM405.2 126.2L405.2 126.2Q404.1 126.2 403.3 125.7Q402.5 125.2 402.1 124.3Q401.6 123.4 401.6 122.2Q401.6 121.1 402.1 120.2Q402.5 119.3 403.3 118.8Q404.0 118.3 405.1 118.3L405.1 118.3Q405.7 118.3 406.3 118.5Q406.9 118.7 407.3 119.1Q407.8 119.6 408.1 120.3Q408.4 121.0 408.4 122.1L408.4 122.1L408.4 122.6L402.9 122.6Q402.9 123.3 403.2 123.9L403.2 123.9Q403.5 124.5 404.0 124.8Q404.5 125.1 405.2 125.1L405.2 125.1Q405.7 125.1 406.0 124.9Q406.4 124.8 406.7 124.5Q406.9 124.3 407.1 123.9L407.1 123.9L408.3 124.2Q408.1 124.8 407.7 125.2Q407.3 125.7 406.6 125.9Q406.0 126.2 405.2 126.2ZM402.9 121.6L402.9 121.6L407.2 121.6Q407.1 121.0 406.9 120.6L406.9 120.6Q406.7 120.0 406.2 119.7Q405.8 119.4 405.1 119.4Q404.4 119.4 403.9 119.7Q403.4 120.0 403.1 120.6L403.1 120.6Q402.9 121.0 402.9 121.6ZM413.4 126L412.2 126L412.2 118.4L413.4 118.4L413.4 119.5L413.4 119.5Q413.6 119.0 414.2 118.6Q414.7 118.2 415.4 118.2L415.4 118.2Q415.6 118.2 415.7 118.3Q415.9 118.3 416.0 118.3L416.0 118.3L416.0 119.5Q416.0 119.5 415.8 119.5Q415.5 119.4 415.3 119.4L415.3 119.4Q414.8 119.4 414.3 119.7Q413.9 119.9 413.6 120.3Q413.4 120.7 413.4 121.2L413.4 121.2L413.4 126Z M432.0 112.5L433.1 112.5L433.1 129.3L432.0 129.3L432.0 112.5ZM451.3 126L450.0 126L450.0 115.8L456.2 115.8L456.2 117.0L451.3 117.0L451.3 120.4L455.7 120.4L455.7 121.6L451.3 121.6L451.3 126ZM460.1 115.8L461.3 115.8L461.3 126L460.1 126L460.1 115.8ZM468.1 126.1L468.1 126.1Q467.3 126.1 466.7 125.8Q466.1 125.5 465.8 124.8Q465.5 124.2 465.5 123.2L465.5 123.2L465.5 118.4L466.7 118.4L466.7 123.1Q466.7 124.0 467.2 124.5Q467.7 125.0 468.5 125.0L468.5 125.0Q469.0 125.0 469.4 124.7Q469.9 124.5 470.1 124.0Q470.4 123.6 470.4 122.9L470.4 122.9L470.4 118.4L471.6 118.4L471.6 126L470.4 126L470.4 124.6Q470.1 125.3 469.6 125.7L469.6 125.7Q468.9 126.1 468.1 126.1ZM477.2 118.4L478.8 118.4L478.8 119.4L477.2 119.4L477.2 124.0Q477.2 124.5 477.4 124.8Q477.6 125.0 478.1 125.0L478.1 125.0Q478.2 125.0 478.4 125.0Q478.6 124.9 478.7 124.9L478.7 124.9L479.0 126.0Q478.8 126.0 478.6 126.1Q478.3 126.1 478.1 126.1L478.1 126.1Q477.1 126.1 476.5 125.6Q476.0 125.0 476.0 124.1L476.0 124.1L476.0 119.4L474.8 119.4L474.8 118.4L476.0 118.4L476.0 116.5L477.2 116.5L477.2 118.4ZM483.8 118.4L485.4 118.4L485.4 119.4L483.8 119.4L483.8 124.0Q483.8 124.5 484.0 124.8Q484.2 125.0 484.7 125.0L484.7 125.0Q484.8 125.0 485.0 125.0Q485.2 124.9 485.3 124.9L485.3 124.9L485.6 126.0Q485.4 126.0 485.1 126.1Q484.9 126.1 484.7 126.1L484.7 126.1Q483.7 126.1 483.1 125.6Q482.6 125.0 482.6 124.1L482.6 124.1L482.6 119.4L481.4 119.4L481.4 118.4L482.6 118.4L482.6 116.5L483.8 116.5L483.8 118.4ZM492.1 126.2L492.1 126.2Q491.0 126.2 490.2 125.7Q489.4 125.2 489.0 124.3Q488.6 123.4 488.6 122.2Q488.6 121.1 489.0 120.2Q489.4 119.3 490.2 118.8Q491.0 118.3 492.0 118.3L492.0 118.3Q492.6 118.3 493.2 118.5Q493.8 118.7 494.3 119.1Q494.8 119.6 495.0 120.3Q495.3 121.0 495.3 122.1L495.3 122.1L495.3 122.6L489.8 122.6Q489.8 123.3 490.1 123.9L490.1 123.9Q490.4 124.5 490.9 124.8Q491.5 125.1 492.2 125.1L492.2 125.1Q492.6 125.1 493.0 124.9Q493.3 124.8 493.6 124.5Q493.9 124.3 494.0 123.9L494.0 123.9L495.2 124.2Q495.0 124.8 494.6 125.2Q494.2 125.7 493.6 125.9Q492.9 126.2 492.1 126.2ZM489.8 121.6L489.8 121.6L494.1 121.6Q494.0 121.0 493.9 120.6L493.9 120.6Q493.6 120.0 493.2 119.7Q492.7 119.4 492.0 119.4Q491.3 119.4 490.8 119.7Q490.3 120.0 490.1 120.6L490.1 120.6Q489.9 121.0 489.8 121.6ZM500.3 126L499.1 126L499.1 118.4L500.3 118.4L500.3 119.5L500.4 119.5Q500.6 119.0 501.1 118.6Q501.7 118.2 502.4 118.2L502.4 118.2Q502.5 118.2 502.7 118.3Q502.9 118.3 503.0 118.3L503.0 118.3L503.0 119.5Q502.9 119.5 502.7 119.5Q502.5 119.4 502.2 119.4L502.2 119.4Q501.7 119.4 501.3 119.7Q500.8 119.9 500.6 120.3Q500.3 120.7 500.3 121.2L500.3 121.2L500.3 126Z M515.6 126L515.6 126L512.5 126L512.5 115.8L515.8 115.8Q517.3 115.8 518.3 116.4Q519.4 117.0 519.9 118.2Q520.5 119.3 520.5 120.9L520.5 120.9Q520.5 122.5 519.9 123.6Q519.4 124.8 518.3 125.4Q517.2 126 515.6 126ZM513.8 117.0L513.8 124.9L515.6 124.9Q516.8 124.9 517.6 124.4Q518.4 123.9 518.8 123.0Q519.2 122.1 519.2 120.9L519.2 120.9Q519.2 119.7 518.8 118.8Q518.4 117.9 517.6 117.4Q516.9 117.0 515.7 117.0L515.7 117.0L513.8 117.0ZM527.6 126.2L527.6 126.2Q526.5 126.2 525.7 125.7Q524.9 125.2 524.5 124.3Q524.0 123.4 524.0 122.2Q524.0 121.1 524.5 120.2Q524.9 119.3 525.7 118.8Q526.4 118.3 527.5 118.3L527.5 118.3Q528.1 118.3 528.7 118.5Q529.3 118.7 529.8 119.1Q530.2 119.6 530.5 120.3Q530.8 121.0 530.8 122.1L530.8 122.1L530.8 122.6L525.3 122.6Q525.3 123.3 525.6 123.9L525.6 123.9Q525.9 124.5 526.4 124.8Q526.9 125.1 527.6 125.1L527.6 125.1Q528.1 125.1 528.4 124.9Q528.8 124.8 529.1 124.5Q529.4 124.3 529.5 123.9L529.5 123.9L530.7 124.2Q530.5 124.8 530.1 125.2Q529.7 125.7 529.0 125.9Q528.4 126.2 527.6 126.2ZM525.3 121.6L525.3 121.6L529.6 121.6Q529.5 121.0 529.3 120.6L529.3 120.6Q529.1 120.0 528.6 119.7Q528.2 119.4 527.5 119.4Q526.8 119.4 526.3 119.7Q525.8 120.0 525.5 120.6L525.5 120.6Q525.3 121.0 525.3 121.6ZM538.1 126L536.8 126L533.9 118.4L535.2 118.4L536.8 122.9Q537.1 123.6 537.3 124.3L537.3 124.3Q537.4 124.6 537.4 124.9L537.4 124.9Q537.5 124.6 537.6 124.3L537.6 124.3Q537.8 123.6 538.0 122.9L538.0 122.9L539.6 118.4L541.0 118.4L538.1 126ZM547.7 126.2L547.7 126.2Q546.5 126.2 545.7 125.7Q544.9 125.2 544.5 124.3Q544.1 123.4 544.1 122.2Q544.1 121.1 544.5 120.2Q544.9 119.3 545.7 118.8Q546.5 118.3 547.5 118.3L547.5 118.3Q548.1 118.3 548.7 118.5Q549.3 118.7 549.8 119.1Q550.3 119.6 550.6 120.3Q550.8 121.0 550.8 122.1L550.8 122.1L550.8 122.6L545.3 122.6Q545.3 123.3 545.6 123.9L545.6 123.9Q545.9 124.5 546.4 124.8Q547.0 125.1 547.7 125.1L547.7 125.1Q548.1 125.1 548.5 124.9Q548.8 124.8 549.1 124.5Q549.4 124.3 549.5 123.9L549.5 123.9L550.7 124.2Q550.5 124.8 550.1 125.2Q549.7 125.7 549.1 125.9Q548.4 126.2 547.7 126.2ZM545.3 121.6L545.3 121.6L549.6 121.6Q549.5 121.0 549.4 120.6L549.4 120.6Q549.1 120.0 548.7 119.7Q548.2 119.4 547.5 119.4Q546.8 119.4 546.3 119.7Q545.8 120.0 545.6 120.6L545.6 120.6Q545.4 121.0 545.3 121.6ZM554.6 115.8L555.8 115.8L555.8 126L554.6 126L554.6 115.8ZM563.1 126.2L563.1 126.2Q562.1 126.2 561.3 125.7Q560.5 125.2 560.1 124.3Q559.6 123.4 559.6 122.2L559.6 122.2Q559.6 121.0 560.1 120.1Q560.5 119.2 561.3 118.8Q562.1 118.3 563.1 118.3L563.1 118.3Q564.1 118.3 564.9 118.8Q565.7 119.2 566.2 120.1Q566.6 121.0 566.6 122.2L566.6 122.2Q566.6 123.4 566.2 124.3Q565.7 125.2 564.9 125.7Q564.1 126.2 563.1 126.2ZM563.1 125.1L563.1 125.1Q563.9 125.1 564.4 124.7Q564.9 124.3 565.1 123.6Q565.4 123.0 565.4 122.2L565.4 122.2Q565.4 121.5 565.1 120.8Q564.9 120.2 564.4 119.8Q563.9 119.4 563.1 119.4L563.1 119.4Q562.3 119.4 561.8 119.8Q561.4 120.2 561.1 120.8Q560.9 121.5 560.9 122.2L560.9 122.2Q560.9 123.0 561.1 123.6Q561.4 124.3 561.8 124.7Q562.3 125.1 563.1 125.1ZM571.6 128.9L570.4 128.9L570.4 118.4L571.6 118.4L571.6 119.6L571.7 119.6Q571.8 119.4 572.1 119.1Q572.3 118.8 572.7 118.5Q573.2 118.3 573.9 118.3L573.9 118.3Q574.9 118.3 575.6 118.7Q576.3 119.2 576.8 120.1Q577.2 121.0 577.2 122.2L577.2 122.2Q577.2 123.4 576.8 124.3Q576.3 125.2 575.6 125.7Q574.9 126.2 573.9 126.2L573.9 126.2Q573.2 126.2 572.8 125.9Q572.3 125.7 572.1 125.3Q571.8 125.0 571.7 124.8L571.7 124.8L571.6 124.8L571.6 128.9ZM573.8 125.1L573.8 125.1Q574.5 125.1 574.9 124.7Q575.4 124.3 575.7 123.6Q575.9 123.0 575.9 122.2L575.9 122.2Q575.9 121.4 575.7 120.8Q575.4 120.1 575.0 119.7Q574.5 119.4 573.8 119.4L573.8 119.4Q573.0 119.4 572.6 119.7Q572.1 120.1 571.8 120.7Q571.6 121.3 571.6 122.2L571.6 122.2Q571.6 123.0 571.8 123.7Q572.1 124.3 572.6 124.7Q573.1 125.1 573.8 125.1ZM584.2 126.2L584.2 126.2Q583.1 126.2 582.3 125.7Q581.5 125.2 581.0 124.3Q580.6 123.4 580.6 122.2Q580.6 121.1 581.0 120.2Q581.4 119.3 582.2 118.8Q583.0 118.3 584.0 118.3L584.0 118.3Q584.6 118.3 585.2 118.5Q585.8 118.7 586.3 119.1Q586.8 119.6 587.1 120.3Q587.4 121.0 587.4 122.1L587.4 122.1L587.4 122.6L581.8 122.6Q581.9 123.3 582.1 123.9L582.1 123.9Q582.4 124.5 583.0 124.8Q583.5 125.1 584.2 125.1L584.2 125.1Q584.6 125.1 585.0 124.9Q585.4 124.8 585.6 124.5Q585.9 124.3 586.0 123.9L586.0 123.9L587.2 124.2Q587.1 124.8 586.6 125.2Q586.2 125.7 585.6 125.9Q585.0 126.2 584.2 126.2ZM581.8 121.6L581.8 121.6L586.1 121.6Q586.1 121.0 585.9 120.6L585.9 120.6Q585.6 120.0 585.2 119.7Q584.7 119.4 584.0 119.4Q583.3 119.4 582.8 119.7Q582.4 120.0 582.1 120.6L582.1 120.6Q581.9 121.0 581.8 121.6ZM592.4 126L591.1 126L591.1 118.4L592.3 118.4L592.3 119.5L592.4 119.5Q592.6 119.0 593.1 118.6Q593.7 118.2 594.4 118.2L594.4 118.2Q594.5 118.2 594.7 118.3Q594.9 118.3 595.0 118.3L595.0 118.3L595.0 119.5Q594.9 119.5 594.7 119.5Q594.5 119.4 594.3 119.4L594.3 119.4Q593.7 119.4 593.3 119.7Q592.8 119.9 592.6 120.3Q592.4 120.7 592.4 121.2L592.4 121.2L592.4 126Z "/></g><mask id="satori_om-id-1-2"><rect x="194" y="141" width="472" height="15" fill="#fff" mask="url(#satori_om-id)"/></mask><g mask="url(#satori_om-id)" clip-path="url(#satori_cp-id)"><path fill="rgba(217,157,135,0.6)" d="M198.6 153.1L198.6 153.1Q197.5 153.1 196.6 152.6Q195.7 152.0 195.2 151.0Q194.7 150.0 194.7 148.6L194.7 148.6Q194.7 147.3 195.2 146.2Q195.7 145.2 196.6 144.7Q197.5 144.2 198.6 144.2L198.6 144.2Q199.3 144.2 199.8 144.3Q200.4 144.5 200.9 144.9Q201.4 145.3 201.7 145.8Q202.0 146.3 202.1 147.0L202.1 147.0L201.0 147.0Q200.9 146.6 200.7 146.2Q200.5 145.9 200.1 145.7Q199.8 145.4 199.4 145.3Q199.0 145.2 198.6 145.2L198.6 145.2Q197.8 145.2 197.2 145.6Q196.5 146.0 196.2 146.8Q195.8 147.5 195.8 148.6L195.8 148.6Q195.8 149.8 196.2 150.5Q196.5 151.3 197.2 151.7Q197.8 152.1 198.6 152.1L198.6 152.1Q199.0 152.1 199.4 152.0Q199.8 151.8 200.1 151.6Q200.5 151.4 200.7 151.0Q200.9 150.7 201.0 150.3L201.0 150.3L202.1 150.3Q202.0 150.9 201.7 151.4Q201.4 152.0 200.9 152.3Q200.4 152.7 199.8 152.9Q199.3 153.1 198.6 153.1ZM205.7 153L204.7 153L204.7 146.4L205.7 146.4L205.7 147.5L205.8 147.5Q206.0 147.0 206.4 146.7Q206.9 146.4 207.5 146.4L207.5 146.4Q207.6 146.4 207.8 146.4Q207.9 146.4 208.0 146.4L208.0 146.4L208.0 147.4Q208.0 147.4 207.8 147.4Q207.6 147.4 207.4 147.4L207.4 147.4Q206.9 147.4 206.5 147.6Q206.2 147.8 206.0 148.1Q205.7 148.5 205.7 148.9L205.7 148.9L205.7 153ZM212.0 153.2L212.0 153.2Q211.4 153.2 210.9 152.9Q210.4 152.7 210.1 152.2Q209.8 151.8 209.8 151.1L209.8 151.1Q209.8 150.6 210.0 150.2Q210.3 149.9 210.6 149.7Q211 149.5 211.5 149.4Q211.9 149.3 212.4 149.2L212.4 149.2Q212.9 149.1 213.3 149.1Q213.7 149.1 213.9 149.0Q214.0 148.9 214.0 148.6L214.0 148.6L214.0 148.6Q214.0 148.2 213.9 147.9Q213.7 147.6 213.4 147.4Q213.1 147.3 212.7 147.3L212.7 147.3Q212.2 147.3 211.9 147.4Q211.5 147.6 211.3 147.8Q211.1 148.0 211.0 148.3L211.0 148.3L210.0 147.9Q210.3 147.3 210.7 147.0Q211.1 146.6 211.6 146.5Q212.1 146.4 212.6 146.4L212.6 146.4Q213.0 146.4 213.4 146.4Q213.8 146.5 214.2 146.8Q214.6 147.0 214.8 147.5Q215.1 147.9 215.1 148.7L215.1 148.7L215.1 153L214.1 153L214.1 152.1L214.0 152.1Q213.9 152.3 213.6 152.6Q213.4 152.8 213.0 153.0Q212.6 153.2 212.0 153.2ZM212.2 152.2L212.2 152.2Q212.8 152.2 213.2 152.0Q213.6 151.8 213.8 151.4Q214.0 151.0 214.0 150.6L214.0 150.6L214.0 149.7Q214.0 149.8 213.8 149.9Q213.5 149.9 213.3 150.0Q213.0 150.0 212.7 150.0Q212.5 150.1 212.3 150.1L212.3 150.1Q211.9 150.1 211.6 150.3Q211.3 150.4 211.1 150.6Q210.9 150.8 210.9 151.2L210.9 151.2Q210.9 151.5 211.0 151.8Q211.2 152.0 211.5 152.1Q211.8 152.2 212.2 152.2ZM219.5 146.4L221.0 146.4L221.0 147.4L219.5 147.4L219.5 153L218.4 153L218.4 147.4L217.1 147.4L217.1 146.4L218.4 146.4L218.4 145.6Q218.4 145.0 218.7 144.6Q219.0 144.2 219.4 144.1Q219.8 143.9 220.3 143.9L220.3 143.9Q220.7 143.9 220.9 143.9Q221.2 144.0 221.3 144.0L221.3 144.0L221.0 144.9Q220.9 144.9 220.8 144.9Q220.6 144.8 220.4 144.8L220.4 144.8Q219.9 144.8 219.7 145.1Q219.5 145.3 219.5 145.8L219.5 145.8L219.5 146.4ZM224.6 146.4L226.0 146.4L226.0 147.4L224.6 147.4L224.6 151.3Q224.6 151.7 224.8 151.9Q225.0 152.1 225.4 152.1L225.4 152.1Q225.5 152.1 225.6 152.1Q225.8 152.1 225.9 152.1L225.9 152.1L226.1 153.0Q226.0 153.0 225.8 153.1Q225.6 153.1 225.4 153.1L225.4 153.1Q224.5 153.1 224.0 152.6Q223.6 152.2 223.6 151.4L223.6 151.4L223.6 147.4L222.6 147.4L222.6 146.4L223.6 146.4L223.6 144.9L224.6 144.9L224.6 146.4ZM229.4 153L228.3 153L228.3 146.4L229.4 146.4L229.4 153ZM228.8 145.4L228.8 145.4Q228.5 145.4 228.3 145.2Q228.1 145.0 228.1 144.7L228.1 144.7Q228.1 144.4 228.3 144.2Q228.5 144.0 228.8 144.0L228.8 144.0Q229.2 144.0 229.4 144.2Q229.6 144.4 229.6 144.7L229.6 144.7Q229.6 145.0 229.4 145.2Q229.2 145.4 228.8 145.4ZM233.3 149.1L233.3 149.1L233.3 153L232.2 153L232.2 146.4L233.2 146.4L233.2 147.7Q233.5 147.0 233.9 146.7L233.9 146.7Q234.5 146.4 235.2 146.4L235.2 146.4Q235.9 146.4 236.4 146.6Q236.9 146.9 237.2 147.5Q237.5 148.0 237.5 148.8L237.5 148.8L237.5 153L236.4 153L236.4 148.9Q236.4 148.2 236.0 147.7Q235.6 147.3 234.9 147.3L234.9 147.3Q234.5 147.3 234.1 147.5Q233.7 147.7 233.5 148.1Q233.3 148.5 233.3 149.1ZM243.0 155.6L243.0 155.6Q242.2 155.6 241.7 155.4Q241.2 155.2 240.8 154.9Q240.5 154.6 240.3 154.3L240.3 154.3L241.1 153.7Q241.3 153.9 241.5 154.1Q241.7 154.3 242.0 154.5Q242.4 154.7 243.0 154.7L243.0 154.7Q243.8 154.7 244.3 154.3Q244.8 153.9 244.8 153.1L244.8 153.1L244.8 151.8L244.7 151.8Q244.6 152.0 244.4 152.2Q244.1 152.5 243.8 152.7Q243.4 152.9 242.8 152.9L242.8 152.9Q242.0 152.9 241.3 152.5Q240.7 152.2 240.4 151.4Q240.0 150.7 240.0 149.7L240.0 149.7Q240.0 148.7 240.4 147.9Q240.7 147.2 241.3 146.8Q242.0 146.4 242.8 146.4L242.8 146.4Q243.4 146.4 243.8 146.6Q244.2 146.8 244.4 147.1Q244.6 147.3 244.7 147.5L244.7 147.5L244.8 147.5L244.8 146.4L245.8 146.4L245.8 153.2Q245.8 154.0 245.4 154.5Q245.1 155.1 244.4 155.3Q243.8 155.6 243.0 155.6ZM242.9 152.0L242.9 152.0Q243.5 152.0 243.9 151.7Q244.4 151.4 244.6 150.9Q244.8 150.4 244.8 149.7L244.8 149.7Q244.8 149.0 244.6 148.4Q244.4 147.9 243.9 147.6Q243.5 147.3 242.9 147.3L242.9 147.3Q242.3 147.3 241.9 147.6Q241.5 147.9 241.3 148.5Q241.1 149.0 241.1 149.7L241.1 149.7Q241.1 150.3 241.3 150.9Q241.5 151.4 241.9 151.7Q242.3 152.0 242.9 152.0Z M256.7 153.1L256.7 153.1Q255.6 153.1 254.7 152.6Q253.8 152.0 253.3 151.0Q252.8 150.0 252.8 148.6L252.8 148.6Q252.8 147.3 253.3 146.2Q253.8 145.2 254.7 144.7Q255.6 144.2 256.7 144.2L256.7 144.2Q257.4 144.2 258.0 144.3Q258.5 144.5 259.0 144.9Q259.5 145.3 259.8 145.8Q260.1 146.3 260.2 147.0L260.2 147.0L259.1 147.0Q259.0 146.6 258.8 146.2Q258.6 145.9 258.2 145.7Q257.9 145.4 257.5 145.3Q257.1 145.2 256.7 145.2L256.7 145.2Q255.9 145.2 255.3 145.6Q254.7 146.0 254.3 146.8Q253.9 147.5 253.9 148.6L253.9 148.6Q253.9 149.8 254.3 150.5Q254.7 151.3 255.3 151.7Q255.9 152.1 256.7 152.1L256.7 152.1Q257.1 152.1 257.5 152.0Q257.9 151.8 258.2 151.6Q258.6 151.4 258.8 151.0Q259.0 150.7 259.1 150.3L259.1 150.3L260.2 150.3Q260.1 150.9 259.8 151.4Q259.5 152.0 259.0 152.3Q258.6 152.7 258.0 152.9Q257.4 153.1 256.7 153.1ZM263.9 153L262.8 153L262.8 146.4L263.8 146.4L263.8 147.5L263.9 147.5Q264.1 147.0 264.5 146.7Q265.0 146.4 265.6 146.4L265.6 146.4Q265.7 146.4 265.9 146.4Q266.0 146.4 266.1 146.4L266.1 146.4L266.1 147.4Q266.1 147.4 265.9 147.4Q265.7 147.4 265.5 147.4L265.5 147.4Q265.0 147.4 264.7 147.6Q264.3 147.8 264.1 148.1Q263.9 148.5 263.9 148.9L263.9 148.9L263.9 153ZM271.0 153.1L271.0 153.1Q270.1 153.1 269.4 152.7Q268.8 152.3 268.4 151.5Q268.0 150.8 268.0 149.8L268.0 149.8Q268.0 148.7 268.4 148.0Q268.8 147.2 269.4 146.8Q270.1 146.4 271.0 146.4L271.0 146.4Q271.9 146.4 272.6 146.8Q273.2 147.2 273.6 148.0Q274.0 148.7 274.0 149.8L274.0 149.8Q274.0 150.8 273.6 151.5Q273.2 152.3 272.6 152.7Q271.9 153.1 271.0 153.1ZM271.0 152.2L271.0 152.2Q271.7 152.2 272.1 151.9Q272.5 151.5 272.7 151.0Q272.9 150.4 272.9 149.8L272.9 149.8Q272.9 149.1 272.7 148.6Q272.5 148.0 272.1 147.7Q271.7 147.3 271.0 147.3L271.0 147.3Q270.3 147.3 269.9 147.7Q269.5 148.0 269.3 148.6Q269.1 149.1 269.1 149.8L269.1 149.8Q269.1 150.4 269.3 151.0Q269.5 151.5 269.9 151.9Q270.3 152.2 271.0 152.2ZM278.8 153.1L278.8 153.1Q278.1 153.1 277.6 152.9Q277.0 152.7 276.7 152.4Q276.3 152.0 276.2 151.4L276.2 151.4L277.2 151.2Q277.4 151.7 277.8 152.0Q278.2 152.2 278.7 152.2L278.7 152.2Q279.4 152.2 279.8 151.9Q280.2 151.6 280.2 151.2L280.2 151.2Q280.2 150.9 280.0 150.7Q279.8 150.4 279.3 150.3L279.3 150.3L278.2 150.1Q277.3 149.9 276.9 149.4Q276.4 149.0 276.4 148.3L276.4 148.3Q276.4 147.7 276.7 147.3Q277.1 146.9 277.6 146.6Q278.2 146.4 278.9 146.4L278.9 146.4Q279.5 146.4 280.0 146.6Q280.5 146.8 280.8 147.1Q281.1 147.5 281.2 147.9L281.2 147.9L280.3 148.2Q280.1 147.8 279.8 147.6Q279.5 147.3 278.9 147.3L278.9 147.3Q278.3 147.3 277.9 147.5Q277.5 147.8 277.5 148.2L277.5 148.2Q277.5 148.6 277.8 148.8Q278.0 149.0 278.6 149.2L278.6 149.2L279.6 149.4Q280.5 149.6 280.9 150.0Q281.3 150.5 281.3 151.2L281.3 151.2Q281.3 151.7 281.0 152.2Q280.7 152.6 280.1 152.9Q279.5 153.1 278.8 153.1ZM286.1 153.1L286.1 153.1Q285.4 153.1 284.9 152.9Q284.4 152.7 284.0 152.4Q283.7 152.0 283.6 151.4L283.6 151.4L284.6 151.2Q284.7 151.7 285.1 152.0Q285.5 152.2 286.1 152.2L286.1 152.2Q286.8 152.2 287.2 151.9Q287.6 151.6 287.6 151.2L287.6 151.2Q287.6 150.9 287.3 150.7Q287.1 150.4 286.6 150.3L286.6 150.3L285.5 150.1Q284.6 149.9 284.2 149.4Q283.8 149.0 283.8 148.3L283.8 148.3Q283.8 147.7 284.1 147.3Q284.4 146.9 284.9 146.6Q285.5 146.4 286.2 146.4L286.2 146.4Q286.9 146.4 287.3 146.6Q287.8 146.8 288.1 147.1Q288.4 147.5 288.5 147.9L288.5 147.9L287.6 148.2Q287.5 147.8 287.1 147.6Q286.8 147.3 286.2 147.3L286.2 147.3Q285.6 147.3 285.2 147.5Q284.8 147.8 284.8 148.2L284.8 148.2Q284.8 148.6 285.1 148.8Q285.4 149.0 285.9 149.2L285.9 149.2L286.9 149.4Q287.8 149.6 288.2 150.0Q288.7 150.5 288.7 151.2L288.7 151.2Q288.7 151.7 288.3 152.2Q288.0 152.6 287.4 152.9Q286.9 153.1 286.1 153.1ZM291.1 148.8L294.9 148.8L294.9 149.8L291.1 149.8L291.1 148.8ZM299.0 153L297.8 153L297.8 144.3L300.8 144.3Q301.8 144.3 302.5 144.6Q303.2 145.0 303.5 145.6Q303.8 146.3 303.8 147.0Q303.8 147.8 303.5 148.5Q303.2 149.1 302.5 149.5Q301.9 149.8 300.8 149.8L300.8 149.8L299.0 149.8L299.0 153ZM299.0 145.2L299.0 148.9L300.8 148.9Q301.5 148.9 301.9 148.6Q302.3 148.4 302.5 148.0Q302.7 147.6 302.7 147.0Q302.7 146.5 302.5 146.1Q302.3 145.7 301.9 145.5Q301.5 145.2 300.8 145.2L300.8 145.2L299.0 145.2ZM306.4 144.3L307.4 144.3L307.4 153L306.4 153L306.4 144.3ZM312.1 153.2L312.1 153.2Q311.5 153.2 311.0 152.9Q310.5 152.7 310.2 152.2Q309.9 151.8 309.9 151.1L309.9 151.1Q309.9 150.6 310.1 150.2Q310.3 149.9 310.7 149.7Q311.1 149.5 311.5 149.4Q312.0 149.3 312.4 149.2L312.4 149.2Q313.0 149.1 313.4 149.1Q313.8 149.1 313.9 149.0Q314.1 148.9 314.1 148.6L314.1 148.6L314.1 148.6Q314.1 148.2 314.0 147.9Q313.8 147.6 313.5 147.4Q313.2 147.3 312.7 147.3L312.7 147.3Q312.3 147.3 311.9 147.4Q311.6 147.6 311.4 147.8Q311.2 148.0 311.1 148.3L311.1 148.3L310.1 147.9Q310.3 147.3 310.8 147.0Q311.2 146.6 311.7 146.5Q312.2 146.4 312.7 146.4L312.7 146.4Q313.0 146.4 313.5 146.4Q313.9 146.5 314.3 146.8Q314.7 147.0 314.9 147.5Q315.2 147.9 315.2 148.7L315.2 148.7L315.2 153L314.1 153L314.1 152.1L314.1 152.1Q313.9 152.3 313.7 152.6Q313.5 152.8 313.1 153.0Q312.7 153.2 312.1 153.2ZM312.3 152.2L312.3 152.2Q312.9 152.2 313.3 152.0Q313.7 151.8 313.9 151.4Q314.1 151.0 314.1 150.6L314.1 150.6L314.1 149.7Q314.0 149.8 313.8 149.9Q313.6 149.9 313.3 150.0Q313.1 150.0 312.8 150.0Q312.5 150.1 312.4 150.1L312.4 150.1Q312.0 150.1 311.7 150.3Q311.3 150.4 311.1 150.6Q310.9 150.8 310.9 151.2L310.9 151.2Q310.9 151.5 311.1 151.8Q311.3 152.0 311.6 152.1Q311.9 152.2 312.3 152.2ZM319.3 146.4L320.6 146.4L320.6 147.4L319.3 147.4L319.3 151.3Q319.3 151.7 319.4 151.9Q319.6 152.1 320.0 152.1L320.0 152.1Q320.1 152.1 320.3 152.1Q320.4 152.1 320.6 152.1L320.6 152.1L320.8 153.0Q320.6 153.0 320.4 153.1Q320.2 153.1 320.0 153.1L320.0 153.1Q319.1 153.1 318.7 152.6Q318.2 152.2 318.2 151.4L318.2 151.4L318.2 147.4L317.2 147.4L317.2 146.4L318.2 146.4L318.2 144.9L319.3 144.9L319.3 146.4ZM324.5 146.4L326.0 146.4L326.0 147.4L324.5 147.4L324.5 153L323.4 153L323.4 147.4L322.1 147.4L322.1 146.4L323.4 146.4L323.4 145.6Q323.4 145.0 323.7 144.6Q324.0 144.2 324.4 144.1Q324.8 143.9 325.3 143.9L325.3 143.9Q325.7 143.9 325.9 143.9Q326.2 144.0 326.3 144.0L326.3 144.0L326.0 144.9Q325.9 144.9 325.8 144.9Q325.6 144.8 325.4 144.8L325.4 144.8Q324.9 144.8 324.7 145.1Q324.5 145.3 324.5 145.8L324.5 145.8L324.5 146.4ZM331.1 153.1L331.1 153.1Q330.2 153.1 329.5 152.7Q328.8 152.3 328.4 151.5Q328.1 150.8 328.1 149.8L328.1 149.8Q328.1 148.7 328.4 148.0Q328.8 147.2 329.5 146.8Q330.2 146.4 331.1 146.4L331.1 146.4Q331.9 146.4 332.6 146.8Q333.3 147.2 333.7 148.0Q334.0 148.7 334.0 149.8L334.0 149.8Q334.0 150.8 333.7 151.5Q333.3 152.3 332.6 152.7Q331.9 153.1 331.1 153.1ZM331.1 152.2L331.1 152.2Q331.7 152.2 332.1 151.9Q332.6 151.5 332.8 151.0Q333.0 150.4 333.0 149.8L333.0 149.8Q333.0 149.1 332.8 148.6Q332.6 148.0 332.1 147.7Q331.7 147.3 331.1 147.3L331.1 147.3Q330.4 147.3 330.0 147.7Q329.6 148.0 329.3 148.6Q329.1 149.1 329.1 149.8L329.1 149.8Q329.1 150.4 329.3 151.0Q329.6 151.5 330.0 151.9Q330.4 152.2 331.1 152.2ZM337.6 153L336.6 153L336.6 146.4L337.6 146.4L337.6 147.5L337.7 147.5Q337.9 147.0 338.3 146.7Q338.8 146.4 339.4 146.4L339.4 146.4Q339.5 146.4 339.6 146.4Q339.8 146.4 339.9 146.4L339.9 146.4L339.9 147.4Q339.9 147.4 339.7 147.4Q339.5 147.4 339.3 147.4L339.3 147.4Q338.8 147.4 338.4 147.6Q338.1 147.8 337.8 148.1Q337.6 148.5 337.6 148.9L337.6 148.9L337.6 153ZM343.2 153L342.1 153L342.1 146.4L343.1 146.4L343.1 147.7Q343.3 147.3 343.5 147.0L343.5 147.0Q343.8 146.7 344.2 146.5Q344.5 146.3 345.0 146.3L345.0 146.3Q345.7 146.3 346.1 146.8L346.1 146.8Q346.5 147.1 346.6 147.7L346.6 147.7Q346.8 147.3 347.0 147.1L347.0 147.1Q347.3 146.7 347.7 146.5Q348.2 146.3 348.7 146.3L348.7 146.3Q349.3 146.3 349.7 146.6Q350.2 146.8 350.5 147.3Q350.8 147.8 350.8 148.6L350.8 148.6L350.8 153L349.7 153L349.7 148.6Q349.7 147.9 349.3 147.6Q348.9 147.3 348.4 147.3L348.4 147.3Q347.9 147.3 347.6 147.5Q347.3 147.7 347.1 148.0Q347.0 148.3 347.0 148.7L347.0 148.7L347.0 153L345.9 153L345.9 148.5Q345.9 148.0 345.5 147.6Q345.2 147.3 344.6 147.3L344.6 147.3Q344.2 147.3 343.9 147.5Q343.6 147.7 343.4 148.0Q343.2 148.4 343.2 148.9L343.2 148.9L343.2 153Z M359.2 153L358.1 153L358.1 144.3L359.7 144.3L361.8 149.8Q361.9 150.0 362.0 150.3Q362.1 150.6 362.2 150.9Q362.3 151.2 362.4 151.6L362.4 151.6Q362.5 151.7 362.5 151.8L362.5 151.8Q362.5 151.7 362.5 151.6L362.5 151.6Q362.6 151.3 362.8 150.9Q362.9 150.6 363.0 150.3Q363.1 150.0 363.1 149.8L363.1 149.8L365.3 144.3L366.8 144.3L366.8 153L365.8 153L365.8 148.0Q365.8 147.7 365.8 147.4Q365.8 147.1 365.8 146.7Q365.8 146.3 365.8 145.9L365.8 145.9Q365.8 145.7 365.8 145.5L365.8 145.5Q365.7 145.7 365.6 146.0L365.6 146.0Q365.5 146.4 365.4 146.8Q365.2 147.2 365.1 147.5Q365.0 147.8 364.9 148.0L364.9 148.0L363.0 153L362.0 153L360.0 148.0Q359.9 147.8 359.8 147.5Q359.7 147.2 359.6 146.8Q359.4 146.4 359.3 146.0L359.3 146.0Q359.2 145.7 359.1 145.5L359.1 145.5Q359.1 145.7 359.1 145.8L359.1 145.8Q359.2 146.2 359.2 146.6Q359.2 147.0 359.2 147.4Q359.2 147.7 359.2 148.0L359.2 148.0L359.2 153ZM372.5 153.1L372.5 153.1Q371.6 153.1 370.9 152.7Q370.3 152.3 369.9 151.5Q369.5 150.8 369.5 149.8L369.5 149.8Q369.5 148.7 369.9 148.0Q370.3 147.2 370.9 146.8Q371.6 146.4 372.5 146.4L372.5 146.4Q373.4 146.4 374.1 146.8Q374.7 147.2 375.1 148.0Q375.5 148.7 375.5 149.8L375.5 149.8Q375.5 150.8 375.1 151.5Q374.7 152.3 374.1 152.7Q373.4 153.1 372.5 153.1ZM372.5 152.2L372.5 152.2Q373.2 152.2 373.6 151.9Q374.0 151.5 374.2 151.0Q374.4 150.4 374.4 149.8L374.4 149.8Q374.4 149.1 374.2 148.6Q374.0 148.0 373.6 147.7Q373.2 147.3 372.5 147.3L372.5 147.3Q371.8 147.3 371.4 147.7Q371.0 148.0 370.8 148.6Q370.6 149.1 370.6 149.8L370.6 149.8Q370.6 150.4 370.8 151.0Q371.0 151.5 371.4 151.9Q371.8 152.2 372.5 152.2ZM381.1 153.1L381.1 153.1Q380.4 153.1 380.1 152.9Q379.7 152.7 379.5 152.4Q379.3 152.2 379.2 152.0L379.2 152.0L379.0 152.0L379.0 153L378.0 153L378.0 144.3L379.1 144.3L379.1 147.5L379.2 147.5Q379.3 147.3 379.5 147.1Q379.7 146.8 380.0 146.6Q380.4 146.4 381.1 146.4L381.1 146.4Q381.9 146.4 382.5 146.8Q383.1 147.2 383.5 147.9Q383.8 148.7 383.8 149.7L383.8 149.7Q383.8 150.8 383.5 151.5Q383.1 152.3 382.5 152.7Q381.9 153.1 381.1 153.1ZM380.9 152.2L380.9 152.2Q381.5 152.2 381.9 151.9Q382.3 151.5 382.6 151.0Q382.8 150.4 382.8 149.7L382.8 149.7Q382.8 149.1 382.6 148.5Q382.4 148.0 381.9 147.6Q381.5 147.3 380.9 147.3L380.9 147.3Q380.3 147.3 379.9 147.6Q379.5 147.9 379.3 148.5Q379.1 149.0 379.1 149.7L379.1 149.7Q379.1 150.5 379.3 151.0Q379.5 151.6 379.9 151.9Q380.3 152.2 380.9 152.2ZM387.4 153L386.4 153L386.4 146.4L387.4 146.4L387.4 153ZM386.9 145.4L386.9 145.4Q386.6 145.4 386.4 145.2Q386.2 145.0 386.2 144.7L386.2 144.7Q386.2 144.4 386.4 144.2Q386.6 144.0 386.9 144.0L386.9 144.0Q387.2 144.0 387.4 144.2Q387.6 144.4 387.6 144.7L387.6 144.7Q387.6 145.0 387.4 145.2Q387.2 145.4 386.9 145.4ZM390.3 144.3L391.3 144.3L391.3 153L390.3 153L390.3 144.3ZM396.9 153.1L396.9 153.1Q396.0 153.1 395.3 152.7Q394.6 152.3 394.2 151.5Q393.9 150.8 393.9 149.8Q393.9 148.8 394.2 148.0Q394.6 147.2 395.3 146.8Q395.9 146.4 396.8 146.4L396.8 146.4Q397.3 146.4 397.8 146.5Q398.3 146.7 398.8 147.1Q399.2 147.5 399.4 148.1Q399.7 148.7 399.7 149.6L399.7 149.6L399.7 150.1L394.9 150.1Q395.0 150.7 395.2 151.2L395.2 151.2Q395.4 151.7 395.9 151.9Q396.3 152.2 396.9 152.2L396.9 152.2Q397.3 152.2 397.6 152.1Q398.0 152.0 398.2 151.8Q398.4 151.5 398.5 151.2L398.5 151.2L399.6 151.5Q399.4 152.0 399.0 152.3Q398.7 152.7 398.1 152.9Q397.6 153.1 396.9 153.1ZM394.9 149.2L394.9 149.2L398.6 149.2Q398.6 148.7 398.4 148.4L398.4 148.4Q398.2 147.9 397.8 147.6Q397.4 147.3 396.8 147.3Q396.2 147.3 395.8 147.6Q395.4 147.9 395.2 148.3L395.2 148.3Q395.0 148.7 394.9 149.2Z M407.1 153L405.9 153L409.1 144.3L410.4 144.3L413.6 153L412.4 153L411.6 150.6L408.0 150.6L407.1 153ZM408.3 149.6L411.2 149.6L410.6 147.8Q410.4 147.3 410.2 146.6L410.2 146.6Q410.0 146.0 409.7 145.2L409.7 145.2Q409.5 146.0 409.3 146.6L409.3 146.6Q409.1 147.4 408.9 147.8L408.9 147.8L408.3 149.6ZM416.9 155.4L415.8 155.4L415.8 146.4L416.9 146.4L416.9 147.5L417.0 147.5Q417.1 147.3 417.3 147.1Q417.5 146.8 417.9 146.6Q418.2 146.4 418.9 146.4L418.9 146.4Q419.7 146.4 420.3 146.8Q420.9 147.2 421.3 147.9Q421.6 148.7 421.6 149.7L421.6 149.7Q421.6 150.8 421.3 151.5Q420.9 152.3 420.3 152.7Q419.7 153.1 418.9 153.1L418.9 153.1Q418.3 153.1 417.9 152.9Q417.5 152.7 417.3 152.4Q417.1 152.2 417.0 152.0L417.0 152.0L416.9 152.0L416.9 155.4ZM418.7 152.2L418.7 152.2Q419.3 152.2 419.7 151.9Q420.2 151.5 420.4 151.0Q420.6 150.4 420.6 149.7L420.6 149.7Q420.6 149.1 420.4 148.5Q420.2 148.0 419.7 147.6Q419.3 147.3 418.7 147.3L418.7 147.3Q418.1 147.3 417.7 147.6Q417.3 147.9 417.1 148.5Q416.9 149.0 416.9 149.7L416.9 149.7Q416.9 150.5 417.1 151.0Q417.3 151.6 417.7 151.9Q418.1 152.2 418.7 152.2ZM425.2 155.4L424.2 155.4L424.2 146.4L425.2 146.4L425.2 147.5L425.3 147.5Q425.4 147.3 425.6 147.1Q425.8 146.8 426.2 146.6Q426.6 146.4 427.2 146.4L427.2 146.4Q428.0 146.4 428.7 146.8Q429.3 147.2 429.6 147.9Q430.0 148.7 430.0 149.7L430.0 149.7Q430.0 150.8 429.6 151.5Q429.3 152.3 428.7 152.7Q428.0 153.1 427.2 153.1L427.2 153.1Q426.6 153.1 426.2 152.9Q425.8 152.7 425.6 152.4Q425.4 152.2 425.3 152.0L425.3 152.0L425.2 152.0L425.2 155.4ZM427.1 152.2L427.1 152.2Q427.7 152.2 428.1 151.9Q428.5 151.5 428.7 151.0Q428.9 150.4 428.9 149.7L428.9 149.7Q428.9 149.1 428.7 148.5Q428.5 148.0 428.1 147.6Q427.7 147.3 427.1 147.3L427.1 147.3Q426.5 147.3 426.0 147.6Q425.6 147.9 425.4 148.5Q425.2 149.0 425.2 149.7L425.2 149.7Q425.2 150.5 425.4 151.0Q425.6 151.6 426.1 151.9Q426.5 152.2 427.1 152.2ZM434.8 153.1L434.8 153.1Q434.1 153.1 433.6 152.9Q433.0 152.7 432.7 152.4Q432.4 152.0 432.2 151.4L432.2 151.4L433.2 151.2Q433.4 151.7 433.8 152.0Q434.2 152.2 434.7 152.2L434.7 152.2Q435.4 152.2 435.8 151.9Q436.2 151.6 436.2 151.2L436.2 151.2Q436.2 150.9 436.0 150.7Q435.8 150.4 435.3 150.3L435.3 150.3L434.2 150.1Q433.3 149.9 432.9 149.4Q432.4 149.0 432.4 148.3L432.4 148.3Q432.4 147.7 432.8 147.3Q433.1 146.9 433.6 146.6Q434.2 146.4 434.9 146.4L434.9 146.4Q435.5 146.4 436.0 146.6Q436.5 146.8 436.8 147.1Q437.1 147.5 437.2 147.9L437.2 147.9L436.3 148.2Q436.1 147.8 435.8 147.6Q435.5 147.3 434.9 147.3L434.9 147.3Q434.3 147.3 433.9 147.5Q433.5 147.8 433.5 148.2L433.5 148.2Q433.5 148.6 433.8 148.8Q434.0 149.0 434.6 149.2L434.6 149.2L435.6 149.4Q436.5 149.6 436.9 150.0Q437.3 150.5 437.3 151.2L437.3 151.2Q437.3 151.7 437.0 152.2Q436.7 152.6 436.1 152.9Q435.5 153.1 434.8 153.1Z M445.0 149.6L445.0 149.6Q444.7 149.6 444.5 149.4Q444.2 149.2 444.2 148.9L444.2 148.9Q444.2 148.5 444.5 148.3Q444.7 148.1 445.0 148.1L445.0 148.1Q445.4 148.1 445.6 148.3Q445.8 148.5 445.8 148.9L445.8 148.9Q445.8 149.2 445.6 149.4Q445.4 149.6 445.0 149.6Z M456.7 153.1L456.7 153.1Q455.6 153.1 454.7 152.6Q453.9 152.0 453.4 151.0Q452.9 150.0 452.9 148.6L452.9 148.6Q452.9 147.3 453.4 146.2Q453.9 145.2 454.7 144.7Q455.6 144.2 456.7 144.2L456.7 144.2Q457.9 144.2 458.7 144.7Q459.6 145.2 460.1 146.2Q460.6 147.3 460.6 148.6L460.6 148.6Q460.6 150.0 460.1 151.0Q459.6 152.0 458.7 152.6Q457.9 153.1 456.7 153.1ZM456.7 152.1L456.7 152.1Q457.5 152.1 458.1 151.7Q458.8 151.3 459.1 150.5Q459.5 149.8 459.5 148.6L459.5 148.6Q459.5 147.5 459.1 146.7Q458.8 146.0 458.1 145.6Q457.5 145.2 456.7 145.2L456.7 145.2Q456.0 145.2 455.3 145.6Q454.7 146.0 454.3 146.8Q453.9 147.5 453.9 148.6L453.9 148.6Q453.9 149.8 454.3 150.5Q454.7 151.3 455.3 151.7Q456.0 152.1 456.7 152.1ZM464.3 155.4L463.2 155.4L463.2 146.4L464.3 146.4L464.3 147.5L464.4 147.5Q464.5 147.3 464.7 147.1Q464.9 146.8 465.3 146.6Q465.6 146.4 466.3 146.4L466.3 146.4Q467.1 146.4 467.7 146.8Q468.3 147.2 468.7 147.9Q469.1 148.7 469.1 149.7L469.1 149.7Q469.1 150.8 468.7 151.5Q468.4 152.3 467.7 152.7Q467.1 153.1 466.3 153.1L466.3 153.1Q465.7 153.1 465.3 152.9Q464.9 152.7 464.7 152.4Q464.5 152.2 464.4 152.0L464.4 152.0L464.3 152.0L464.3 155.4ZM466.1 152.2L466.1 152.2Q466.7 152.2 467.2 151.9Q467.6 151.5 467.8 151.0Q468.0 150.4 468.0 149.7L468.0 149.7Q468.0 149.1 467.8 148.5Q467.6 148.0 467.2 147.6Q466.7 147.3 466.1 147.3L466.1 147.3Q465.5 147.3 465.1 147.6Q464.7 147.9 464.5 148.5Q464.3 149.0 464.3 149.7L464.3 149.7Q464.3 150.5 464.5 151.0Q464.7 151.6 465.1 151.9Q465.5 152.2 466.1 152.2ZM474.3 153.1L474.3 153.1Q473.4 153.1 472.7 152.7Q472.0 152.3 471.6 151.5Q471.3 150.8 471.3 149.8Q471.3 148.8 471.6 148.0Q472.0 147.2 472.7 146.8Q473.3 146.4 474.2 146.4L474.2 146.4Q474.7 146.4 475.3 146.5Q475.8 146.7 476.2 147.1Q476.6 147.5 476.8 148.1Q477.1 148.7 477.1 149.6L477.1 149.6L477.1 150.1L472.3 150.1Q472.4 150.7 472.6 151.2L472.6 151.2Q472.8 151.7 473.3 151.9Q473.8 152.2 474.4 152.2L474.4 152.2Q474.7 152.2 475.1 152.1Q475.4 152.0 475.6 151.8Q475.8 151.5 476.0 151.2L476.0 151.2L477.0 151.5Q476.8 152.0 476.5 152.3Q476.1 152.7 475.6 152.9Q475.0 153.1 474.3 153.1ZM472.3 149.2L472.3 149.2L476.0 149.2Q476.0 148.7 475.8 148.4L475.8 148.4Q475.6 147.9 475.2 147.6Q474.8 147.3 474.2 147.3Q473.6 147.3 473.2 147.6Q472.8 147.9 472.6 148.3L472.6 148.3Q472.4 148.7 472.3 149.2ZM480.6 149.1L480.6 149.1L480.6 153L479.6 153L479.6 146.4L480.6 146.4L480.6 147.7Q480.9 147.0 481.3 146.7L481.3 146.7Q481.9 146.4 482.6 146.4L482.6 146.4Q483.3 146.4 483.8 146.6Q484.3 146.9 484.5 147.5Q484.8 148.0 484.8 148.8L484.8 148.8L484.8 153L483.8 153L483.8 148.9Q483.8 148.2 483.4 147.7Q483.0 147.3 482.3 147.3L482.3 147.3Q481.8 147.3 481.5 147.5Q481.1 147.7 480.9 148.1Q480.6 148.5 480.6 149.1Z M493.3 146.4L494.6 146.4L494.6 147.4L493.3 147.4L493.3 151.3Q493.3 151.7 493.5 151.9Q493.6 152.1 494.1 152.1L494.1 152.1Q494.2 152.1 494.3 152.1Q494.5 152.1 494.6 152.1L494.6 152.1L494.8 153.0Q494.6 153.0 494.4 153.1Q494.2 153.1 494.0 153.1L494.0 153.1Q493.2 153.1 492.7 152.6Q492.2 152.2 492.2 151.4L492.2 151.4L492.2 147.4L491.2 147.4L491.2 146.4L492.2 146.4L492.2 144.9L493.3 144.9L493.3 146.4ZM499.6 153.1L499.6 153.1Q498.8 153.1 498.1 152.7Q497.4 152.3 497.0 151.5Q496.7 150.8 496.7 149.8L496.7 149.8Q496.7 148.7 497.0 148.0Q497.4 147.2 498.1 146.8Q498.8 146.4 499.6 146.4L499.6 146.4Q500.5 146.4 501.2 146.8Q501.9 147.2 502.3 148.0Q502.6 148.7 502.6 149.8L502.6 149.8Q502.6 150.8 502.3 151.5Q501.9 152.3 501.2 152.7Q500.5 153.1 499.6 153.1ZM499.6 152.2L499.6 152.2Q500.3 152.2 500.7 151.9Q501.2 151.5 501.4 151.0Q501.6 150.4 501.6 149.8L501.6 149.8Q501.6 149.1 501.4 148.6Q501.2 148.0 500.7 147.7Q500.3 147.3 499.6 147.3L499.6 147.3Q499.0 147.3 498.6 147.7Q498.1 148.0 497.9 148.6Q497.7 149.1 497.7 149.8L497.7 149.8Q497.7 150.4 497.9 151.0Q498.1 151.5 498.6 151.9Q499.0 152.2 499.6 152.2Z M510.8 153L509.7 153L509.7 144.3L515.0 144.3L515.0 145.3L510.8 145.3L510.8 148.2L514.6 148.2L514.6 149.2L510.8 149.2L510.8 153ZM518.7 153L517.6 153L517.6 146.4L518.7 146.4L518.7 147.5L518.7 147.5Q518.9 147.0 519.4 146.7Q519.8 146.4 520.4 146.4L520.4 146.4Q520.5 146.4 520.7 146.4Q520.9 146.4 521.0 146.4L521.0 146.4L521.0 147.4Q520.9 147.4 520.7 147.4Q520.5 147.4 520.3 147.4L520.3 147.4Q519.9 147.4 519.5 147.6Q519.1 147.8 518.9 148.1Q518.7 148.5 518.7 148.9L518.7 148.9L518.7 153ZM525.9 153.1L525.9 153.1Q525.0 153.1 524.3 152.7Q523.6 152.3 523.2 151.5Q522.8 150.8 522.8 149.8Q522.8 148.8 523.2 148.0Q523.6 147.2 524.2 146.8Q524.9 146.4 525.8 146.4L525.8 146.4Q526.3 146.4 526.8 146.5Q527.3 146.7 527.7 147.1Q528.1 147.5 528.4 148.1Q528.6 148.7 528.6 149.6L528.6 149.6L528.6 150.1L523.9 150.1Q523.9 150.7 524.2 151.2L524.2 151.2Q524.4 151.7 524.9 151.9Q525.3 152.2 525.9 152.2L525.9 152.2Q526.3 152.2 526.6 152.1Q526.9 152.0 527.2 151.8Q527.4 151.5 527.5 151.2L527.5 151.2L528.5 151.5Q528.4 152.0 528.0 152.3Q527.7 152.7 527.1 152.9Q526.6 153.1 525.9 153.1ZM523.9 149.2L523.9 149.2L527.6 149.2Q527.5 148.7 527.4 148.4L527.4 148.4Q527.2 147.9 526.8 147.6Q526.4 147.3 525.8 147.3Q525.2 147.3 524.8 147.6Q524.3 147.9 524.1 148.3L524.1 148.3Q523.9 148.7 523.9 149.2ZM533.9 153.1L533.9 153.1Q533.0 153.1 532.3 152.7Q531.6 152.3 531.2 151.5Q530.8 150.8 530.8 149.8Q530.8 148.8 531.2 148.0Q531.6 147.2 532.2 146.8Q532.9 146.4 533.8 146.4L533.8 146.4Q534.3 146.4 534.8 146.5Q535.3 146.7 535.7 147.1Q536.1 147.5 536.4 148.1Q536.6 148.7 536.6 149.6L536.6 149.6L536.6 150.1L531.9 150.1Q531.9 150.7 532.1 151.2L532.1 151.2Q532.4 151.7 532.9 151.9Q533.3 152.2 533.9 152.2L533.9 152.2Q534.3 152.2 534.6 152.1Q534.9 152.0 535.2 151.8Q535.4 151.5 535.5 151.2L535.5 151.2L536.5 151.5Q536.4 152.0 536.0 152.3Q535.6 152.7 535.1 152.9Q534.6 153.1 533.9 153.1ZM531.9 149.2L531.9 149.2L535.6 149.2Q535.5 148.7 535.4 148.4L535.4 148.4Q535.2 147.9 534.8 147.6Q534.4 147.3 533.8 147.3Q533.2 147.3 532.8 147.6Q532.3 147.9 532.1 148.3L532.1 148.3Q531.9 148.7 531.9 149.2ZM539.1 144.3L540.2 144.3L540.2 153L539.1 153L539.1 144.3ZM544.9 153.2L544.9 153.2Q544.3 153.2 543.8 152.9Q543.2 152.7 542.9 152.2Q542.7 151.8 542.7 151.1L542.7 151.1Q542.7 150.6 542.9 150.2Q543.1 149.9 543.5 149.7Q543.8 149.5 544.3 149.4Q544.7 149.3 545.2 149.2L545.2 149.2Q545.8 149.1 546.2 149.1Q546.5 149.1 546.7 149.0Q546.9 148.9 546.9 148.6L546.9 148.6L546.9 148.6Q546.9 148.2 546.7 147.9Q546.6 147.6 546.3 147.4Q546.0 147.3 545.5 147.3L545.5 147.3Q545.0 147.3 544.7 147.4Q544.4 147.6 544.2 147.8Q544.0 148.0 543.9 148.3L543.9 148.3L542.8 147.9Q543.1 147.3 543.5 147.0Q543.9 146.6 544.5 146.5Q545.0 146.4 545.5 146.4L545.5 146.4Q545.8 146.4 546.2 146.4Q546.6 146.5 547.0 146.8Q547.4 147.0 547.7 147.5Q547.9 147.9 547.9 148.7L547.9 148.7L547.9 153L546.9 153L546.9 152.1L546.8 152.1Q546.7 152.3 546.5 152.6Q546.2 152.8 545.8 153.0Q545.4 153.2 544.9 153.2ZM545.1 152.2L545.1 152.2Q545.7 152.2 546.1 152.0Q546.5 151.8 546.7 151.4Q546.9 151.0 546.9 150.6L546.9 150.6L546.9 149.7Q546.8 149.8 546.6 149.9Q546.4 149.9 546.1 150.0Q545.8 150.0 545.6 150.0Q545.3 150.1 545.2 150.1L545.2 150.1Q544.8 150.1 544.4 150.3Q544.1 150.4 543.9 150.6Q543.7 150.8 543.7 151.2L543.7 151.2Q543.7 151.5 543.9 151.8Q544.1 152.0 544.4 152.1Q544.7 152.2 545.1 152.2ZM551.8 149.1L551.8 149.1L551.8 153L550.8 153L550.8 146.4L551.8 146.4L551.8 147.7Q552.1 147.0 552.5 146.7L552.5 146.7Q553.1 146.4 553.8 146.4L553.8 146.4Q554.5 146.4 555.0 146.6Q555.5 146.9 555.7 147.5Q556.0 148.0 556.0 148.8L556.0 148.8L556.0 153L555.0 153L555.0 148.9Q555.0 148.2 554.6 147.7Q554.2 147.3 553.5 147.3L553.5 147.3Q553.0 147.3 552.7 147.5Q552.3 147.7 552.1 148.1Q551.8 148.5 551.8 149.1ZM561.5 153.1L561.5 153.1Q560.7 153.1 560.0 152.7Q559.3 152.3 558.9 151.5Q558.6 150.8 558.6 149.8L558.6 149.8Q558.6 148.7 558.9 148.0Q559.3 147.2 560.0 146.8Q560.7 146.4 561.5 146.4L561.5 146.4Q562.0 146.4 562.4 146.5Q562.9 146.6 563.2 146.8Q563.6 147.1 563.8 147.4Q564.1 147.8 564.2 148.2L564.2 148.2L563.2 148.5Q563.1 148.2 563.0 148.0Q562.8 147.8 562.6 147.6Q562.4 147.5 562.1 147.4Q561.9 147.3 561.5 147.3L561.5 147.3Q560.9 147.3 560.5 147.7Q560.0 148.0 559.8 148.6Q559.6 149.1 559.6 149.8L559.6 149.8Q559.6 150.4 559.8 151.0Q560.0 151.5 560.5 151.9Q560.9 152.2 561.5 152.2L561.5 152.2Q561.9 152.2 562.1 152.1Q562.4 152.0 562.6 151.9Q562.8 151.7 563.0 151.5Q563.1 151.3 563.2 151.0L563.2 151.0L564.2 151.3Q564.1 151.7 563.8 152.1Q563.6 152.4 563.2 152.6Q562.9 152.9 562.5 153.0Q562.0 153.1 561.5 153.1ZM569.5 153.1L569.5 153.1Q568.5 153.1 567.8 152.7Q567.2 152.3 566.8 151.5Q566.4 150.8 566.4 149.8Q566.4 148.8 566.8 148.0Q567.1 147.2 567.8 146.8Q568.5 146.4 569.4 146.4L569.4 146.4Q569.9 146.4 570.4 146.5Q570.9 146.7 571.3 147.1Q571.7 147.5 572.0 148.1Q572.2 148.7 572.2 149.6L572.2 149.6L572.2 150.1L567.5 150.1Q567.5 150.7 567.7 151.2L567.7 151.2Q568.0 151.7 568.4 151.9Q568.9 152.2 569.5 152.2L569.5 152.2Q569.9 152.2 570.2 152.1Q570.5 152.0 570.7 151.8Q571.0 151.5 571.1 151.2L571.1 151.2L572.1 151.5Q572.0 152.0 571.6 152.3Q571.2 152.7 570.7 152.9Q570.2 153.1 569.5 153.1ZM567.5 149.2L567.5 149.2L571.1 149.2Q571.1 148.7 571.0 148.4L571.0 148.4Q570.8 147.9 570.4 147.6Q570.0 147.3 569.4 147.3Q568.8 147.3 568.3 147.6Q567.9 147.9 567.7 148.3L567.7 148.3Q567.5 148.7 567.5 149.2Z M581.6 153.1L581.6 153.1Q580.7 153.1 580.1 152.8Q579.5 152.5 579.1 151.9Q578.8 151.4 578.8 150.7L578.8 150.7Q578.8 150.1 579.0 149.7Q579.3 149.3 579.7 149.0L579.7 149.0Q580.0 148.6 580.5 148.3L580.5 148.3Q580.4 148.1 580.3 148.0L580.3 148.0Q579.9 147.6 579.7 147.1Q579.5 146.7 579.5 146.2L579.5 146.2Q579.5 145.6 579.8 145.1Q580.0 144.7 580.5 144.4Q581.0 144.2 581.6 144.2L581.6 144.2Q582.3 144.2 582.8 144.4Q583.2 144.7 583.5 145.1Q583.8 145.5 583.8 146.1L583.8 146.1Q583.8 146.5 583.6 146.8Q583.5 147.1 583.2 147.4Q582.9 147.7 582.6 148.0L582.6 148.0L582.0 148.4L583.8 150.7Q583.9 150.6 584.0 150.4L584.0 150.4Q584.2 149.8 584.2 149.1L584.2 149.1L585.2 149.1Q585.2 150.0 585.0 150.6Q584.8 151.1 584.6 151.4L584.6 151.4Q584.5 151.5 584.5 151.5L584.5 151.5L585.7 153L584.4 153L583.8 152.3Q583.4 152.7 582.8 152.9L582.8 152.9Q582.2 153.1 581.6 153.1ZM583.2 151.5L581.1 149.0L580.8 149.3Q580.3 149.7 580.1 150.0Q579.9 150.4 579.9 150.8L579.9 150.8Q579.9 151.2 580.1 151.5Q580.3 151.8 580.7 152.0Q581.0 152.2 581.5 152.2L581.5 152.2Q582.0 152.2 582.5 152.0L582.5 152.0Q582.9 151.8 583.2 151.5L583.2 151.5ZM581.3 147.7L581.3 147.7L581.9 147.3Q582.1 147.1 582.2 147.0Q582.4 146.8 582.6 146.6Q582.7 146.4 582.7 146.1L582.7 146.1Q582.7 145.6 582.4 145.4Q582.1 145.1 581.7 145.1L581.7 145.1Q581.3 145.1 581.1 145.2Q580.8 145.4 580.7 145.6Q580.6 145.8 580.6 146.2L580.6 146.2Q580.6 146.5 580.7 146.8Q580.9 147.1 581.1 147.4L581.1 147.4Q581.2 147.5 581.3 147.7Z M592.3 144.3L593.4 144.3L593.4 153L592.3 153L592.3 144.3ZM597.5 149.1L597.5 149.1L597.5 153L596.4 153L596.4 146.4L597.4 146.4L597.4 147.7Q597.7 147.0 598.2 146.7L598.2 146.7Q598.7 146.4 599.5 146.4L599.5 146.4Q600.1 146.4 600.6 146.6Q601.1 146.9 601.4 147.5Q601.7 148.0 601.7 148.8L601.7 148.8L601.7 153L600.6 153L600.6 148.9Q600.6 148.2 600.2 147.7Q599.8 147.3 599.1 147.3L599.1 147.3Q598.7 147.3 598.3 147.5Q597.9 147.7 597.7 148.1Q597.5 148.5 597.5 149.1ZM605.8 146.4L607.1 146.4L607.1 147.4L605.8 147.4L605.8 151.3Q605.8 151.7 605.9 151.9Q606.1 152.1 606.5 152.1L606.5 152.1Q606.6 152.1 606.8 152.1Q606.9 152.1 607.1 152.1L607.1 152.1L607.3 153.0Q607.1 153.0 606.9 153.1Q606.7 153.1 606.5 153.1L606.5 153.1Q605.6 153.1 605.2 152.6Q604.7 152.2 604.7 151.4L604.7 151.4L604.7 147.4L603.7 147.4L603.7 146.4L604.7 146.4L604.7 144.9L605.8 144.9L605.8 146.4ZM612.2 153.1L612.2 153.1Q611.3 153.1 610.6 152.7Q609.9 152.3 609.5 151.5Q609.1 150.8 609.1 149.8Q609.1 148.8 609.5 148.0Q609.9 147.2 610.5 146.8Q611.2 146.4 612.1 146.4L612.1 146.4Q612.6 146.4 613.1 146.5Q613.6 146.7 614.0 147.1Q614.4 147.5 614.7 148.1Q614.9 148.7 614.9 149.6L614.9 149.6L614.9 150.1L610.2 150.1Q610.2 150.7 610.4 151.2L610.4 151.2Q610.7 151.7 611.2 151.9Q611.6 152.2 612.2 152.2L612.2 152.2Q612.6 152.2 612.9 152.1Q613.2 152.0 613.5 151.8Q613.7 151.5 613.8 151.2L613.8 151.2L614.8 151.5Q614.7 152.0 614.3 152.3Q613.9 152.7 613.4 152.9Q612.9 153.1 612.2 153.1ZM610.2 149.2L610.2 149.2L613.9 149.2Q613.8 148.7 613.7 148.4L613.7 148.4Q613.5 147.9 613.1 147.6Q612.7 147.3 612.1 147.3Q611.5 147.3 611.1 147.6Q610.6 147.9 610.4 148.3L610.4 148.3Q610.2 148.7 610.2 149.2ZM618.5 153L617.4 153L617.4 146.4L618.5 146.4L618.5 147.5L618.5 147.5Q618.7 147.0 619.2 146.7Q619.6 146.4 620.2 146.4L620.2 146.4Q620.3 146.4 620.5 146.4Q620.7 146.4 620.8 146.4L620.8 146.4L620.8 147.4Q620.7 147.4 620.5 147.4Q620.3 147.4 620.1 147.4L620.1 147.4Q619.7 147.4 619.3 147.6Q618.9 147.8 618.7 148.1Q618.5 148.5 618.5 148.9L618.5 148.9L618.5 153ZM624.0 149.1L624.0 149.1L624.0 153L623.0 153L623.0 146.4L624.0 146.4L624.0 147.7Q624.3 147.0 624.7 146.7L624.7 146.7Q625.2 146.4 626.0 146.4L626.0 146.4Q626.6 146.4 627.1 146.6Q627.6 146.9 627.9 147.5Q628.2 148.0 628.2 148.8L628.2 148.8L628.2 153L627.1 153L627.1 148.9Q627.1 148.2 626.7 147.7Q626.4 147.3 625.7 147.3L625.7 147.3Q625.2 147.3 624.8 147.5Q624.4 147.7 624.2 148.1Q624.0 148.5 624.0 149.1ZM633.3 153.1L633.3 153.1Q632.6 153.1 632.1 152.9Q631.6 152.7 631.2 152.4Q630.9 152.0 630.8 151.4L630.8 151.4L631.8 151.2Q631.9 151.7 632.3 152.0Q632.7 152.2 633.3 152.2L633.3 152.2Q633.9 152.2 634.4 151.9Q634.8 151.6 634.8 151.2L634.8 151.2Q634.8 150.9 634.5 150.7Q634.3 150.4 633.8 150.3L633.8 150.3L632.7 150.1Q631.8 149.9 631.4 149.4Q631.0 149.0 631.0 148.3L631.0 148.3Q631.0 147.7 631.3 147.3Q631.6 146.9 632.1 146.6Q632.7 146.4 633.4 146.4L633.4 146.4Q634.1 146.4 634.5 146.6Q635.0 146.8 635.3 147.1Q635.6 147.5 635.7 147.9L635.7 147.9L634.8 148.2Q634.6 147.8 634.3 147.6Q634.0 147.3 633.4 147.3L633.4 147.3Q632.8 147.3 632.4 147.5Q632.0 147.8 632.0 148.2L632.0 148.2Q632.0 148.6 632.3 148.8Q632.5 149.0 633.1 149.2L633.1 149.2L634.1 149.4Q635.0 149.6 635.4 150.0Q635.9 150.5 635.9 151.2L635.9 151.2Q635.9 151.7 635.5 152.2Q635.2 152.6 634.6 152.9Q634.0 153.1 633.3 153.1ZM639.4 149.1L639.4 149.1L639.4 153L638.4 153L638.4 144.3L639.4 144.3L639.4 147.6Q639.7 147.0 640.1 146.7L640.1 146.7Q640.7 146.4 641.4 146.4L641.4 146.4Q642.1 146.4 642.6 146.6Q643.1 146.9 643.3 147.5Q643.6 148.0 643.6 148.8L643.6 148.8L643.6 153L642.6 153L642.6 148.9Q642.6 148.2 642.2 147.7Q641.8 147.3 641.1 147.3L641.1 147.3Q640.6 147.3 640.2 147.5Q639.9 147.7 639.7 148.1Q639.4 148.5 639.4 149.1ZM647.5 153L646.5 153L646.5 146.4L647.5 146.4L647.5 153ZM647.0 145.4L647.0 145.4Q646.7 145.4 646.5 145.2Q646.3 145.0 646.3 144.7L646.3 144.7Q646.3 144.4 646.5 144.2Q646.7 144.0 647.0 144.0L647.0 144.0Q647.3 144.0 647.5 144.2Q647.8 144.4 647.8 144.7L647.8 144.7Q647.8 145.0 647.5 145.2Q647.3 145.4 647.0 145.4ZM651.4 155.4L650.4 155.4L650.4 146.4L651.4 146.4L651.4 147.5L651.5 147.5Q651.6 147.3 651.8 147.1Q652.0 146.8 652.4 146.6Q652.8 146.4 653.4 146.4L653.4 146.4Q654.2 146.4 654.9 146.8Q655.5 147.2 655.8 147.9Q656.2 148.7 656.2 149.7L656.2 149.7Q656.2 150.8 655.8 151.5Q655.5 152.3 654.9 152.7Q654.2 153.1 653.4 153.1L653.4 153.1Q652.8 153.1 652.4 152.9Q652.0 152.7 651.8 152.4Q651.6 152.2 651.5 152.0L651.5 152.0L651.4 152.0L651.4 155.4ZM653.3 152.2L653.3 152.2Q653.9 152.2 654.3 151.9Q654.7 151.5 654.9 151.0Q655.1 150.4 655.1 149.7L655.1 149.7Q655.1 149.1 654.9 148.5Q654.7 148.0 654.3 147.6Q653.9 147.3 653.3 147.3L653.3 147.3Q652.7 147.3 652.3 147.6Q651.8 147.9 651.6 148.5Q651.4 149.0 651.4 149.7L651.4 149.7Q651.4 150.5 651.6 151.0Q651.8 151.6 652.3 151.9Q652.7 152.2 653.3 152.2ZM661.0 153.1L661.0 153.1Q660.3 153.1 659.8 152.9Q659.2 152.7 658.9 152.4Q658.6 152.0 658.4 151.4L658.4 151.4L659.4 151.2Q659.6 151.7 660.0 152.0Q660.4 152.2 660.9 152.2L660.9 152.2Q661.6 152.2 662.0 151.9Q662.4 151.6 662.4 151.2L662.4 151.2Q662.4 150.9 662.2 150.7Q662.0 150.4 661.5 150.3L661.5 150.3L660.4 150.1Q659.5 149.9 659.1 149.4Q658.6 149.0 658.6 148.3L658.6 148.3Q658.6 147.7 659.0 147.3Q659.3 146.9 659.8 146.6Q660.4 146.4 661.1 146.4L661.1 146.4Q661.7 146.4 662.2 146.6Q662.7 146.8 663.0 147.1Q663.3 147.5 663.4 147.9L663.4 147.9L662.5 148.2Q662.3 147.8 662.0 147.6Q661.7 147.3 661.1 147.3L661.1 147.3Q660.5 147.3 660.1 147.5Q659.7 147.8 659.7 148.2L659.7 148.2Q659.7 148.6 660.0 148.8Q660.2 149.0 660.8 149.2L660.8 149.2L661.8 149.4Q662.7 149.6 663.1 150.0Q663.5 150.5 663.5 151.2L663.5 151.2Q663.5 151.7 663.2 152.2Q662.9 152.6 662.3 152.9Q661.7 153.1 661.0 153.1Z "/></g></svg>