<!-- Generated by readme-aura https://github.com/collectioneur/readme-aura -->
<svg width="860" height="260" viewBox="0 0 860 260" xmlns="http://www.w3.org/2000/svg"><defs><clipPath id="satori_bc-id"><path x="0" y="0" width="860" height="260" d="M16,0 h828 a16,16 0 0 1 16,16 v228 a16,16 0 0 1 -16,16 h-828 a16,16 0 0 1 -16,-16 v-228 a16,16 0 0 1 16,-16"/></clipPath></defs><clipPath id="satori_cp-id"><path x="0" y="0" width="860" height="260" d="M16,0 h828 a16,16 0 0 1 16,16 v228 a16,16 0 0 1 -16,16 h-828 a16,16 0 0 1 -16,-16 v-228 a16,16 0 0 1 16,-16"/></clipPath><mask id="satori_om-id"><rect x="1" y="1" width="858" height="258" fill="#fff"/><path width="860" height="260" fill="none" stroke="#000" stroke-width="2" d="M4.686,4.686 A16,16 0 0 1 16,0 h828 a16,16 0 0 1 16,16 v228 a16,16 0 0 1 -16,16 h-828 a16,16 0 0 1 -16,-16 v-228 A16,16 0 0 1 4.686,4.686"/></mask><path x="0" y="0" width="860" height="260" fill="#0d0810" d="M16,0 h828 a16,16 0 0 1 16,16 v228 a16,16 0 0 1 -16,16 h-828 a16,16 0 0 1 -16,-16 v-228 a16,16 0 0 1 16,-16"/><path width="860" height="260" clip-path="url(#satori_bc-id)" fill="none" stroke="rgba(68,33,40,0.5)" stroke-width="2" d="M4.686,4.686 A16,16 0 0 1 16,0 h828 a16,16 0 0 1 16,16 v228 a16,16 0 0 1 -16,16 h-828 a16,16 0 0 1 -16,-16 v-228 A16,16 0 0 1 4.686,4.686"/><clipPath id="satori_cp-id-0" clip-path="url(#satori_cp-id)"><rect x="1" y="1" width="860" height="260"/></clipPath><mask id="satori_om-id-0"><rect x="1" y="1" width="860" height="260" fill="#fff" mask="url(#satori_om-id)"/></mask><svg x="1" y="1" width="860" height="260" preserveAspectRatio="none" clip-path="url(#satori_cp-id-0)" mask="url(#satori_om-id-0)"><defs><radialGradient id="sg1" cx="50%" cy="50%" r="50%"><stop offset="0%" stop-color="rgba(80,18,35,0.75)"></stop><stop offset="100%" stop-color="rgba(80,18,35,0)"></stop></radialGradient><radialGradient id="sg2" cx="50%" cy="50%" r="50%"><stop offset="0%" stop-color="rgba(130,55,75,0.55)"></stop><stop offset="100%" stop-color="rgba(130,55,75,0)"></stop></radialGradient><radialGradient id="sg3" cx="50%" cy="50%" r="50%"><stop offset="0%" stop-color="rgba(217,157,135,0.18)"></stop><stop offset="100%" stop-color="rgba(217,157,135,0)"></stop></radialGradient></defs><ellipse id="sb1" cx="150" cy="250" rx="300" ry="160" fill="url(#sg1)"></ellipse><ellipse id="sb2" cx="680" cy="250" rx="270" ry="150" fill="url(#sg2)"></ellipse><ellipse id="sb3" cx="430" cy="130" rx="180" ry="100" fill="url(#sg3)"></ellipse><style>

    @keyframes s1 { 0%,100%{transform:translateX(0);opacity:.6} 50%{transform:translateX(220px);opacity:.85} }
    @keyframes s2 { 0%,100%{transform:translateX(0);opacity:.5} 50%{transform:translateX(-190px);opacity:.8} }
    @keyframes s3 { 0%,100%{opacity:.7} 50%{opacity:.35} }
    #sb1{animation:s1 13s ease-in-out infinite} #sb2{animation:s2 10s ease-in-out infinite} #sb3{animation:s3 8s ease-in-out infinite}
  
</style>
</svg><mask id="satori_om-id-0-0"><rect x="1" y="1" width="0" height="260" fill="#fff" mask="url(#satori_om-id)"/></mask><mask id="satori_om-id-0-0-0"><rect x="1" y="1" width="0" height="260" fill="#fff" mask="url(#satori_om-id)"/></mask><mask id="satori_om-id-0-0-0-0"><rect x="1" y="1" width="0" height="260" fill="#fff" mask="url(#satori_om-id)"/></mask><mask id="satori_om-id-0-0-0-1"><rect x="1" y="1" width="0" height="260" fill="#fff" mask="url(#satori_om-id)"/></mask><mask id="satori_om-id-0-0-1"><rect x="1" y="1" width="0" height="260" fill="#fff" mask="url(#satori_om-id)"/></mask><mask id="satori_om-id-0-0-1-0"><rect x="1" y="1" width="0" height="260" fill="#fff" mask="url(#satori_om-id)"/></mask><mask id="satori_om-id-0-0-1-1"><rect x="1" y="1" width="0" height="260" fill="#fff" mask="url(#satori_om-id)"/></mask><mask id="satori_om-id-0-0-2"><rect x="1" y="1" width="0" height="260" fill="#fff" mask="url(#satori_om-id)"/></mask><mask id="satori_om-id-0-0-2-0"><rect x="1" y="1" width="0" height="260" fill="#fff" mask="url(#satori_om-id)"/></mask><mask id="satori_om-id-0-0-2-1"><rect x="1" y="1" width="0" height="260" fill="#fff" mask="url(#satori_om-id)"/></mask><mask id="satori_om-id-0-1"><rect x="1" y="1" width="0" height="260" fill="#fff" mask="url(#satori_om-id)"/></mask><mask id="satori_om-id-0-2"><rect x="1" y="1" width="0" height="260" fill="#fff" mask="url(#satori_om-id)"/></mask><mask id="satori_om-id-0-3"><rect x="1" y="1" width="0" height="260" fill="#fff" mask="url(#satori_om-id)"/></mask><mask id="satori_om-id-1"><rect x="1" y="116" width="858" height="29" fill="#fff" mask="url(#satori_om-id)"/></mask><mask id="satori_om-id-1-0"><rect x="343" y="116" width="174" height="13" fill="#fff" mask="url(#satori_om-id)"/></mask><g mask="url(#satori_om-id)" clip-path="url(#satori_cp-id)"><path fill="rgba(217,157,135,0.5)" d="M343 123.1L354 123.1L354 124.0L343 124.0L343 123.1Z M369.3 127.1L369.3 127.1Q368.3 127.1 367.5 126.6Q366.7 126.1 366.2 125.2Q365.7 124.3 365.7 123.0L365.7 123.0Q365.7 121.7 366.2 120.8Q366.7 119.9 367.4 119.4Q368.2 118.9 369.3 118.9L369.3 118.9Q369.9 118.9 370.5 119.1Q371.0 119.3 371.4 119.6Q371.9 120.0 372.2 120.4Q372.4 120.9 372.6 121.5L372.6 121.5L371.5 121.5Q371.4 121.1 371.2 120.8Q371.0 120.5 370.7 120.3Q370.4 120.1 370.1 120.0Q369.7 119.8 369.3 119.8L369.3 119.8Q368.6 119.8 368.0 120.2Q367.4 120.6 367.1 121.3Q366.7 122.0 366.7 123.0L366.7 123.0Q366.7 124.0 367.1 124.7Q367.4 125.4 368.0 125.8Q368.6 126.2 369.3 126.2L369.3 126.2Q370.0 126.2 370.5 125.9Q371.0 125.6 371.3 125.1L371.3 125.1Q371.6 124.6 371.6 123.9L371.6 123.9L369.5 123.9L369.5 123.0L372.6 123.0L372.6 123.9Q372.6 124.8 372.2 125.6Q371.8 126.3 371.0 126.7Q370.3 127.1 369.3 127.1ZM378.3 119.0L379.3 119.0L379.3 127L378.3 127L378.3 119.0ZM387.3 119.9L384.8 119.9L384.8 119.0L390.8 119.0L390.8 119.9L388.3 119.9L388.3 127L387.3 127L387.3 119.9ZM397.3 127L396.3 127L396.3 119.0L397.3 119.0L397.3 122.5L401.5 122.5L401.5 119.0L402.6 119.0L402.6 127L401.5 127L401.5 123.4L397.3 123.4L397.3 127ZM411.6 127.1L411.6 127.1Q410.7 127.1 410.0 126.8Q409.3 126.4 408.9 125.7Q408.5 125.1 408.5 124.3L408.5 124.3L408.5 119.0L409.5 119.0L409.5 124.2Q409.5 124.8 409.8 125.2Q410.0 125.7 410.5 125.9Q411.0 126.2 411.6 126.2L411.6 126.2Q412.3 126.2 412.8 125.9Q413.2 125.7 413.5 125.2Q413.7 124.8 413.7 124.2L413.7 124.2L413.7 119.0L414.7 119.0L414.7 124.3Q414.7 125.1 414.4 125.7Q414.0 126.4 413.3 126.8Q412.6 127.1 411.6 127.1ZM423.6 127L420.7 127L420.7 119.0L423.5 119.0Q424.4 119.0 424.9 119.3Q425.4 119.6 425.7 120.1Q426.0 120.5 426.0 121.1L426.0 121.1Q426.0 121.6 425.8 122.0Q425.6 122.3 425.3 122.5Q425.0 122.7 424.7 122.8L424.7 122.8L424.7 122.9Q425.0 122.9 425.4 123.1Q425.8 123.4 426.0 123.8Q426.3 124.2 426.3 124.9L426.3 124.9Q426.3 125.5 426.0 126.0Q425.7 126.4 425.1 126.7Q424.6 127 423.6 127L423.6 127ZM421.7 123.4L421.7 126.1L423.6 126.1Q424.5 126.1 424.9 125.7Q425.3 125.4 425.3 124.9L425.3 124.9Q425.3 124.5 425.1 124.1Q424.9 123.8 424.5 123.6Q424.2 123.4 423.6 123.4L423.6 123.4L421.7 123.4ZM421.7 119.9L421.7 122.5L423.5 122.5Q423.9 122.5 424.2 122.3Q424.6 122.2 424.8 121.9Q425.0 121.6 425.0 121.1L425.0 121.1Q425.0 120.6 424.6 120.3Q424.3 119.9 423.5 119.9L423.5 119.9L421.7 119.9Z M441.5 127.1L441.5 127.1Q440.7 127.1 440.0 126.9Q439.4 126.6 439.0 126.1Q438.7 125.6 438.6 124.9L438.6 124.9L439.7 124.9Q439.7 125.4 440.0 125.6Q440.2 125.9 440.7 126.1Q441.1 126.2 441.5 126.2L441.5 126.2Q442.1 126.2 442.5 126.0Q442.9 125.9 443.2 125.5Q443.4 125.2 443.4 124.8L443.4 124.8Q443.4 124.4 443.2 124.2Q443.0 123.9 442.7 123.8Q442.3 123.6 441.9 123.5L441.9 123.5L440.9 123.2Q439.9 123.0 439.4 122.4Q438.9 121.9 438.9 121.1L438.9 121.1Q438.9 120.5 439.2 120.0Q439.6 119.4 440.2 119.2Q440.8 118.9 441.6 118.9L441.6 118.9Q442.4 118.9 443.0 119.2Q443.6 119.4 444.0 119.9Q444.3 120.4 444.3 121.0L444.3 121.0L443.3 121.0Q443.3 120.4 442.8 120.1Q442.3 119.8 441.6 119.8L441.6 119.8Q441.1 119.8 440.7 120.0Q440.3 120.1 440.1 120.4Q439.8 120.7 439.8 121.1L439.8 121.1Q439.8 121.5 440.1 121.8Q440.4 122.0 440.7 122.2Q441.1 122.3 441.4 122.4L441.4 122.4L442.2 122.6Q442.5 122.7 442.9 122.8Q443.3 123.0 443.6 123.2Q444.0 123.5 444.2 123.9Q444.4 124.3 444.4 124.8L444.4 124.8Q444.4 125.5 444.1 126.0Q443.8 126.5 443.1 126.8Q442.5 127.1 441.5 127.1ZM452.1 119.9L449.6 119.9L449.6 119.0L455.6 119.0L455.6 119.9L453.1 119.9L453.1 127L452.1 127L452.1 119.9ZM461.5 127L460.4 127L463.4 119.0L464.5 119.0L467.5 127L466.4 127L465.6 124.8L462.3 124.8L461.5 127ZM462.6 123.9L465.3 123.9L464.7 122.3Q464.5 121.8 464.3 121.2L464.3 121.2Q464.2 120.6 463.9 119.8L463.9 119.8Q463.7 120.6 463.5 121.2L463.5 121.2Q463.3 121.8 463.2 122.3L463.2 122.3L462.6 123.9ZM474.8 119.9L472.3 119.9L472.3 119.0L478.3 119.0L478.3 119.9L475.8 119.9L475.8 127L474.8 127L474.8 119.9ZM486.4 127.1L486.4 127.1Q485.5 127.1 484.9 126.9Q484.2 126.6 483.9 126.1Q483.5 125.6 483.5 124.9L483.5 124.9L484.5 124.9Q484.6 125.4 484.8 125.6Q485.1 125.9 485.5 126.1Q485.9 126.2 486.4 126.2L486.4 126.2Q486.9 126.2 487.4 126.0Q487.8 125.9 488.0 125.5Q488.3 125.2 488.3 124.8L488.3 124.8Q488.3 124.4 488.1 124.2Q487.9 123.9 487.5 123.8Q487.1 123.6 486.7 123.5L486.7 123.5L485.7 123.2Q484.8 123.0 484.2 122.4Q483.7 121.9 483.7 121.1L483.7 121.1Q483.7 120.5 484.1 120.0Q484.4 119.4 485.1 119.2Q485.7 118.9 486.5 118.9L486.5 118.9Q487.2 118.9 487.9 119.2Q488.5 119.4 488.8 119.9Q489.2 120.4 489.2 121.0L489.2 121.0L488.2 121.0Q488.1 120.4 487.6 120.1Q487.1 119.8 486.4 119.8L486.4 119.8Q485.9 119.8 485.5 120.0Q485.1 120.1 484.9 120.4Q484.7 120.7 484.7 121.1L484.7 121.1Q484.7 121.5 485.0 121.8Q485.2 122.0 485.6 122.2Q485.9 122.3 486.2 122.4L486.2 122.4L487.0 122.6Q487.3 122.7 487.7 122.8Q488.1 123.0 488.5 123.2Q488.8 123.5 489.1 123.9Q489.3 124.3 489.3 124.8L489.3 124.8Q489.3 125.5 488.9 126.0Q488.6 126.5 488.0 126.8Q487.3 127.1 486.4 127.1Z M501.0 123.1L512.0 123.1L512.0 124.0L501.0 124.0L501.0 123.1Z "/></g><mask id="satori_om-id-1-1"><rect x="41" y="145" width="778" height="0" fill="#fff" mask="url(#satori_om-id)"/></mask><mask id="satori_om-id-1-1-0"><rect x="420" y="145" width="0" height="0" fill="#fff" mask="url(#satori_om-id)"/></mask><mask id="satori_om-id-1-1-1"><rect x="440" y="145" width="0" height="0" fill="#fff" mask="url(#satori_om-id)"/></mask></svg>