<!-- Generated by readme-aura https://github.com/collectioneur/readme-aura -->
<svg width="860" height="80" viewBox="0 0 860 80" xmlns="http://www.w3.org/2000/svg"><defs><pattern id="satori_pattern_id_0" x="0" y="0" width="1" height="1" patternUnits="objectBoundingBox"><linearGradient id="satori_biid_0" x1="0" y1="0" x2="0" y2="1" spreadMethod="pad"><stop offset="0%" stop-color="transparent"/><stop offset="60%" stop-color="#0d0810"/><stop offset="100%" stop-color="#0d0810"/></linearGradient><rect x="0" y="0" width="860" height="80" fill="url(#satori_biid_0)"/></pattern></defs><clipPath id="satori_cp-id"><rect x="0" y="0" width="860" height="80"/></clipPath><mask id="satori_om-id"><rect x="0" y="0" width="860" height="80" fill="#fff"/></mask><rect x="0" y="0" width="860" height="80" fill="url(#satori_pattern_id_0)"/><clipPath id="satori_cp-id-0" clip-path="url(#satori_cp-id)"><rect x="0" y="0" width="860" height="80"/></clipPath><mask id="satori_om-id-0"><rect x="0" y="0" width="860" height="80" fill="#fff" mask="url(#satori_om-id)"/></mask><svg x="0" y="0" width="860" height="80" preserveAspectRatio="none" clip-path="url(#satori_cp-id-0)" mask="url(#satori_om-id-0)"><defs><radialGradient id="fg1" cx="50%" cy="50%" r="50%"><stop offset="0%" stop-color="rgba(90,20,40,0.6)"></stop><stop offset="100%" stop-color="rgba(90,20,40,0)"></stop></radialGradient><radialGradient id="fg2" cx="50%" cy="50%" r="50%"><stop offset="0%" stop-color="rgba(140,60,80,0.5)"></stop><stop offset="100%" stop-color="rgba(140,60,80,0)"></stop></radialGradient></defs><ellipse cx="250" cy="40" rx="300" ry="60" fill="url(#fg1)"></ellipse><ellipse cx="620" cy="50" rx="260" ry="55" fill="url(#fg2)"></ellipse></svg><mask id="satori_om-id-0-0"><rect x="0" y="0" width="0" height="80" fill="#fff" mask="url(#satori_om-id)"/></mask><mask id="satori_om-id-0-0-0"><rect x="0" y="0" width="0" height="80" fill="#fff" mask="url(#satori_om-id)"/></mask><mask id="satori_om-id-0-0-0-0"><rect x="0" y="0" width="0" height="80" fill="#fff" mask="url(#satori_om-id)"/></mask><mask id="satori_om-id-0-0-0-1"><rect x="0" y="0" width="0" height="80" fill="#fff" mask="url(#satori_om-id)"/></mask><mask id="satori_om-id-0-0-1"><rect x="0" y="0" width="0" height="80" fill="#fff" mask="url(#satori_om-id)"/></mask><mask id="satori_om-id-0-0-1-0"><rect x="0" y="0" width="0" height="80" fill="#fff" mask="url(#satori_om-id)"/></mask><mask id="satori_om-id-0-0-1-1"><rect x="0" y="0" width="0" height="80" fill="#fff" mask="url(#satori_om-id)"/></mask><mask id="satori_om-id-0-1"><rect x="0" y="0" width="0" height="80" fill="#fff" mask="url(#satori_om-id)"/></mask><mask id="satori_om-id-0-2"><rect x="0" y="0" width="0" height="80" fill="#fff" mask="url(#satori_om-id)"/></mask><mask id="satori_om-id-1"><rect x="349" y="55" width="163" height="13" fill="#fff" mask="url(#satori_om-id)"/></mask><g mask="url(#satori_om-id)" clip-path="url(#satori_cp-id)"><path fill="rgba(123,98,97,0.5)" d="M349.8 58.0L350.8 58.0L350.8 66L349.8 66L349.8 58.0ZM357.5 66.1L357.5 66.1Q356.9 66.1 356.5 65.8Q356.0 65.6 355.8 65.1Q355.5 64.6 355.5 63.8L355.5 63.8L355.5 60.0L356.5 60.0L356.5 63.7Q356.5 64.4 356.8 64.8Q357.2 65.2 357.8 65.2L357.8 65.2Q358.3 65.2 358.6 65.0Q359.0 64.8 359.1 64.5Q359.3 64.1 359.3 63.6L359.3 63.6L359.3 60.0L360.3 60.0L360.3 66L359.4 66L359.4 64.9Q359.1 65.5 358.7 65.7L358.7 65.7Q358.2 66.1 357.5 66.1ZM366.0 62.4L366.0 62.4L366.0 66L365.0 66L365.0 60.0L365.9 60.0L366.0 61.1Q366.2 60.5 366.6 60.3L366.6 60.3Q367.1 59.9 367.8 59.9L367.8 59.9Q368.4 59.9 368.9 60.2Q369.3 60.4 369.6 60.9Q369.8 61.4 369.8 62.2L369.8 62.2L369.8 66L368.9 66L368.9 62.3Q368.9 61.6 368.5 61.2Q368.1 60.8 367.5 60.8L367.5 60.8Q367.1 60.8 366.7 61.0Q366.4 61.2 366.2 61.5Q366.0 61.9 366.0 62.4ZM376.2 66.1L376.2 66.1Q375.6 66.1 375.2 65.9Q374.7 65.7 374.4 65.3Q374.2 64.9 374.2 64.3L374.2 64.3Q374.2 63.8 374.4 63.5Q374.6 63.1 374.9 62.9Q375.2 62.8 375.7 62.7Q376.1 62.6 376.5 62.5L376.5 62.5Q377.0 62.5 377.4 62.4Q377.7 62.4 377.9 62.3Q378.0 62.2 378.0 62.0L378.0 62.0L378.0 61.9Q378.0 61.6 377.9 61.3Q377.7 61.0 377.5 60.9Q377.2 60.8 376.8 60.8L376.8 60.8Q376.3 60.8 376.0 60.9Q375.7 61.0 375.5 61.2Q375.3 61.4 375.3 61.6L375.3 61.6L374.3 61.3Q374.6 60.8 374.9 60.5Q375.3 60.2 375.8 60.0Q376.3 59.9 376.7 59.9L376.7 59.9Q377.0 59.9 377.4 60.0Q377.8 60.1 378.2 60.3Q378.5 60.5 378.8 60.9Q379.0 61.3 379.0 62.0L379.0 62.0L379.0 66L378.0 66L378.0 65.2L378.0 65.2Q377.9 65.4 377.7 65.6Q377.4 65.8 377.1 66.0Q376.7 66.1 376.2 66.1ZM376.4 65.3L376.4 65.3Q376.9 65.3 377.3 65.1Q377.6 64.9 377.8 64.5Q378.0 64.2 378.0 63.8L378.0 63.8L378.0 63.0Q378.0 63.1 377.8 63.1Q377.6 63.2 377.3 63.2Q377.1 63.3 376.8 63.3Q376.6 63.3 376.4 63.3L376.4 63.3Q376.1 63.4 375.8 63.5Q375.5 63.6 375.3 63.8Q375.1 64.0 375.1 64.3L375.1 64.3Q375.1 64.7 375.3 64.9Q375.4 65.1 375.7 65.2Q376.0 65.3 376.4 65.3ZM385.4 66.1L385.4 66.1Q384.8 66.1 384.3 65.9Q383.9 65.7 383.6 65.3Q383.3 64.9 383.3 64.3L383.3 64.3Q383.3 63.8 383.5 63.5Q383.7 63.1 384.1 62.9Q384.4 62.8 384.8 62.7Q385.2 62.6 385.7 62.5L385.7 62.5Q386.2 62.5 386.5 62.4Q386.9 62.4 387.0 62.3Q387.2 62.2 387.2 62.0L387.2 62.0L387.2 61.9Q387.2 61.6 387.1 61.3Q386.9 61.0 386.6 60.9Q386.4 60.8 385.9 60.8L385.9 60.8Q385.5 60.8 385.2 60.9Q384.9 61.0 384.7 61.2Q384.5 61.4 384.4 61.6L384.4 61.6L383.5 61.3Q383.7 60.8 384.1 60.5Q384.5 60.2 385.0 60.0Q385.5 59.9 385.9 59.9L385.9 59.9Q386.2 59.9 386.6 60.0Q387.0 60.1 387.3 60.3Q387.7 60.5 387.9 60.9Q388.2 61.3 388.2 62.0L388.2 62.0L388.2 66L387.2 66L387.2 65.2L387.2 65.2Q387.1 65.4 386.8 65.6Q386.6 65.8 386.2 66.0Q385.9 66.1 385.4 66.1ZM385.5 65.3L385.5 65.3Q386.1 65.3 386.4 65.1Q386.8 64.9 387.0 64.5Q387.2 64.2 387.2 63.8L387.2 63.8L387.2 63.0Q387.1 63.1 386.9 63.1Q386.7 63.2 386.5 63.2Q386.2 63.3 386.0 63.3Q385.8 63.3 385.6 63.3L385.6 63.3Q385.3 63.4 385.0 63.5Q384.7 63.6 384.5 63.8Q384.3 64.0 384.3 64.3L384.3 64.3Q384.3 64.7 384.5 64.9Q384.6 65.1 384.9 65.2Q385.2 65.3 385.5 65.3ZM392.9 58.0L393.8 58.0L393.8 66L392.9 66L392.9 58.0ZM399.5 66L398.5 66L398.5 58.0L399.5 58.0L399.5 62.6L399.6 62.6L402.2 60.0L403.4 60.0L400.9 62.6L403.6 66L402.3 66L400.1 63.2L399.5 63.8L399.5 66ZM409.6 66.1L409.6 66.1Q409.0 66.1 408.5 65.8Q408.1 65.6 407.8 65.1Q407.6 64.6 407.6 63.8L407.6 63.8L407.6 60.0L408.5 60.0L408.5 63.7Q408.5 64.4 408.9 64.8Q409.3 65.2 409.9 65.2L409.9 65.2Q410.3 65.2 410.7 65.0Q411.0 64.8 411.2 64.5Q411.4 64.1 411.4 63.6L411.4 63.6L411.4 60.0L412.4 60.0L412.4 66L411.4 66L411.4 64.9Q411.2 65.5 410.8 65.7L410.8 65.7Q410.3 66.1 409.6 66.1ZM418.5 60.0L419.9 60.0L419.9 60.8L418.5 60.8L418.5 66L417.5 66L417.5 60.8L416.3 60.8L416.3 60.0L417.5 60.0L417.5 59.2Q417.5 58.7 417.8 58.3Q418.0 58.0 418.4 57.8Q418.8 57.6 419.2 57.6L419.2 57.6Q419.6 57.6 419.8 57.7Q420.0 57.7 420.1 57.8L420.1 57.8L419.9 58.6Q419.8 58.6 419.7 58.6Q419.5 58.5 419.3 58.5L419.3 58.5Q418.9 58.5 418.7 58.7Q418.5 59.0 418.5 59.4L418.5 59.4L418.5 60.0ZM425.8 66.1L425.8 66.1Q425.3 66.1 424.8 65.9Q424.3 65.7 424.1 65.3Q423.8 64.9 423.8 64.3L423.8 64.3Q423.8 63.8 424.0 63.5Q424.2 63.1 424.5 62.9Q424.9 62.8 425.3 62.7Q425.7 62.6 426.1 62.5L426.1 62.5Q426.7 62.5 427.0 62.4Q427.3 62.4 427.5 62.3Q427.7 62.2 427.7 62.0L427.7 62.0L427.7 61.9Q427.7 61.6 427.5 61.3Q427.4 61.0 427.1 60.9Q426.8 60.8 426.4 60.8L426.4 60.8Q426.0 60.8 425.7 60.9Q425.4 61.0 425.2 61.2Q425.0 61.4 424.9 61.6L424.9 61.6L424.0 61.3Q424.2 60.8 424.6 60.5Q425.0 60.2 425.4 60.0Q425.9 59.9 426.4 59.9L426.4 59.9Q426.7 59.9 427.1 60.0Q427.4 60.1 427.8 60.3Q428.2 60.5 428.4 60.9Q428.6 61.3 428.6 62.0L428.6 62.0L428.6 66L427.7 66L427.7 65.2L427.6 65.2Q427.5 65.4 427.3 65.6Q427.1 65.8 426.7 66.0Q426.3 66.1 425.8 66.1ZM426.0 65.3L426.0 65.3Q426.5 65.3 426.9 65.1Q427.3 64.9 427.5 64.5Q427.7 64.2 427.7 63.8L427.7 63.8L427.7 63.0Q427.6 63.1 427.4 63.1Q427.2 63.2 426.9 63.2Q426.7 63.3 426.5 63.3Q426.2 63.3 426.1 63.3L426.1 63.3Q425.7 63.4 425.4 63.5Q425.1 63.6 424.9 63.8Q424.8 64.0 424.8 64.3L424.8 64.3Q424.8 64.7 424.9 64.9Q425.1 65.1 425.4 65.2Q425.6 65.3 426.0 65.3ZM434.3 66L433.3 66L433.3 60.0L434.3 60.0L434.3 66ZM433.8 59.0L433.8 59.0Q433.5 59.0 433.3 58.8Q433.1 58.6 433.1 58.4L433.1 58.4Q433.1 58.1 433.3 57.9Q433.5 57.7 433.8 57.7L433.8 57.7Q434.1 57.7 434.3 57.9Q434.5 58.1 434.5 58.4L434.5 58.4Q434.5 58.6 434.3 58.8Q434.1 59.0 433.8 59.0ZM440.0 66L439.0 66L439.0 60.0L439.9 60.0L439.9 60.9L440.0 60.9Q440.2 60.5 440.6 60.2Q441.0 59.9 441.5 59.9L441.5 59.9Q441.7 59.9 441.8 59.9Q441.9 59.9 442.0 59.9L442.0 59.9L442.0 60.9Q442.0 60.9 441.8 60.9Q441.6 60.8 441.5 60.8L441.5 60.8Q441.0 60.8 440.7 61.0Q440.3 61.2 440.1 61.5Q440.0 61.8 440.0 62.2L440.0 62.2L440.0 66ZM446.0 68.2L446.0 68.2L446.3 67.3L446.4 67.4Q446.7 67.4 446.9 67.4Q447.2 67.4 447.4 67.2Q447.5 67.0 447.7 66.5L447.7 66.5L447.9 66.0L445.6 60.0L446.6 60.0L447.9 63.6Q448.1 64.1 448.3 64.7L448.3 64.7Q448.3 64.9 448.4 65.1L448.4 65.1Q448.4 64.9 448.5 64.7L448.5 64.7Q448.6 64.1 448.8 63.6L448.8 63.6L450.1 60.0L451.2 60.0L448.5 66.9Q448.4 67.4 448.1 67.7Q447.8 68.0 447.5 68.1Q447.2 68.3 446.7 68.3L446.7 68.3Q446.5 68.3 446.3 68.3Q446.1 68.2 446.0 68.2Z M462.1 62.9L462.1 62.9Q461.8 62.9 461.6 62.7Q461.4 62.5 461.4 62.2L461.4 62.2Q461.4 61.9 461.6 61.7Q461.8 61.5 462.1 61.5L462.1 61.5Q462.4 61.5 462.7 61.7Q462.9 61.9 462.9 62.2L462.9 62.2Q462.9 62.5 462.7 62.7Q462.4 62.9 462.1 62.9Z M478.7 66L473.6 66L473.6 65.3L476.3 62.4Q476.8 61.9 477.0 61.5Q477.3 61.2 477.5 60.8Q477.6 60.5 477.6 60.1L477.6 60.1Q477.6 59.7 477.4 59.4Q477.2 59.1 476.9 58.9Q476.6 58.8 476.1 58.8L476.1 58.8Q475.7 58.8 475.3 59.0Q475.0 59.1 474.8 59.5Q474.6 59.8 474.6 60.3L474.6 60.3L473.7 60.3Q473.7 59.6 474.0 59.0Q474.3 58.5 474.9 58.2Q475.5 57.9 476.2 57.9L476.2 57.9Q476.9 57.9 477.4 58.2Q478.0 58.5 478.3 59.0Q478.6 59.5 478.6 60.1L478.6 60.1Q478.6 60.6 478.5 61.0Q478.3 61.4 477.9 61.9Q477.5 62.4 476.8 63.2L476.8 63.2L475.1 65.0L475.1 65.1L478.7 65.1L478.7 66ZM486.0 66.1L486.0 66.1Q485.1 66.1 484.5 65.6Q483.8 65.1 483.5 64.2Q483.2 63.3 483.2 62.0L483.2 62.0Q483.2 60.7 483.5 59.8Q483.9 58.9 484.5 58.4Q485.1 57.9 486.0 57.9L486.0 57.9Q486.9 57.9 487.5 58.4Q488.1 58.9 488.5 59.8Q488.8 60.7 488.8 62.0L488.8 62.0Q488.8 63.3 488.5 64.2Q488.2 65.1 487.5 65.6Q486.9 66.1 486.0 66.1ZM486.0 65.2L486.0 65.2Q486.6 65.2 487.0 64.8Q487.4 64.5 487.6 63.7Q487.8 63.0 487.8 62.0L487.8 62.0Q487.8 61.0 487.6 60.3Q487.4 59.5 487.0 59.2Q486.6 58.8 486.0 58.8L486.0 58.8Q485.4 58.8 485.0 59.2Q484.6 59.5 484.4 60.3Q484.2 61.0 484.2 62.0L484.2 62.0Q484.2 63.0 484.4 63.7Q484.6 64.5 485.0 64.8Q485.4 65.2 486.0 65.2ZM498.4 66L493.3 66L493.3 65.3L496.0 62.4Q496.4 61.9 496.7 61.5Q497.0 61.2 497.1 60.8Q497.3 60.5 497.3 60.1L497.3 60.1Q497.3 59.7 497.1 59.4Q496.9 59.1 496.6 58.9Q496.2 58.8 495.8 58.8L495.8 58.8Q495.3 58.8 495.0 59.0Q494.7 59.1 494.5 59.5Q494.3 59.8 494.3 60.3L494.3 60.3L493.3 60.3Q493.3 59.6 493.6 59.0Q494.0 58.5 494.5 58.2Q495.1 57.9 495.8 57.9L495.8 57.9Q496.5 57.9 497.1 58.2Q497.6 58.5 497.9 59.0Q498.3 59.5 498.3 60.1L498.3 60.1Q498.3 60.6 498.1 61.0Q497.9 61.4 497.6 61.9Q497.2 62.4 496.5 63.2L496.5 63.2L494.7 65.0L494.7 65.1L498.4 65.1L498.4 66ZM505.6 66.1L505.6 66.1Q505.1 66.1 504.6 65.9Q504.1 65.7 503.7 65.3Q503.3 64.9 503.1 64.1Q502.8 63.4 502.8 62.3L502.8 62.3Q502.8 61.2 503.0 60.4Q503.2 59.6 503.6 59.0Q504.0 58.5 504.5 58.2Q505.1 57.9 505.8 57.9L505.8 57.9Q506.4 57.9 507.0 58.2Q507.5 58.4 507.8 58.9Q508.2 59.4 508.3 60.0L508.3 60.0L507.3 60.0Q507.1 59.5 506.8 59.1Q506.4 58.8 505.8 58.8L505.8 58.8Q505.2 58.8 504.7 59.2Q504.3 59.5 504.0 60.2Q503.8 60.9 503.8 61.8L503.8 61.8L503.9 61.8Q504.1 61.5 504.4 61.3Q504.7 61.0 505.0 60.9Q505.4 60.8 505.8 60.8L505.8 60.8Q506.5 60.8 507.1 61.1Q507.7 61.4 508.0 62.0Q508.3 62.6 508.3 63.4L508.3 63.4Q508.3 64.2 508.0 64.8Q507.7 65.4 507.1 65.7Q506.5 66.1 505.6 66.1ZM505.6 65.2L505.6 65.2Q506.1 65.2 506.5 65.0Q506.9 64.7 507.1 64.3Q507.4 63.9 507.4 63.4L507.4 63.4Q507.4 62.9 507.1 62.5Q506.9 62.1 506.5 61.9Q506.2 61.7 505.7 61.7L505.7 61.7Q505.3 61.7 505.0 61.8Q504.7 61.9 504.4 62.2Q504.2 62.4 504.1 62.8Q503.9 63.1 503.9 63.4L503.9 63.4Q503.9 63.9 504.2 64.3Q504.4 64.7 504.8 65.0Q505.2 65.2 505.6 65.2Z "/></g></svg>