<!-- Generated by readme-aura https://github.com/collectioneur/readme-aura -->
<svg width="860" height="260" viewBox="0 0 860 260" xmlns="http://www.w3.org/2000/svg"><clipPath id="satori_cp-id"><path x="0" y="0" width="860" height="260" d="M16,0 h828 a16,16 0 0 1 16,16 v228 a16,16 0 0 1 -16,16 h-828 a16,16 0 0 1 -16,-16 v-228 a16,16 0 0 1 16,-16"/></clipPath><mask id="satori_om-id"><rect x="0" y="0" width="860" height="260" fill="#fff"/></mask><path x="0" y="0" width="860" height="260" fill="#0d0810" d="M16,0 h828 a16,16 0 0 1 16,16 v228 a16,16 0 0 1 -16,16 h-828 a16,16 0 0 1 -16,-16 v-228 a16,16 0 0 1 16,-16"/><clipPath id="satori_cp-id-0" clip-path="url(#satori_cp-id)"><rect x="0" y="0" width="860" height="260"/></clipPath><mask id="satori_om-id-0"><rect x="0" y="0" width="860" height="260" fill="#fff" mask="url(#satori_om-id)"/></mask><svg x="0" y="0" width="860" height="260" preserveAspectRatio="none" clip-path="url(#satori_cp-id-0)" mask="url(#satori_om-id-0)"><defs><radialGradient id="sg1" cx="50%" cy="50%" r="50%"><stop offset="0%" stop-color="rgba(80,18,35,0.75)"></stop><stop offset="100%" stop-color="rgba(80,18,35,0)"></stop></radialGradient><radialGradient id="sg2" cx="50%" cy="50%" r="50%"><stop offset="0%" stop-color="rgba(130,55,75,0.55)"></stop><stop offset="100%" stop-color="rgba(130,55,75,0)"></stop></radialGradient><radialGradient id="sg3" cx="50%" cy="50%" r="50%"><stop offset="0%" stop-color="rgba(217,157,135,0.18)"></stop><stop offset="100%" stop-color="rgba(217,157,135,0)"></stop></radialGradient></defs><ellipse id="sb1" cx="150" cy="250" rx="300" ry="160" fill="url(#sg1)"></ellipse><ellipse id="sb2" cx="680" cy="250" rx="270" ry="150" fill="url(#sg2)"></ellipse><ellipse id="sb3" cx="430" cy="130" rx="180" ry="100" fill="url(#sg3)"></ellipse><style>

    @keyframes s1 { 0%,100%{transform:translateX(0);opacity:.6} 50%{transform:translateX(220px);opacity:.85} }
    @keyframes s2 { 0%,100%{transform:translateX(0);opacity:.5} 50%{transform:translateX(-190px);opacity:.8} }
    @keyframes s3 { 0%,100%{opacity:.7} 50%{opacity:.35} }
    #sb1{animation:s1 13s ease-in-out infinite} #sb2{animation:s2 10s ease-in-out infinite} #sb3{animation:s3 8s ease-in-out infinite}
  
</style>
</svg><mask id="satori_om-id-0-0"><rect x="0" y="0" width="0" height="260" fill="#fff" mask="url(#satori_om-id)"/></mask><mask id="satori_om-id-0-0-0"><rect x="0" y="0" width="0" height="260" fill="#fff" mask="url(#satori_om-id)"/></mask><mask id="satori_om-id-0-0-0-0"><rect x="0" y="0" width="0" height="260" fill="#fff" mask="url(#satori_om-id)"/></mask><mask id="satori_om-id-0-0-0-1"><rect x="0" y="0" width="0" height="260" fill="#fff" mask="url(#satori_om-id)"/></mask><mask id="satori_om-id-0-0-1"><rect x="0" y="0" width="0" height="260" fill="#fff" mask="url(#satori_om-id)"/></mask><mask id="satori_om-id-0-0-1-0"><rect x="0" y="0" width="0" height="260" fill="#fff" mask="url(#satori_om-id)"/></mask><mask id="satori_om-id-0-0-1-1"><rect x="0" y="0" width="0" height="260" fill="#fff" mask="url(#satori_om-id)"/></mask><mask id="satori_om-id-0-0-2"><rect x="0" y="0" width="0" height="260" fill="#fff" mask="url(#satori_om-id)"/></mask><mask id="satori_om-id-0-0-2-0"><rect x="0" y="0" width="0" height="260" fill="#fff" mask="url(#satori_om-id)"/></mask><mask id="satori_om-id-0-0-2-1"><rect x="0" y="0" width="0" height="260" fill="#fff" mask="url(#satori_om-id)"/></mask><mask id="satori_om-id-0-1"><rect x="0" y="0" width="0" height="260" fill="#fff" mask="url(#satori_om-id)"/></mask><mask id="satori_om-id-0-2"><rect x="0" y="0" width="0" height="260" fill="#fff" mask="url(#satori_om-id)"/></mask><mask id="satori_om-id-0-3"><rect x="0" y="0" width="0" height="260" fill="#fff" mask="url(#satori_om-id)"/></mask><mask id="satori_om-id-1"><rect x="0" y="15" width="860" height="231" fill="#fff" mask="url(#satori_om-id)"/></mask><mask id="satori_om-id-1-0"><rect x="343" y="15" width="174" height="13" fill="#fff" mask="url(#satori_om-id)"/></mask><g mask="url(#satori_om-id)" clip-path="url(#satori_cp-id)"><path fill="rgba(217,157,135,0.5)" d="M343 22.1L354 22.1L354 23.0L343 23.0L343 22.1Z M369.3 26.1L369.3 26.1Q368.3 26.1 367.5 25.6Q366.7 25.1 366.2 24.2Q365.7 23.3 365.7 22.0L365.7 22.0Q365.7 20.7 366.2 19.8Q366.7 18.9 367.4 18.4Q368.2 17.9 369.3 17.9L369.3 17.9Q369.9 17.9 370.5 18.1Q371.0 18.3 371.4 18.6Q371.9 19.0 372.2 19.4Q372.4 19.9 372.6 20.5L372.6 20.5L371.5 20.5Q371.4 20.1 371.2 19.8Q371.0 19.5 370.7 19.3Q370.4 19.1 370.1 19.0Q369.7 18.8 369.3 18.8L369.3 18.8Q368.6 18.8 368.0 19.2Q367.4 19.6 367.1 20.3Q366.7 21.0 366.7 22.0L366.7 22.0Q366.7 23.0 367.1 23.7Q367.4 24.4 368.0 24.8Q368.6 25.2 369.3 25.2L369.3 25.2Q370.0 25.2 370.5 24.9Q371.0 24.6 371.3 24.1L371.3 24.1Q371.6 23.6 371.6 22.9L371.6 22.9L369.5 22.9L369.5 22.0L372.6 22.0L372.6 22.9Q372.6 23.8 372.2 24.6Q371.8 25.3 371.0 25.7Q370.3 26.1 369.3 26.1ZM378.3 18.0L379.3 18.0L379.3 26L378.3 26L378.3 18.0ZM387.3 18.9L384.8 18.9L384.8 18.0L390.8 18.0L390.8 18.9L388.3 18.9L388.3 26L387.3 26L387.3 18.9ZM397.3 26L396.3 26L396.3 18.0L397.3 18.0L397.3 21.5L401.5 21.5L401.5 18.0L402.6 18.0L402.6 26L401.5 26L401.5 22.4L397.3 22.4L397.3 26ZM411.6 26.1L411.6 26.1Q410.7 26.1 410.0 25.8Q409.3 25.4 408.9 24.7Q408.5 24.1 408.5 23.3L408.5 23.3L408.5 18.0L409.5 18.0L409.5 23.2Q409.5 23.8 409.8 24.2Q410.0 24.7 410.5 24.9Q411.0 25.2 411.6 25.2L411.6 25.2Q412.3 25.2 412.8 24.9Q413.2 24.7 413.5 24.2Q413.7 23.8 413.7 23.2L413.7 23.2L413.7 18.0L414.7 18.0L414.7 23.3Q414.7 24.1 414.4 24.7Q414.0 25.4 413.3 25.8Q412.6 26.1 411.6 26.1ZM423.6 26L420.7 26L420.7 18.0L423.5 18.0Q424.4 18.0 424.9 18.3Q425.4 18.6 425.7 19.1Q426.0 19.5 426.0 20.1L426.0 20.1Q426.0 20.6 425.8 21.0Q425.6 21.3 425.3 21.5Q425.0 21.7 424.7 21.8L424.7 21.8L424.7 21.9Q425.0 21.9 425.4 22.1Q425.8 22.4 426.0 22.8Q426.3 23.2 426.3 23.9L426.3 23.9Q426.3 24.5 426.0 25.0Q425.7 25.4 425.1 25.7Q424.6 26 423.6 26L423.6 26ZM421.7 22.4L421.7 25.1L423.6 25.1Q424.5 25.1 424.9 24.7Q425.3 24.4 425.3 23.9L425.3 23.9Q425.3 23.5 425.1 23.1Q424.9 22.8 424.5 22.6Q424.2 22.4 423.6 22.4L423.6 22.4L421.7 22.4ZM421.7 18.9L421.7 21.5L423.5 21.5Q423.9 21.5 424.2 21.3Q424.6 21.2 424.8 20.9Q425.0 20.6 425.0 20.1L425.0 20.1Q425.0 19.6 424.6 19.3Q424.3 18.9 423.5 18.9L423.5 18.9L421.7 18.9Z M441.5 26.1L441.5 26.1Q440.7 26.1 440.0 25.9Q439.4 25.6 439.0 25.1Q438.7 24.6 438.6 23.9L438.6 23.9L439.7 23.9Q439.7 24.4 440.0 24.6Q440.2 24.9 440.7 25.1Q441.1 25.2 441.5 25.2L441.5 25.2Q442.1 25.2 442.5 25.0Q442.9 24.9 443.2 24.5Q443.4 24.2 443.4 23.8L443.4 23.8Q443.4 23.4 443.2 23.2Q443.0 22.9 442.7 22.8Q442.3 22.6 441.9 22.5L441.9 22.5L440.9 22.2Q439.9 22.0 439.4 21.4Q438.9 20.9 438.9 20.1L438.9 20.1Q438.9 19.5 439.2 19.0Q439.6 18.4 440.2 18.2Q440.8 17.9 441.6 17.9L441.6 17.9Q442.4 17.9 443.0 18.2Q443.6 18.4 444.0 18.9Q444.3 19.4 444.3 20.0L444.3 20.0L443.3 20.0Q443.3 19.4 442.8 19.1Q442.3 18.8 441.6 18.8L441.6 18.8Q441.1 18.8 440.7 19.0Q440.3 19.1 440.1 19.4Q439.8 19.7 439.8 20.1L439.8 20.1Q439.8 20.5 440.1 20.8Q440.4 21.0 440.7 21.2Q441.1 21.3 441.4 21.4L441.4 21.4L442.2 21.6Q442.5 21.7 442.9 21.8Q443.3 22.0 443.6 22.2Q444.0 22.5 444.2 22.9Q444.4 23.3 444.4 23.8L444.4 23.8Q444.4 24.5 444.1 25.0Q443.8 25.5 443.1 25.8Q442.5 26.1 441.5 26.1ZM452.1 18.9L449.6 18.9L449.6 18.0L455.6 18.0L455.6 18.9L453.1 18.9L453.1 26L452.1 26L452.1 18.9ZM461.5 26L460.4 26L463.4 18.0L464.5 18.0L467.5 26L466.4 26L465.6 23.8L462.3 23.8L461.5 26ZM462.6 22.9L465.3 22.9L464.7 21.3Q464.5 20.8 464.3 20.2L464.3 20.2Q464.2 19.6 463.9 18.8L463.9 18.8Q463.7 19.6 463.5 20.2L463.5 20.2Q463.3 20.8 463.2 21.3L463.2 21.3L462.6 22.9ZM474.8 18.9L472.3 18.9L472.3 18.0L478.3 18.0L478.3 18.9L475.8 18.9L475.8 26L474.8 26L474.8 18.9ZM486.4 26.1L486.4 26.1Q485.5 26.1 484.9 25.9Q484.2 25.6 483.9 25.1Q483.5 24.6 483.5 23.9L483.5 23.9L484.5 23.9Q484.6 24.4 484.8 24.6Q485.1 24.9 485.5 25.1Q485.9 25.2 486.4 25.2L486.4 25.2Q486.9 25.2 487.4 25.0Q487.8 24.9 488.0 24.5Q488.3 24.2 488.3 23.8L488.3 23.8Q488.3 23.4 488.1 23.2Q487.9 22.9 487.5 22.8Q487.1 22.6 486.7 22.5L486.7 22.5L485.7 22.2Q484.8 22.0 484.2 21.4Q483.7 20.9 483.7 20.1L483.7 20.1Q483.7 19.5 484.1 19.0Q484.4 18.4 485.1 18.2Q485.7 17.9 486.5 17.9L486.5 17.9Q487.2 17.9 487.9 18.2Q488.5 18.4 488.8 18.9Q489.2 19.4 489.2 20.0L489.2 20.0L488.2 20.0Q488.1 19.4 487.6 19.1Q487.1 18.8 486.4 18.8L486.4 18.8Q485.9 18.8 485.5 19.0Q485.1 19.1 484.9 19.4Q484.7 19.7 484.7 20.1L484.7 20.1Q484.7 20.5 485.0 20.8Q485.2 21.0 485.6 21.2Q485.9 21.3 486.2 21.4L486.2 21.4L487.0 21.6Q487.3 21.7 487.7 21.8Q488.1 22.0 488.5 22.2Q488.8 22.5 489.1 22.9Q489.3 23.3 489.3 23.8L489.3 23.8Q489.3 24.5 488.9 25.0Q488.6 25.5 488.0 25.8Q487.3 26.1 486.4 26.1Z M501.0 22.1L512.0 22.1L512.0 23.0L501.0 23.0L501.0 22.1Z "/></g><mask id="satori_om-id-1-1"><rect x="50" y="48" width="760" height="52" fill="#fff" mask="url(#satori_om-id)"/></mask><mask id="satori_om-id-1-1-0"><rect x="232" y="48" width="96" height="52" fill="#fff" mask="url(#satori_om-id)"/></mask><mask id="satori_om-id-1-1-0-0"><rect x="270" y="48" width="20" height="34" fill="#fff" mask="url(#satori_om-id)"/></mask><g mask="url(#satori_om-id)" clip-path="url(#satori_cp-id)"><path fill="#d99d87" d="M279.0 75.3L279.0 75.3Q276.8 75.3 275.1 74.5Q273.4 73.8 272.4 72.4Q271.4 71.0 271.4 69.3L271.4 69.3L275.6 69.3Q275.6 70.1 276.0 70.6Q276.5 71.2 277.3 71.5Q278.1 71.8 279.0 71.8L279.0 71.8Q280.0 71.8 280.8 71.5Q281.6 71.1 282.0 70.5Q282.4 69.9 282.4 69.0L282.4 69.0Q282.4 68.2 282.0 67.5Q281.5 66.9 280.7 66.5Q279.8 66.2 278.6 66.2L278.6 66.2L276.8 66.2L276.8 63.1L278.6 63.1Q279.6 63.1 280.4 62.7Q281.1 62.4 281.6 61.8Q282.0 61.2 282.0 60.3L282.0 60.3Q282.0 59.5 281.6 58.9Q281.3 58.4 280.6 58.0Q279.9 57.7 279.1 57.7L279.1 57.7Q278.2 57.7 277.4 58.0Q276.7 58.3 276.2 58.9Q275.8 59.5 275.8 60.3L275.8 60.3L271.8 60.3Q271.8 58.5 272.7 57.2Q273.7 55.9 275.4 55.1Q277.0 54.4 279.1 54.4L279.1 54.4Q281.2 54.4 282.7 55.1Q284.3 55.9 285.2 57.2Q286.1 58.5 286.1 60.1L286.1 60.1Q286.1 61.8 285.0 62.9Q283.9 64.1 282.2 64.4L282.2 64.4L282.2 64.6Q283.7 64.7 284.7 65.4Q285.8 66.0 286.3 67.0Q286.8 68.0 286.8 69.3L286.8 69.3Q286.8 71.0 285.8 72.4Q284.8 73.7 283.0 74.5Q281.3 75.3 279.0 75.3Z "/></g><mask id="satori_om-id-1-1-0-1"><rect x="232" y="88" width="96" height="12" fill="#fff" mask="url(#satori_om-id)"/></mask><g mask="url(#satori_om-id)" clip-path="url(#satori_cp-id)"><path fill="rgba(123,98,97,0.7)" d="M233.8 98L232.9 98L232.9 90.7L235.4 90.7Q236.2 90.7 236.8 91.0Q237.3 91.3 237.6 91.8Q237.8 92.3 237.8 93.0Q237.8 93.6 237.6 94.1Q237.3 94.6 236.8 94.9L236.8 94.9Q236.6 95.0 236.5 95.0L236.5 95.0L238.1 98L237.1 98L235.5 95.2Q235.5 95.2 235.4 95.2L235.4 95.2L233.8 95.2L233.8 98ZM233.8 91.5L233.8 94.4L235.3 94.4Q235.9 94.4 236.3 94.2Q236.6 94.0 236.8 93.7Q236.9 93.4 236.9 93.0L236.9 93.0Q236.9 92.5 236.8 92.2Q236.6 91.9 236.3 91.7Q235.9 91.5 235.3 91.5L235.3 91.5L233.8 91.5ZM245.8 98L241.3 98L241.3 90.7L245.7 90.7L245.7 91.5L242.2 91.5L242.2 93.9L245.5 93.9L245.5 94.7L242.2 94.7L242.2 97.2L245.8 97.2L245.8 98ZM250.3 98L249.3 98L249.3 90.7L251.8 90.7Q252.7 90.7 253.2 91.0Q253.8 91.3 254.0 91.9Q254.3 92.4 254.3 93.0Q254.3 93.7 254.0 94.2Q253.8 94.7 253.2 95.1Q252.7 95.4 251.8 95.4L251.8 95.4L250.3 95.4L250.3 98ZM250.3 91.5L250.3 94.6L251.8 94.6Q252.4 94.6 252.7 94.4Q253.1 94.2 253.2 93.8Q253.4 93.5 253.4 93.0Q253.4 92.6 253.2 92.3Q253.1 91.9 252.7 91.7Q252.3 91.5 251.8 91.5L251.8 91.5L250.3 91.5ZM260.7 98.1L260.7 98.1Q259.7 98.1 259.0 97.6Q258.3 97.2 257.8 96.4Q257.4 95.5 257.4 94.4L257.4 94.4Q257.4 93.2 257.8 92.4Q258.3 91.5 259.0 91.1Q259.7 90.6 260.7 90.6L260.7 90.6Q261.6 90.6 262.3 91.1Q263.0 91.5 263.5 92.4Q263.9 93.2 263.9 94.4L263.9 94.4Q263.9 95.5 263.5 96.4Q263.0 97.2 262.3 97.6Q261.6 98.1 260.7 98.1ZM260.7 97.2L260.7 97.2Q261.3 97.2 261.8 96.9Q262.4 96.6 262.7 95.9Q263.0 95.3 263.0 94.4L263.0 94.4Q263.0 93.4 262.7 92.8Q262.4 92.1 261.8 91.8Q261.3 91.5 260.7 91.5L260.7 91.5Q260.0 91.5 259.5 91.8Q259.0 92.2 258.6 92.8Q258.3 93.4 258.3 94.4L258.3 94.4Q258.3 95.3 258.6 95.9Q259.0 96.6 259.5 96.9Q260.0 97.2 260.7 97.2ZM269.7 98.1L269.7 98.1Q268.9 98.1 268.3 97.9Q267.7 97.6 267.4 97.2Q267.1 96.7 267.0 96.1L267.0 96.1L268.0 96.1Q268.0 96.5 268.3 96.8Q268.5 97.0 268.9 97.2Q269.3 97.3 269.7 97.3L269.7 97.3Q270.2 97.3 270.6 97.1Q271.0 97.0 271.2 96.7Q271.4 96.4 271.4 96.0L271.4 96.0Q271.4 95.7 271.2 95.4Q271.0 95.2 270.7 95.1Q270.4 94.9 270.0 94.8L270.0 94.8L269.1 94.6Q268.2 94.3 267.7 93.9Q267.3 93.4 267.3 92.7L267.3 92.7Q267.3 92.1 267.6 91.6Q267.9 91.1 268.5 90.9Q269.0 90.6 269.8 90.6L269.8 90.6Q270.5 90.6 271.0 90.9Q271.6 91.1 271.9 91.6Q272.2 92.0 272.2 92.6L272.2 92.6L271.3 92.6Q271.3 92.0 270.8 91.7Q270.4 91.4 269.7 91.4L269.7 91.4Q269.3 91.4 268.9 91.6Q268.5 91.8 268.3 92.0Q268.2 92.3 268.2 92.6L268.2 92.6Q268.2 93.0 268.4 93.2Q268.6 93.5 269.0 93.6Q269.3 93.7 269.5 93.8L269.5 93.8L270.3 94.0Q270.6 94.1 270.9 94.2Q271.3 94.4 271.6 94.6Q271.9 94.8 272.1 95.2Q272.3 95.5 272.3 96.0L272.3 96.0Q272.3 96.6 272.0 97.1Q271.7 97.6 271.1 97.8Q270.5 98.1 269.7 98.1ZM275.8 90.7L276.7 90.7L276.7 98L275.8 98L275.8 90.7ZM282.3 91.5L280.1 91.5L280.1 90.7L285.6 90.7L285.6 91.5L283.3 91.5L283.3 98L282.3 98L282.3 91.5ZM291.9 98.1L291.9 98.1Q290.9 98.1 290.2 97.6Q289.5 97.2 289.1 96.4Q288.6 95.5 288.6 94.4L288.6 94.4Q288.6 93.2 289.1 92.4Q289.5 91.5 290.2 91.1Q290.9 90.6 291.9 90.6L291.9 90.6Q292.8 90.6 293.5 91.1Q294.3 91.5 294.7 92.4Q295.1 93.2 295.1 94.4L295.1 94.4Q295.1 95.5 294.7 96.4Q294.3 97.2 293.5 97.6Q292.8 98.1 291.9 98.1ZM291.9 97.2L291.9 97.2Q292.5 97.2 293.0 96.9Q293.6 96.6 293.9 95.9Q294.2 95.3 294.2 94.4L294.2 94.4Q294.2 93.4 293.9 92.8Q293.6 92.1 293.0 91.8Q292.5 91.5 291.9 91.5L291.9 91.5Q291.2 91.5 290.7 91.8Q290.2 92.2 289.8 92.8Q289.5 93.4 289.5 94.4L289.5 94.4Q289.5 95.3 289.8 95.9Q290.2 96.6 290.7 96.9Q291.2 97.2 291.9 97.2ZM299.5 98L298.6 98L298.6 90.7L301.1 90.7Q301.9 90.7 302.5 91.0Q303 91.3 303.3 91.8Q303.5 92.3 303.5 93.0Q303.5 93.6 303.3 94.1Q303 94.6 302.5 94.9L302.5 94.9Q302.3 95.0 302.2 95.0L302.2 95.0L303.8 98L302.7 98L301.2 95.2Q301.1 95.2 301.1 95.2L301.1 95.2L299.5 95.2L299.5 98ZM299.5 91.5L299.5 94.4L301.0 94.4Q301.6 94.4 301.9 94.2Q302.3 94.0 302.4 93.7Q302.6 93.4 302.6 93.0L302.6 93.0Q302.6 92.5 302.4 92.2Q302.3 91.9 301.9 91.7Q301.6 91.5 301.0 91.5L301.0 91.5L299.5 91.5ZM307.0 90.7L307.9 90.7L307.9 98L307.0 98L307.0 90.7ZM316.2 98L311.7 98L311.7 90.7L316.1 90.7L316.1 91.5L312.6 91.5L312.6 93.9L315.9 93.9L315.9 94.7L312.6 94.7L312.6 97.2L316.2 97.2L316.2 98ZM322.0 98.1L322.0 98.1Q321.2 98.1 320.7 97.9Q320.1 97.6 319.8 97.2Q319.4 96.7 319.4 96.1L319.4 96.1L320.3 96.1Q320.4 96.5 320.6 96.8Q320.9 97.0 321.2 97.2Q321.6 97.3 322.0 97.3L322.0 97.3Q322.5 97.3 322.9 97.1Q323.3 97.0 323.5 96.7Q323.8 96.4 323.8 96.0L323.8 96.0Q323.8 95.7 323.6 95.4Q323.4 95.2 323.0 95.1Q322.7 94.9 322.3 94.8L322.3 94.8L321.4 94.6Q320.6 94.3 320.1 93.9Q319.6 93.4 319.6 92.7L319.6 92.7Q319.6 92.1 319.9 91.6Q320.3 91.1 320.8 90.9Q321.4 90.6 322.1 90.6L322.1 90.6Q322.8 90.6 323.4 90.9Q323.9 91.1 324.2 91.6Q324.5 92.0 324.6 92.6L324.6 92.6L323.7 92.6Q323.6 92.0 323.2 91.7Q322.7 91.4 322.1 91.4L322.1 91.4Q321.6 91.4 321.2 91.6Q320.9 91.8 320.7 92.0Q320.5 92.3 320.5 92.6L320.5 92.6Q320.5 93.0 320.7 93.2Q321.0 93.5 321.3 93.6Q321.6 93.7 321.9 93.8L321.9 93.8L322.6 94.0Q322.9 94.1 323.3 94.2Q323.6 94.4 323.9 94.6Q324.2 94.8 324.5 95.2Q324.7 95.5 324.7 96.0L324.7 96.0Q324.7 96.6 324.4 97.1Q324.0 97.6 323.5 97.8Q322.9 98.1 322.0 98.1Z "/></g><mask id="satori_om-id-1-1-1"><rect x="358" y="48" width="80" height="52" fill="#fff" mask="url(#satori_om-id)"/></mask><mask id="satori_om-id-1-1-1-0"><rect x="379" y="48" width="39" height="34" fill="#fff" mask="url(#satori_om-id)"/></mask><g mask="url(#satori_om-id)" clip-path="url(#satori_cp-id)"><path fill="#d99d87" d="M390.1 71.4L380.4 71.4L380.4 68.1L388.9 54.6L394.1 54.6L394.1 68.0L396.7 68.0L396.7 71.4L394.1 71.4L394.1 75L390.1 75L390.1 71.4ZM384.6 68.0L390.2 68.0L390.2 59.2L390.0 59.2L384.6 67.8L384.6 68.0ZM415.0 75L400.6 75L400.6 72.0L407.8 65.2Q408.8 64.3 409.4 63.6Q410.1 62.9 410.4 62.2Q410.7 61.5 410.7 60.6L410.7 60.6Q410.7 59.7 410.3 59.1Q409.9 58.4 409.2 58.0Q408.5 57.7 407.6 57.7L407.6 57.7Q406.6 57.7 405.9 58.1Q405.2 58.5 404.8 59.2Q404.4 59.9 404.4 60.9L404.4 60.9L400.4 60.9Q400.4 58.9 401.3 57.4Q402.3 56.0 403.9 55.2Q405.5 54.4 407.6 54.4L407.6 54.4Q409.8 54.4 411.4 55.1Q413.0 55.9 413.9 57.3Q414.8 58.6 414.8 60.4L414.8 60.4Q414.8 61.5 414.3 62.6Q413.9 63.7 412.7 65.1Q411.6 66.5 409.5 68.4L409.5 68.4L406.4 71.4L406.4 71.6L415.0 71.6L415.0 75Z "/></g><mask id="satori_om-id-1-1-1-1"><rect x="358" y="88" width="80" height="12" fill="#fff" mask="url(#satori_om-id)"/></mask><g mask="url(#satori_om-id)" clip-path="url(#satori_cp-id)"><path fill="rgba(123,98,97,0.7)" d="M359.8 98L358.9 98L358.9 90.7L363.3 90.7L363.3 91.5L359.8 91.5L359.8 94.0L362.9 94.0L362.9 94.9L359.8 94.9L359.8 98ZM369.7 98.1L369.7 98.1Q368.8 98.1 368.1 97.6Q367.3 97.2 366.9 96.4Q366.5 95.5 366.5 94.4L366.5 94.4Q366.5 93.2 366.9 92.4Q367.3 91.5 368.1 91.1Q368.8 90.6 369.7 90.6L369.7 90.6Q370.7 90.6 371.4 91.1Q372.1 91.5 372.5 92.4Q373.0 93.2 373.0 94.4L373.0 94.4Q373.0 95.5 372.5 96.4Q372.1 97.2 371.4 97.6Q370.7 98.1 369.7 98.1ZM369.7 97.2L369.7 97.2Q370.4 97.2 370.9 96.9Q371.4 96.6 371.7 95.9Q372.1 95.3 372.1 94.4L372.1 94.4Q372.1 93.4 371.7 92.8Q371.4 92.1 370.9 91.8Q370.4 91.5 369.7 91.5L369.7 91.5Q369.1 91.5 368.5 91.8Q368.0 92.2 367.7 92.8Q367.4 93.4 367.4 94.4L367.4 94.4Q367.4 95.3 367.7 95.9Q368.0 96.6 368.5 96.9Q369.1 97.2 369.7 97.2ZM380.7 98L376.4 98L376.4 90.7L377.4 90.7L377.4 97.2L380.7 97.2L380.7 98ZM388.4 98L384.1 98L384.1 90.7L385.0 90.7L385.0 97.2L388.4 97.2L388.4 98ZM394.7 98.1L394.7 98.1Q393.8 98.1 393.0 97.6Q392.3 97.2 391.9 96.4Q391.5 95.5 391.5 94.4L391.5 94.4Q391.5 93.2 391.9 92.4Q392.3 91.5 393.0 91.1Q393.8 90.6 394.7 90.6L394.7 90.6Q395.6 90.6 396.3 91.1Q397.1 91.5 397.5 92.4Q397.9 93.2 397.9 94.4L397.9 94.4Q397.9 95.5 397.5 96.4Q397.1 97.2 396.3 97.6Q395.6 98.1 394.7 98.1ZM394.7 97.2L394.7 97.2Q395.3 97.2 395.9 96.9Q396.4 96.6 396.7 95.9Q397.0 95.3 397.0 94.4L397.0 94.4Q397.0 93.4 396.7 92.8Q396.4 92.1 395.9 91.8Q395.3 91.5 394.7 91.5L394.7 91.5Q394.0 91.5 393.5 91.8Q393.0 92.2 392.7 92.8Q392.4 93.4 392.4 94.4L392.4 94.4Q392.4 95.3 392.7 95.9Q393.0 96.6 393.5 96.9Q394.0 97.2 394.7 97.2ZM403.8 98L402.7 98L400.8 90.7L401.7 90.7L402.9 95.2Q403.0 95.5 403.0 95.9Q403.1 96.3 403.2 96.7L403.2 96.7Q403.2 96.9 403.3 97.1L403.3 97.1Q403.3 96.9 403.4 96.7L403.4 96.7Q403.5 96.3 403.5 95.9Q403.6 95.5 403.7 95.2L403.7 95.2L404.9 90.7L406.0 90.7L407.1 95.2Q407.2 95.5 407.3 95.9Q407.4 96.3 407.5 96.7L407.5 96.7Q407.5 96.9 407.6 97.1L407.6 97.1Q407.6 96.9 407.7 96.7L407.7 96.7Q407.7 96.3 407.8 95.9Q407.9 95.5 408 95.2L408 95.2L409.1 90.7L410.1 90.7L408.1 98L407.0 98L405.8 93.4Q405.7 92.9 405.5 92.4L405.5 92.4Q405.5 92.1 405.4 91.8L405.4 91.8Q405.4 92.1 405.3 92.4L405.3 92.4Q405.2 92.9 405.1 93.4L405.1 93.4L403.8 98ZM417.7 98L413.2 98L413.2 90.7L417.7 90.7L417.7 91.5L414.2 91.5L414.2 93.9L417.4 93.9L417.4 94.7L414.2 94.7L414.2 97.2L417.7 97.2L417.7 98ZM422.2 98L421.2 98L421.2 90.7L423.7 90.7Q424.6 90.7 425.1 91.0Q425.7 91.3 426.0 91.8Q426.2 92.3 426.2 93.0Q426.2 93.6 426.0 94.1Q425.7 94.6 425.1 94.9L425.1 94.9Q425.0 95.0 424.9 95.0L424.9 95.0L426.5 98L425.4 98L423.9 95.2Q423.8 95.2 423.7 95.2L423.7 95.2L422.2 95.2L422.2 98ZM422.2 91.5L422.2 94.4L423.7 94.4Q424.3 94.4 424.6 94.2Q425.0 94.0 425.1 93.7Q425.3 93.4 425.3 93.0L425.3 93.0Q425.3 92.5 425.1 92.2Q425.0 91.9 424.6 91.7Q424.3 91.5 423.7 91.5L423.7 91.5L422.2 91.5ZM432.0 98.1L432.0 98.1Q431.2 98.1 430.6 97.9Q430.1 97.6 429.7 97.2Q429.4 96.7 429.4 96.1L429.4 96.1L430.3 96.1Q430.4 96.5 430.6 96.8Q430.8 97.0 431.2 97.2Q431.6 97.3 432.0 97.3L432.0 97.3Q432.5 97.3 432.9 97.1Q433.3 97.0 433.5 96.7Q433.8 96.4 433.8 96.0L433.8 96.0Q433.8 95.7 433.6 95.4Q433.4 95.2 433.0 95.1Q432.7 94.9 432.3 94.8L432.3 94.8L431.4 94.6Q430.6 94.3 430.1 93.9Q429.6 93.4 429.6 92.7L429.6 92.7Q429.6 92.1 429.9 91.6Q430.2 91.1 430.8 90.9Q431.4 90.6 432.1 90.6L432.1 90.6Q432.8 90.6 433.3 90.9Q433.9 91.1 434.2 91.6Q434.5 92.0 434.6 92.6L434.6 92.6L433.6 92.6Q433.6 92.0 433.1 91.7Q432.7 91.4 432.0 91.4L432.0 91.4Q431.6 91.4 431.2 91.6Q430.9 91.8 430.7 92.0Q430.5 92.3 430.5 92.6L430.5 92.6Q430.5 93.0 430.7 93.2Q431.0 93.5 431.3 93.6Q431.6 93.7 431.9 93.8L431.9 93.8L432.6 94.0Q432.9 94.1 433.2 94.2Q433.6 94.4 433.9 94.6Q434.2 94.8 434.4 95.2Q434.7 95.5 434.7 96.0L434.7 96.0Q434.7 96.6 434.3 97.1Q434.0 97.6 433.4 97.8Q432.9 98.1 432.0 98.1Z "/></g><mask id="satori_om-id-1-1-2"><rect x="468" y="48" width="79" height="52" fill="#fff" mask="url(#satori_om-id)"/></mask><mask id="satori_om-id-1-1-2-0"><rect x="491" y="48" width="33" height="34" fill="#fff" mask="url(#satori_om-id)"/></mask><g mask="url(#satori_om-id)" clip-path="url(#satori_cp-id)"><path fill="#d99d87" d="M496.8 54.6L501.2 54.6L501.2 75L497.1 75L497.1 58.3L496.9 58.3L492.3 61.6L492.3 57.8L496.8 54.6ZM513.5 75.3L513.5 75.3Q510.9 75.3 509.1 74.0Q507.3 72.8 506.3 70.5Q505.4 68.1 505.4 64.8L505.4 64.8Q505.4 61.5 506.3 59.2Q507.3 56.8 509.1 55.6Q510.9 54.4 513.5 54.4L513.5 54.4Q516.1 54.4 517.9 55.6Q519.7 56.9 520.7 59.2Q521.7 61.5 521.7 64.8L521.7 64.8Q521.7 68.1 520.7 70.5Q519.7 72.8 517.9 74.0Q516.1 75.3 513.5 75.3ZM513.5 71.8L513.5 71.8Q514.8 71.8 515.6 71.0Q516.5 70.2 517.0 68.6Q517.4 67.1 517.4 64.8L517.4 64.8Q517.4 62.6 517.0 61.0Q516.5 59.4 515.6 58.6Q514.8 57.8 513.5 57.8L513.5 57.8Q512.3 57.8 511.4 58.6Q510.5 59.5 510.1 61.0Q509.6 62.6 509.6 64.8L509.6 64.8Q509.6 67.1 510.1 68.6Q510.5 70.2 511.4 71.0Q512.3 71.8 513.5 71.8Z "/></g><mask id="satori_om-id-1-1-2-1"><rect x="468" y="88" width="79" height="12" fill="#fff" mask="url(#satori_om-id)"/></mask><g mask="url(#satori_om-id)" clip-path="url(#satori_cp-id)"><path fill="rgba(123,98,97,0.7)" d="M469.8 98L468.9 98L468.9 90.7L473.3 90.7L473.3 91.5L469.8 91.5L469.8 94.0L472.9 94.0L472.9 94.9L469.8 94.9L469.8 98ZM479.7 98.1L479.7 98.1Q478.8 98.1 478.1 97.6Q477.3 97.2 476.9 96.4Q476.5 95.5 476.5 94.4L476.5 94.4Q476.5 93.2 476.9 92.4Q477.3 91.5 478.1 91.1Q478.8 90.6 479.7 90.6L479.7 90.6Q480.7 90.6 481.4 91.1Q482.1 91.5 482.5 92.4Q483.0 93.2 483.0 94.4L483.0 94.4Q483.0 95.5 482.5 96.4Q482.1 97.2 481.4 97.6Q480.7 98.1 479.7 98.1ZM479.7 97.2L479.7 97.2Q480.4 97.2 480.9 96.9Q481.4 96.6 481.7 95.9Q482.1 95.3 482.1 94.4L482.1 94.4Q482.1 93.4 481.7 92.8Q481.4 92.1 480.9 91.8Q480.4 91.5 479.7 91.5L479.7 91.5Q479.1 91.5 478.5 91.8Q478.0 92.2 477.7 92.8Q477.4 93.4 477.4 94.4L477.4 94.4Q477.4 95.3 477.7 95.9Q478.0 96.6 478.5 96.9Q479.1 97.2 479.7 97.2ZM490.7 98L486.4 98L486.4 90.7L487.4 90.7L487.4 97.2L490.7 97.2L490.7 98ZM498.4 98L494.1 98L494.1 90.7L495.0 90.7L495.0 97.2L498.4 97.2L498.4 98ZM504.7 98.1L504.7 98.1Q503.8 98.1 503.0 97.6Q502.3 97.2 501.9 96.4Q501.5 95.5 501.5 94.4L501.5 94.4Q501.5 93.2 501.9 92.4Q502.3 91.5 503.0 91.1Q503.8 90.6 504.7 90.6L504.7 90.6Q505.6 90.6 506.3 91.1Q507.1 91.5 507.5 92.4Q507.9 93.2 507.9 94.4L507.9 94.4Q507.9 95.5 507.5 96.4Q507.1 97.2 506.3 97.6Q505.6 98.1 504.7 98.1ZM504.7 97.2L504.7 97.2Q505.3 97.2 505.9 96.9Q506.4 96.6 506.7 95.9Q507.0 95.3 507.0 94.4L507.0 94.4Q507.0 93.4 506.7 92.8Q506.4 92.1 505.9 91.8Q505.3 91.5 504.7 91.5L504.7 91.5Q504.0 91.5 503.5 91.8Q503.0 92.2 502.7 92.8Q502.4 93.4 502.4 94.4L502.4 94.4Q502.4 95.3 502.7 95.9Q503.0 96.6 503.5 96.9Q504.0 97.2 504.7 97.2ZM513.8 98L512.7 98L510.8 90.7L511.7 90.7L512.9 95.2Q513.0 95.5 513.0 95.9Q513.1 96.3 513.2 96.7L513.2 96.7Q513.2 96.9 513.3 97.1L513.3 97.1Q513.3 96.9 513.4 96.7L513.4 96.7Q513.5 96.3 513.5 95.9Q513.6 95.5 513.7 95.2L513.7 95.2L514.9 90.7L516.0 90.7L517.1 95.2Q517.2 95.5 517.3 95.9Q517.4 96.3 517.5 96.7L517.5 96.7Q517.5 96.9 517.6 97.1L517.6 97.1Q517.6 96.9 517.7 96.7L517.7 96.7Q517.7 96.3 517.8 95.9Q517.9 95.5 518 95.2L518 95.2L519.1 90.7L520.1 90.7L518.1 98L517.0 98L515.8 93.4Q515.7 92.9 515.5 92.4L515.5 92.4Q515.5 92.1 515.4 91.8L515.4 91.8Q515.4 92.1 515.3 92.4L515.3 92.4Q515.2 92.9 515.1 93.4L515.1 93.4L513.8 98ZM523.2 90.7L524.2 90.7L524.2 98L523.2 98L523.2 90.7ZM528.9 98L527.9 98L527.9 90.7L529.0 90.7L532.0 95.4Q532.1 95.6 532.3 95.8Q532.4 96.1 532.6 96.5L532.6 96.5Q532.7 96.7 532.8 96.9L532.8 96.9Q532.8 96.7 532.8 96.4L532.8 96.4Q532.8 96.1 532.8 95.7Q532.8 95.4 532.8 95.2L532.8 95.2L532.8 90.7L533.7 90.7L533.7 98L532.6 98L530.0 93.9Q529.8 93.6 529.6 93.3Q529.4 93.0 529.2 92.5L529.2 92.5Q529.0 92.2 528.8 91.8L528.8 91.8Q528.8 92.2 528.8 92.5L528.8 92.5Q528.8 93.0 528.8 93.3Q528.9 93.7 528.9 93.8L528.9 93.8L528.9 98ZM540.4 98.1L540.4 98.1Q539.5 98.1 538.7 97.6Q538.0 97.2 537.6 96.4Q537.2 95.5 537.2 94.4L537.2 94.4Q537.2 93.2 537.6 92.4Q538.0 91.5 538.7 91.1Q539.4 90.6 540.4 90.6L540.4 90.6Q540.9 90.6 541.4 90.8Q541.9 91.0 542.3 91.3Q542.7 91.6 543.0 92.0Q543.3 92.5 543.4 93.0L543.4 93.0L542.4 93.0Q542.3 92.7 542.1 92.4Q541.9 92.1 541.7 91.9Q541.4 91.7 541.1 91.6Q540.8 91.5 540.4 91.5L540.4 91.5Q539.7 91.5 539.2 91.8Q538.7 92.1 538.4 92.8Q538.1 93.4 538.1 94.4L538.1 94.4Q538.1 95.3 538.4 95.9Q538.7 96.6 539.2 96.9Q539.8 97.2 540.4 97.2L540.4 97.2Q541.0 97.2 541.5 97.0Q542.0 96.7 542.2 96.2L542.2 96.2Q542.5 95.8 542.5 95.2L542.5 95.2L540.6 95.2L540.6 94.3L543.4 94.3L543.4 95.1Q543.4 96.0 543.0 96.7Q542.6 97.4 542.0 97.7Q541.3 98.1 540.4 98.1Z "/></g><mask id="satori_om-id-1-1-3"><rect x="577" y="48" width="51" height="52" fill="#fff" mask="url(#satori_om-id)"/></mask><mask id="satori_om-id-1-1-3-0"><rect x="577" y="48" width="51" height="34" fill="#fff" mask="url(#satori_om-id)"/></mask><g mask="url(#satori_om-id)" clip-path="url(#satori_cp-id)"><path fill="#d99d87" d="M582.8 54.6L587.2 54.6L587.2 75L583.1 75L583.1 58.3L582.9 58.3L578.3 61.6L578.3 57.8L582.8 54.6ZM606.2 75L591.8 75L591.8 72.0L599.0 65.2Q599.9 64.3 600.6 63.6Q601.2 62.9 601.5 62.2Q601.9 61.5 601.9 60.6L601.9 60.6Q601.9 59.7 601.4 59.1Q601.0 58.4 600.3 58.0Q599.6 57.7 598.7 57.7L598.7 57.7Q597.8 57.7 597.0 58.1Q596.3 58.5 596.0 59.2Q595.6 59.9 595.6 60.9L595.6 60.9L591.6 60.9Q591.6 58.9 592.5 57.4Q593.4 56.0 595.0 55.2Q596.6 54.4 598.7 54.4L598.7 54.4Q600.9 54.4 602.5 55.1Q604.1 55.9 605.0 57.3Q605.9 58.6 605.9 60.4L605.9 60.4Q605.9 61.5 605.5 62.6Q605.0 63.7 603.9 65.1Q602.7 66.5 600.6 68.4L600.6 68.4L597.6 71.4L597.6 71.6L606.2 71.6L606.2 75ZM617.8 75.3L617.8 75.3Q615.5 75.3 613.8 74.5Q612.0 73.8 611.0 72.5Q610.0 71.2 610.0 69.5L610.0 69.5Q610.0 68.3 610.6 67.2Q611.2 66.1 612.1 65.4Q613.1 64.7 614.4 64.5L614.4 64.5L614.4 64.3Q612.8 64.0 611.7 62.8Q610.7 61.5 610.7 59.8L610.7 59.8Q610.7 58.3 611.6 57.0Q612.6 55.8 614.2 55.1Q615.8 54.4 617.8 54.4L617.8 54.4Q619.9 54.4 621.5 55.1Q623.1 55.8 624.0 57.0Q624.9 58.3 624.9 59.8L624.9 59.8Q624.9 61.5 623.9 62.8Q622.9 64.0 621.3 64.3L621.3 64.3L621.3 64.5Q622.5 64.7 623.5 65.4Q624.5 66.1 625.1 67.2Q625.7 68.3 625.7 69.5L625.7 69.5Q625.7 71.2 624.7 72.5Q623.6 73.8 621.9 74.5Q620.1 75.3 617.8 75.3ZM617.8 72.2L617.8 72.2Q618.9 72.2 619.6 71.8Q620.4 71.4 620.9 70.8Q621.3 70.1 621.3 69.2L621.3 69.2Q621.3 68.3 620.8 67.6Q620.4 66.9 619.6 66.5Q618.8 66.1 617.8 66.1L617.8 66.1Q616.8 66.1 616.0 66.5Q615.2 66.9 614.8 67.6Q614.3 68.3 614.3 69.2L614.3 69.2Q614.3 70.1 614.8 70.7Q615.2 71.4 616.0 71.8Q616.8 72.2 617.8 72.2ZM617.8 63.1L617.8 63.1Q618.7 63.1 619.4 62.7Q620.0 62.3 620.4 61.7Q620.8 61.1 620.8 60.3L620.8 60.3Q620.8 59.5 620.4 58.8Q620.1 58.2 619.4 57.9Q618.7 57.5 617.8 57.5L617.8 57.5Q616.9 57.5 616.2 57.9Q615.6 58.2 615.2 58.8Q614.8 59.5 614.8 60.3L614.8 60.3Q614.8 61.1 615.2 61.7Q615.6 62.3 616.3 62.7Q616.9 63.1 617.8 63.1Z "/></g><mask id="satori_om-id-1-1-3-1"><rect x="581" y="88" width="43" height="12" fill="#fff" mask="url(#satori_om-id)"/></mask><g mask="url(#satori_om-id)" clip-path="url(#satori_cp-id)"><path fill="rgba(123,98,97,0.7)" d="M584.2 98.1L584.2 98.1Q583.4 98.1 582.8 97.9Q582.3 97.6 581.9 97.2Q581.6 96.7 581.6 96.1L581.6 96.1L582.5 96.1Q582.6 96.5 582.8 96.8Q583.0 97.0 583.4 97.2Q583.8 97.3 584.2 97.3L584.2 97.3Q584.7 97.3 585.1 97.1Q585.5 97.0 585.7 96.7Q585.9 96.4 585.9 96.0L585.9 96.0Q585.9 95.7 585.7 95.4Q585.6 95.2 585.2 95.1Q584.9 94.9 584.5 94.8L584.5 94.8L583.6 94.6Q582.7 94.3 582.3 93.9Q581.8 93.4 581.8 92.7L581.8 92.7Q581.8 92.1 582.1 91.6Q582.4 91.1 583.0 90.9Q583.6 90.6 584.3 90.6L584.3 90.6Q585.0 90.6 585.5 90.9Q586.1 91.1 586.4 91.6Q586.7 92.0 586.8 92.6L586.8 92.6L585.8 92.6Q585.8 92.0 585.3 91.7Q584.9 91.4 584.2 91.4L584.2 91.4Q583.8 91.4 583.4 91.6Q583.1 91.8 582.9 92.0Q582.7 92.3 582.7 92.6L582.7 92.6Q582.7 93.0 582.9 93.2Q583.1 93.5 583.5 93.6Q583.8 93.7 584.1 93.8L584.1 93.8L584.8 94.0Q585.1 94.1 585.4 94.2Q585.8 94.4 586.1 94.6Q586.4 94.8 586.6 95.2Q586.8 95.5 586.8 96.0L586.8 96.0Q586.8 96.6 586.5 97.1Q586.2 97.6 585.6 97.8Q585.0 98.1 584.2 98.1ZM592.2 91.5L589.9 91.5L589.9 90.7L595.4 90.7L595.4 91.5L593.1 91.5L593.1 98L592.2 98L592.2 91.5ZM599.1 98L598.1 98L600.8 90.7L601.8 90.7L604.5 98L603.5 98L602.8 96.0L599.8 96.0L599.1 98ZM600.1 95.2L602.5 95.2L602.0 93.7Q601.9 93.3 601.7 92.7L601.7 92.7Q601.5 92.2 601.3 91.5L601.3 91.5Q601.1 92.2 600.9 92.7L600.9 92.7Q600.7 93.3 600.6 93.7L600.6 93.7L600.1 95.2ZM608.6 98L607.6 98L607.6 90.7L610.1 90.7Q611.0 90.7 611.5 91.0Q612.1 91.3 612.4 91.8Q612.6 92.3 612.6 93.0Q612.6 93.6 612.4 94.1Q612.1 94.6 611.5 94.9L611.5 94.9Q611.4 95.0 611.3 95.0L611.3 95.0L612.9 98L611.8 98L610.3 95.2Q610.2 95.2 610.1 95.2L610.1 95.2L608.6 95.2L608.6 98ZM608.6 91.5L608.6 94.4L610.1 94.4Q610.7 94.4 611.0 94.2Q611.4 94.0 611.5 93.7Q611.7 93.4 611.7 93.0L611.7 93.0Q611.7 92.5 611.5 92.2Q611.4 91.9 611.0 91.7Q610.7 91.5 610.1 91.5L610.1 91.5L608.6 91.5ZM618.4 98.1L618.4 98.1Q617.6 98.1 617.0 97.9Q616.5 97.6 616.1 97.2Q615.8 96.7 615.8 96.1L615.8 96.1L616.7 96.1Q616.8 96.5 617.0 96.8Q617.2 97.0 617.6 97.2Q618.0 97.3 618.4 97.3L618.4 97.3Q618.9 97.3 619.3 97.1Q619.7 97.0 619.9 96.7Q620.2 96.4 620.2 96.0L620.2 96.0Q620.2 95.7 620.0 95.4Q619.8 95.2 619.4 95.1Q619.1 94.9 618.7 94.8L618.7 94.8L617.8 94.6Q617.0 94.3 616.5 93.9Q616.0 93.4 616.0 92.7L616.0 92.7Q616.0 92.1 616.3 91.6Q616.6 91.1 617.2 90.9Q617.8 90.6 618.5 90.6L618.5 90.6Q619.2 90.6 619.7 90.9Q620.3 91.1 620.6 91.6Q620.9 92.0 621.0 92.6L621.0 92.6L620.0 92.6Q620.0 92.0 619.5 91.7Q619.1 91.4 618.4 91.4L618.4 91.4Q618.0 91.4 617.6 91.6Q617.3 91.8 617.1 92.0Q616.9 92.3 616.9 92.6L616.9 92.6Q616.9 93.0 617.1 93.2Q617.4 93.5 617.7 93.6Q618.0 93.7 618.3 93.8L618.3 93.8L619.0 94.0Q619.3 94.1 619.6 94.2Q620.0 94.4 620.3 94.6Q620.6 94.8 620.8 95.2Q621.1 95.5 621.1 96.0L621.1 96.0Q621.1 96.6 620.7 97.1Q620.4 97.6 619.8 97.8Q619.3 98.1 618.4 98.1Z "/></g><mask id="satori_om-id-1-2"><rect x="126" y="120" width="608" height="1" fill="#fff" mask="url(#satori_om-id)"/></mask><rect x="126" y="120" width="608" height="1" fill="rgba(68,33,40,0.6)" clip-path="url(#satori_cp-id)" mask="url(#satori_om-id)"/><mask id="satori_om-id-1-3"><rect x="164" y="141" width="532" height="105" fill="#fff" mask="url(#satori_om-id)"/></mask><mask id="satori_om-id-1-3-0"><rect x="164" y="141" width="532" height="13" fill="#fff" mask="url(#satori_om-id)"/></mask><mask id="satori_om-id-1-3-0-0"><rect x="164" y="141" width="70" height="13" fill="#fff" mask="url(#satori_om-id)"/></mask><g mask="url(#satori_om-id)" clip-path="url(#satori_cp-id)"><path fill="rgba(153,145,137,0.8)" d="M167.0 144.9L164.5 144.9L164.5 144.0L170.6 144.0L170.6 144.9L168.1 144.9L168.1 152L167.0 152L167.0 144.9ZM172.9 154.2L172.9 154.2L173.1 153.3L173.2 153.4Q173.5 153.4 173.7 153.4Q174.0 153.4 174.2 153.2Q174.4 153.0 174.5 152.5L174.5 152.5L174.7 152.0L172.4 146.0L173.4 146.0L174.7 149.6Q174.9 150.1 175.1 150.7L175.1 150.7Q175.1 150.9 175.2 151.1L175.2 151.1Q175.2 150.9 175.3 150.7L175.3 150.7Q175.5 150.1 175.7 149.6L175.7 149.6L176.9 146.0L178.0 146.0L175.4 152.9Q175.2 153.4 174.9 153.7Q174.7 154.0 174.3 154.1Q174.0 154.3 173.6 154.3L173.6 154.3Q173.3 154.3 173.1 154.3Q172.9 154.2 172.9 154.2ZM181.1 154.2L180.1 154.2L180.1 146.0L181.1 146.0L181.1 147.0L181.2 147.0Q181.3 146.8 181.5 146.6Q181.6 146.3 182.0 146.1Q182.3 145.9 182.9 145.9L182.9 145.9Q183.7 145.9 184.2 146.3Q184.8 146.7 185.1 147.4Q185.5 148.1 185.5 149.0L185.5 149.0Q185.5 150.0 185.1 150.7Q184.8 151.4 184.2 151.7Q183.7 152.1 182.9 152.1L182.9 152.1Q182.3 152.1 182.0 151.9Q181.7 151.7 181.5 151.5Q181.3 151.2 181.2 151.1L181.2 151.1L181.1 151.1L181.1 154.2ZM182.8 151.3L182.8 151.3Q183.3 151.3 183.7 151.0Q184.1 150.7 184.3 150.1Q184.5 149.6 184.5 149.0L184.5 149.0Q184.5 148.4 184.3 147.9Q184.1 147.4 183.7 147.1Q183.3 146.8 182.8 146.8L182.8 146.8Q182.2 146.8 181.8 147.1Q181.5 147.3 181.3 147.8Q181.1 148.3 181.1 149.0L181.1 149.0Q181.1 149.7 181.3 150.2Q181.5 150.7 181.9 151.0Q182.2 151.3 182.8 151.3ZM190.4 152.1L190.4 152.1Q189.5 152.1 188.9 151.7Q188.3 151.4 187.9 150.7Q187.6 150.0 187.6 149.0Q187.6 148.1 187.9 147.4Q188.2 146.7 188.9 146.3Q189.5 145.9 190.3 145.9L190.3 145.9Q190.8 145.9 191.2 146.1Q191.7 146.2 192.1 146.6Q192.4 146.9 192.7 147.5Q192.9 148.1 192.9 148.9L192.9 148.9L192.9 149.3L188.6 149.3Q188.6 149.9 188.8 150.3L188.8 150.3Q189.0 150.8 189.4 151.0Q189.8 151.3 190.4 151.3L190.4 151.3Q190.8 151.3 191.0 151.2Q191.3 151.1 191.5 150.9Q191.8 150.7 191.9 150.3L191.9 150.3L192.8 150.6Q192.7 151.1 192.3 151.4Q192.0 151.7 191.5 151.9Q191.0 152.1 190.4 152.1ZM188.6 148.5L188.6 148.5L191.9 148.5Q191.9 148.1 191.7 147.8L191.7 147.8Q191.6 147.3 191.2 147.0Q190.8 146.8 190.3 146.8Q189.7 146.8 189.3 147.0Q189.0 147.3 188.8 147.7L188.8 147.7Q188.6 148.1 188.6 148.5ZM198.0 152.1L198.0 152.1Q197.1 152.1 196.5 151.9Q195.8 151.6 195.5 151.1Q195.1 150.6 195.1 149.9L195.1 149.9L196.1 149.9Q196.1 150.4 196.4 150.6Q196.7 150.9 197.1 151.1Q197.5 151.2 198.0 151.2L198.0 151.2Q198.5 151.2 198.9 151.0Q199.4 150.9 199.6 150.5Q199.9 150.2 199.9 149.8L199.9 149.8Q199.9 149.4 199.7 149.2Q199.4 148.9 199.1 148.8Q198.7 148.6 198.3 148.5L198.3 148.5L197.3 148.2Q196.4 148.0 195.8 147.4Q195.3 146.9 195.3 146.1L195.3 146.1Q195.3 145.5 195.6 145.0Q196.0 144.4 196.6 144.2Q197.3 143.9 198.0 143.9L198.0 143.9Q198.8 143.9 199.4 144.2Q200.0 144.4 200.4 144.9Q200.7 145.4 200.8 146.0L200.8 146.0L199.8 146.0Q199.7 145.4 199.2 145.1Q198.7 144.8 198.0 144.8L198.0 144.8Q197.5 144.8 197.1 145.0Q196.7 145.1 196.5 145.4Q196.3 145.7 196.3 146.1L196.3 146.1Q196.3 146.5 196.5 146.8Q196.8 147.0 197.2 147.2Q197.5 147.3 197.8 147.4L197.8 147.4L198.6 147.6Q198.9 147.7 199.3 147.8Q199.7 148.0 200.1 148.2Q200.4 148.5 200.6 148.9Q200.9 149.3 200.9 149.8L200.9 149.8Q200.9 150.5 200.5 151.0Q200.2 151.5 199.5 151.8Q198.9 152.1 198.0 152.1ZM205.8 152.1L205.8 152.1Q205.0 152.1 204.3 151.7Q203.7 151.4 203.4 150.7Q203.0 150.0 203.0 149.0L203.0 149.0Q203.0 148.1 203.4 147.4Q203.7 146.7 204.3 146.3Q205.0 145.9 205.8 145.9L205.8 145.9Q206.2 145.9 206.6 146.0Q207.0 146.1 207.3 146.4Q207.6 146.6 207.9 146.9Q208.1 147.2 208.2 147.6L208.2 147.6L207.3 147.8Q207.2 147.6 207.1 147.4Q207.0 147.2 206.8 147.1Q206.6 146.9 206.3 146.9Q206.1 146.8 205.8 146.8L205.8 146.8Q205.2 146.8 204.8 147.1Q204.4 147.4 204.2 147.9Q204.0 148.4 204.0 149.0L204.0 149.0Q204.0 149.6 204.2 150.1Q204.4 150.6 204.8 151.0Q205.2 151.3 205.8 151.3L205.8 151.3Q206.1 151.3 206.3 151.2Q206.6 151.1 206.8 151.0Q207.0 150.8 207.1 150.6Q207.2 150.4 207.3 150.2L207.3 150.2L208.2 150.4Q208.1 150.8 207.9 151.1Q207.7 151.5 207.3 151.7Q207.0 151.9 206.6 152.0Q206.2 152.1 205.8 152.1ZM211.6 152L210.6 152L210.6 146.0L211.6 146.0L211.6 146.9L211.6 146.9Q211.8 146.5 212.2 146.2Q212.6 145.9 213.2 145.9L213.2 145.9Q213.3 145.9 213.4 145.9Q213.6 145.9 213.7 145.9L213.7 145.9L213.7 146.9Q213.6 146.9 213.5 146.9Q213.3 146.8 213.1 146.8L213.1 146.8Q212.7 146.8 212.3 147.0Q212.0 147.2 211.8 147.5Q211.6 147.8 211.6 148.2L211.6 148.2L211.6 152ZM216.7 152L215.8 152L215.8 146.0L216.7 146.0L216.7 152ZM216.3 145.0L216.3 145.0Q216.0 145.0 215.8 144.8Q215.6 144.6 215.6 144.4L215.6 144.4Q215.6 144.1 215.8 143.9Q216.0 143.7 216.3 143.7L216.3 143.7Q216.5 143.7 216.7 143.9Q216.9 144.1 216.9 144.4L216.9 144.4Q216.9 144.6 216.7 144.8Q216.5 145.0 216.3 145.0ZM220.4 154.2L219.4 154.2L219.4 146.0L220.4 146.0L220.4 147.0L220.5 147.0Q220.6 146.8 220.8 146.6Q220.9 146.3 221.3 146.1Q221.6 145.9 222.2 145.9L222.2 145.9Q223.0 145.9 223.5 146.3Q224.1 146.7 224.4 147.4Q224.8 148.1 224.8 149.0L224.8 149.0Q224.8 150.0 224.4 150.7Q224.1 151.4 223.5 151.7Q223.0 152.1 222.2 152.1L222.2 152.1Q221.6 152.1 221.3 151.9Q220.9 151.7 220.8 151.5Q220.6 151.2 220.5 151.1L220.5 151.1L220.4 151.1L220.4 154.2ZM222.1 151.3L222.1 151.3Q222.6 151.3 223.0 151.0Q223.4 150.7 223.6 150.1Q223.8 149.6 223.8 149.0L223.8 149.0Q223.8 148.4 223.6 147.9Q223.4 147.4 223.0 147.1Q222.6 146.8 222.1 146.8L222.1 146.8Q221.5 146.8 221.1 147.1Q220.8 147.3 220.6 147.8Q220.4 148.3 220.4 149.0L220.4 149.0Q220.4 149.7 220.6 150.2Q220.8 150.7 221.1 151.0Q221.5 151.3 222.1 151.3ZM228.3 146.0L229.5 146.0L229.5 146.8L228.3 146.8L228.3 150.4Q228.3 150.8 228.5 151.0Q228.6 151.2 229.0 151.2L229.0 151.2Q229.1 151.2 229.2 151.2Q229.4 151.2 229.5 151.2L229.5 151.2L229.7 152.0Q229.5 152.0 229.4 152.0Q229.2 152.1 229.0 152.1L229.0 152.1Q228.2 152.1 227.8 151.7Q227.3 151.3 227.3 150.5L227.3 150.5L227.3 146.8L226.4 146.8L226.4 146.0L227.3 146.0L227.3 144.6L228.3 144.6L228.3 146.0Z "/></g><mask id="satori_om-id-1-3-0-1"><rect x="246" y="146" width="403" height="4" fill="#fff" mask="url(#satori_om-id)"/></mask><path x="246" y="146" width="403" height="4" fill="rgba(68,33,40,0.5)" d="M248,146 h399 a2,2 0 0 1 2,2 v0 a2,2 0 0 1 -2,2 h-399 a2,2 0 0 1 -2,-2 v0 a2,2 0 0 1 2,-2" clip-path="url(#satori_cp-id)" mask="url(#satori_om-id)"/><mask id="satori_om-id-1-3-0-1-0"><rect x="246" y="146" width="181" height="4" fill="#fff" mask="url(#satori_om-id)"/></mask><g opacity="0.7"><path x="246" y="146" width="181" height="4" fill="#d99d87" d="M248,146 h177 a2,2 0 0 1 2,2 v0 a2,2 0 0 1 -2,2 h-177 a2,2 0 0 1 -2,-2 v0 a2,2 0 0 1 2,-2" clip-path="url(#satori_cp-id)" mask="url(#satori_om-id)"/></g><mask id="satori_om-id-1-3-0-2"><rect x="661" y="142" width="35" height="12" fill="#fff" mask="url(#satori_om-id)"/></mask><g mask="url(#satori_om-id)" clip-path="url(#satori_cp-id)"><path fill="rgba(123,98,97,0.7)" d="M677.0 150.5L673.6 150.5L673.6 149.8L676.8 144.7L677.9 144.7L677.9 149.7L678.9 149.7L678.9 150.5L677.9 150.5L677.9 152L677.0 152L677.0 150.5ZM674.6 149.7L677.0 149.7L677.0 145.9L677.0 145.9L674.6 149.6L674.6 149.7ZM682.4 152.1L682.4 152.1Q681.7 152.1 681.2 151.8Q680.7 151.6 680.4 151.2Q680.1 150.7 680.1 150.2L680.1 150.2L681.0 150.2Q681.0 150.5 681.2 150.7Q681.4 151.0 681.7 151.1Q682.0 151.3 682.4 151.3L682.4 151.3Q682.8 151.3 683.2 151.1Q683.5 150.9 683.7 150.5Q683.9 150.1 683.9 149.7L683.9 149.7Q683.9 149.2 683.7 148.9Q683.5 148.5 683.1 148.3Q682.8 148.1 682.3 148.1L682.3 148.1Q682.0 148.1 681.6 148.2Q681.3 148.3 681.1 148.4L681.1 148.4L680.2 148.3L680.6 144.7L684.5 144.7L684.5 145.5L681.4 145.5L681.2 147.7L681.2 147.7Q681.4 147.5 681.8 147.4Q682.1 147.2 682.5 147.2L682.5 147.2Q683.0 147.2 683.4 147.4Q683.8 147.6 684.1 147.9Q684.5 148.3 684.6 148.7Q684.8 149.1 684.8 149.7L684.8 149.7Q684.8 150.4 684.5 150.9Q684.2 151.5 683.6 151.8Q683.1 152.1 682.4 152.1ZM687.9 147.9L687.9 147.9Q687.5 147.9 687.2 147.7Q686.8 147.5 686.7 147.2Q686.5 146.9 686.5 146.5L686.5 146.5L686.5 146.1Q686.5 145.7 686.7 145.3Q686.8 145.0 687.2 144.8Q687.5 144.6 687.9 144.6L687.9 144.6Q688.4 144.6 688.7 144.8Q689.0 145.0 689.2 145.3Q689.4 145.7 689.4 146.1L689.4 146.1L689.4 146.5Q689.4 146.9 689.2 147.2Q689.0 147.5 688.7 147.7Q688.4 147.9 687.9 147.9ZM687.9 147.3L687.9 147.3Q688.3 147.3 688.5 147.0Q688.6 146.8 688.6 146.5L688.6 146.5L688.6 146.1Q688.6 145.8 688.5 145.5Q688.3 145.2 687.9 145.2L687.9 145.2Q687.6 145.2 687.4 145.5Q687.3 145.8 687.3 146.1L687.3 146.1L687.3 146.5Q687.3 146.8 687.4 147.0Q687.6 147.3 687.9 147.3ZM692.7 152.1L692.7 152.1Q692.2 152.1 691.9 151.9Q691.6 151.7 691.4 151.4Q691.2 151.1 691.2 150.7L691.2 150.7L691.2 150.3Q691.2 149.9 691.4 149.5Q691.6 149.2 691.9 149.0Q692.2 148.8 692.7 148.8L692.7 148.8Q693.1 148.8 693.5 149.0Q693.8 149.2 693.9 149.5Q694.1 149.9 694.1 150.3L694.1 150.3L694.1 150.7Q694.1 151.1 693.9 151.4Q693.8 151.7 693.4 151.9Q693.1 152.1 692.7 152.1ZM692.7 151.5L692.7 151.5Q693.0 151.5 693.2 151.2Q693.3 151.0 693.3 150.7L693.3 150.7L693.3 150.3Q693.3 150.0 693.2 149.7Q693.0 149.4 692.7 149.4L692.7 149.4Q692.3 149.4 692.1 149.7Q692.0 150.0 692.0 150.3L692.0 150.3L692.0 150.7Q692.0 151.0 692.1 151.2Q692.3 151.5 692.7 151.5ZM688.2 152L687.4 152L692.4 144.7L693.2 144.7L688.2 152Z "/></g><mask id="satori_om-id-1-3-1"><rect x="164" y="164" width="532" height="13" fill="#fff" mask="url(#satori_om-id)"/></mask><mask id="satori_om-id-1-3-1-0"><rect x="164" y="164" width="70" height="13" fill="#fff" mask="url(#satori_om-id)"/></mask><g mask="url(#satori_om-id)" clip-path="url(#satori_cp-id)"><path fill="rgba(153,145,137,0.8)" d="M166.9 175.1L166.9 175.1Q165.9 175.1 165.2 174.5Q164.5 173.9 164.5 172.7L164.5 172.7L164.5 172.3L165.6 172.3L165.6 172.7Q165.6 173.4 165.9 173.8Q166.3 174.2 166.9 174.2L166.9 174.2Q167.5 174.2 167.9 173.8Q168.3 173.4 168.3 172.7L168.3 172.7L168.3 167.0L169.3 167.0L169.3 172.7Q169.3 173.9 168.6 174.5Q168.0 175.1 166.9 175.1ZM173.8 175.1L173.8 175.1Q173.2 175.1 172.8 174.9Q172.3 174.7 172.0 174.3Q171.8 173.9 171.8 173.3L171.8 173.3Q171.8 172.8 172.0 172.5Q172.2 172.1 172.5 171.9Q172.9 171.8 173.3 171.7Q173.7 171.6 174.1 171.5L174.1 171.5Q174.6 171.5 175.0 171.4Q175.3 171.4 175.5 171.3Q175.6 171.2 175.6 171.0L175.6 171.0L175.6 170.9Q175.6 170.6 175.5 170.3Q175.4 170.0 175.1 169.9Q174.8 169.8 174.4 169.8L174.4 169.8Q174.0 169.8 173.6 169.9Q173.3 170.0 173.2 170.2Q173.0 170.4 172.9 170.6L172.9 170.6L171.9 170.3Q172.2 169.8 172.6 169.5Q172.9 169.2 173.4 169.0Q173.9 168.9 174.4 168.9L174.4 168.9Q174.7 168.9 175.0 169.0Q175.4 169.1 175.8 169.3Q176.1 169.5 176.4 169.9Q176.6 170.3 176.6 171.0L176.6 171.0L176.6 175L175.7 175L175.7 174.2L175.6 174.2Q175.5 174.4 175.3 174.6Q175.0 174.8 174.7 175.0Q174.3 175.1 173.8 175.1ZM174.0 174.3L174.0 174.3Q174.5 174.3 174.9 174.1Q175.3 173.9 175.4 173.5Q175.6 173.2 175.6 172.8L175.6 172.8L175.6 172.0Q175.6 172.1 175.4 172.1Q175.2 172.2 174.9 172.2Q174.7 172.3 174.4 172.3Q174.2 172.3 174.1 172.3L174.1 172.3Q173.7 172.4 173.4 172.5Q173.1 172.6 172.9 172.8Q172.7 173.0 172.7 173.3L172.7 173.3Q172.7 173.7 172.9 173.9Q173.1 174.1 173.3 174.2Q173.6 174.3 174.0 174.3ZM182.1 175L181.0 175L178.7 169.0L179.8 169.0L181.1 172.6Q181.3 173.1 181.4 173.7L181.4 173.7Q181.5 173.9 181.5 174.1L181.5 174.1Q181.6 173.9 181.7 173.7L181.7 173.7Q181.8 173.1 182.0 172.6L182.0 172.6L183.3 169.0L184.3 169.0L182.1 175ZM188.2 175.1L188.2 175.1Q187.6 175.1 187.1 174.9Q186.7 174.7 186.4 174.3Q186.1 173.9 186.1 173.3L186.1 173.3Q186.1 172.8 186.3 172.5Q186.5 172.1 186.9 171.9Q187.2 171.8 187.6 171.7Q188.0 171.6 188.5 171.5L188.5 171.5Q189.0 171.5 189.3 171.4Q189.7 171.4 189.8 171.3Q190.0 171.2 190.0 171.0L190.0 171.0L190.0 170.9Q190.0 170.6 189.9 170.3Q189.7 170.0 189.4 169.9Q189.2 169.8 188.7 169.8L188.7 169.8Q188.3 169.8 188.0 169.9Q187.7 170.0 187.5 170.2Q187.3 170.4 187.2 170.6L187.2 170.6L186.3 170.3Q186.5 169.8 186.9 169.5Q187.3 169.2 187.8 169.0Q188.3 168.9 188.7 168.9L188.7 168.9Q189.0 168.9 189.4 169.0Q189.8 169.1 190.1 169.3Q190.5 169.5 190.7 169.9Q191.0 170.3 191.0 171.0L191.0 171.0L191.0 175L190.0 175L190.0 174.2L190.0 174.2Q189.8 174.4 189.6 174.6Q189.4 174.8 189.0 175.0Q188.7 175.1 188.2 175.1ZM188.3 174.3L188.3 174.3Q188.9 174.3 189.2 174.1Q189.6 173.9 189.8 173.5Q190.0 173.2 190.0 172.8L190.0 172.8L190.0 172.0Q189.9 172.1 189.7 172.1Q189.5 172.2 189.3 172.2Q189.0 172.3 188.8 172.3Q188.6 172.3 188.4 172.3L188.4 172.3Q188.1 172.4 187.8 172.5Q187.5 172.6 187.3 172.8Q187.1 173.0 187.1 173.3L187.1 173.3Q187.1 173.7 187.3 173.9Q187.4 174.1 187.7 174.2Q188.0 174.3 188.3 174.3ZM196.3 175.1L196.3 175.1Q195.5 175.1 194.8 174.9Q194.2 174.6 193.8 174.1Q193.5 173.6 193.4 172.9L193.4 172.9L194.5 172.9Q194.5 173.4 194.8 173.6Q195.1 173.9 195.5 174.1Q195.9 174.2 196.3 174.2L196.3 174.2Q196.9 174.2 197.3 174.0Q197.8 173.9 198.0 173.5Q198.3 173.2 198.3 172.8L198.3 172.8Q198.3 172.4 198.0 172.2Q197.8 171.9 197.5 171.8Q197.1 171.6 196.7 171.5L196.7 171.5L195.7 171.2Q194.7 171.0 194.2 170.4Q193.7 169.9 193.7 169.1L193.7 169.1Q193.7 168.5 194.0 168.0Q194.4 167.4 195.0 167.2Q195.6 166.9 196.4 166.9L196.4 166.9Q197.2 166.9 197.8 167.2Q198.4 167.4 198.8 167.9Q199.1 168.4 199.1 169.0L199.1 169.0L198.1 169.0Q198.1 168.4 197.6 168.1Q197.1 167.8 196.4 167.8L196.4 167.8Q195.9 167.8 195.5 168.0Q195.1 168.1 194.9 168.4Q194.7 168.7 194.7 169.1L194.7 169.1Q194.7 169.5 194.9 169.8Q195.2 170.0 195.5 170.2Q195.9 170.3 196.2 170.4L196.2 170.4L197.0 170.6Q197.3 170.7 197.7 170.8Q198.1 171.0 198.4 171.2Q198.8 171.5 199.0 171.9Q199.2 172.3 199.2 172.8L199.2 172.8Q199.2 173.5 198.9 174.0Q198.6 174.5 197.9 174.8Q197.3 175.1 196.3 175.1ZM204.2 175.1L204.2 175.1Q203.3 175.1 202.7 174.7Q202.1 174.4 201.8 173.7Q201.4 173.0 201.4 172.0L201.4 172.0Q201.4 171.1 201.8 170.4Q202.1 169.7 202.7 169.3Q203.3 168.9 204.2 168.9L204.2 168.9Q204.6 168.9 205.0 169.0Q205.4 169.1 205.7 169.4Q206.0 169.6 206.2 169.9Q206.5 170.2 206.6 170.6L206.6 170.6L205.7 170.8Q205.6 170.6 205.5 170.4Q205.3 170.2 205.1 170.1Q205.0 169.9 204.7 169.9Q204.5 169.8 204.2 169.8L204.2 169.8Q203.6 169.8 203.2 170.1Q202.8 170.4 202.6 170.9Q202.4 171.4 202.4 172.0L202.4 172.0Q202.4 172.6 202.6 173.1Q202.8 173.6 203.2 174.0Q203.6 174.3 204.2 174.3L204.2 174.3Q204.5 174.3 204.7 174.2Q205.0 174.1 205.2 174.0Q205.4 173.8 205.5 173.6Q205.6 173.4 205.7 173.2L205.7 173.2L206.6 173.4Q206.5 173.8 206.3 174.1Q206.0 174.5 205.7 174.7Q205.4 174.9 205.0 175.0Q204.6 175.1 204.2 175.1ZM210.0 175L209.0 175L209.0 169.0L209.9 169.0L209.9 169.9L210.0 169.9Q210.2 169.5 210.6 169.2Q211.0 168.9 211.6 168.9L211.6 168.9Q211.7 168.9 211.8 168.9Q212.0 168.9 212.1 168.9L212.1 168.9L212.1 169.9Q212.0 169.9 211.8 169.9Q211.7 169.8 211.5 169.8L211.5 169.8Q211.0 169.8 210.7 170.0Q210.4 170.2 210.2 170.5Q210.0 170.8 210.0 171.2L210.0 171.2L210.0 175ZM215.1 175L214.1 175L214.1 169.0L215.1 169.0L215.1 175ZM214.6 168.0L214.6 168.0Q214.4 168.0 214.2 167.8Q214.0 167.6 214.0 167.4L214.0 167.4Q214.0 167.1 214.2 166.9Q214.4 166.7 214.6 166.7L214.6 166.7Q214.9 166.7 215.1 166.9Q215.3 167.1 215.3 167.4L215.3 167.4Q215.3 167.6 215.1 167.8Q214.9 168.0 214.6 168.0ZM218.8 177.2L217.8 177.2L217.8 169.0L218.7 169.0L218.7 170.0L218.9 170.0Q219.0 169.8 219.1 169.6Q219.3 169.3 219.7 169.1Q220.0 168.9 220.6 168.9L220.6 168.9Q221.3 168.9 221.9 169.3Q222.5 169.7 222.8 170.4Q223.1 171.1 223.1 172.0L223.1 172.0Q223.1 173.0 222.8 173.7Q222.5 174.4 221.9 174.7Q221.3 175.1 220.6 175.1L220.6 175.1Q220.0 175.1 219.7 174.9Q219.3 174.7 219.1 174.5Q219.0 174.2 218.9 174.1L218.9 174.1L218.8 174.1L218.8 177.2ZM220.5 174.3L220.5 174.3Q221.0 174.3 221.4 174.0Q221.8 173.7 222.0 173.1Q222.2 172.6 222.2 172.0L222.2 172.0Q222.2 171.4 222.0 170.9Q221.8 170.4 221.4 170.1Q221.0 169.8 220.5 169.8L220.5 169.8Q219.9 169.8 219.5 170.1Q219.1 170.3 219.0 170.8Q218.8 171.3 218.8 172.0L218.8 172.0Q218.8 172.7 219.0 173.2Q219.2 173.7 219.5 174.0Q219.9 174.3 220.5 174.3ZM226.7 169.0L227.9 169.0L227.9 169.8L226.7 169.8L226.7 173.4Q226.7 173.8 226.8 174.0Q227.0 174.2 227.4 174.2L227.4 174.2Q227.5 174.2 227.6 174.2Q227.8 174.2 227.9 174.2L227.9 174.2L228.1 175.0Q227.9 175.0 227.7 175.0Q227.5 175.1 227.4 175.1L227.4 175.1Q226.6 175.1 226.1 174.7Q225.7 174.3 225.7 173.5L225.7 173.5L225.7 169.8L224.8 169.8L224.8 169.0L225.7 169.0L225.7 167.6L226.7 167.6L226.7 169.0Z "/></g><mask id="satori_om-id-1-3-1-1"><rect x="246" y="169" width="403" height="4" fill="#fff" mask="url(#satori_om-id)"/></mask><path x="246" y="169" width="403" height="4" fill="rgba(68,33,40,0.5)" d="M248,169 h399 a2,2 0 0 1 2,2 v0 a2,2 0 0 1 -2,2 h-399 a2,2 0 0 1 -2,-2 v0 a2,2 0 0 1 2,-2" clip-path="url(#satori_cp-id)" mask="url(#satori_om-id)"/><mask id="satori_om-id-1-3-1-1-0"><rect x="246" y="169" width="101" height="4" fill="#fff" mask="url(#satori_om-id)"/></mask><g opacity="0.7"><path x="246" y="169" width="101" height="4" fill="#d99d87" d="M248,169 h97 a2,2 0 0 1 2,2 v0 a2,2 0 0 1 -2,2 h-97 a2,2 0 0 1 -2,-2 v0 a2,2 0 0 1 2,-2" clip-path="url(#satori_cp-id)" mask="url(#satori_om-id)"/></g><mask id="satori_om-id-1-3-1-2"><rect x="661" y="165" width="35" height="12" fill="#fff" mask="url(#satori_om-id)"/></mask><g mask="url(#satori_om-id)" clip-path="url(#satori_cp-id)"><path fill="rgba(123,98,97,0.7)" d="M679.4 175L674.8 175L674.8 174.3L677.2 171.7Q677.6 171.3 677.8 170.9Q678.1 170.6 678.2 170.3Q678.4 170.0 678.4 169.7L678.4 169.7Q678.4 169.3 678.2 169.0Q678.0 168.7 677.7 168.6Q677.4 168.4 677.0 168.4L677.0 168.4Q676.6 168.4 676.3 168.6Q676.0 168.8 675.8 169.1Q675.7 169.4 675.7 169.8L675.7 169.8L674.8 169.8Q674.8 169.1 675.1 168.7Q675.4 168.2 675.9 167.9Q676.4 167.6 677.0 167.6L677.0 167.6Q677.7 167.6 678.2 167.9Q678.7 168.2 679.0 168.6Q679.3 169.1 679.3 169.7L679.3 169.7Q679.3 170.1 679.1 170.4Q679.0 170.8 678.6 171.3Q678.3 171.7 677.6 172.4L677.6 172.4L676.0 174.1L676.0 174.2L679.4 174.2L679.4 175ZM683.0 175.1L683.0 175.1Q682.4 175.1 681.9 174.8Q681.4 174.6 681.1 174.2Q680.7 173.7 680.7 173.2L680.7 173.2L681.6 173.2Q681.7 173.5 681.8 173.7Q682.0 174.0 682.3 174.1Q682.6 174.3 683.0 174.3L683.0 174.3Q683.4 174.3 683.8 174.1Q684.1 173.9 684.3 173.5Q684.5 173.1 684.5 172.7L684.5 172.7Q684.5 172.2 684.3 171.9Q684.1 171.5 683.8 171.3Q683.4 171.1 683.0 171.1L683.0 171.1Q682.6 171.1 682.3 171.2Q681.9 171.3 681.7 171.4L681.7 171.4L680.8 171.3L681.3 167.7L685.1 167.7L685.1 168.5L682.0 168.5L681.8 170.7L681.8 170.7Q682.1 170.5 682.4 170.4Q682.7 170.2 683.1 170.2L683.1 170.2Q683.6 170.2 684.0 170.4Q684.5 170.6 684.8 170.9Q685.1 171.3 685.3 171.7Q685.4 172.1 685.4 172.7L685.4 172.7Q685.4 173.4 685.1 173.9Q684.8 174.5 684.3 174.8Q683.7 175.1 683.0 175.1ZM688.6 170.9L688.6 170.9Q688.1 170.9 687.8 170.7Q687.5 170.5 687.3 170.2Q687.2 169.9 687.2 169.5L687.2 169.5L687.2 169.1Q687.2 168.7 687.3 168.3Q687.5 168.0 687.8 167.8Q688.1 167.6 688.6 167.6L688.6 167.6Q689.1 167.6 689.4 167.8Q689.7 168.0 689.8 168.3Q690.0 168.7 690.0 169.1L690.0 169.1L690.0 169.5Q690.0 169.9 689.8 170.2Q689.7 170.5 689.4 170.7Q689.0 170.9 688.6 170.9ZM688.6 170.3L688.6 170.3Q689.0 170.3 689.1 170.0Q689.3 169.8 689.3 169.5L689.3 169.5L689.3 169.1Q689.3 168.8 689.1 168.5Q689.0 168.2 688.6 168.2L688.6 168.2Q688.2 168.2 688.1 168.5Q687.9 168.8 687.9 169.1L687.9 169.1L687.9 169.5Q687.9 169.8 688.1 170.0Q688.2 170.3 688.6 170.3ZM693.3 175.1L693.3 175.1Q692.8 175.1 692.5 174.9Q692.2 174.7 692.0 174.4Q691.9 174.1 691.9 173.7L691.9 173.7L691.9 173.3Q691.9 172.9 692.0 172.5Q692.2 172.2 692.5 172.0Q692.8 171.8 693.3 171.8L693.3 171.8Q693.8 171.8 694.1 172.0Q694.4 172.2 694.6 172.5Q694.7 172.9 694.7 173.3L694.7 173.3L694.7 173.7Q694.7 174.1 694.6 174.4Q694.4 174.7 694.1 174.9Q693.8 175.1 693.3 175.1ZM693.3 174.5L693.3 174.5Q693.7 174.5 693.8 174.2Q694.0 174.0 694.0 173.7L694.0 173.7L694.0 173.3Q694.0 173.0 693.8 172.7Q693.7 172.4 693.3 172.4L693.3 172.4Q692.9 172.4 692.8 172.7Q692.6 173.0 692.6 173.3L692.6 173.3L692.6 173.7Q692.6 174.0 692.8 174.2Q692.9 174.5 693.3 174.5ZM688.8 175L688.0 175L693.0 167.7L693.8 167.7L688.8 175Z "/></g><mask id="satori_om-id-1-3-2"><rect x="164" y="187" width="532" height="13" fill="#fff" mask="url(#satori_om-id)"/></mask><mask id="satori_om-id-1-3-2-0"><rect x="164" y="187" width="70" height="13" fill="#fff" mask="url(#satori_om-id)"/></mask><g mask="url(#satori_om-id)" clip-path="url(#satori_cp-id)"><path fill="rgba(153,145,137,0.8)" d="M166.0 198L165.0 198L165.0 190.0L167.7 190.0Q168.6 190.0 169.2 190.3Q169.8 190.7 170.1 191.3Q170.4 191.8 170.4 192.5Q170.4 193.3 170.1 193.8Q169.8 194.4 169.2 194.8Q168.6 195.1 167.7 195.1L167.7 195.1L166.0 195.1L166.0 198ZM166.0 190.9L166.0 194.2L167.7 194.2Q168.3 194.2 168.7 194.0Q169.1 193.8 169.2 193.4Q169.4 193.0 169.4 192.5Q169.4 192.1 169.2 191.7Q169.1 191.3 168.7 191.1Q168.3 190.9 167.7 190.9L167.7 190.9L166.0 190.9ZM172.8 200.2L172.8 200.2L173.0 199.3L173.1 199.4Q173.4 199.4 173.7 199.4Q173.9 199.4 174.1 199.2Q174.3 199.0 174.4 198.5L174.4 198.5L174.6 198.0L172.3 192.0L173.4 192.0L174.7 195.6Q174.9 196.1 175.0 196.7L175.0 196.7Q175.1 196.9 175.1 197.1L175.1 197.1Q175.2 196.9 175.2 196.7L175.2 196.7Q175.4 196.1 175.6 195.6L175.6 195.6L176.9 192.0L177.9 192.0L175.3 198.9Q175.1 199.4 174.8 199.7Q174.6 200.0 174.2 200.1Q173.9 200.3 173.5 200.3L173.5 200.3Q173.2 200.3 173.0 200.3Q172.9 200.2 172.8 200.2ZM181.2 192.0L182.4 192.0L182.4 192.8L181.2 192.8L181.2 196.4Q181.2 196.8 181.3 197.0Q181.5 197.2 181.9 197.2L181.9 197.2Q182.0 197.2 182.1 197.2Q182.3 197.2 182.4 197.2L182.4 197.2L182.6 198.0Q182.4 198.0 182.2 198.0Q182.1 198.1 181.9 198.1L181.9 198.1Q181.1 198.1 180.7 197.7Q180.2 197.3 180.2 196.5L180.2 196.5L180.2 192.8L179.3 192.8L179.3 192.0L180.2 192.0L180.2 190.6L181.2 190.6L181.2 192.0ZM185.6 194.4L185.6 194.4L185.6 198L184.7 198L184.7 190.0L185.6 190.0L185.6 193.0Q185.9 192.5 186.2 192.3L186.2 192.3Q186.7 191.9 187.4 191.9L187.4 191.9Q188.0 191.9 188.5 192.2Q189.0 192.4 189.2 192.9Q189.5 193.4 189.5 194.2L189.5 194.2L189.5 198L188.5 198L188.5 194.3Q188.5 193.6 188.1 193.2Q187.8 192.8 187.1 192.8L187.1 192.8Q186.7 192.8 186.4 193.0Q186.0 193.2 185.8 193.5Q185.6 193.9 185.6 194.4ZM194.6 198.1L194.6 198.1Q193.8 198.1 193.2 197.7Q192.6 197.4 192.2 196.7Q191.9 196.0 191.9 195.0L191.9 195.0Q191.9 194.1 192.2 193.4Q192.6 192.7 193.2 192.3Q193.8 191.9 194.6 191.9L194.6 191.9Q195.4 191.9 196.0 192.3Q196.7 192.7 197.0 193.4Q197.3 194.1 197.3 195.0L197.3 195.0Q197.3 196.0 197.0 196.7Q196.7 197.4 196.0 197.7Q195.4 198.1 194.6 198.1ZM194.6 197.3L194.6 197.3Q195.2 197.3 195.6 197.0Q196.0 196.6 196.2 196.1Q196.4 195.6 196.4 195.0L196.4 195.0Q196.4 194.4 196.2 193.9Q196.0 193.4 195.6 193.1Q195.2 192.8 194.6 192.8L194.6 192.8Q194.0 192.8 193.6 193.1Q193.2 193.4 193.0 193.9Q192.9 194.4 192.9 195.0L192.9 195.0Q192.9 195.6 193.0 196.1Q193.2 196.6 193.6 197.0Q194.0 197.3 194.6 197.3ZM200.7 194.4L200.7 194.4L200.7 198L199.8 198L199.8 192.0L200.7 192.0L200.7 193.1Q200.9 192.5 201.3 192.3L201.3 192.3Q201.8 191.9 202.5 191.9L202.5 191.9Q203.1 191.9 203.6 192.2Q204.0 192.4 204.3 192.9Q204.6 193.4 204.6 194.2L204.6 194.2L204.6 198L203.6 198L203.6 194.3Q203.6 193.6 203.2 193.2Q202.9 192.8 202.2 192.8L202.2 192.8Q201.8 192.8 201.5 193.0Q201.1 193.2 200.9 193.5Q200.7 193.9 200.7 194.4Z "/></g><mask id="satori_om-id-1-3-2-1"><rect x="246" y="192" width="403" height="4" fill="#fff" mask="url(#satori_om-id)"/></mask><path x="246" y="192" width="403" height="4" fill="rgba(68,33,40,0.5)" d="M248,192 h399 a2,2 0 0 1 2,2 v0 a2,2 0 0 1 -2,2 h-399 a2,2 0 0 1 -2,-2 v0 a2,2 0 0 1 2,-2" clip-path="url(#satori_cp-id)" mask="url(#satori_om-id)"/><mask id="satori_om-id-1-3-2-1-0"><rect x="246" y="192" width="60" height="4" fill="#fff" mask="url(#satori_om-id)"/></mask><g opacity="0.7"><path x="246" y="192" width="60" height="4" fill="#d99d87" d="M248,192 h56 a2,2 0 0 1 2,2 v0 a2,2 0 0 1 -2,2 h-56 a2,2 0 0 1 -2,-2 v0 a2,2 0 0 1 2,-2" clip-path="url(#satori_cp-id)" mask="url(#satori_om-id)"/></g><mask id="satori_om-id-1-3-2-2"><rect x="661" y="188" width="35" height="12" fill="#fff" mask="url(#satori_om-id)"/></mask><g mask="url(#satori_om-id)" clip-path="url(#satori_cp-id)"><path fill="rgba(123,98,97,0.7)" d="M678.1 190.7L679.2 190.7L679.2 198L678.3 198L678.3 191.6L678.2 191.6L676.5 192.9L676.5 191.9L678.1 190.7ZM683.0 198.1L683.0 198.1Q682.3 198.1 681.8 197.8Q681.3 197.6 681.0 197.2Q680.7 196.7 680.7 196.2L680.7 196.2L681.6 196.2Q681.6 196.5 681.8 196.7Q682.0 197.0 682.3 197.1Q682.6 197.3 683.0 197.3L683.0 197.3Q683.4 197.3 683.8 197.1Q684.1 196.9 684.3 196.5Q684.5 196.1 684.5 195.7L684.5 195.7Q684.5 195.2 684.3 194.9Q684.1 194.5 683.7 194.3Q683.4 194.1 682.9 194.1L682.9 194.1Q682.6 194.1 682.2 194.2Q681.9 194.3 681.7 194.4L681.7 194.4L680.8 194.3L681.2 190.7L685.1 190.7L685.1 191.5L682.0 191.5L681.8 193.7L681.8 193.7Q682.0 193.5 682.4 193.4Q682.7 193.2 683.1 193.2L683.1 193.2Q683.6 193.2 684.0 193.4Q684.4 193.6 684.7 193.9Q685.1 194.3 685.2 194.7Q685.4 195.1 685.4 195.7L685.4 195.7Q685.4 196.4 685.1 196.9Q684.8 197.5 684.2 197.8Q683.7 198.1 683.0 198.1ZM688.6 193.9L688.6 193.9Q688.1 193.9 687.8 193.7Q687.5 193.5 687.3 193.2Q687.1 192.9 687.1 192.5L687.1 192.5L687.1 192.1Q687.1 191.7 687.3 191.3Q687.5 191.0 687.8 190.8Q688.1 190.6 688.6 190.6L688.6 190.6Q689.0 190.6 689.3 190.8Q689.7 191.0 689.8 191.3Q690.0 191.7 690.0 192.1L690.0 192.1L690.0 192.5Q690.0 192.9 689.8 193.2Q689.6 193.5 689.3 193.7Q689.0 193.9 688.6 193.9ZM688.6 193.3L688.6 193.3Q688.9 193.3 689.1 193.0Q689.2 192.8 689.2 192.5L689.2 192.5L689.2 192.1Q689.2 191.8 689.1 191.5Q688.9 191.2 688.6 191.2L688.6 191.2Q688.2 191.2 688.0 191.5Q687.9 191.8 687.9 192.1L687.9 192.1L687.9 192.5Q687.9 192.8 688.0 193.0Q688.2 193.3 688.6 193.3ZM693.3 198.1L693.3 198.1Q692.8 198.1 692.5 197.9Q692.2 197.7 692.0 197.4Q691.8 197.1 691.8 196.7L691.8 196.7L691.8 196.3Q691.8 195.9 692.0 195.5Q692.2 195.2 692.5 195.0Q692.8 194.8 693.3 194.8L693.3 194.8Q693.7 194.8 694.1 195.0Q694.4 195.2 694.5 195.5Q694.7 195.9 694.7 196.3L694.7 196.3L694.7 196.7Q694.7 197.1 694.5 197.4Q694.4 197.7 694.1 197.9Q693.7 198.1 693.3 198.1ZM693.3 197.5L693.3 197.5Q693.6 197.5 693.8 197.2Q693.9 197.0 693.9 196.7L693.9 196.7L693.9 196.3Q693.9 196.0 693.8 195.7Q693.7 195.4 693.3 195.4L693.3 195.4Q692.9 195.4 692.8 195.7Q692.6 196.0 692.6 196.3L692.6 196.3L692.6 196.7Q692.6 197.0 692.7 197.2Q692.9 197.5 693.3 197.5ZM688.8 198L688.0 198L693.0 190.7L693.8 190.7L688.8 198Z "/></g><mask id="satori_om-id-1-3-3"><rect x="164" y="210" width="532" height="13" fill="#fff" mask="url(#satori_om-id)"/></mask><mask id="satori_om-id-1-3-3-0"><rect x="164" y="210" width="70" height="13" fill="#fff" mask="url(#satori_om-id)"/></mask><g mask="url(#satori_om-id)" clip-path="url(#satori_cp-id)"><path fill="rgba(153,145,137,0.8)" d="M166.0 221L165.0 221L165.0 213.0L167.7 213.0Q168.6 213.0 169.2 213.3Q169.8 213.6 170.1 214.2Q170.4 214.8 170.4 215.5Q170.4 216.2 170.1 216.7Q169.8 217.3 169.2 217.6L169.2 217.6Q169.1 217.7 169.0 217.7L169.0 217.7L170.7 221L169.6 221L167.9 217.9Q167.8 217.9 167.7 217.9L167.7 217.9L166.0 217.9L166.0 221ZM166.0 213.9L166.0 217.0L167.7 217.0Q168.3 217.0 168.7 216.8Q169.1 216.6 169.2 216.3Q169.4 215.9 169.4 215.5L169.4 215.5Q169.4 215.0 169.2 214.6Q169.1 214.3 168.7 214.1Q168.3 213.9 167.7 213.9L167.7 213.9L166.0 213.9ZM175.0 221.1L175.0 221.1Q174.4 221.1 173.9 220.8Q173.4 220.6 173.2 220.1Q172.9 219.6 172.9 218.8L172.9 218.8L172.9 215.0L173.9 215.0L173.9 218.7Q173.9 219.4 174.3 219.8Q174.6 220.2 175.3 220.2L175.3 220.2Q175.7 220.2 176.0 220.0Q176.4 219.8 176.6 219.5Q176.8 219.1 176.8 218.6L176.8 218.6L176.8 215.0L177.7 215.0L177.7 221L176.8 221L176.8 219.9Q176.5 220.5 176.1 220.7L176.1 220.7Q175.6 221.1 175.0 221.1ZM182.5 221.1L182.5 221.1Q181.9 221.1 181.4 220.9Q180.9 220.8 180.6 220.4Q180.3 220.1 180.2 219.5L180.2 219.5L181.1 219.3Q181.2 219.8 181.6 220.0Q181.9 220.3 182.5 220.3L182.5 220.3Q183.1 220.3 183.5 220.0Q183.8 219.7 183.8 219.4L183.8 219.4Q183.8 219.1 183.6 218.9Q183.4 218.6 183.0 218.5L183.0 218.5L182.0 218.3Q181.1 218.1 180.7 217.7Q180.3 217.3 180.3 216.7L180.3 216.7Q180.3 216.2 180.6 215.8Q180.9 215.4 181.4 215.1Q181.9 214.9 182.6 214.9L182.6 214.9Q183.2 214.9 183.6 215.1Q184.1 215.3 184.3 215.6Q184.6 215.9 184.7 216.4L184.7 216.4L183.9 216.6Q183.7 216.3 183.4 216.0Q183.2 215.7 182.6 215.7L182.6 215.7Q182.0 215.7 181.7 216.0Q181.3 216.2 181.3 216.6L181.3 216.6Q181.3 216.9 181.6 217.1Q181.8 217.3 182.3 217.5L182.3 217.5L183.2 217.7Q184.1 217.9 184.4 218.3Q184.8 218.7 184.8 219.3L184.8 219.3Q184.8 219.8 184.5 220.2Q184.2 220.7 183.7 220.9Q183.2 221.1 182.5 221.1ZM188.4 215.0L189.6 215.0L189.6 215.8L188.4 215.8L188.4 219.4Q188.4 219.8 188.5 220.0Q188.7 220.2 189.1 220.2L189.1 220.2Q189.2 220.2 189.3 220.2Q189.5 220.2 189.6 220.2L189.6 220.2L189.8 221.0Q189.6 221.0 189.4 221.0Q189.2 221.1 189.0 221.1L189.0 221.1Q188.3 221.1 187.8 220.7Q187.4 220.3 187.4 219.5L187.4 219.5L187.4 215.8L186.5 215.8L186.5 215.0L187.4 215.0L187.4 213.6L188.4 213.6L188.4 215.0Z "/></g><mask id="satori_om-id-1-3-3-1"><rect x="246" y="215" width="403" height="4" fill="#fff" mask="url(#satori_om-id)"/></mask><path x="246" y="215" width="403" height="4" fill="rgba(68,33,40,0.5)" d="M248,215 h399 a2,2 0 0 1 2,2 v0 a2,2 0 0 1 -2,2 h-399 a2,2 0 0 1 -2,-2 v0 a2,2 0 0 1 2,-2" clip-path="url(#satori_cp-id)" mask="url(#satori_om-id)"/><mask id="satori_om-id-1-3-3-1-0"><rect x="246" y="215" width="40" height="4" fill="#fff" mask="url(#satori_om-id)"/></mask><g opacity="0.7"><path x="246" y="215" width="40" height="4" fill="#d99d87" d="M248,215 h36 a2,2 0 0 1 2,2 v0 a2,2 0 0 1 -2,2 h-36 a2,2 0 0 1 -2,-2 v0 a2,2 0 0 1 2,-2" clip-path="url(#satori_cp-id)" mask="url(#satori_om-id)"/></g><mask id="satori_om-id-1-3-3-2"><rect x="661" y="211" width="35" height="12" fill="#fff" mask="url(#satori_om-id)"/></mask><g mask="url(#satori_om-id)" clip-path="url(#satori_cp-id)"><path fill="rgba(123,98,97,0.7)" d="M677.1 213.7L678.2 213.7L678.2 221L677.3 221L677.3 214.6L677.2 214.6L675.5 215.9L675.5 214.9L677.1 213.7ZM682.2 221.1L682.2 221.1Q681.4 221.1 680.8 220.7Q680.3 220.2 680.0 219.4Q679.7 218.6 679.7 217.4L679.7 217.4Q679.7 216.2 680.0 215.4Q680.3 214.5 680.8 214.1Q681.4 213.6 682.2 213.6L682.2 213.6Q683.0 213.6 683.6 214.1Q684.2 214.5 684.5 215.4Q684.8 216.2 684.8 217.4L684.8 217.4Q684.8 218.5 684.5 219.4Q684.2 220.2 683.6 220.7Q683.0 221.1 682.2 221.1ZM682.2 220.3L682.2 220.3Q682.8 220.3 683.1 219.9Q683.5 219.6 683.7 218.9Q683.9 218.3 683.9 217.4L683.9 217.4Q683.9 216.4 683.7 215.8Q683.5 215.1 683.1 214.8Q682.8 214.4 682.2 214.4L682.2 214.4Q681.7 214.4 681.3 214.8Q680.9 215.1 680.8 215.8Q680.6 216.4 680.6 217.4L680.6 217.4Q680.6 218.3 680.8 218.9Q680.9 219.6 681.3 219.9Q681.7 220.3 682.2 220.3ZM687.9 216.9L687.9 216.9Q687.5 216.9 687.1 216.7Q686.8 216.5 686.7 216.2Q686.5 215.9 686.5 215.5L686.5 215.5L686.5 215.1Q686.5 214.7 686.7 214.3Q686.8 214.0 687.2 213.8Q687.5 213.6 687.9 213.6L687.9 213.6Q688.4 213.6 688.7 213.8Q689.0 214.0 689.2 214.3Q689.4 214.7 689.4 215.1L689.4 215.1L689.4 215.5Q689.4 215.9 689.2 216.2Q689.0 216.5 688.7 216.7Q688.4 216.9 687.9 216.9ZM687.9 216.3L687.9 216.3Q688.3 216.3 688.5 216.0Q688.6 215.8 688.6 215.5L688.6 215.5L688.6 215.1Q688.6 214.8 688.5 214.5Q688.3 214.2 687.9 214.2L687.9 214.2Q687.6 214.2 687.4 214.5Q687.2 214.8 687.2 215.1L687.2 215.1L687.2 215.5Q687.2 215.8 687.4 216.0Q687.6 216.3 687.9 216.3ZM692.7 221.1L692.7 221.1Q692.2 221.1 691.9 220.9Q691.5 220.7 691.4 220.4Q691.2 220.1 691.2 219.7L691.2 219.7L691.2 219.3Q691.2 218.9 691.4 218.5Q691.6 218.2 691.9 218.0Q692.2 217.8 692.7 217.8L692.7 217.8Q693.1 217.8 693.4 218.0Q693.8 218.2 693.9 218.5Q694.1 218.9 694.1 219.3L694.1 219.3L694.1 219.7Q694.1 220.1 693.9 220.4Q693.7 220.7 693.4 220.9Q693.1 221.1 692.7 221.1ZM692.7 220.5L692.7 220.5Q693.0 220.5 693.2 220.2Q693.3 220.0 693.3 219.7L693.3 219.7L693.3 219.3Q693.3 219.0 693.2 218.7Q693.0 218.4 692.7 218.4L692.7 218.4Q692.3 218.4 692.1 218.7Q692.0 219.0 692.0 219.3L692.0 219.3L692.0 219.7Q692.0 220.0 692.1 220.2Q692.3 220.5 692.7 220.5ZM688.2 221L687.3 221L692.3 213.7L693.2 213.7L688.2 221Z "/></g><mask id="satori_om-id-1-3-4"><rect x="164" y="233" width="532" height="13" fill="#fff" mask="url(#satori_om-id)"/></mask><mask id="satori_om-id-1-3-4-0"><rect x="164" y="233" width="70" height="13" fill="#fff" mask="url(#satori_om-id)"/></mask><g mask="url(#satori_om-id)" clip-path="url(#satori_cp-id)"><path fill="rgba(153,145,137,0.8)" d="M168.2 244.1L168.2 244.1Q167.2 244.1 166.4 243.6Q165.6 243.1 165.1 242.2Q164.7 241.3 164.7 240.0L164.7 240.0Q164.7 238.7 165.1 237.8Q165.6 236.9 166.4 236.4Q167.1 235.9 168.2 235.9L168.2 235.9Q168.8 235.9 169.4 236.1Q169.9 236.3 170.3 236.6Q170.8 237.0 171.1 237.4Q171.4 237.9 171.5 238.5L171.5 238.5L170.4 238.5Q170.3 238.1 170.1 237.8Q169.9 237.5 169.6 237.3Q169.3 237.1 169.0 237.0Q168.6 236.8 168.2 236.8L168.2 236.8Q167.5 236.8 166.9 237.2Q166.3 237.6 166.0 238.3Q165.6 239.0 165.6 240.0L165.6 240.0Q165.6 241.0 166.0 241.7Q166.3 242.4 166.9 242.8Q167.5 243.2 168.2 243.2L168.2 243.2Q168.9 243.2 169.4 242.9Q169.9 242.6 170.2 242.1L170.2 242.1Q170.5 241.6 170.5 240.9L170.5 240.9L168.4 240.9L168.4 240.0L171.5 240.0L171.5 240.9Q171.5 241.8 171.1 242.6Q170.7 243.3 169.9 243.7Q169.2 244.1 168.2 244.1ZM176.5 244.1L176.5 244.1Q175.7 244.1 175.1 243.7Q174.5 243.4 174.1 242.7Q173.8 242.0 173.8 241.0L173.8 241.0Q173.8 240.1 174.1 239.4Q174.5 238.7 175.1 238.3Q175.7 237.9 176.5 237.9L176.5 237.9Q177.3 237.9 177.9 238.3Q178.6 238.7 178.9 239.4Q179.2 240.1 179.2 241.0L179.2 241.0Q179.2 242.0 178.9 242.7Q178.6 243.4 177.9 243.7Q177.3 244.1 176.5 244.1ZM176.5 243.3L176.5 243.3Q177.1 243.3 177.5 243.0Q177.9 242.6 178.1 242.1Q178.3 241.6 178.3 241.0L178.3 241.0Q178.3 240.4 178.1 239.9Q177.9 239.4 177.5 239.1Q177.1 238.8 176.5 238.8L176.5 238.8Q175.9 238.8 175.5 239.1Q175.1 239.4 174.9 239.9Q174.7 240.4 174.7 241.0L174.7 241.0Q174.7 241.6 174.9 242.1Q175.1 242.6 175.5 243.0Q175.9 243.3 176.5 243.3Z "/></g><mask id="satori_om-id-1-3-4-1"><rect x="246" y="238" width="403" height="4" fill="#fff" mask="url(#satori_om-id)"/></mask><path x="246" y="238" width="403" height="4" fill="rgba(68,33,40,0.5)" d="M248,238 h399 a2,2 0 0 1 2,2 v0 a2,2 0 0 1 -2,2 h-399 a2,2 0 0 1 -2,-2 v0 a2,2 0 0 1 2,-2" clip-path="url(#satori_cp-id)" mask="url(#satori_om-id)"/><mask id="satori_om-id-1-3-4-1-0"><rect x="246" y="238" width="20" height="4" fill="#fff" mask="url(#satori_om-id)"/></mask><g opacity="0.7"><path x="246" y="238" width="20" height="4" fill="#d99d87" d="M248,238 h16 a2,2 0 0 1 2,2 v0 a2,2 0 0 1 -2,2 h-16 a2,2 0 0 1 -2,-2 v0 a2,2 0 0 1 2,-2" clip-path="url(#satori_cp-id)" mask="url(#satori_om-id)"/></g><mask id="satori_om-id-1-3-4-2"><rect x="661" y="234" width="35" height="12" fill="#fff" mask="url(#satori_om-id)"/></mask><g mask="url(#satori_om-id)" clip-path="url(#satori_cp-id)"><path fill="rgba(123,98,97,0.7)" d="M682.9 244.1L682.9 244.1Q682.3 244.1 681.8 243.8Q681.3 243.6 681.0 243.2Q680.6 242.7 680.6 242.2L680.6 242.2L681.5 242.2Q681.6 242.5 681.7 242.7Q681.9 243.0 682.2 243.1Q682.5 243.3 682.9 243.3L682.9 243.3Q683.3 243.3 683.7 243.1Q684.0 242.9 684.2 242.5Q684.4 242.1 684.4 241.7L684.4 241.7Q684.4 241.2 684.2 240.9Q684.0 240.5 683.7 240.3Q683.3 240.1 682.9 240.1L682.9 240.1Q682.5 240.1 682.2 240.2Q681.8 240.3 681.6 240.4L681.6 240.4L680.7 240.3L681.2 236.7L685.0 236.7L685.0 237.5L681.9 237.5L681.7 239.7L681.7 239.7Q682.0 239.5 682.3 239.4Q682.6 239.2 683.0 239.2L683.0 239.2Q683.5 239.2 683.9 239.4Q684.4 239.6 684.7 239.9Q685.0 240.3 685.2 240.7Q685.3 241.1 685.3 241.7L685.3 241.7Q685.3 242.4 685.0 242.9Q684.7 243.5 684.2 243.8Q683.6 244.1 682.9 244.1ZM688.5 239.9L688.5 239.9Q688.0 239.9 687.7 239.7Q687.4 239.5 687.2 239.2Q687.1 238.9 687.1 238.5L687.1 238.5L687.1 238.1Q687.1 237.7 687.2 237.3Q687.4 237.0 687.7 236.8Q688.0 236.6 688.5 236.6L688.5 236.6Q689.0 236.6 689.3 236.8Q689.6 237.0 689.7 237.3Q689.9 237.7 689.9 238.1L689.9 238.1L689.9 238.5Q689.9 238.9 689.7 239.2Q689.6 239.5 689.3 239.7Q689.0 239.9 688.5 239.9ZM688.5 239.3L688.5 239.3Q688.9 239.3 689.0 239.0Q689.2 238.8 689.2 238.5L689.2 238.5L689.2 238.1Q689.2 237.8 689.0 237.5Q688.9 237.2 688.5 237.2L688.5 237.2Q688.1 237.2 688.0 237.5Q687.8 237.8 687.8 238.1L687.8 238.1L687.8 238.5Q687.8 238.8 688.0 239.0Q688.1 239.3 688.5 239.3ZM693.2 244.1L693.2 244.1Q692.7 244.1 692.4 243.9Q692.1 243.7 691.9 243.4Q691.8 243.1 691.8 242.7L691.8 242.7L691.8 242.3Q691.8 241.9 691.9 241.5Q692.1 241.2 692.4 241.0Q692.7 240.8 693.2 240.8L693.2 240.8Q693.7 240.8 694.0 241.0Q694.3 241.2 694.5 241.5Q694.6 241.9 694.6 242.3L694.6 242.3L694.6 242.7Q694.6 243.1 694.5 243.4Q694.3 243.7 694.0 243.9Q693.7 244.1 693.2 244.1ZM693.2 243.5L693.2 243.5Q693.6 243.5 693.7 243.2Q693.9 243.0 693.9 242.7L693.9 242.7L693.9 242.3Q693.9 242.0 693.7 241.7Q693.6 241.4 693.2 241.4L693.2 241.4Q692.8 241.4 692.7 241.7Q692.5 242.0 692.5 242.3L692.5 242.3L692.5 242.7Q692.5 243.0 692.7 243.2Q692.8 243.5 693.2 243.5ZM688.7 244L687.9 244L692.9 236.7L693.7 236.7L688.7 244Z "/></g></svg>