<svg width="360" height="132" xmlns="http://www.w3.org/2000/svg">
  <rect width="360" height="132" rx="14" ry="14" fill="#ffffff" stroke="#CF7381" stroke-width="1.5"/>
  <text x="20" y="32" font-family="monospace" font-size="11" fill="#795654" letter-spacing="2">FRAMEWORKS & LIBRARIES</text>
  <line x1="20" y1="42" x2="340" y2="42" stroke="#CF7381" stroke-width="1"/>
    <!-- frame --><rect x="20" y="56" width="80" height="34" rx="9" ry="9" fill="none" stroke="#CF7381" stroke-width="1" opacity="0.55"/>  <!-- badge --><rect x="24" y="60" width="72" height="26" rx="6" ry="6" fill="#fff0f2"/><text x="60" y="77" font-family="monospace" font-size="12" fill="#531C24" text-anchor="middle">Flutter</text>  <!-- frame --><rect x="112" y="56" width="58" height="34" rx="9" ry="9" fill="none" stroke="#CF7381" stroke-width="1" opacity="0.55"/>  <!-- badge --><rect x="116" y="60" width="50" height="26" rx="6" ry="6" fill="#fff0f2"/><text x="141" y="77" font-family="monospace" font-size="12" fill="#531C24" text-anchor="middle">GetX</text>  <!-- frame --><rect x="182" y="56" width="58" height="34" rx="9" ry="9" fill="none" stroke="#CF7381" stroke-width="1" opacity="0.55"/>  <!-- badge --><rect x="186" y="60" width="50" height="26" rx="6" ry="6" fill="#fff0f2"/><text x="211" y="77" font-family="monospace" font-size="12" fill="#531C24" text-anchor="middle">BLoC</text>  <!-- frame --><rect x="252" y="56" width="50" height="34" rx="9" ry="9" fill="none" stroke="#CF7381" stroke-width="1" opacity="0.55"/>  <!-- badge --><rect x="256" y="60" width="42" height="26" rx="6" ry="6" fill="#fff0f2"/><text x="277" y="77" font-family="monospace" font-size="12" fill="#531C24" text-anchor="middle">Dio</text>
</svg>