<svg width="360" height="168" xmlns="http://www.w3.org/2000/svg">
  <rect width="360" height="168" rx="14" ry="14" fill="#ffffff" stroke="#CF7381" stroke-width="1.5"/>
  <text x="20" y="32" font-family="monospace" font-size="11" fill="#795654" letter-spacing="2">DESIGN & TOOLS</text>
  <line x1="20" y1="42" x2="340" y2="42" stroke="#CF7381" stroke-width="1"/>
    <!-- frame --><rect x="20" y="56" width="73" height="34" rx="9" ry="9" fill="none" stroke="#CF7381" stroke-width="1" opacity="0.55"/>  <!-- badge --><rect x="24" y="60" width="65" height="26" rx="6" ry="6" fill="#fff0f2"/><text x="56" y="77" font-family="monospace" font-size="12" fill="#531C24" text-anchor="middle">GitHub</text>  <!-- frame --><rect x="105" y="56" width="50" height="34" rx="9" ry="9" fill="none" stroke="#CF7381" stroke-width="1" opacity="0.55"/>  <!-- badge --><rect x="109" y="60" width="42" height="26" rx="6" ry="6" fill="#fff0f2"/><text x="130" y="77" font-family="monospace" font-size="12" fill="#531C24" text-anchor="middle">Git</text>  <!-- frame --><rect x="167" y="56" width="80" height="34" rx="9" ry="9" fill="none" stroke="#CF7381" stroke-width="1" opacity="0.55"/>  <!-- badge --><rect x="171" y="60" width="72" height="26" rx="6" ry="6" fill="#fff0f2"/><text x="207" y="77" font-family="monospace" font-size="12" fill="#531C24" text-anchor="middle">VS Code</text>  <!-- frame --><rect x="259" y="56" width="65" height="34" rx="9" ry="9" fill="none" stroke="#CF7381" stroke-width="1" opacity="0.55"/>  <!-- badge --><rect x="263" y="60" width="57" height="26" rx="6" ry="6" fill="#fff0f2"/><text x="291" y="77" font-family="monospace" font-size="12" fill="#531C24" text-anchor="middle">Figma</text>  <!-- frame --><rect x="20" y="96" width="80" height="34" rx="9" ry="9" fill="none" stroke="#CF7381" stroke-width="1" opacity="0.55"/>  <!-- badge --><rect x="24" y="100" width="72" height="26" rx="6" ry="6" fill="#fff0f2"/><text x="60" y="117" font-family="monospace" font-size="12" fill="#531C24" text-anchor="middle">Postman</text>
</svg>